G04 #@! TF.FileFunction,Copper,L1,Top,Signal*
%FSLAX46Y46*%
G04 Gerber Fmt 4.6, Leading zero omitted, Abs format (unit mm)*
G04 Created by KiCad (PCBNEW 4.0.6) date Tuesday, June 06, 2017 'PMt' 02:35:44 PM*
%MOMM*%
%LPD*%
G01*
G04 APERTURE LIST*
%ADD10C,0.100000*%
%ADD11R,1.700000X1.700000*%
%ADD12O,1.700000X1.700000*%
%ADD13C,1.750000*%
%ADD14C,1.524000*%
%ADD15R,1.600000X1.600000*%
%ADD16O,1.600000X1.600000*%
%ADD17C,1.270000*%
%ADD18C,1.600000*%
%ADD19C,5.080000*%
%ADD20C,0.600000*%
%ADD21C,1.270000*%
%ADD22C,0.500000*%
%ADD23C,0.890000*%
%ADD24C,0.254000*%
G04 APERTURE END LIST*
D10*
D11*
X121920000Y-86360000D03*
D12*
X124460000Y-86360000D03*
X127000000Y-86360000D03*
X129540000Y-86360000D03*
X132080000Y-86360000D03*
X134620000Y-86360000D03*
D13*
X122660000Y-107740000D03*
D14*
X124460000Y-111760000D03*
X125730000Y-109220000D03*
X127000000Y-111760000D03*
X128270000Y-109220000D03*
D13*
X130070000Y-107740000D03*
X122660000Y-117900000D03*
D14*
X124460000Y-121920000D03*
X125730000Y-119380000D03*
X127000000Y-121920000D03*
X128270000Y-119380000D03*
D13*
X130070000Y-117900000D03*
D14*
X101600000Y-104140000D03*
X101600000Y-106680000D03*
X101600000Y-111760000D03*
X101600000Y-109220000D03*
X83820000Y-106680000D03*
X83820000Y-109220000D03*
X83820000Y-114300000D03*
X83820000Y-111760000D03*
X129540000Y-90170000D03*
X132080000Y-90170000D03*
X137160000Y-90170000D03*
X134620000Y-90170000D03*
D15*
X106680000Y-96520000D03*
D16*
X114300000Y-114300000D03*
X106680000Y-99060000D03*
X114300000Y-111760000D03*
X106680000Y-101600000D03*
X114300000Y-109220000D03*
X106680000Y-104140000D03*
X114300000Y-106680000D03*
X106680000Y-106680000D03*
X114300000Y-104140000D03*
X106680000Y-109220000D03*
X114300000Y-101600000D03*
X106680000Y-111760000D03*
X114300000Y-99060000D03*
X106680000Y-114300000D03*
X114300000Y-96520000D03*
D15*
X88900000Y-96520000D03*
D16*
X96520000Y-114300000D03*
X88900000Y-99060000D03*
X96520000Y-111760000D03*
X88900000Y-101600000D03*
X96520000Y-109220000D03*
X88900000Y-104140000D03*
X96520000Y-106680000D03*
X88900000Y-106680000D03*
X96520000Y-104140000D03*
X88900000Y-109220000D03*
X96520000Y-101600000D03*
X88900000Y-111760000D03*
X96520000Y-99060000D03*
X88900000Y-114300000D03*
X96520000Y-96520000D03*
D15*
X129540000Y-93980000D03*
D16*
X137160000Y-101600000D03*
X129540000Y-96520000D03*
X137160000Y-99060000D03*
X129540000Y-99060000D03*
X137160000Y-96520000D03*
X129540000Y-101600000D03*
X137160000Y-93980000D03*
D17*
X116840000Y-91440000D03*
D18*
X83820000Y-96520000D03*
D16*
X83820000Y-104140000D03*
D18*
X139700000Y-114300000D03*
D16*
X139700000Y-106680000D03*
D18*
X134620000Y-114300000D03*
D16*
X134620000Y-106680000D03*
D18*
X134620000Y-124460000D03*
D16*
X134620000Y-116840000D03*
D18*
X121920000Y-101600000D03*
D16*
X121920000Y-93980000D03*
D19*
X139700000Y-121920000D03*
X139700000Y-83820000D03*
X86360000Y-121920000D03*
X86360000Y-83820000D03*
D17*
X114300000Y-91440000D03*
D11*
X104140000Y-88900000D03*
D12*
X104140000Y-86360000D03*
X101600000Y-88900000D03*
X101600000Y-86360000D03*
D11*
X93980000Y-88900000D03*
D12*
X93980000Y-86360000D03*
X91440000Y-88900000D03*
X91440000Y-86360000D03*
D11*
X111760000Y-86360000D03*
D12*
X114300000Y-86360000D03*
D11*
X109220000Y-119380000D03*
D12*
X109220000Y-121920000D03*
X106680000Y-119380000D03*
X106680000Y-121920000D03*
X104140000Y-119380000D03*
X104140000Y-121920000D03*
X101600000Y-119380000D03*
X101600000Y-121920000D03*
X99060000Y-119380000D03*
X99060000Y-121920000D03*
X96520000Y-119380000D03*
X96520000Y-121920000D03*
X93980000Y-119380000D03*
X93980000Y-121920000D03*
D20*
X130175000Y-92075000D03*
X120015000Y-92075000D03*
X132080000Y-121920000D03*
X139700000Y-101600000D03*
X134620000Y-120650000D03*
X101600000Y-101600000D03*
X93980000Y-113030000D03*
X93980000Y-110490000D03*
X93980000Y-101600000D03*
X83820000Y-101600000D03*
X102870000Y-115570000D03*
X93980000Y-115570000D03*
X91440000Y-118110000D03*
X99060000Y-93980000D03*
X101600000Y-96520000D03*
X111760000Y-96520000D03*
X104140000Y-95250000D03*
X110490000Y-97790000D03*
X86360000Y-96520000D03*
X92710000Y-91440000D03*
X92710000Y-97790000D03*
X90170000Y-91440000D03*
X91440000Y-96520000D03*
X99060000Y-99060000D03*
X90170000Y-113030000D03*
X90170000Y-118110000D03*
X92710000Y-125730000D03*
X116840000Y-93980000D03*
X137160000Y-104140000D03*
D21*
X118110000Y-96520000D02*
X119380000Y-95250000D01*
X119380000Y-95250000D02*
X119380000Y-92710000D01*
X119380000Y-92710000D02*
X120015000Y-92075000D01*
X132080000Y-90170000D02*
X130175000Y-92075000D01*
X118110000Y-96520000D02*
X114300000Y-96520000D01*
X96520000Y-96520000D02*
X93980000Y-93980000D01*
X86360000Y-93980000D02*
X83820000Y-96520000D01*
X93980000Y-93980000D02*
X86360000Y-93980000D01*
X132080000Y-114300000D02*
X132080000Y-109220000D01*
X132080000Y-109220000D02*
X134620000Y-106680000D01*
X127000000Y-114300000D02*
X124460000Y-111760000D01*
X132080000Y-114300000D02*
X127000000Y-114300000D01*
X132080000Y-121920000D02*
X132080000Y-114300000D01*
X110490000Y-92710000D02*
X110490000Y-87630000D01*
X110490000Y-87630000D02*
X111760000Y-86360000D01*
X137160000Y-93980000D02*
X134620000Y-96520000D01*
X134620000Y-96520000D02*
X134620000Y-106680000D01*
X134620000Y-90170000D02*
X137160000Y-92710000D01*
X137160000Y-92710000D02*
X137160000Y-93980000D01*
X132080000Y-90170000D02*
X130175000Y-88265000D01*
X128905000Y-88265000D02*
X127000000Y-86360000D01*
X130175000Y-88265000D02*
X128905000Y-88265000D01*
X132080000Y-90170000D02*
X134620000Y-90170000D01*
X114300000Y-96520000D02*
X110490000Y-92710000D01*
X110490000Y-92710000D02*
X102870000Y-92710000D01*
X99060000Y-96520000D02*
X96520000Y-96520000D01*
X102870000Y-92710000D02*
X99060000Y-96520000D01*
D22*
X139700000Y-101600000D02*
X139700000Y-106680000D01*
D21*
X124460000Y-86360000D02*
X124460000Y-85090000D01*
X137160000Y-86360000D02*
X137160000Y-90170000D01*
X134620000Y-83820000D02*
X137160000Y-86360000D01*
X125730000Y-83820000D02*
X134620000Y-83820000D01*
X124460000Y-85090000D02*
X125730000Y-83820000D01*
X129540000Y-90170000D02*
X128270000Y-90170000D01*
X128270000Y-90170000D02*
X124460000Y-86360000D01*
X134620000Y-124460000D02*
X111760000Y-124460000D01*
X111760000Y-124460000D02*
X109220000Y-121920000D01*
D22*
X129540000Y-96520000D02*
X132080000Y-99060000D01*
X128270000Y-105410000D02*
X128270000Y-109220000D01*
X132080000Y-101600000D02*
X128270000Y-105410000D01*
X132080000Y-99060000D02*
X132080000Y-101600000D01*
X129540000Y-96520000D02*
X129540000Y-93980000D01*
D21*
X106680000Y-114300000D02*
X110490000Y-114300000D01*
X118110000Y-121920000D02*
X124460000Y-121920000D01*
X110490000Y-114300000D02*
X118110000Y-121920000D01*
X104140000Y-116840000D02*
X91440000Y-116840000D01*
X91440000Y-116840000D02*
X88900000Y-114300000D01*
X101600000Y-106680000D02*
X101600000Y-109220000D01*
X101600000Y-109220000D02*
X106680000Y-114300000D01*
X106680000Y-114300000D02*
X104140000Y-116840000D01*
X104140000Y-116840000D02*
X104140000Y-119380000D01*
X83820000Y-109220000D02*
X83820000Y-111760000D01*
X86360000Y-114300000D02*
X88900000Y-114300000D01*
X83820000Y-111760000D02*
X86360000Y-114300000D01*
D22*
X105410000Y-125730000D02*
X101600000Y-121920000D01*
X137160000Y-124460000D02*
X134620000Y-121920000D01*
X137160000Y-125730000D02*
X137160000Y-124460000D01*
X105410000Y-125730000D02*
X137160000Y-125730000D01*
X134620000Y-120650000D02*
X134620000Y-121920000D01*
X125730000Y-119380000D02*
X125730000Y-118110000D01*
X119380000Y-111760000D02*
X114300000Y-111760000D01*
X125730000Y-118110000D02*
X119380000Y-111760000D01*
X128270000Y-119380000D02*
X128270000Y-118110000D01*
X119380000Y-104140000D02*
X114300000Y-99060000D01*
X119380000Y-109220000D02*
X119380000Y-104140000D01*
X128270000Y-118110000D02*
X119380000Y-109220000D01*
X100330000Y-102870000D02*
X101600000Y-101600000D01*
X100330000Y-110490000D02*
X100330000Y-102870000D01*
X96520000Y-114300000D02*
X100330000Y-110490000D01*
X106680000Y-96520000D02*
X109220000Y-99060000D01*
X109220000Y-99060000D02*
X109220000Y-109220000D01*
X109220000Y-109220000D02*
X114300000Y-114300000D01*
X95250000Y-114300000D02*
X96520000Y-114300000D01*
X93980000Y-113030000D02*
X95250000Y-114300000D01*
X93980000Y-101600000D02*
X93980000Y-110490000D01*
X83820000Y-104140000D02*
X83820000Y-101600000D01*
X99060000Y-121920000D02*
X96520000Y-124460000D01*
X93980000Y-115570000D02*
X102870000Y-115570000D01*
X91440000Y-124460000D02*
X91440000Y-118110000D01*
X96520000Y-124460000D02*
X91440000Y-124460000D01*
D23*
X106680000Y-109220000D02*
X104140000Y-106680000D01*
X101600000Y-91440000D02*
X101600000Y-88900000D01*
X99060000Y-93980000D02*
X101600000Y-91440000D01*
X101600000Y-99060000D02*
X101600000Y-96520000D01*
X104140000Y-101600000D02*
X101600000Y-99060000D01*
X104140000Y-106680000D02*
X104140000Y-101600000D01*
X114300000Y-101600000D02*
X111760000Y-99060000D01*
X111760000Y-99060000D02*
X111760000Y-96520000D01*
X106680000Y-101600000D02*
X104140000Y-99060000D01*
X104140000Y-99060000D02*
X104140000Y-95250000D01*
X114300000Y-109220000D02*
X113030000Y-109220000D01*
X110490000Y-106680000D02*
X110490000Y-97790000D01*
X113030000Y-109220000D02*
X110490000Y-106680000D01*
X88900000Y-109220000D02*
X87630000Y-109220000D01*
X86360000Y-107950000D02*
X86360000Y-96520000D01*
X87630000Y-109220000D02*
X86360000Y-107950000D01*
X96520000Y-101600000D02*
X92710000Y-97790000D01*
X95250000Y-86360000D02*
X93980000Y-86360000D01*
X96520000Y-87630000D02*
X95250000Y-86360000D01*
X96520000Y-91440000D02*
X96520000Y-87630000D01*
X92710000Y-91440000D02*
X96520000Y-91440000D01*
X88900000Y-101600000D02*
X91440000Y-99060000D01*
X88900000Y-88900000D02*
X91440000Y-86360000D01*
X88900000Y-90170000D02*
X88900000Y-88900000D01*
X90170000Y-91440000D02*
X88900000Y-90170000D01*
X91440000Y-99060000D02*
X91440000Y-96520000D01*
X96520000Y-109220000D02*
X99060000Y-106680000D01*
X99060000Y-106680000D02*
X99060000Y-99060000D01*
D22*
X91440000Y-111760000D02*
X96520000Y-111760000D01*
X90170000Y-113030000D02*
X91440000Y-111760000D01*
X90170000Y-125730000D02*
X90170000Y-118110000D01*
X92710000Y-125730000D02*
X90170000Y-125730000D01*
X121920000Y-86360000D02*
X121920000Y-85090000D01*
X143510000Y-95250000D02*
X137160000Y-101600000D01*
X143510000Y-82550000D02*
X143510000Y-95250000D01*
X140970000Y-80010000D02*
X143510000Y-82550000D01*
X127000000Y-80010000D02*
X140970000Y-80010000D01*
X121920000Y-85090000D02*
X127000000Y-80010000D01*
X121920000Y-86360000D02*
X116840000Y-91440000D01*
X114300000Y-86360000D02*
X114300000Y-91440000D01*
X114300000Y-91440000D02*
X116840000Y-93980000D01*
X134620000Y-114300000D02*
X139700000Y-114300000D01*
X134620000Y-114300000D02*
X134620000Y-116840000D01*
X137160000Y-111760000D02*
X134620000Y-114300000D01*
X137160000Y-104140000D02*
X137160000Y-111760000D01*
D24*
G36*
X144278000Y-126498000D02*
X132207000Y-126498000D01*
X132207000Y-126407000D01*
X137160000Y-126407000D01*
X137419077Y-126355466D01*
X137638711Y-126208711D01*
X137785466Y-125989077D01*
X137837000Y-125730000D01*
X137837000Y-124460000D01*
X137785674Y-124201969D01*
X138017135Y-124433834D01*
X139107238Y-124886484D01*
X140287584Y-124887514D01*
X141378475Y-124436767D01*
X142213834Y-123602865D01*
X142666484Y-122512762D01*
X142667514Y-121332416D01*
X142216767Y-120241525D01*
X141382865Y-119406166D01*
X140292762Y-118953516D01*
X139112416Y-118952486D01*
X138021525Y-119403233D01*
X137186166Y-120237135D01*
X136733516Y-121327238D01*
X136732486Y-122507584D01*
X137132067Y-123474644D01*
X135297000Y-121639578D01*
X135297000Y-120915353D01*
X135346874Y-120795244D01*
X135347126Y-120506025D01*
X135236680Y-120238725D01*
X135032350Y-120034039D01*
X134765244Y-119923126D01*
X134476025Y-119922874D01*
X134208725Y-120033320D01*
X134004039Y-120237650D01*
X133893126Y-120504756D01*
X133892874Y-120793975D01*
X133943000Y-120915289D01*
X133943000Y-121920000D01*
X133994534Y-122179077D01*
X134092979Y-122326410D01*
X134141289Y-122398711D01*
X134759306Y-123016729D01*
X134266546Y-123040222D01*
X133865995Y-123206136D01*
X133791861Y-123452255D01*
X134620000Y-124280395D01*
X134634142Y-124266252D01*
X134813748Y-124445858D01*
X134799605Y-124460000D01*
X134813748Y-124474142D01*
X134634143Y-124653748D01*
X134620000Y-124639605D01*
X134605858Y-124653748D01*
X134426252Y-124474142D01*
X134440395Y-124460000D01*
X133612255Y-123631861D01*
X133366136Y-123705995D01*
X133173035Y-124243223D01*
X133200222Y-124813454D01*
X133299445Y-125053000D01*
X132207000Y-125053000D01*
X132207000Y-122956738D01*
X132486410Y-122901160D01*
X132830947Y-122670947D01*
X133061160Y-122326410D01*
X133142000Y-121920000D01*
X133142000Y-114542995D01*
X133392788Y-114542995D01*
X133579194Y-114994131D01*
X133924053Y-115339593D01*
X133943000Y-115347460D01*
X133943000Y-115820974D01*
X133752380Y-115948342D01*
X133486400Y-116346409D01*
X133393000Y-116815962D01*
X133393000Y-116864038D01*
X133486400Y-117333591D01*
X133752380Y-117731658D01*
X134150447Y-117997638D01*
X134620000Y-118091038D01*
X135089553Y-117997638D01*
X135487620Y-117731658D01*
X135753600Y-117333591D01*
X135847000Y-116864038D01*
X135847000Y-116815962D01*
X135753600Y-116346409D01*
X135487620Y-115948342D01*
X135297000Y-115820974D01*
X135297000Y-115347884D01*
X135314131Y-115340806D01*
X135659593Y-114995947D01*
X135667460Y-114977000D01*
X138652116Y-114977000D01*
X138659194Y-114994131D01*
X139004053Y-115339593D01*
X139454864Y-115526786D01*
X139942995Y-115527212D01*
X140394131Y-115340806D01*
X140739593Y-114995947D01*
X140926786Y-114545136D01*
X140927212Y-114057005D01*
X140740806Y-113605869D01*
X140395947Y-113260407D01*
X139945136Y-113073214D01*
X139457005Y-113072788D01*
X139005869Y-113259194D01*
X138660407Y-113604053D01*
X138652540Y-113623000D01*
X136254422Y-113623000D01*
X137638711Y-112238712D01*
X137726472Y-112107368D01*
X137785466Y-112019077D01*
X137837000Y-111760000D01*
X137837000Y-106655962D01*
X138473000Y-106655962D01*
X138473000Y-106704038D01*
X138566400Y-107173591D01*
X138832380Y-107571658D01*
X139230447Y-107837638D01*
X139700000Y-107931038D01*
X140169553Y-107837638D01*
X140567620Y-107571658D01*
X140833600Y-107173591D01*
X140927000Y-106704038D01*
X140927000Y-106655962D01*
X140833600Y-106186409D01*
X140567620Y-105788342D01*
X140377000Y-105660974D01*
X140377000Y-101865353D01*
X140426874Y-101745244D01*
X140427126Y-101456025D01*
X140316680Y-101188725D01*
X140112350Y-100984039D01*
X139845244Y-100873126D01*
X139556025Y-100872874D01*
X139288725Y-100983320D01*
X139084039Y-101187650D01*
X138973126Y-101454756D01*
X138972874Y-101743975D01*
X139023000Y-101865289D01*
X139023000Y-105660974D01*
X138832380Y-105788342D01*
X138566400Y-106186409D01*
X138473000Y-106655962D01*
X137837000Y-106655962D01*
X137837000Y-104405353D01*
X137886874Y-104285244D01*
X137887126Y-103996025D01*
X137776680Y-103728725D01*
X137572350Y-103524039D01*
X137305244Y-103413126D01*
X137016025Y-103412874D01*
X136748725Y-103523320D01*
X136544039Y-103727650D01*
X136433126Y-103994756D01*
X136432874Y-104283975D01*
X136483000Y-104405289D01*
X136483000Y-111479577D01*
X134882255Y-113080323D01*
X134865136Y-113073214D01*
X134377005Y-113072788D01*
X133925869Y-113259194D01*
X133580407Y-113604053D01*
X133393214Y-114054864D01*
X133392788Y-114542995D01*
X133142000Y-114542995D01*
X133142000Y-109659894D01*
X134933145Y-107868749D01*
X135089553Y-107837638D01*
X135487620Y-107571658D01*
X135753600Y-107173591D01*
X135847000Y-106704038D01*
X135847000Y-106655962D01*
X135753600Y-106186409D01*
X135682000Y-106079252D01*
X135682000Y-96959894D01*
X135944290Y-96697604D01*
X136002362Y-96989553D01*
X136268342Y-97387620D01*
X136666409Y-97653600D01*
X137135962Y-97747000D01*
X137184038Y-97747000D01*
X137653591Y-97653600D01*
X138051658Y-97387620D01*
X138317638Y-96989553D01*
X138411038Y-96520000D01*
X138317638Y-96050447D01*
X138051658Y-95652380D01*
X137653591Y-95386400D01*
X137321543Y-95320352D01*
X137497183Y-95144711D01*
X137653591Y-95113600D01*
X138051658Y-94847620D01*
X138317638Y-94449553D01*
X138411038Y-93980000D01*
X138317638Y-93510447D01*
X138222000Y-93367315D01*
X138222000Y-92710000D01*
X138141160Y-92303590D01*
X138084622Y-92218975D01*
X137910947Y-91959052D01*
X137503453Y-91551558D01*
X137507368Y-91551362D01*
X137891143Y-91392397D01*
X137960608Y-91150213D01*
X137160000Y-90349605D01*
X137145858Y-90363748D01*
X136966253Y-90184143D01*
X136980395Y-90170000D01*
X137339605Y-90170000D01*
X138140213Y-90970608D01*
X138382397Y-90901143D01*
X138569144Y-90377698D01*
X138541362Y-89822632D01*
X138382397Y-89438857D01*
X138140213Y-89369392D01*
X137339605Y-90170000D01*
X136980395Y-90170000D01*
X136179787Y-89369392D01*
X135937603Y-89438857D01*
X135793807Y-89841913D01*
X135754834Y-89802939D01*
X135628573Y-89497365D01*
X135321531Y-89189787D01*
X136359392Y-89189787D01*
X137160000Y-89990395D01*
X137960608Y-89189787D01*
X137891143Y-88947603D01*
X137367698Y-88760856D01*
X136812632Y-88788638D01*
X136428857Y-88947603D01*
X136359392Y-89189787D01*
X135321531Y-89189787D01*
X135294394Y-89162603D01*
X134857544Y-88981207D01*
X134384531Y-88980794D01*
X134076668Y-89108000D01*
X132622895Y-89108000D01*
X132446755Y-89034860D01*
X130925947Y-87514053D01*
X130581410Y-87283840D01*
X130461665Y-87260021D01*
X130719794Y-86873705D01*
X130810000Y-86420209D01*
X130900206Y-86873705D01*
X131177025Y-87287993D01*
X131591313Y-87564812D01*
X132080000Y-87662018D01*
X132568687Y-87564812D01*
X132982975Y-87287993D01*
X133259794Y-86873705D01*
X133350000Y-86420209D01*
X133440206Y-86873705D01*
X133717025Y-87287993D01*
X134131313Y-87564812D01*
X134620000Y-87662018D01*
X135108687Y-87564812D01*
X135522975Y-87287993D01*
X135799794Y-86873705D01*
X135897000Y-86385018D01*
X135897000Y-86334982D01*
X135799794Y-85846295D01*
X135522975Y-85432007D01*
X135108687Y-85155188D01*
X134620000Y-85057982D01*
X134131313Y-85155188D01*
X133717025Y-85432007D01*
X133440206Y-85846295D01*
X133350000Y-86299791D01*
X133259794Y-85846295D01*
X132982975Y-85432007D01*
X132568687Y-85155188D01*
X132080000Y-85057982D01*
X131591313Y-85155188D01*
X131177025Y-85432007D01*
X130900206Y-85846295D01*
X130810000Y-86299791D01*
X130719794Y-85846295D01*
X130442975Y-85432007D01*
X130028687Y-85155188D01*
X129540000Y-85057982D01*
X129051313Y-85155188D01*
X128637025Y-85432007D01*
X128360206Y-85846295D01*
X128298484Y-86156590D01*
X128227370Y-86085476D01*
X128179794Y-85846295D01*
X127902975Y-85432007D01*
X127488687Y-85155188D01*
X127000000Y-85057982D01*
X126511313Y-85155188D01*
X126097025Y-85432007D01*
X125824691Y-85839583D01*
X125655183Y-85478642D01*
X125226924Y-85088355D01*
X124816890Y-84918524D01*
X124587000Y-85039845D01*
X124587000Y-86233000D01*
X124607000Y-86233000D01*
X124607000Y-86487000D01*
X124587000Y-86487000D01*
X124587000Y-87680155D01*
X124816890Y-87801476D01*
X125226924Y-87631645D01*
X125655183Y-87241358D01*
X125824691Y-86880417D01*
X126097025Y-87287993D01*
X126511313Y-87564812D01*
X126750494Y-87612388D01*
X128154053Y-89015948D01*
X128471258Y-89227898D01*
X128444774Y-89254382D01*
X128559785Y-89369393D01*
X128317603Y-89438857D01*
X128130856Y-89962302D01*
X128158638Y-90517368D01*
X128317603Y-90901143D01*
X128559787Y-90970608D01*
X129360395Y-90170000D01*
X129346253Y-90155858D01*
X129525858Y-89976253D01*
X129540000Y-89990395D01*
X129554143Y-89976253D01*
X129733748Y-90155858D01*
X129719605Y-90170000D01*
X129733748Y-90184143D01*
X129554143Y-90363748D01*
X129540000Y-90349605D01*
X128739392Y-91150213D01*
X128808857Y-91392397D01*
X129268755Y-91556473D01*
X129193840Y-91668590D01*
X129113001Y-92075000D01*
X129193840Y-92481410D01*
X129369722Y-92744635D01*
X128740000Y-92744635D01*
X128581763Y-92774409D01*
X128436433Y-92867927D01*
X128338936Y-93010619D01*
X128304635Y-93180000D01*
X128304635Y-94780000D01*
X128334409Y-94938237D01*
X128427927Y-95083567D01*
X128570619Y-95181064D01*
X128740000Y-95215365D01*
X128863000Y-95215365D01*
X128863000Y-95508950D01*
X128648342Y-95652380D01*
X128382362Y-96050447D01*
X128288962Y-96520000D01*
X128382362Y-96989553D01*
X128648342Y-97387620D01*
X129046409Y-97653600D01*
X129515962Y-97747000D01*
X129564038Y-97747000D01*
X129768840Y-97706262D01*
X129977900Y-97915322D01*
X129564038Y-97833000D01*
X129515962Y-97833000D01*
X129046409Y-97926400D01*
X128648342Y-98192380D01*
X128382362Y-98590447D01*
X128288962Y-99060000D01*
X128382362Y-99529553D01*
X128648342Y-99927620D01*
X129046409Y-100193600D01*
X129169735Y-100218131D01*
X128684866Y-100447611D01*
X128308959Y-100862577D01*
X128148096Y-101250961D01*
X128270085Y-101473000D01*
X129413000Y-101473000D01*
X129413000Y-101453000D01*
X129667000Y-101453000D01*
X129667000Y-101473000D01*
X130809915Y-101473000D01*
X130931904Y-101250961D01*
X130771041Y-100862577D01*
X130395134Y-100447611D01*
X129910265Y-100218131D01*
X130033591Y-100193600D01*
X130431658Y-99927620D01*
X130697638Y-99529553D01*
X130791038Y-99060000D01*
X130708716Y-98646138D01*
X131403000Y-99340423D01*
X131403000Y-101319577D01*
X130875749Y-101846828D01*
X130809915Y-101727000D01*
X129667000Y-101727000D01*
X129667000Y-102870629D01*
X129786613Y-102935965D01*
X127791289Y-104931289D01*
X127644534Y-105150923D01*
X127593000Y-105410000D01*
X127593000Y-108215784D01*
X127262603Y-108545606D01*
X127081207Y-108982456D01*
X127080794Y-109455469D01*
X127261427Y-109892635D01*
X127595606Y-110227397D01*
X128032456Y-110408793D01*
X128505469Y-110409206D01*
X128942635Y-110228573D01*
X129277397Y-109894394D01*
X129458793Y-109457544D01*
X129459206Y-108984531D01*
X129415131Y-108877860D01*
X129809880Y-109041774D01*
X130327848Y-109042226D01*
X130806560Y-108844426D01*
X131173139Y-108478487D01*
X131371774Y-108000120D01*
X131372226Y-107482152D01*
X131174426Y-107003440D01*
X130808487Y-106636861D01*
X130330120Y-106438226D01*
X129812152Y-106437774D01*
X129333440Y-106635574D01*
X128966861Y-107001513D01*
X128947000Y-107049344D01*
X128947000Y-105690422D01*
X132558712Y-102078711D01*
X132705467Y-101859076D01*
X132757000Y-101600000D01*
X132757000Y-99060000D01*
X132705466Y-98800923D01*
X132632089Y-98691106D01*
X132558711Y-98581288D01*
X130742324Y-96764902D01*
X130791038Y-96520000D01*
X130697638Y-96050447D01*
X130431658Y-95652380D01*
X130217000Y-95508950D01*
X130217000Y-95215365D01*
X130340000Y-95215365D01*
X130498237Y-95185591D01*
X130643567Y-95092073D01*
X130741064Y-94949381D01*
X130775365Y-94780000D01*
X130775365Y-93180000D01*
X130745591Y-93021763D01*
X130711703Y-92969100D01*
X130925947Y-92825947D01*
X132447062Y-91304833D01*
X132623332Y-91232000D01*
X134077105Y-91232000D01*
X134253246Y-91305140D01*
X136098000Y-93149895D01*
X136098000Y-93367315D01*
X136002362Y-93510447D01*
X135971251Y-93666855D01*
X133869053Y-95769053D01*
X133638840Y-96113590D01*
X133558000Y-96520000D01*
X133558000Y-106079252D01*
X133486400Y-106186409D01*
X133455289Y-106342817D01*
X131329053Y-108469053D01*
X131098840Y-108813590D01*
X131018000Y-109220000D01*
X131018000Y-113238000D01*
X127439895Y-113238000D01*
X127343453Y-113141558D01*
X127347368Y-113141362D01*
X127731143Y-112982397D01*
X127800608Y-112740213D01*
X127000000Y-111939605D01*
X126985858Y-111953748D01*
X126806253Y-111774143D01*
X126820395Y-111760000D01*
X127179605Y-111760000D01*
X127980213Y-112560608D01*
X128222397Y-112491143D01*
X128409144Y-111967698D01*
X128381362Y-111412632D01*
X128222397Y-111028857D01*
X127980213Y-110959392D01*
X127179605Y-111760000D01*
X126820395Y-111760000D01*
X126019787Y-110959392D01*
X125777603Y-111028857D01*
X125633807Y-111431913D01*
X125594834Y-111392939D01*
X125468573Y-111087365D01*
X125161531Y-110779787D01*
X126199392Y-110779787D01*
X127000000Y-111580395D01*
X127800608Y-110779787D01*
X127731143Y-110537603D01*
X127207698Y-110350856D01*
X126652632Y-110378638D01*
X126268857Y-110537603D01*
X126199392Y-110779787D01*
X125161531Y-110779787D01*
X125134394Y-110752603D01*
X124697544Y-110571207D01*
X124224531Y-110570794D01*
X123787365Y-110751427D01*
X123452603Y-111085606D01*
X123271207Y-111522456D01*
X123270794Y-111995469D01*
X123381978Y-112264556D01*
X120572891Y-109455469D01*
X124540794Y-109455469D01*
X124721427Y-109892635D01*
X125055606Y-110227397D01*
X125492456Y-110408793D01*
X125965469Y-110409206D01*
X126402635Y-110228573D01*
X126737397Y-109894394D01*
X126918793Y-109457544D01*
X126919206Y-108984531D01*
X126738573Y-108547365D01*
X126404394Y-108212603D01*
X125967544Y-108031207D01*
X125494531Y-108030794D01*
X125057365Y-108211427D01*
X124722603Y-108545606D01*
X124541207Y-108982456D01*
X124540794Y-109455469D01*
X120572891Y-109455469D01*
X120057000Y-108939578D01*
X120057000Y-107997848D01*
X121357774Y-107997848D01*
X121555574Y-108476560D01*
X121921513Y-108843139D01*
X122399880Y-109041774D01*
X122917848Y-109042226D01*
X123396560Y-108844426D01*
X123763139Y-108478487D01*
X123961774Y-108000120D01*
X123962226Y-107482152D01*
X123764426Y-107003440D01*
X123398487Y-106636861D01*
X122920120Y-106438226D01*
X122402152Y-106437774D01*
X121923440Y-106635574D01*
X121556861Y-107001513D01*
X121358226Y-107479880D01*
X121357774Y-107997848D01*
X120057000Y-107997848D01*
X120057000Y-104140000D01*
X120005466Y-103880923D01*
X119858711Y-103661289D01*
X119507000Y-103309578D01*
X119507000Y-102607745D01*
X121091861Y-102607745D01*
X121165995Y-102853864D01*
X121703223Y-103046965D01*
X122273454Y-103019778D01*
X122674005Y-102853864D01*
X122748139Y-102607745D01*
X121920000Y-101779605D01*
X121091861Y-102607745D01*
X119507000Y-102607745D01*
X119507000Y-101383223D01*
X120473035Y-101383223D01*
X120500222Y-101953454D01*
X120666136Y-102354005D01*
X120912255Y-102428139D01*
X121740395Y-101600000D01*
X122099605Y-101600000D01*
X122927745Y-102428139D01*
X123173864Y-102354005D01*
X123319424Y-101949039D01*
X128148096Y-101949039D01*
X128308959Y-102337423D01*
X128684866Y-102752389D01*
X129190959Y-102991914D01*
X129413000Y-102870629D01*
X129413000Y-101727000D01*
X128270085Y-101727000D01*
X128148096Y-101949039D01*
X123319424Y-101949039D01*
X123366965Y-101816777D01*
X123339778Y-101246546D01*
X123173864Y-100845995D01*
X122927745Y-100771861D01*
X122099605Y-101600000D01*
X121740395Y-101600000D01*
X120912255Y-100771861D01*
X120666136Y-100845995D01*
X120473035Y-101383223D01*
X119507000Y-101383223D01*
X119507000Y-100592255D01*
X121091861Y-100592255D01*
X121920000Y-101420395D01*
X122748139Y-100592255D01*
X122674005Y-100346136D01*
X122136777Y-100153035D01*
X121566546Y-100180222D01*
X121165995Y-100346136D01*
X121091861Y-100592255D01*
X119507000Y-100592255D01*
X119507000Y-96624895D01*
X120130947Y-96000948D01*
X120361160Y-95656410D01*
X120390466Y-95509077D01*
X120442000Y-95250000D01*
X120442000Y-93955962D01*
X120693000Y-93955962D01*
X120693000Y-94004038D01*
X120786400Y-94473591D01*
X121052380Y-94871658D01*
X121450447Y-95137638D01*
X121920000Y-95231038D01*
X122389553Y-95137638D01*
X122787620Y-94871658D01*
X123053600Y-94473591D01*
X123147000Y-94004038D01*
X123147000Y-93955962D01*
X123053600Y-93486409D01*
X122787620Y-93088342D01*
X122389553Y-92822362D01*
X121920000Y-92728962D01*
X121450447Y-92822362D01*
X121052380Y-93088342D01*
X120786400Y-93486409D01*
X120693000Y-93955962D01*
X120442000Y-93955962D01*
X120442000Y-93149894D01*
X120765948Y-92825947D01*
X120996160Y-92481409D01*
X121077000Y-92075000D01*
X120996160Y-91668590D01*
X120765948Y-91324052D01*
X120421410Y-91093840D01*
X120015000Y-91013000D01*
X119608591Y-91093840D01*
X119507000Y-91161721D01*
X119507000Y-89730422D01*
X121592057Y-87645365D01*
X122770000Y-87645365D01*
X122928237Y-87615591D01*
X123073567Y-87522073D01*
X123171064Y-87379381D01*
X123205365Y-87210000D01*
X123205365Y-87114764D01*
X123264817Y-87241358D01*
X123693076Y-87631645D01*
X124103110Y-87801476D01*
X124333000Y-87680155D01*
X124333000Y-86487000D01*
X124313000Y-86487000D01*
X124313000Y-86233000D01*
X124333000Y-86233000D01*
X124333000Y-85039845D01*
X124103110Y-84918524D01*
X123693076Y-85088355D01*
X123264817Y-85478642D01*
X123205365Y-85605236D01*
X123205365Y-85510000D01*
X123175591Y-85351763D01*
X123082073Y-85206433D01*
X122939381Y-85108936D01*
X122872109Y-85095313D01*
X127280422Y-80687000D01*
X140689578Y-80687000D01*
X141256111Y-81253533D01*
X140292762Y-80853516D01*
X139112416Y-80852486D01*
X138021525Y-81303233D01*
X137186166Y-82137135D01*
X136733516Y-83227238D01*
X136732486Y-84407584D01*
X137183233Y-85498475D01*
X138017135Y-86333834D01*
X139107238Y-86786484D01*
X140287584Y-86787514D01*
X141378475Y-86336767D01*
X142213834Y-85502865D01*
X142666484Y-84412762D01*
X142667514Y-83232416D01*
X142267933Y-82265355D01*
X142833000Y-82830423D01*
X142833000Y-94969578D01*
X138328716Y-99473862D01*
X138411038Y-99060000D01*
X138317638Y-98590447D01*
X138051658Y-98192380D01*
X137653591Y-97926400D01*
X137184038Y-97833000D01*
X137135962Y-97833000D01*
X136666409Y-97926400D01*
X136268342Y-98192380D01*
X136002362Y-98590447D01*
X135908962Y-99060000D01*
X136002362Y-99529553D01*
X136268342Y-99927620D01*
X136666409Y-100193600D01*
X137135962Y-100287000D01*
X137184038Y-100287000D01*
X137597900Y-100204678D01*
X137388840Y-100413738D01*
X137184038Y-100373000D01*
X137135962Y-100373000D01*
X136666409Y-100466400D01*
X136268342Y-100732380D01*
X136002362Y-101130447D01*
X135908962Y-101600000D01*
X136002362Y-102069553D01*
X136268342Y-102467620D01*
X136666409Y-102733600D01*
X137135962Y-102827000D01*
X137184038Y-102827000D01*
X137653591Y-102733600D01*
X138051658Y-102467620D01*
X138317638Y-102069553D01*
X138411038Y-101600000D01*
X138362324Y-101355098D01*
X143988711Y-95728711D01*
X144039714Y-95652380D01*
X144135466Y-95509077D01*
X144187000Y-95250000D01*
X144187000Y-82550000D01*
X144135466Y-82290923D01*
X144062088Y-82181106D01*
X143988711Y-82071288D01*
X141448711Y-79531289D01*
X141229077Y-79384534D01*
X140970000Y-79333000D01*
X127000000Y-79333000D01*
X126740923Y-79384534D01*
X126521289Y-79531289D01*
X121441289Y-84611289D01*
X121294534Y-84830923D01*
X121246056Y-85074635D01*
X121070000Y-85074635D01*
X120911763Y-85104409D01*
X120766433Y-85197927D01*
X120668936Y-85340619D01*
X120634635Y-85510000D01*
X120634635Y-86687943D01*
X119507000Y-87815578D01*
X119507000Y-79242000D01*
X144278000Y-79242000D01*
X144278000Y-126498000D01*
X144278000Y-126498000D01*
G37*
X144278000Y-126498000D02*
X132207000Y-126498000D01*
X132207000Y-126407000D01*
X137160000Y-126407000D01*
X137419077Y-126355466D01*
X137638711Y-126208711D01*
X137785466Y-125989077D01*
X137837000Y-125730000D01*
X137837000Y-124460000D01*
X137785674Y-124201969D01*
X138017135Y-124433834D01*
X139107238Y-124886484D01*
X140287584Y-124887514D01*
X141378475Y-124436767D01*
X142213834Y-123602865D01*
X142666484Y-122512762D01*
X142667514Y-121332416D01*
X142216767Y-120241525D01*
X141382865Y-119406166D01*
X140292762Y-118953516D01*
X139112416Y-118952486D01*
X138021525Y-119403233D01*
X137186166Y-120237135D01*
X136733516Y-121327238D01*
X136732486Y-122507584D01*
X137132067Y-123474644D01*
X135297000Y-121639578D01*
X135297000Y-120915353D01*
X135346874Y-120795244D01*
X135347126Y-120506025D01*
X135236680Y-120238725D01*
X135032350Y-120034039D01*
X134765244Y-119923126D01*
X134476025Y-119922874D01*
X134208725Y-120033320D01*
X134004039Y-120237650D01*
X133893126Y-120504756D01*
X133892874Y-120793975D01*
X133943000Y-120915289D01*
X133943000Y-121920000D01*
X133994534Y-122179077D01*
X134092979Y-122326410D01*
X134141289Y-122398711D01*
X134759306Y-123016729D01*
X134266546Y-123040222D01*
X133865995Y-123206136D01*
X133791861Y-123452255D01*
X134620000Y-124280395D01*
X134634142Y-124266252D01*
X134813748Y-124445858D01*
X134799605Y-124460000D01*
X134813748Y-124474142D01*
X134634143Y-124653748D01*
X134620000Y-124639605D01*
X134605858Y-124653748D01*
X134426252Y-124474142D01*
X134440395Y-124460000D01*
X133612255Y-123631861D01*
X133366136Y-123705995D01*
X133173035Y-124243223D01*
X133200222Y-124813454D01*
X133299445Y-125053000D01*
X132207000Y-125053000D01*
X132207000Y-122956738D01*
X132486410Y-122901160D01*
X132830947Y-122670947D01*
X133061160Y-122326410D01*
X133142000Y-121920000D01*
X133142000Y-114542995D01*
X133392788Y-114542995D01*
X133579194Y-114994131D01*
X133924053Y-115339593D01*
X133943000Y-115347460D01*
X133943000Y-115820974D01*
X133752380Y-115948342D01*
X133486400Y-116346409D01*
X133393000Y-116815962D01*
X133393000Y-116864038D01*
X133486400Y-117333591D01*
X133752380Y-117731658D01*
X134150447Y-117997638D01*
X134620000Y-118091038D01*
X135089553Y-117997638D01*
X135487620Y-117731658D01*
X135753600Y-117333591D01*
X135847000Y-116864038D01*
X135847000Y-116815962D01*
X135753600Y-116346409D01*
X135487620Y-115948342D01*
X135297000Y-115820974D01*
X135297000Y-115347884D01*
X135314131Y-115340806D01*
X135659593Y-114995947D01*
X135667460Y-114977000D01*
X138652116Y-114977000D01*
X138659194Y-114994131D01*
X139004053Y-115339593D01*
X139454864Y-115526786D01*
X139942995Y-115527212D01*
X140394131Y-115340806D01*
X140739593Y-114995947D01*
X140926786Y-114545136D01*
X140927212Y-114057005D01*
X140740806Y-113605869D01*
X140395947Y-113260407D01*
X139945136Y-113073214D01*
X139457005Y-113072788D01*
X139005869Y-113259194D01*
X138660407Y-113604053D01*
X138652540Y-113623000D01*
X136254422Y-113623000D01*
X137638711Y-112238712D01*
X137726472Y-112107368D01*
X137785466Y-112019077D01*
X137837000Y-111760000D01*
X137837000Y-106655962D01*
X138473000Y-106655962D01*
X138473000Y-106704038D01*
X138566400Y-107173591D01*
X138832380Y-107571658D01*
X139230447Y-107837638D01*
X139700000Y-107931038D01*
X140169553Y-107837638D01*
X140567620Y-107571658D01*
X140833600Y-107173591D01*
X140927000Y-106704038D01*
X140927000Y-106655962D01*
X140833600Y-106186409D01*
X140567620Y-105788342D01*
X140377000Y-105660974D01*
X140377000Y-101865353D01*
X140426874Y-101745244D01*
X140427126Y-101456025D01*
X140316680Y-101188725D01*
X140112350Y-100984039D01*
X139845244Y-100873126D01*
X139556025Y-100872874D01*
X139288725Y-100983320D01*
X139084039Y-101187650D01*
X138973126Y-101454756D01*
X138972874Y-101743975D01*
X139023000Y-101865289D01*
X139023000Y-105660974D01*
X138832380Y-105788342D01*
X138566400Y-106186409D01*
X138473000Y-106655962D01*
X137837000Y-106655962D01*
X137837000Y-104405353D01*
X137886874Y-104285244D01*
X137887126Y-103996025D01*
X137776680Y-103728725D01*
X137572350Y-103524039D01*
X137305244Y-103413126D01*
X137016025Y-103412874D01*
X136748725Y-103523320D01*
X136544039Y-103727650D01*
X136433126Y-103994756D01*
X136432874Y-104283975D01*
X136483000Y-104405289D01*
X136483000Y-111479577D01*
X134882255Y-113080323D01*
X134865136Y-113073214D01*
X134377005Y-113072788D01*
X133925869Y-113259194D01*
X133580407Y-113604053D01*
X133393214Y-114054864D01*
X133392788Y-114542995D01*
X133142000Y-114542995D01*
X133142000Y-109659894D01*
X134933145Y-107868749D01*
X135089553Y-107837638D01*
X135487620Y-107571658D01*
X135753600Y-107173591D01*
X135847000Y-106704038D01*
X135847000Y-106655962D01*
X135753600Y-106186409D01*
X135682000Y-106079252D01*
X135682000Y-96959894D01*
X135944290Y-96697604D01*
X136002362Y-96989553D01*
X136268342Y-97387620D01*
X136666409Y-97653600D01*
X137135962Y-97747000D01*
X137184038Y-97747000D01*
X137653591Y-97653600D01*
X138051658Y-97387620D01*
X138317638Y-96989553D01*
X138411038Y-96520000D01*
X138317638Y-96050447D01*
X138051658Y-95652380D01*
X137653591Y-95386400D01*
X137321543Y-95320352D01*
X137497183Y-95144711D01*
X137653591Y-95113600D01*
X138051658Y-94847620D01*
X138317638Y-94449553D01*
X138411038Y-93980000D01*
X138317638Y-93510447D01*
X138222000Y-93367315D01*
X138222000Y-92710000D01*
X138141160Y-92303590D01*
X138084622Y-92218975D01*
X137910947Y-91959052D01*
X137503453Y-91551558D01*
X137507368Y-91551362D01*
X137891143Y-91392397D01*
X137960608Y-91150213D01*
X137160000Y-90349605D01*
X137145858Y-90363748D01*
X136966253Y-90184143D01*
X136980395Y-90170000D01*
X137339605Y-90170000D01*
X138140213Y-90970608D01*
X138382397Y-90901143D01*
X138569144Y-90377698D01*
X138541362Y-89822632D01*
X138382397Y-89438857D01*
X138140213Y-89369392D01*
X137339605Y-90170000D01*
X136980395Y-90170000D01*
X136179787Y-89369392D01*
X135937603Y-89438857D01*
X135793807Y-89841913D01*
X135754834Y-89802939D01*
X135628573Y-89497365D01*
X135321531Y-89189787D01*
X136359392Y-89189787D01*
X137160000Y-89990395D01*
X137960608Y-89189787D01*
X137891143Y-88947603D01*
X137367698Y-88760856D01*
X136812632Y-88788638D01*
X136428857Y-88947603D01*
X136359392Y-89189787D01*
X135321531Y-89189787D01*
X135294394Y-89162603D01*
X134857544Y-88981207D01*
X134384531Y-88980794D01*
X134076668Y-89108000D01*
X132622895Y-89108000D01*
X132446755Y-89034860D01*
X130925947Y-87514053D01*
X130581410Y-87283840D01*
X130461665Y-87260021D01*
X130719794Y-86873705D01*
X130810000Y-86420209D01*
X130900206Y-86873705D01*
X131177025Y-87287993D01*
X131591313Y-87564812D01*
X132080000Y-87662018D01*
X132568687Y-87564812D01*
X132982975Y-87287993D01*
X133259794Y-86873705D01*
X133350000Y-86420209D01*
X133440206Y-86873705D01*
X133717025Y-87287993D01*
X134131313Y-87564812D01*
X134620000Y-87662018D01*
X135108687Y-87564812D01*
X135522975Y-87287993D01*
X135799794Y-86873705D01*
X135897000Y-86385018D01*
X135897000Y-86334982D01*
X135799794Y-85846295D01*
X135522975Y-85432007D01*
X135108687Y-85155188D01*
X134620000Y-85057982D01*
X134131313Y-85155188D01*
X133717025Y-85432007D01*
X133440206Y-85846295D01*
X133350000Y-86299791D01*
X133259794Y-85846295D01*
X132982975Y-85432007D01*
X132568687Y-85155188D01*
X132080000Y-85057982D01*
X131591313Y-85155188D01*
X131177025Y-85432007D01*
X130900206Y-85846295D01*
X130810000Y-86299791D01*
X130719794Y-85846295D01*
X130442975Y-85432007D01*
X130028687Y-85155188D01*
X129540000Y-85057982D01*
X129051313Y-85155188D01*
X128637025Y-85432007D01*
X128360206Y-85846295D01*
X128298484Y-86156590D01*
X128227370Y-86085476D01*
X128179794Y-85846295D01*
X127902975Y-85432007D01*
X127488687Y-85155188D01*
X127000000Y-85057982D01*
X126511313Y-85155188D01*
X126097025Y-85432007D01*
X125824691Y-85839583D01*
X125655183Y-85478642D01*
X125226924Y-85088355D01*
X124816890Y-84918524D01*
X124587000Y-85039845D01*
X124587000Y-86233000D01*
X124607000Y-86233000D01*
X124607000Y-86487000D01*
X124587000Y-86487000D01*
X124587000Y-87680155D01*
X124816890Y-87801476D01*
X125226924Y-87631645D01*
X125655183Y-87241358D01*
X125824691Y-86880417D01*
X126097025Y-87287993D01*
X126511313Y-87564812D01*
X126750494Y-87612388D01*
X128154053Y-89015948D01*
X128471258Y-89227898D01*
X128444774Y-89254382D01*
X128559785Y-89369393D01*
X128317603Y-89438857D01*
X128130856Y-89962302D01*
X128158638Y-90517368D01*
X128317603Y-90901143D01*
X128559787Y-90970608D01*
X129360395Y-90170000D01*
X129346253Y-90155858D01*
X129525858Y-89976253D01*
X129540000Y-89990395D01*
X129554143Y-89976253D01*
X129733748Y-90155858D01*
X129719605Y-90170000D01*
X129733748Y-90184143D01*
X129554143Y-90363748D01*
X129540000Y-90349605D01*
X128739392Y-91150213D01*
X128808857Y-91392397D01*
X129268755Y-91556473D01*
X129193840Y-91668590D01*
X129113001Y-92075000D01*
X129193840Y-92481410D01*
X129369722Y-92744635D01*
X128740000Y-92744635D01*
X128581763Y-92774409D01*
X128436433Y-92867927D01*
X128338936Y-93010619D01*
X128304635Y-93180000D01*
X128304635Y-94780000D01*
X128334409Y-94938237D01*
X128427927Y-95083567D01*
X128570619Y-95181064D01*
X128740000Y-95215365D01*
X128863000Y-95215365D01*
X128863000Y-95508950D01*
X128648342Y-95652380D01*
X128382362Y-96050447D01*
X128288962Y-96520000D01*
X128382362Y-96989553D01*
X128648342Y-97387620D01*
X129046409Y-97653600D01*
X129515962Y-97747000D01*
X129564038Y-97747000D01*
X129768840Y-97706262D01*
X129977900Y-97915322D01*
X129564038Y-97833000D01*
X129515962Y-97833000D01*
X129046409Y-97926400D01*
X128648342Y-98192380D01*
X128382362Y-98590447D01*
X128288962Y-99060000D01*
X128382362Y-99529553D01*
X128648342Y-99927620D01*
X129046409Y-100193600D01*
X129169735Y-100218131D01*
X128684866Y-100447611D01*
X128308959Y-100862577D01*
X128148096Y-101250961D01*
X128270085Y-101473000D01*
X129413000Y-101473000D01*
X129413000Y-101453000D01*
X129667000Y-101453000D01*
X129667000Y-101473000D01*
X130809915Y-101473000D01*
X130931904Y-101250961D01*
X130771041Y-100862577D01*
X130395134Y-100447611D01*
X129910265Y-100218131D01*
X130033591Y-100193600D01*
X130431658Y-99927620D01*
X130697638Y-99529553D01*
X130791038Y-99060000D01*
X130708716Y-98646138D01*
X131403000Y-99340423D01*
X131403000Y-101319577D01*
X130875749Y-101846828D01*
X130809915Y-101727000D01*
X129667000Y-101727000D01*
X129667000Y-102870629D01*
X129786613Y-102935965D01*
X127791289Y-104931289D01*
X127644534Y-105150923D01*
X127593000Y-105410000D01*
X127593000Y-108215784D01*
X127262603Y-108545606D01*
X127081207Y-108982456D01*
X127080794Y-109455469D01*
X127261427Y-109892635D01*
X127595606Y-110227397D01*
X128032456Y-110408793D01*
X128505469Y-110409206D01*
X128942635Y-110228573D01*
X129277397Y-109894394D01*
X129458793Y-109457544D01*
X129459206Y-108984531D01*
X129415131Y-108877860D01*
X129809880Y-109041774D01*
X130327848Y-109042226D01*
X130806560Y-108844426D01*
X131173139Y-108478487D01*
X131371774Y-108000120D01*
X131372226Y-107482152D01*
X131174426Y-107003440D01*
X130808487Y-106636861D01*
X130330120Y-106438226D01*
X129812152Y-106437774D01*
X129333440Y-106635574D01*
X128966861Y-107001513D01*
X128947000Y-107049344D01*
X128947000Y-105690422D01*
X132558712Y-102078711D01*
X132705467Y-101859076D01*
X132757000Y-101600000D01*
X132757000Y-99060000D01*
X132705466Y-98800923D01*
X132632089Y-98691106D01*
X132558711Y-98581288D01*
X130742324Y-96764902D01*
X130791038Y-96520000D01*
X130697638Y-96050447D01*
X130431658Y-95652380D01*
X130217000Y-95508950D01*
X130217000Y-95215365D01*
X130340000Y-95215365D01*
X130498237Y-95185591D01*
X130643567Y-95092073D01*
X130741064Y-94949381D01*
X130775365Y-94780000D01*
X130775365Y-93180000D01*
X130745591Y-93021763D01*
X130711703Y-92969100D01*
X130925947Y-92825947D01*
X132447062Y-91304833D01*
X132623332Y-91232000D01*
X134077105Y-91232000D01*
X134253246Y-91305140D01*
X136098000Y-93149895D01*
X136098000Y-93367315D01*
X136002362Y-93510447D01*
X135971251Y-93666855D01*
X133869053Y-95769053D01*
X133638840Y-96113590D01*
X133558000Y-96520000D01*
X133558000Y-106079252D01*
X133486400Y-106186409D01*
X133455289Y-106342817D01*
X131329053Y-108469053D01*
X131098840Y-108813590D01*
X131018000Y-109220000D01*
X131018000Y-113238000D01*
X127439895Y-113238000D01*
X127343453Y-113141558D01*
X127347368Y-113141362D01*
X127731143Y-112982397D01*
X127800608Y-112740213D01*
X127000000Y-111939605D01*
X126985858Y-111953748D01*
X126806253Y-111774143D01*
X126820395Y-111760000D01*
X127179605Y-111760000D01*
X127980213Y-112560608D01*
X128222397Y-112491143D01*
X128409144Y-111967698D01*
X128381362Y-111412632D01*
X128222397Y-111028857D01*
X127980213Y-110959392D01*
X127179605Y-111760000D01*
X126820395Y-111760000D01*
X126019787Y-110959392D01*
X125777603Y-111028857D01*
X125633807Y-111431913D01*
X125594834Y-111392939D01*
X125468573Y-111087365D01*
X125161531Y-110779787D01*
X126199392Y-110779787D01*
X127000000Y-111580395D01*
X127800608Y-110779787D01*
X127731143Y-110537603D01*
X127207698Y-110350856D01*
X126652632Y-110378638D01*
X126268857Y-110537603D01*
X126199392Y-110779787D01*
X125161531Y-110779787D01*
X125134394Y-110752603D01*
X124697544Y-110571207D01*
X124224531Y-110570794D01*
X123787365Y-110751427D01*
X123452603Y-111085606D01*
X123271207Y-111522456D01*
X123270794Y-111995469D01*
X123381978Y-112264556D01*
X120572891Y-109455469D01*
X124540794Y-109455469D01*
X124721427Y-109892635D01*
X125055606Y-110227397D01*
X125492456Y-110408793D01*
X125965469Y-110409206D01*
X126402635Y-110228573D01*
X126737397Y-109894394D01*
X126918793Y-109457544D01*
X126919206Y-108984531D01*
X126738573Y-108547365D01*
X126404394Y-108212603D01*
X125967544Y-108031207D01*
X125494531Y-108030794D01*
X125057365Y-108211427D01*
X124722603Y-108545606D01*
X124541207Y-108982456D01*
X124540794Y-109455469D01*
X120572891Y-109455469D01*
X120057000Y-108939578D01*
X120057000Y-107997848D01*
X121357774Y-107997848D01*
X121555574Y-108476560D01*
X121921513Y-108843139D01*
X122399880Y-109041774D01*
X122917848Y-109042226D01*
X123396560Y-108844426D01*
X123763139Y-108478487D01*
X123961774Y-108000120D01*
X123962226Y-107482152D01*
X123764426Y-107003440D01*
X123398487Y-106636861D01*
X122920120Y-106438226D01*
X122402152Y-106437774D01*
X121923440Y-106635574D01*
X121556861Y-107001513D01*
X121358226Y-107479880D01*
X121357774Y-107997848D01*
X120057000Y-107997848D01*
X120057000Y-104140000D01*
X120005466Y-103880923D01*
X119858711Y-103661289D01*
X119507000Y-103309578D01*
X119507000Y-102607745D01*
X121091861Y-102607745D01*
X121165995Y-102853864D01*
X121703223Y-103046965D01*
X122273454Y-103019778D01*
X122674005Y-102853864D01*
X122748139Y-102607745D01*
X121920000Y-101779605D01*
X121091861Y-102607745D01*
X119507000Y-102607745D01*
X119507000Y-101383223D01*
X120473035Y-101383223D01*
X120500222Y-101953454D01*
X120666136Y-102354005D01*
X120912255Y-102428139D01*
X121740395Y-101600000D01*
X122099605Y-101600000D01*
X122927745Y-102428139D01*
X123173864Y-102354005D01*
X123319424Y-101949039D01*
X128148096Y-101949039D01*
X128308959Y-102337423D01*
X128684866Y-102752389D01*
X129190959Y-102991914D01*
X129413000Y-102870629D01*
X129413000Y-101727000D01*
X128270085Y-101727000D01*
X128148096Y-101949039D01*
X123319424Y-101949039D01*
X123366965Y-101816777D01*
X123339778Y-101246546D01*
X123173864Y-100845995D01*
X122927745Y-100771861D01*
X122099605Y-101600000D01*
X121740395Y-101600000D01*
X120912255Y-100771861D01*
X120666136Y-100845995D01*
X120473035Y-101383223D01*
X119507000Y-101383223D01*
X119507000Y-100592255D01*
X121091861Y-100592255D01*
X121920000Y-101420395D01*
X122748139Y-100592255D01*
X122674005Y-100346136D01*
X122136777Y-100153035D01*
X121566546Y-100180222D01*
X121165995Y-100346136D01*
X121091861Y-100592255D01*
X119507000Y-100592255D01*
X119507000Y-96624895D01*
X120130947Y-96000948D01*
X120361160Y-95656410D01*
X120390466Y-95509077D01*
X120442000Y-95250000D01*
X120442000Y-93955962D01*
X120693000Y-93955962D01*
X120693000Y-94004038D01*
X120786400Y-94473591D01*
X121052380Y-94871658D01*
X121450447Y-95137638D01*
X121920000Y-95231038D01*
X122389553Y-95137638D01*
X122787620Y-94871658D01*
X123053600Y-94473591D01*
X123147000Y-94004038D01*
X123147000Y-93955962D01*
X123053600Y-93486409D01*
X122787620Y-93088342D01*
X122389553Y-92822362D01*
X121920000Y-92728962D01*
X121450447Y-92822362D01*
X121052380Y-93088342D01*
X120786400Y-93486409D01*
X120693000Y-93955962D01*
X120442000Y-93955962D01*
X120442000Y-93149894D01*
X120765948Y-92825947D01*
X120996160Y-92481409D01*
X121077000Y-92075000D01*
X120996160Y-91668590D01*
X120765948Y-91324052D01*
X120421410Y-91093840D01*
X120015000Y-91013000D01*
X119608591Y-91093840D01*
X119507000Y-91161721D01*
X119507000Y-89730422D01*
X121592057Y-87645365D01*
X122770000Y-87645365D01*
X122928237Y-87615591D01*
X123073567Y-87522073D01*
X123171064Y-87379381D01*
X123205365Y-87210000D01*
X123205365Y-87114764D01*
X123264817Y-87241358D01*
X123693076Y-87631645D01*
X124103110Y-87801476D01*
X124333000Y-87680155D01*
X124333000Y-86487000D01*
X124313000Y-86487000D01*
X124313000Y-86233000D01*
X124333000Y-86233000D01*
X124333000Y-85039845D01*
X124103110Y-84918524D01*
X123693076Y-85088355D01*
X123264817Y-85478642D01*
X123205365Y-85605236D01*
X123205365Y-85510000D01*
X123175591Y-85351763D01*
X123082073Y-85206433D01*
X122939381Y-85108936D01*
X122872109Y-85095313D01*
X127280422Y-80687000D01*
X140689578Y-80687000D01*
X141256111Y-81253533D01*
X140292762Y-80853516D01*
X139112416Y-80852486D01*
X138021525Y-81303233D01*
X137186166Y-82137135D01*
X136733516Y-83227238D01*
X136732486Y-84407584D01*
X137183233Y-85498475D01*
X138017135Y-86333834D01*
X139107238Y-86786484D01*
X140287584Y-86787514D01*
X141378475Y-86336767D01*
X142213834Y-85502865D01*
X142666484Y-84412762D01*
X142667514Y-83232416D01*
X142267933Y-82265355D01*
X142833000Y-82830423D01*
X142833000Y-94969578D01*
X138328716Y-99473862D01*
X138411038Y-99060000D01*
X138317638Y-98590447D01*
X138051658Y-98192380D01*
X137653591Y-97926400D01*
X137184038Y-97833000D01*
X137135962Y-97833000D01*
X136666409Y-97926400D01*
X136268342Y-98192380D01*
X136002362Y-98590447D01*
X135908962Y-99060000D01*
X136002362Y-99529553D01*
X136268342Y-99927620D01*
X136666409Y-100193600D01*
X137135962Y-100287000D01*
X137184038Y-100287000D01*
X137597900Y-100204678D01*
X137388840Y-100413738D01*
X137184038Y-100373000D01*
X137135962Y-100373000D01*
X136666409Y-100466400D01*
X136268342Y-100732380D01*
X136002362Y-101130447D01*
X135908962Y-101600000D01*
X136002362Y-102069553D01*
X136268342Y-102467620D01*
X136666409Y-102733600D01*
X137135962Y-102827000D01*
X137184038Y-102827000D01*
X137653591Y-102733600D01*
X138051658Y-102467620D01*
X138317638Y-102069553D01*
X138411038Y-101600000D01*
X138362324Y-101355098D01*
X143988711Y-95728711D01*
X144039714Y-95652380D01*
X144135466Y-95509077D01*
X144187000Y-95250000D01*
X144187000Y-82550000D01*
X144135466Y-82290923D01*
X144062088Y-82181106D01*
X143988711Y-82071288D01*
X141448711Y-79531289D01*
X141229077Y-79384534D01*
X140970000Y-79333000D01*
X127000000Y-79333000D01*
X126740923Y-79384534D01*
X126521289Y-79531289D01*
X121441289Y-84611289D01*
X121294534Y-84830923D01*
X121246056Y-85074635D01*
X121070000Y-85074635D01*
X120911763Y-85104409D01*
X120766433Y-85197927D01*
X120668936Y-85340619D01*
X120634635Y-85510000D01*
X120634635Y-86687943D01*
X119507000Y-87815578D01*
X119507000Y-79242000D01*
X144278000Y-79242000D01*
X144278000Y-126498000D01*
G36*
X115443000Y-85791229D02*
X115202975Y-85432007D01*
X114788687Y-85155188D01*
X114300000Y-85057982D01*
X113811313Y-85155188D01*
X113397025Y-85432007D01*
X113120206Y-85846295D01*
X113045365Y-86222546D01*
X113045365Y-85510000D01*
X113015591Y-85351763D01*
X112922073Y-85206433D01*
X112779381Y-85108936D01*
X112610000Y-85074635D01*
X110910000Y-85074635D01*
X110751763Y-85104409D01*
X110606433Y-85197927D01*
X110508936Y-85340619D01*
X110474635Y-85510000D01*
X110474635Y-86143470D01*
X109739053Y-86879053D01*
X109508840Y-87223590D01*
X109428000Y-87630000D01*
X109428000Y-91648000D01*
X102870000Y-91648000D01*
X102463590Y-91728840D01*
X102407029Y-91766633D01*
X102472000Y-91440000D01*
X102472000Y-89848690D01*
X102502975Y-89827993D01*
X102779794Y-89413705D01*
X102854635Y-89037454D01*
X102854635Y-89750000D01*
X102884409Y-89908237D01*
X102977927Y-90053567D01*
X103120619Y-90151064D01*
X103290000Y-90185365D01*
X104990000Y-90185365D01*
X105148237Y-90155591D01*
X105293567Y-90062073D01*
X105391064Y-89919381D01*
X105425365Y-89750000D01*
X105425365Y-88050000D01*
X105395591Y-87891763D01*
X105302073Y-87746433D01*
X105159381Y-87648936D01*
X104990000Y-87614635D01*
X104378210Y-87614635D01*
X104628687Y-87564812D01*
X105042975Y-87287993D01*
X105319794Y-86873705D01*
X105417000Y-86385018D01*
X105417000Y-86334982D01*
X105319794Y-85846295D01*
X105042975Y-85432007D01*
X104628687Y-85155188D01*
X104140000Y-85057982D01*
X103651313Y-85155188D01*
X103237025Y-85432007D01*
X102960206Y-85846295D01*
X102870000Y-86299791D01*
X102779794Y-85846295D01*
X102502975Y-85432007D01*
X102088687Y-85155188D01*
X101600000Y-85057982D01*
X101111313Y-85155188D01*
X100697025Y-85432007D01*
X100420206Y-85846295D01*
X100323000Y-86334982D01*
X100323000Y-86385018D01*
X100420206Y-86873705D01*
X100697025Y-87287993D01*
X101111313Y-87564812D01*
X101439035Y-87630000D01*
X101111313Y-87695188D01*
X100697025Y-87972007D01*
X100420206Y-88386295D01*
X100323000Y-88874982D01*
X100323000Y-88925018D01*
X100420206Y-89413705D01*
X100697025Y-89827993D01*
X100728000Y-89848690D01*
X100728000Y-91078806D01*
X98443403Y-93363403D01*
X98254377Y-93646300D01*
X98188000Y-93980000D01*
X98254377Y-94313700D01*
X98443403Y-94596597D01*
X98726300Y-94785623D01*
X99060000Y-94852000D01*
X99267350Y-94810756D01*
X98620106Y-95458000D01*
X97120748Y-95458000D01*
X97013591Y-95386400D01*
X96857183Y-95355289D01*
X94730947Y-93229053D01*
X94386410Y-92998840D01*
X93980000Y-92918000D01*
X86360000Y-92918000D01*
X85953590Y-92998840D01*
X85609052Y-93229053D01*
X83523006Y-95315100D01*
X83125869Y-95479194D01*
X82780407Y-95824053D01*
X82593214Y-96274864D01*
X82592788Y-96762995D01*
X82779194Y-97214131D01*
X83124053Y-97559593D01*
X83574864Y-97746786D01*
X84062995Y-97747212D01*
X84514131Y-97560806D01*
X84859593Y-97215947D01*
X85025503Y-96816391D01*
X85529244Y-96312650D01*
X85488000Y-96520000D01*
X85488000Y-107950000D01*
X85554377Y-108283700D01*
X85743403Y-108566597D01*
X87013403Y-109836597D01*
X87296300Y-110025623D01*
X87630000Y-110092000D01*
X88014897Y-110092000D01*
X88406409Y-110353600D01*
X88875962Y-110447000D01*
X88924038Y-110447000D01*
X89393591Y-110353600D01*
X89791658Y-110087620D01*
X90057638Y-109689553D01*
X90151038Y-109220000D01*
X90057638Y-108750447D01*
X89791658Y-108352380D01*
X89393591Y-108086400D01*
X89270265Y-108061869D01*
X89755134Y-107832389D01*
X90131041Y-107417423D01*
X90291904Y-107029039D01*
X90169915Y-106807000D01*
X89027000Y-106807000D01*
X89027000Y-106827000D01*
X88773000Y-106827000D01*
X88773000Y-106807000D01*
X87630085Y-106807000D01*
X87508096Y-107029039D01*
X87668959Y-107417423D01*
X88044866Y-107832389D01*
X88529735Y-108061869D01*
X88406409Y-108086400D01*
X88014897Y-108348000D01*
X87991194Y-108348000D01*
X87232000Y-107588806D01*
X87232000Y-104489039D01*
X87508096Y-104489039D01*
X87668959Y-104877423D01*
X88044866Y-105292389D01*
X88293367Y-105410000D01*
X88044866Y-105527611D01*
X87668959Y-105942577D01*
X87508096Y-106330961D01*
X87630085Y-106553000D01*
X88773000Y-106553000D01*
X88773000Y-104267000D01*
X89027000Y-104267000D01*
X89027000Y-106553000D01*
X90169915Y-106553000D01*
X90291904Y-106330961D01*
X90131041Y-105942577D01*
X89755134Y-105527611D01*
X89506633Y-105410000D01*
X89755134Y-105292389D01*
X90131041Y-104877423D01*
X90291904Y-104489039D01*
X90169915Y-104267000D01*
X89027000Y-104267000D01*
X88773000Y-104267000D01*
X87630085Y-104267000D01*
X87508096Y-104489039D01*
X87232000Y-104489039D01*
X87232000Y-103790961D01*
X87508096Y-103790961D01*
X87630085Y-104013000D01*
X88773000Y-104013000D01*
X88773000Y-103993000D01*
X89027000Y-103993000D01*
X89027000Y-104013000D01*
X90169915Y-104013000D01*
X90291904Y-103790961D01*
X90131041Y-103402577D01*
X89755134Y-102987611D01*
X89270265Y-102758131D01*
X89393591Y-102733600D01*
X89791658Y-102467620D01*
X90057638Y-102069553D01*
X90151038Y-101600000D01*
X90148077Y-101585117D01*
X92056597Y-99676597D01*
X92245623Y-99393700D01*
X92312000Y-99060000D01*
X92312000Y-98625194D01*
X95271923Y-101585117D01*
X95268962Y-101600000D01*
X95362362Y-102069553D01*
X95628342Y-102467620D01*
X96026409Y-102733600D01*
X96149735Y-102758131D01*
X95664866Y-102987611D01*
X95288959Y-103402577D01*
X95128096Y-103790961D01*
X95250085Y-104013000D01*
X96393000Y-104013000D01*
X96393000Y-103993000D01*
X96647000Y-103993000D01*
X96647000Y-104013000D01*
X97789915Y-104013000D01*
X97911904Y-103790961D01*
X97751041Y-103402577D01*
X97375134Y-102987611D01*
X96890265Y-102758131D01*
X97013591Y-102733600D01*
X97411658Y-102467620D01*
X97677638Y-102069553D01*
X97771038Y-101600000D01*
X97677638Y-101130447D01*
X97411658Y-100732380D01*
X97013591Y-100466400D01*
X96544038Y-100373000D01*
X96526194Y-100373000D01*
X96426347Y-100273153D01*
X96495962Y-100287000D01*
X96544038Y-100287000D01*
X97013591Y-100193600D01*
X97411658Y-99927620D01*
X97677638Y-99529553D01*
X97771038Y-99060000D01*
X97677638Y-98590447D01*
X97411658Y-98192380D01*
X97013591Y-97926400D01*
X96544038Y-97833000D01*
X96495962Y-97833000D01*
X96026409Y-97926400D01*
X95628342Y-98192380D01*
X95362362Y-98590447D01*
X95268962Y-99060000D01*
X95282809Y-99129615D01*
X93326597Y-97173403D01*
X93043700Y-96984377D01*
X92710000Y-96918000D01*
X92376300Y-96984377D01*
X92312000Y-97027341D01*
X92312000Y-96520000D01*
X92245623Y-96186300D01*
X92056597Y-95903403D01*
X91773700Y-95714377D01*
X91440000Y-95648000D01*
X91106300Y-95714377D01*
X90823403Y-95903403D01*
X90634377Y-96186300D01*
X90568000Y-96520000D01*
X90568000Y-98698806D01*
X90137191Y-99129615D01*
X90151038Y-99060000D01*
X90057638Y-98590447D01*
X89791658Y-98192380D01*
X89393591Y-97926400D01*
X88924038Y-97833000D01*
X88875962Y-97833000D01*
X88406409Y-97926400D01*
X88008342Y-98192380D01*
X87742362Y-98590447D01*
X87648962Y-99060000D01*
X87742362Y-99529553D01*
X88008342Y-99927620D01*
X88406409Y-100193600D01*
X88875962Y-100287000D01*
X88924038Y-100287000D01*
X88993653Y-100273153D01*
X88893806Y-100373000D01*
X88875962Y-100373000D01*
X88406409Y-100466400D01*
X88008342Y-100732380D01*
X87742362Y-101130447D01*
X87648962Y-101600000D01*
X87742362Y-102069553D01*
X88008342Y-102467620D01*
X88406409Y-102733600D01*
X88529735Y-102758131D01*
X88044866Y-102987611D01*
X87668959Y-103402577D01*
X87508096Y-103790961D01*
X87232000Y-103790961D01*
X87232000Y-96520000D01*
X87165623Y-96186300D01*
X86976597Y-95903403D01*
X86702116Y-95720000D01*
X87664635Y-95720000D01*
X87664635Y-97320000D01*
X87694409Y-97478237D01*
X87787927Y-97623567D01*
X87930619Y-97721064D01*
X88100000Y-97755365D01*
X89700000Y-97755365D01*
X89858237Y-97725591D01*
X90003567Y-97632073D01*
X90101064Y-97489381D01*
X90135365Y-97320000D01*
X90135365Y-95720000D01*
X90105591Y-95561763D01*
X90012073Y-95416433D01*
X89869381Y-95318936D01*
X89700000Y-95284635D01*
X88100000Y-95284635D01*
X87941763Y-95314409D01*
X87796433Y-95407927D01*
X87698936Y-95550619D01*
X87664635Y-95720000D01*
X86702116Y-95720000D01*
X86693700Y-95714377D01*
X86360000Y-95648000D01*
X86152650Y-95689244D01*
X86799895Y-95042000D01*
X93540106Y-95042000D01*
X95331251Y-96833145D01*
X95362362Y-96989553D01*
X95628342Y-97387620D01*
X96026409Y-97653600D01*
X96495962Y-97747000D01*
X96544038Y-97747000D01*
X97013591Y-97653600D01*
X97120748Y-97582000D01*
X99060000Y-97582000D01*
X99466410Y-97501160D01*
X99810947Y-97270947D01*
X100769244Y-96312650D01*
X100728000Y-96520000D01*
X100728000Y-99060000D01*
X100794377Y-99393700D01*
X100983403Y-99676597D01*
X103268000Y-101961194D01*
X103268000Y-106680000D01*
X103334377Y-107013700D01*
X103523403Y-107296597D01*
X105431923Y-109205117D01*
X105428962Y-109220000D01*
X105522362Y-109689553D01*
X105788342Y-110087620D01*
X106186409Y-110353600D01*
X106655962Y-110447000D01*
X106704038Y-110447000D01*
X107173591Y-110353600D01*
X107571658Y-110087620D01*
X107837638Y-109689553D01*
X107931038Y-109220000D01*
X107837638Y-108750447D01*
X107571658Y-108352380D01*
X107173591Y-108086400D01*
X107050265Y-108061869D01*
X107535134Y-107832389D01*
X107911041Y-107417423D01*
X108071904Y-107029039D01*
X107949915Y-106807000D01*
X106807000Y-106807000D01*
X106807000Y-106827000D01*
X106553000Y-106827000D01*
X106553000Y-106807000D01*
X106533000Y-106807000D01*
X106533000Y-106553000D01*
X106553000Y-106553000D01*
X106553000Y-104267000D01*
X106807000Y-104267000D01*
X106807000Y-106553000D01*
X107949915Y-106553000D01*
X108071904Y-106330961D01*
X107911041Y-105942577D01*
X107535134Y-105527611D01*
X107286633Y-105410000D01*
X107535134Y-105292389D01*
X107911041Y-104877423D01*
X108071904Y-104489039D01*
X107949915Y-104267000D01*
X106807000Y-104267000D01*
X106553000Y-104267000D01*
X105410085Y-104267000D01*
X105288096Y-104489039D01*
X105448959Y-104877423D01*
X105824866Y-105292389D01*
X106073367Y-105410000D01*
X105824866Y-105527611D01*
X105448959Y-105942577D01*
X105288096Y-106330961D01*
X105410084Y-106552998D01*
X105246192Y-106552998D01*
X105012000Y-106318806D01*
X105012000Y-101600000D01*
X104945623Y-101266300D01*
X104756597Y-100983403D01*
X102472000Y-98698806D01*
X102472000Y-96520000D01*
X102405623Y-96186300D01*
X102216597Y-95903403D01*
X101933700Y-95714377D01*
X101600000Y-95648000D01*
X101392650Y-95689244D01*
X103309895Y-93772000D01*
X110050106Y-93772000D01*
X111967350Y-95689244D01*
X111760000Y-95648000D01*
X111426300Y-95714377D01*
X111143403Y-95903403D01*
X110954377Y-96186300D01*
X110888000Y-96520000D01*
X110888000Y-97027341D01*
X110823700Y-96984377D01*
X110490000Y-96918000D01*
X110156300Y-96984377D01*
X109873403Y-97173403D01*
X109684377Y-97456300D01*
X109618000Y-97790000D01*
X109618000Y-98500577D01*
X107915365Y-96797943D01*
X107915365Y-95720000D01*
X107885591Y-95561763D01*
X107792073Y-95416433D01*
X107649381Y-95318936D01*
X107480000Y-95284635D01*
X105880000Y-95284635D01*
X105721763Y-95314409D01*
X105576433Y-95407927D01*
X105478936Y-95550619D01*
X105444635Y-95720000D01*
X105444635Y-97320000D01*
X105474409Y-97478237D01*
X105567927Y-97623567D01*
X105710619Y-97721064D01*
X105880000Y-97755365D01*
X106957943Y-97755365D01*
X107117900Y-97915322D01*
X106704038Y-97833000D01*
X106655962Y-97833000D01*
X106186409Y-97926400D01*
X105788342Y-98192380D01*
X105522362Y-98590447D01*
X105428962Y-99060000D01*
X105442809Y-99129615D01*
X105012000Y-98698806D01*
X105012000Y-95250000D01*
X104945623Y-94916300D01*
X104756597Y-94633403D01*
X104473700Y-94444377D01*
X104140000Y-94378000D01*
X103806300Y-94444377D01*
X103523403Y-94633403D01*
X103334377Y-94916300D01*
X103268000Y-95250000D01*
X103268000Y-99060000D01*
X103334377Y-99393700D01*
X103523403Y-99676597D01*
X105431923Y-101585117D01*
X105428962Y-101600000D01*
X105522362Y-102069553D01*
X105788342Y-102467620D01*
X106186409Y-102733600D01*
X106309735Y-102758131D01*
X105824866Y-102987611D01*
X105448959Y-103402577D01*
X105288096Y-103790961D01*
X105410085Y-104013000D01*
X106553000Y-104013000D01*
X106553000Y-103993000D01*
X106807000Y-103993000D01*
X106807000Y-104013000D01*
X107949915Y-104013000D01*
X108071904Y-103790961D01*
X107911041Y-103402577D01*
X107535134Y-102987611D01*
X107050265Y-102758131D01*
X107173591Y-102733600D01*
X107571658Y-102467620D01*
X107837638Y-102069553D01*
X107931038Y-101600000D01*
X107837638Y-101130447D01*
X107571658Y-100732380D01*
X107173591Y-100466400D01*
X106704038Y-100373000D01*
X106686194Y-100373000D01*
X106586347Y-100273153D01*
X106655962Y-100287000D01*
X106704038Y-100287000D01*
X107173591Y-100193600D01*
X107571658Y-99927620D01*
X107837638Y-99529553D01*
X107931038Y-99060000D01*
X107848716Y-98646138D01*
X108543000Y-99340423D01*
X108543000Y-109220000D01*
X108594534Y-109479077D01*
X108644396Y-109553700D01*
X108741289Y-109698711D01*
X113097676Y-114055098D01*
X113048962Y-114300000D01*
X113142362Y-114769553D01*
X113408342Y-115167620D01*
X113806409Y-115433600D01*
X114275962Y-115527000D01*
X114324038Y-115527000D01*
X114793591Y-115433600D01*
X115191658Y-115167620D01*
X115443000Y-114791460D01*
X115443000Y-115570000D01*
X115453006Y-115619410D01*
X115480197Y-115659803D01*
X118020197Y-118199803D01*
X118062211Y-118227666D01*
X118110000Y-118237000D01*
X121390479Y-118237000D01*
X121555574Y-118636560D01*
X121921513Y-119003139D01*
X122399880Y-119201774D01*
X122917848Y-119202226D01*
X123396560Y-119004426D01*
X123763139Y-118638487D01*
X123929851Y-118237000D01*
X124899578Y-118237000D01*
X125045675Y-118383097D01*
X124722603Y-118705606D01*
X124541207Y-119142456D01*
X124540794Y-119615469D01*
X124721427Y-120052635D01*
X125055606Y-120387397D01*
X125492456Y-120568793D01*
X125965469Y-120569206D01*
X126402635Y-120388573D01*
X126737397Y-120054394D01*
X126918793Y-119617544D01*
X126919206Y-119144531D01*
X126738573Y-118707365D01*
X126407000Y-118375214D01*
X126407000Y-118237000D01*
X127439577Y-118237000D01*
X127585674Y-118383097D01*
X127262603Y-118705606D01*
X127081207Y-119142456D01*
X127080794Y-119615469D01*
X127261427Y-120052635D01*
X127595606Y-120387397D01*
X128032456Y-120568793D01*
X128505469Y-120569206D01*
X128942635Y-120388573D01*
X129277397Y-120054394D01*
X129413000Y-119727826D01*
X129413000Y-123398000D01*
X112199895Y-123398000D01*
X110447370Y-121645476D01*
X110399794Y-121406295D01*
X110122975Y-120992007D01*
X109932896Y-120865000D01*
X110196310Y-120865000D01*
X110429699Y-120768327D01*
X110608327Y-120589698D01*
X110705000Y-120356309D01*
X110705000Y-119665750D01*
X110546250Y-119507000D01*
X109347000Y-119507000D01*
X109347000Y-119527000D01*
X109093000Y-119527000D01*
X109093000Y-119507000D01*
X109073000Y-119507000D01*
X109073000Y-119253000D01*
X109093000Y-119253000D01*
X109093000Y-118053750D01*
X109347000Y-118053750D01*
X109347000Y-119253000D01*
X110546250Y-119253000D01*
X110705000Y-119094250D01*
X110705000Y-118403691D01*
X110608327Y-118170302D01*
X110429699Y-117991673D01*
X110196310Y-117895000D01*
X109505750Y-117895000D01*
X109347000Y-118053750D01*
X109093000Y-118053750D01*
X108934250Y-117895000D01*
X108243690Y-117895000D01*
X108010301Y-117991673D01*
X107831673Y-118170302D01*
X107735000Y-118403691D01*
X107735000Y-118679528D01*
X107582975Y-118452007D01*
X107168687Y-118175188D01*
X106680000Y-118077982D01*
X106191313Y-118175188D01*
X105777025Y-118452007D01*
X105500206Y-118866295D01*
X105410000Y-119319791D01*
X105319794Y-118866295D01*
X105202000Y-118690004D01*
X105202000Y-117279894D01*
X107017183Y-115464711D01*
X107173591Y-115433600D01*
X107280748Y-115362000D01*
X110050106Y-115362000D01*
X117359052Y-122670947D01*
X117624020Y-122847993D01*
X117703590Y-122901160D01*
X118110000Y-122982000D01*
X123917105Y-122982000D01*
X124222456Y-123108793D01*
X124695469Y-123109206D01*
X125132635Y-122928573D01*
X125161044Y-122900213D01*
X126199392Y-122900213D01*
X126268857Y-123142397D01*
X126792302Y-123329144D01*
X127347368Y-123301362D01*
X127731143Y-123142397D01*
X127800608Y-122900213D01*
X127000000Y-122099605D01*
X126199392Y-122900213D01*
X125161044Y-122900213D01*
X125467397Y-122594394D01*
X125616976Y-122234167D01*
X125618638Y-122267368D01*
X125777603Y-122651143D01*
X126019787Y-122720608D01*
X126820395Y-121920000D01*
X127179605Y-121920000D01*
X127980213Y-122720608D01*
X128222397Y-122651143D01*
X128409144Y-122127698D01*
X128381362Y-121572632D01*
X128222397Y-121188857D01*
X127980213Y-121119392D01*
X127179605Y-121920000D01*
X126820395Y-121920000D01*
X126019787Y-121119392D01*
X125777603Y-121188857D01*
X125623210Y-121621615D01*
X125468573Y-121247365D01*
X125161531Y-120939787D01*
X126199392Y-120939787D01*
X127000000Y-121740395D01*
X127800608Y-120939787D01*
X127731143Y-120697603D01*
X127207698Y-120510856D01*
X126652632Y-120538638D01*
X126268857Y-120697603D01*
X126199392Y-120939787D01*
X125161531Y-120939787D01*
X125134394Y-120912603D01*
X124697544Y-120731207D01*
X124224531Y-120730794D01*
X123916668Y-120858000D01*
X118549895Y-120858000D01*
X111240947Y-113549053D01*
X110896410Y-113318840D01*
X110490000Y-113238000D01*
X107280748Y-113238000D01*
X107173591Y-113166400D01*
X107017182Y-113135288D01*
X106841543Y-112959649D01*
X107173591Y-112893600D01*
X107571658Y-112627620D01*
X107837638Y-112229553D01*
X107931038Y-111760000D01*
X107837638Y-111290447D01*
X107571658Y-110892380D01*
X107173591Y-110626400D01*
X106704038Y-110533000D01*
X106655962Y-110533000D01*
X106186409Y-110626400D01*
X105788342Y-110892380D01*
X105522362Y-111290447D01*
X105464290Y-111582396D01*
X102734834Y-108852940D01*
X102662000Y-108676668D01*
X102662000Y-107222895D01*
X102788793Y-106917544D01*
X102789206Y-106444531D01*
X102608573Y-106007365D01*
X102274394Y-105672603D01*
X101914167Y-105523024D01*
X101947368Y-105521362D01*
X102331143Y-105362397D01*
X102400608Y-105120213D01*
X101600000Y-104319605D01*
X101585858Y-104333748D01*
X101406253Y-104154143D01*
X101420395Y-104140000D01*
X101779605Y-104140000D01*
X102580213Y-104940608D01*
X102822397Y-104871143D01*
X103009144Y-104347698D01*
X102981362Y-103792632D01*
X102822397Y-103408857D01*
X102580213Y-103339392D01*
X101779605Y-104140000D01*
X101420395Y-104140000D01*
X101406253Y-104125858D01*
X101585858Y-103946253D01*
X101600000Y-103960395D01*
X102400608Y-103159787D01*
X102331143Y-102917603D01*
X101807698Y-102730856D01*
X101406485Y-102750937D01*
X101891077Y-102266345D01*
X102011275Y-102216680D01*
X102215961Y-102012350D01*
X102326874Y-101745244D01*
X102327126Y-101456025D01*
X102216680Y-101188725D01*
X102012350Y-100984039D01*
X101745244Y-100873126D01*
X101456025Y-100872874D01*
X101188725Y-100983320D01*
X100984039Y-101187650D01*
X100933701Y-101308877D01*
X99932000Y-102310578D01*
X99932000Y-99060000D01*
X99865623Y-98726300D01*
X99676597Y-98443403D01*
X99393700Y-98254377D01*
X99060000Y-98188000D01*
X98726300Y-98254377D01*
X98443403Y-98443403D01*
X98254377Y-98726300D01*
X98188000Y-99060000D01*
X98188000Y-106318806D01*
X97953808Y-106552998D01*
X97789916Y-106552998D01*
X97911904Y-106330961D01*
X97751041Y-105942577D01*
X97375134Y-105527611D01*
X97126633Y-105410000D01*
X97375134Y-105292389D01*
X97751041Y-104877423D01*
X97911904Y-104489039D01*
X97789915Y-104267000D01*
X96647000Y-104267000D01*
X96647000Y-106553000D01*
X96667000Y-106553000D01*
X96667000Y-106807000D01*
X96647000Y-106807000D01*
X96647000Y-106827000D01*
X96393000Y-106827000D01*
X96393000Y-106807000D01*
X95250085Y-106807000D01*
X95128096Y-107029039D01*
X95288959Y-107417423D01*
X95664866Y-107832389D01*
X96149735Y-108061869D01*
X96026409Y-108086400D01*
X95628342Y-108352380D01*
X95362362Y-108750447D01*
X95268962Y-109220000D01*
X95362362Y-109689553D01*
X95628342Y-110087620D01*
X96026409Y-110353600D01*
X96495962Y-110447000D01*
X96544038Y-110447000D01*
X97013591Y-110353600D01*
X97411658Y-110087620D01*
X97677638Y-109689553D01*
X97771038Y-109220000D01*
X97768077Y-109205117D01*
X99653000Y-107320194D01*
X99653000Y-110209577D01*
X97688716Y-112173862D01*
X97771038Y-111760000D01*
X97677638Y-111290447D01*
X97411658Y-110892380D01*
X97013591Y-110626400D01*
X96544038Y-110533000D01*
X96495962Y-110533000D01*
X96026409Y-110626400D01*
X95628342Y-110892380D01*
X95500974Y-111083000D01*
X94414996Y-111083000D01*
X94595961Y-110902350D01*
X94706874Y-110635244D01*
X94707126Y-110346025D01*
X94657000Y-110224711D01*
X94657000Y-104489039D01*
X95128096Y-104489039D01*
X95288959Y-104877423D01*
X95664866Y-105292389D01*
X95913367Y-105410000D01*
X95664866Y-105527611D01*
X95288959Y-105942577D01*
X95128096Y-106330961D01*
X95250085Y-106553000D01*
X96393000Y-106553000D01*
X96393000Y-104267000D01*
X95250085Y-104267000D01*
X95128096Y-104489039D01*
X94657000Y-104489039D01*
X94657000Y-101865353D01*
X94706874Y-101745244D01*
X94707126Y-101456025D01*
X94596680Y-101188725D01*
X94392350Y-100984039D01*
X94125244Y-100873126D01*
X93836025Y-100872874D01*
X93568725Y-100983320D01*
X93364039Y-101187650D01*
X93253126Y-101454756D01*
X93252874Y-101743975D01*
X93303000Y-101865289D01*
X93303000Y-110224647D01*
X93253126Y-110344756D01*
X93252874Y-110633975D01*
X93363320Y-110901275D01*
X93544729Y-111083000D01*
X91440000Y-111083000D01*
X91180923Y-111134534D01*
X91057693Y-111216874D01*
X90961289Y-111281289D01*
X90068716Y-112173862D01*
X90151038Y-111760000D01*
X90057638Y-111290447D01*
X89791658Y-110892380D01*
X89393591Y-110626400D01*
X88924038Y-110533000D01*
X88875962Y-110533000D01*
X88406409Y-110626400D01*
X88008342Y-110892380D01*
X87742362Y-111290447D01*
X87648962Y-111760000D01*
X87742362Y-112229553D01*
X88008342Y-112627620D01*
X88406409Y-112893600D01*
X88875962Y-112987000D01*
X88924038Y-112987000D01*
X89393591Y-112893600D01*
X89457065Y-112851188D01*
X89443126Y-112884756D01*
X89442874Y-113173975D01*
X89457346Y-113209000D01*
X89393591Y-113166400D01*
X88924038Y-113073000D01*
X88875962Y-113073000D01*
X88406409Y-113166400D01*
X88299252Y-113238000D01*
X86799895Y-113238000D01*
X84954834Y-111392939D01*
X84882000Y-111216668D01*
X84882000Y-109762895D01*
X85008793Y-109457544D01*
X85009206Y-108984531D01*
X84828573Y-108547365D01*
X84494394Y-108212603D01*
X84134167Y-108063024D01*
X84167368Y-108061362D01*
X84551143Y-107902397D01*
X84620608Y-107660213D01*
X83820000Y-106859605D01*
X83019392Y-107660213D01*
X83088857Y-107902397D01*
X83521615Y-108056790D01*
X83147365Y-108211427D01*
X82812603Y-108545606D01*
X82631207Y-108982456D01*
X82630794Y-109455469D01*
X82758000Y-109763332D01*
X82758000Y-111217105D01*
X82631207Y-111522456D01*
X82630794Y-111995469D01*
X82811427Y-112432635D01*
X83145606Y-112767397D01*
X83453246Y-112895140D01*
X83476548Y-112918442D01*
X83472632Y-112918638D01*
X83088857Y-113077603D01*
X83019392Y-113319787D01*
X83820000Y-114120395D01*
X83834143Y-114106253D01*
X84013748Y-114285858D01*
X83999605Y-114300000D01*
X84800213Y-115100608D01*
X85042397Y-115031143D01*
X85186193Y-114628088D01*
X85609052Y-115050947D01*
X85952173Y-115280213D01*
X85953590Y-115281160D01*
X86360000Y-115362000D01*
X88299252Y-115362000D01*
X88406409Y-115433600D01*
X88562817Y-115464712D01*
X90689052Y-117590947D01*
X90833945Y-117687761D01*
X90824039Y-117697650D01*
X90805091Y-117743282D01*
X90786680Y-117698725D01*
X90582350Y-117494039D01*
X90315244Y-117383126D01*
X90026025Y-117382874D01*
X89758725Y-117493320D01*
X89554039Y-117697650D01*
X89443126Y-117964756D01*
X89442874Y-118253975D01*
X89493000Y-118375289D01*
X89493000Y-121187095D01*
X89051685Y-120121583D01*
X89051584Y-120121431D01*
X88624744Y-119834862D01*
X86539605Y-121920000D01*
X88624744Y-124005138D01*
X89051584Y-123718569D01*
X89493000Y-122652982D01*
X89493000Y-125730000D01*
X89544534Y-125989077D01*
X89691289Y-126208711D01*
X89910923Y-126355466D01*
X90170000Y-126407000D01*
X92444647Y-126407000D01*
X92564756Y-126456874D01*
X92853975Y-126457126D01*
X93121275Y-126346680D01*
X93325961Y-126142350D01*
X93436874Y-125875244D01*
X93437126Y-125586025D01*
X93326680Y-125318725D01*
X93145271Y-125137000D01*
X96520000Y-125137000D01*
X96779077Y-125085466D01*
X96998711Y-124938711D01*
X98772577Y-123164846D01*
X99060000Y-123222018D01*
X99548687Y-123124812D01*
X99962975Y-122847993D01*
X100239794Y-122433705D01*
X100330000Y-121980209D01*
X100420206Y-122433705D01*
X100697025Y-122847993D01*
X101111313Y-123124812D01*
X101600000Y-123222018D01*
X101887424Y-123164846D01*
X104931289Y-126208712D01*
X105150924Y-126355467D01*
X105410000Y-126407000D01*
X129413000Y-126407000D01*
X129413000Y-126498000D01*
X81782000Y-126498000D01*
X81782000Y-124184744D01*
X84274862Y-124184744D01*
X84561431Y-124611584D01*
X85728363Y-125094982D01*
X86991457Y-125095018D01*
X88158417Y-124611685D01*
X88158569Y-124611584D01*
X88445138Y-124184744D01*
X86360000Y-122099605D01*
X84274862Y-124184744D01*
X81782000Y-124184744D01*
X81782000Y-122551457D01*
X83184982Y-122551457D01*
X83668315Y-123718417D01*
X83668416Y-123718569D01*
X84095256Y-124005138D01*
X86180395Y-121920000D01*
X84095256Y-119834862D01*
X83668416Y-120121431D01*
X83185018Y-121288363D01*
X83184982Y-122551457D01*
X81782000Y-122551457D01*
X81782000Y-119655256D01*
X84274862Y-119655256D01*
X86360000Y-121740395D01*
X88445138Y-119655256D01*
X88158569Y-119228416D01*
X86991637Y-118745018D01*
X85728543Y-118744982D01*
X84561583Y-119228315D01*
X84561431Y-119228416D01*
X84274862Y-119655256D01*
X81782000Y-119655256D01*
X81782000Y-115280213D01*
X83019392Y-115280213D01*
X83088857Y-115522397D01*
X83612302Y-115709144D01*
X84167368Y-115681362D01*
X84551143Y-115522397D01*
X84620608Y-115280213D01*
X83820000Y-114479605D01*
X83019392Y-115280213D01*
X81782000Y-115280213D01*
X81782000Y-114092302D01*
X82410856Y-114092302D01*
X82438638Y-114647368D01*
X82597603Y-115031143D01*
X82839787Y-115100608D01*
X83640395Y-114300000D01*
X82839787Y-113499392D01*
X82597603Y-113568857D01*
X82410856Y-114092302D01*
X81782000Y-114092302D01*
X81782000Y-106472302D01*
X82410856Y-106472302D01*
X82438638Y-107027368D01*
X82597603Y-107411143D01*
X82839787Y-107480608D01*
X83640395Y-106680000D01*
X83999605Y-106680000D01*
X84800213Y-107480608D01*
X85042397Y-107411143D01*
X85229144Y-106887698D01*
X85201362Y-106332632D01*
X85042397Y-105948857D01*
X84800213Y-105879392D01*
X83999605Y-106680000D01*
X83640395Y-106680000D01*
X82839787Y-105879392D01*
X82597603Y-105948857D01*
X82410856Y-106472302D01*
X81782000Y-106472302D01*
X81782000Y-104115962D01*
X82593000Y-104115962D01*
X82593000Y-104164038D01*
X82686400Y-104633591D01*
X82952380Y-105031658D01*
X83350447Y-105297638D01*
X83434623Y-105314382D01*
X83088857Y-105457603D01*
X83019392Y-105699787D01*
X83820000Y-106500395D01*
X84620608Y-105699787D01*
X84551143Y-105457603D01*
X84169630Y-105321492D01*
X84289553Y-105297638D01*
X84687620Y-105031658D01*
X84953600Y-104633591D01*
X85047000Y-104164038D01*
X85047000Y-104115962D01*
X84953600Y-103646409D01*
X84687620Y-103248342D01*
X84497000Y-103120974D01*
X84497000Y-101865353D01*
X84546874Y-101745244D01*
X84547126Y-101456025D01*
X84436680Y-101188725D01*
X84232350Y-100984039D01*
X83965244Y-100873126D01*
X83676025Y-100872874D01*
X83408725Y-100983320D01*
X83204039Y-101187650D01*
X83093126Y-101454756D01*
X83092874Y-101743975D01*
X83143000Y-101865289D01*
X83143000Y-103120974D01*
X82952380Y-103248342D01*
X82686400Y-103646409D01*
X82593000Y-104115962D01*
X81782000Y-104115962D01*
X81782000Y-88900000D01*
X88028000Y-88900000D01*
X88028000Y-90170000D01*
X88094377Y-90503700D01*
X88283403Y-90786597D01*
X89553403Y-92056597D01*
X89836300Y-92245623D01*
X90170000Y-92312000D01*
X90503700Y-92245623D01*
X90786597Y-92056597D01*
X90975623Y-91773700D01*
X91042000Y-91440000D01*
X90975623Y-91106300D01*
X90786597Y-90823403D01*
X89772000Y-89808806D01*
X89772000Y-89261194D01*
X90164189Y-88869005D01*
X90163000Y-88874982D01*
X90163000Y-88925018D01*
X90260206Y-89413705D01*
X90537025Y-89827993D01*
X90951313Y-90104812D01*
X91440000Y-90202018D01*
X91928687Y-90104812D01*
X92342975Y-89827993D01*
X92619794Y-89413705D01*
X92694635Y-89037454D01*
X92694635Y-89750000D01*
X92724409Y-89908237D01*
X92817927Y-90053567D01*
X92960619Y-90151064D01*
X93130000Y-90185365D01*
X94830000Y-90185365D01*
X94988237Y-90155591D01*
X95133567Y-90062073D01*
X95231064Y-89919381D01*
X95265365Y-89750000D01*
X95265365Y-88050000D01*
X95235591Y-87891763D01*
X95142073Y-87746433D01*
X94999381Y-87648936D01*
X94830000Y-87614635D01*
X94218210Y-87614635D01*
X94468687Y-87564812D01*
X94882975Y-87287993D01*
X94907738Y-87250932D01*
X95648000Y-87991194D01*
X95648000Y-90568000D01*
X92710000Y-90568000D01*
X92376300Y-90634377D01*
X92093403Y-90823403D01*
X91904377Y-91106300D01*
X91838000Y-91440000D01*
X91904377Y-91773700D01*
X92093403Y-92056597D01*
X92376300Y-92245623D01*
X92710000Y-92312000D01*
X96520000Y-92312000D01*
X96853700Y-92245623D01*
X97136597Y-92056597D01*
X97325623Y-91773700D01*
X97392000Y-91440000D01*
X97392000Y-87630000D01*
X97325623Y-87296300D01*
X97136597Y-87013403D01*
X95866597Y-85743403D01*
X95583700Y-85554377D01*
X95250000Y-85488000D01*
X94920388Y-85488000D01*
X94882975Y-85432007D01*
X94468687Y-85155188D01*
X93980000Y-85057982D01*
X93491313Y-85155188D01*
X93077025Y-85432007D01*
X92800206Y-85846295D01*
X92710000Y-86299791D01*
X92619794Y-85846295D01*
X92342975Y-85432007D01*
X91928687Y-85155188D01*
X91440000Y-85057982D01*
X90951313Y-85155188D01*
X90537025Y-85432007D01*
X90260206Y-85846295D01*
X90163000Y-86334982D01*
X90163000Y-86385018D01*
X90166117Y-86400689D01*
X88283403Y-88283403D01*
X88094377Y-88566300D01*
X88028000Y-88900000D01*
X81782000Y-88900000D01*
X81782000Y-86084744D01*
X84274862Y-86084744D01*
X84561431Y-86511584D01*
X85728363Y-86994982D01*
X86991457Y-86995018D01*
X88158417Y-86511685D01*
X88158569Y-86511584D01*
X88445138Y-86084744D01*
X86360000Y-83999605D01*
X84274862Y-86084744D01*
X81782000Y-86084744D01*
X81782000Y-84451457D01*
X83184982Y-84451457D01*
X83668315Y-85618417D01*
X83668416Y-85618569D01*
X84095256Y-85905138D01*
X86180395Y-83820000D01*
X86539605Y-83820000D01*
X88624744Y-85905138D01*
X89051584Y-85618569D01*
X89534982Y-84451637D01*
X89535018Y-83188543D01*
X89051685Y-82021583D01*
X89051584Y-82021431D01*
X88624744Y-81734862D01*
X86539605Y-83820000D01*
X86180395Y-83820000D01*
X84095256Y-81734862D01*
X83668416Y-82021431D01*
X83185018Y-83188363D01*
X83184982Y-84451457D01*
X81782000Y-84451457D01*
X81782000Y-81555256D01*
X84274862Y-81555256D01*
X86360000Y-83640395D01*
X88445138Y-81555256D01*
X88158569Y-81128416D01*
X86991637Y-80645018D01*
X85728543Y-80644982D01*
X84561583Y-81128315D01*
X84561431Y-81128416D01*
X84274862Y-81555256D01*
X81782000Y-81555256D01*
X81782000Y-79242000D01*
X115443000Y-79242000D01*
X115443000Y-85791229D01*
X115443000Y-85791229D01*
G37*
X115443000Y-85791229D02*
X115202975Y-85432007D01*
X114788687Y-85155188D01*
X114300000Y-85057982D01*
X113811313Y-85155188D01*
X113397025Y-85432007D01*
X113120206Y-85846295D01*
X113045365Y-86222546D01*
X113045365Y-85510000D01*
X113015591Y-85351763D01*
X112922073Y-85206433D01*
X112779381Y-85108936D01*
X112610000Y-85074635D01*
X110910000Y-85074635D01*
X110751763Y-85104409D01*
X110606433Y-85197927D01*
X110508936Y-85340619D01*
X110474635Y-85510000D01*
X110474635Y-86143470D01*
X109739053Y-86879053D01*
X109508840Y-87223590D01*
X109428000Y-87630000D01*
X109428000Y-91648000D01*
X102870000Y-91648000D01*
X102463590Y-91728840D01*
X102407029Y-91766633D01*
X102472000Y-91440000D01*
X102472000Y-89848690D01*
X102502975Y-89827993D01*
X102779794Y-89413705D01*
X102854635Y-89037454D01*
X102854635Y-89750000D01*
X102884409Y-89908237D01*
X102977927Y-90053567D01*
X103120619Y-90151064D01*
X103290000Y-90185365D01*
X104990000Y-90185365D01*
X105148237Y-90155591D01*
X105293567Y-90062073D01*
X105391064Y-89919381D01*
X105425365Y-89750000D01*
X105425365Y-88050000D01*
X105395591Y-87891763D01*
X105302073Y-87746433D01*
X105159381Y-87648936D01*
X104990000Y-87614635D01*
X104378210Y-87614635D01*
X104628687Y-87564812D01*
X105042975Y-87287993D01*
X105319794Y-86873705D01*
X105417000Y-86385018D01*
X105417000Y-86334982D01*
X105319794Y-85846295D01*
X105042975Y-85432007D01*
X104628687Y-85155188D01*
X104140000Y-85057982D01*
X103651313Y-85155188D01*
X103237025Y-85432007D01*
X102960206Y-85846295D01*
X102870000Y-86299791D01*
X102779794Y-85846295D01*
X102502975Y-85432007D01*
X102088687Y-85155188D01*
X101600000Y-85057982D01*
X101111313Y-85155188D01*
X100697025Y-85432007D01*
X100420206Y-85846295D01*
X100323000Y-86334982D01*
X100323000Y-86385018D01*
X100420206Y-86873705D01*
X100697025Y-87287993D01*
X101111313Y-87564812D01*
X101439035Y-87630000D01*
X101111313Y-87695188D01*
X100697025Y-87972007D01*
X100420206Y-88386295D01*
X100323000Y-88874982D01*
X100323000Y-88925018D01*
X100420206Y-89413705D01*
X100697025Y-89827993D01*
X100728000Y-89848690D01*
X100728000Y-91078806D01*
X98443403Y-93363403D01*
X98254377Y-93646300D01*
X98188000Y-93980000D01*
X98254377Y-94313700D01*
X98443403Y-94596597D01*
X98726300Y-94785623D01*
X99060000Y-94852000D01*
X99267350Y-94810756D01*
X98620106Y-95458000D01*
X97120748Y-95458000D01*
X97013591Y-95386400D01*
X96857183Y-95355289D01*
X94730947Y-93229053D01*
X94386410Y-92998840D01*
X93980000Y-92918000D01*
X86360000Y-92918000D01*
X85953590Y-92998840D01*
X85609052Y-93229053D01*
X83523006Y-95315100D01*
X83125869Y-95479194D01*
X82780407Y-95824053D01*
X82593214Y-96274864D01*
X82592788Y-96762995D01*
X82779194Y-97214131D01*
X83124053Y-97559593D01*
X83574864Y-97746786D01*
X84062995Y-97747212D01*
X84514131Y-97560806D01*
X84859593Y-97215947D01*
X85025503Y-96816391D01*
X85529244Y-96312650D01*
X85488000Y-96520000D01*
X85488000Y-107950000D01*
X85554377Y-108283700D01*
X85743403Y-108566597D01*
X87013403Y-109836597D01*
X87296300Y-110025623D01*
X87630000Y-110092000D01*
X88014897Y-110092000D01*
X88406409Y-110353600D01*
X88875962Y-110447000D01*
X88924038Y-110447000D01*
X89393591Y-110353600D01*
X89791658Y-110087620D01*
X90057638Y-109689553D01*
X90151038Y-109220000D01*
X90057638Y-108750447D01*
X89791658Y-108352380D01*
X89393591Y-108086400D01*
X89270265Y-108061869D01*
X89755134Y-107832389D01*
X90131041Y-107417423D01*
X90291904Y-107029039D01*
X90169915Y-106807000D01*
X89027000Y-106807000D01*
X89027000Y-106827000D01*
X88773000Y-106827000D01*
X88773000Y-106807000D01*
X87630085Y-106807000D01*
X87508096Y-107029039D01*
X87668959Y-107417423D01*
X88044866Y-107832389D01*
X88529735Y-108061869D01*
X88406409Y-108086400D01*
X88014897Y-108348000D01*
X87991194Y-108348000D01*
X87232000Y-107588806D01*
X87232000Y-104489039D01*
X87508096Y-104489039D01*
X87668959Y-104877423D01*
X88044866Y-105292389D01*
X88293367Y-105410000D01*
X88044866Y-105527611D01*
X87668959Y-105942577D01*
X87508096Y-106330961D01*
X87630085Y-106553000D01*
X88773000Y-106553000D01*
X88773000Y-104267000D01*
X89027000Y-104267000D01*
X89027000Y-106553000D01*
X90169915Y-106553000D01*
X90291904Y-106330961D01*
X90131041Y-105942577D01*
X89755134Y-105527611D01*
X89506633Y-105410000D01*
X89755134Y-105292389D01*
X90131041Y-104877423D01*
X90291904Y-104489039D01*
X90169915Y-104267000D01*
X89027000Y-104267000D01*
X88773000Y-104267000D01*
X87630085Y-104267000D01*
X87508096Y-104489039D01*
X87232000Y-104489039D01*
X87232000Y-103790961D01*
X87508096Y-103790961D01*
X87630085Y-104013000D01*
X88773000Y-104013000D01*
X88773000Y-103993000D01*
X89027000Y-103993000D01*
X89027000Y-104013000D01*
X90169915Y-104013000D01*
X90291904Y-103790961D01*
X90131041Y-103402577D01*
X89755134Y-102987611D01*
X89270265Y-102758131D01*
X89393591Y-102733600D01*
X89791658Y-102467620D01*
X90057638Y-102069553D01*
X90151038Y-101600000D01*
X90148077Y-101585117D01*
X92056597Y-99676597D01*
X92245623Y-99393700D01*
X92312000Y-99060000D01*
X92312000Y-98625194D01*
X95271923Y-101585117D01*
X95268962Y-101600000D01*
X95362362Y-102069553D01*
X95628342Y-102467620D01*
X96026409Y-102733600D01*
X96149735Y-102758131D01*
X95664866Y-102987611D01*
X95288959Y-103402577D01*
X95128096Y-103790961D01*
X95250085Y-104013000D01*
X96393000Y-104013000D01*
X96393000Y-103993000D01*
X96647000Y-103993000D01*
X96647000Y-104013000D01*
X97789915Y-104013000D01*
X97911904Y-103790961D01*
X97751041Y-103402577D01*
X97375134Y-102987611D01*
X96890265Y-102758131D01*
X97013591Y-102733600D01*
X97411658Y-102467620D01*
X97677638Y-102069553D01*
X97771038Y-101600000D01*
X97677638Y-101130447D01*
X97411658Y-100732380D01*
X97013591Y-100466400D01*
X96544038Y-100373000D01*
X96526194Y-100373000D01*
X96426347Y-100273153D01*
X96495962Y-100287000D01*
X96544038Y-100287000D01*
X97013591Y-100193600D01*
X97411658Y-99927620D01*
X97677638Y-99529553D01*
X97771038Y-99060000D01*
X97677638Y-98590447D01*
X97411658Y-98192380D01*
X97013591Y-97926400D01*
X96544038Y-97833000D01*
X96495962Y-97833000D01*
X96026409Y-97926400D01*
X95628342Y-98192380D01*
X95362362Y-98590447D01*
X95268962Y-99060000D01*
X95282809Y-99129615D01*
X93326597Y-97173403D01*
X93043700Y-96984377D01*
X92710000Y-96918000D01*
X92376300Y-96984377D01*
X92312000Y-97027341D01*
X92312000Y-96520000D01*
X92245623Y-96186300D01*
X92056597Y-95903403D01*
X91773700Y-95714377D01*
X91440000Y-95648000D01*
X91106300Y-95714377D01*
X90823403Y-95903403D01*
X90634377Y-96186300D01*
X90568000Y-96520000D01*
X90568000Y-98698806D01*
X90137191Y-99129615D01*
X90151038Y-99060000D01*
X90057638Y-98590447D01*
X89791658Y-98192380D01*
X89393591Y-97926400D01*
X88924038Y-97833000D01*
X88875962Y-97833000D01*
X88406409Y-97926400D01*
X88008342Y-98192380D01*
X87742362Y-98590447D01*
X87648962Y-99060000D01*
X87742362Y-99529553D01*
X88008342Y-99927620D01*
X88406409Y-100193600D01*
X88875962Y-100287000D01*
X88924038Y-100287000D01*
X88993653Y-100273153D01*
X88893806Y-100373000D01*
X88875962Y-100373000D01*
X88406409Y-100466400D01*
X88008342Y-100732380D01*
X87742362Y-101130447D01*
X87648962Y-101600000D01*
X87742362Y-102069553D01*
X88008342Y-102467620D01*
X88406409Y-102733600D01*
X88529735Y-102758131D01*
X88044866Y-102987611D01*
X87668959Y-103402577D01*
X87508096Y-103790961D01*
X87232000Y-103790961D01*
X87232000Y-96520000D01*
X87165623Y-96186300D01*
X86976597Y-95903403D01*
X86702116Y-95720000D01*
X87664635Y-95720000D01*
X87664635Y-97320000D01*
X87694409Y-97478237D01*
X87787927Y-97623567D01*
X87930619Y-97721064D01*
X88100000Y-97755365D01*
X89700000Y-97755365D01*
X89858237Y-97725591D01*
X90003567Y-97632073D01*
X90101064Y-97489381D01*
X90135365Y-97320000D01*
X90135365Y-95720000D01*
X90105591Y-95561763D01*
X90012073Y-95416433D01*
X89869381Y-95318936D01*
X89700000Y-95284635D01*
X88100000Y-95284635D01*
X87941763Y-95314409D01*
X87796433Y-95407927D01*
X87698936Y-95550619D01*
X87664635Y-95720000D01*
X86702116Y-95720000D01*
X86693700Y-95714377D01*
X86360000Y-95648000D01*
X86152650Y-95689244D01*
X86799895Y-95042000D01*
X93540106Y-95042000D01*
X95331251Y-96833145D01*
X95362362Y-96989553D01*
X95628342Y-97387620D01*
X96026409Y-97653600D01*
X96495962Y-97747000D01*
X96544038Y-97747000D01*
X97013591Y-97653600D01*
X97120748Y-97582000D01*
X99060000Y-97582000D01*
X99466410Y-97501160D01*
X99810947Y-97270947D01*
X100769244Y-96312650D01*
X100728000Y-96520000D01*
X100728000Y-99060000D01*
X100794377Y-99393700D01*
X100983403Y-99676597D01*
X103268000Y-101961194D01*
X103268000Y-106680000D01*
X103334377Y-107013700D01*
X103523403Y-107296597D01*
X105431923Y-109205117D01*
X105428962Y-109220000D01*
X105522362Y-109689553D01*
X105788342Y-110087620D01*
X106186409Y-110353600D01*
X106655962Y-110447000D01*
X106704038Y-110447000D01*
X107173591Y-110353600D01*
X107571658Y-110087620D01*
X107837638Y-109689553D01*
X107931038Y-109220000D01*
X107837638Y-108750447D01*
X107571658Y-108352380D01*
X107173591Y-108086400D01*
X107050265Y-108061869D01*
X107535134Y-107832389D01*
X107911041Y-107417423D01*
X108071904Y-107029039D01*
X107949915Y-106807000D01*
X106807000Y-106807000D01*
X106807000Y-106827000D01*
X106553000Y-106827000D01*
X106553000Y-106807000D01*
X106533000Y-106807000D01*
X106533000Y-106553000D01*
X106553000Y-106553000D01*
X106553000Y-104267000D01*
X106807000Y-104267000D01*
X106807000Y-106553000D01*
X107949915Y-106553000D01*
X108071904Y-106330961D01*
X107911041Y-105942577D01*
X107535134Y-105527611D01*
X107286633Y-105410000D01*
X107535134Y-105292389D01*
X107911041Y-104877423D01*
X108071904Y-104489039D01*
X107949915Y-104267000D01*
X106807000Y-104267000D01*
X106553000Y-104267000D01*
X105410085Y-104267000D01*
X105288096Y-104489039D01*
X105448959Y-104877423D01*
X105824866Y-105292389D01*
X106073367Y-105410000D01*
X105824866Y-105527611D01*
X105448959Y-105942577D01*
X105288096Y-106330961D01*
X105410084Y-106552998D01*
X105246192Y-106552998D01*
X105012000Y-106318806D01*
X105012000Y-101600000D01*
X104945623Y-101266300D01*
X104756597Y-100983403D01*
X102472000Y-98698806D01*
X102472000Y-96520000D01*
X102405623Y-96186300D01*
X102216597Y-95903403D01*
X101933700Y-95714377D01*
X101600000Y-95648000D01*
X101392650Y-95689244D01*
X103309895Y-93772000D01*
X110050106Y-93772000D01*
X111967350Y-95689244D01*
X111760000Y-95648000D01*
X111426300Y-95714377D01*
X111143403Y-95903403D01*
X110954377Y-96186300D01*
X110888000Y-96520000D01*
X110888000Y-97027341D01*
X110823700Y-96984377D01*
X110490000Y-96918000D01*
X110156300Y-96984377D01*
X109873403Y-97173403D01*
X109684377Y-97456300D01*
X109618000Y-97790000D01*
X109618000Y-98500577D01*
X107915365Y-96797943D01*
X107915365Y-95720000D01*
X107885591Y-95561763D01*
X107792073Y-95416433D01*
X107649381Y-95318936D01*
X107480000Y-95284635D01*
X105880000Y-95284635D01*
X105721763Y-95314409D01*
X105576433Y-95407927D01*
X105478936Y-95550619D01*
X105444635Y-95720000D01*
X105444635Y-97320000D01*
X105474409Y-97478237D01*
X105567927Y-97623567D01*
X105710619Y-97721064D01*
X105880000Y-97755365D01*
X106957943Y-97755365D01*
X107117900Y-97915322D01*
X106704038Y-97833000D01*
X106655962Y-97833000D01*
X106186409Y-97926400D01*
X105788342Y-98192380D01*
X105522362Y-98590447D01*
X105428962Y-99060000D01*
X105442809Y-99129615D01*
X105012000Y-98698806D01*
X105012000Y-95250000D01*
X104945623Y-94916300D01*
X104756597Y-94633403D01*
X104473700Y-94444377D01*
X104140000Y-94378000D01*
X103806300Y-94444377D01*
X103523403Y-94633403D01*
X103334377Y-94916300D01*
X103268000Y-95250000D01*
X103268000Y-99060000D01*
X103334377Y-99393700D01*
X103523403Y-99676597D01*
X105431923Y-101585117D01*
X105428962Y-101600000D01*
X105522362Y-102069553D01*
X105788342Y-102467620D01*
X106186409Y-102733600D01*
X106309735Y-102758131D01*
X105824866Y-102987611D01*
X105448959Y-103402577D01*
X105288096Y-103790961D01*
X105410085Y-104013000D01*
X106553000Y-104013000D01*
X106553000Y-103993000D01*
X106807000Y-103993000D01*
X106807000Y-104013000D01*
X107949915Y-104013000D01*
X108071904Y-103790961D01*
X107911041Y-103402577D01*
X107535134Y-102987611D01*
X107050265Y-102758131D01*
X107173591Y-102733600D01*
X107571658Y-102467620D01*
X107837638Y-102069553D01*
X107931038Y-101600000D01*
X107837638Y-101130447D01*
X107571658Y-100732380D01*
X107173591Y-100466400D01*
X106704038Y-100373000D01*
X106686194Y-100373000D01*
X106586347Y-100273153D01*
X106655962Y-100287000D01*
X106704038Y-100287000D01*
X107173591Y-100193600D01*
X107571658Y-99927620D01*
X107837638Y-99529553D01*
X107931038Y-99060000D01*
X107848716Y-98646138D01*
X108543000Y-99340423D01*
X108543000Y-109220000D01*
X108594534Y-109479077D01*
X108644396Y-109553700D01*
X108741289Y-109698711D01*
X113097676Y-114055098D01*
X113048962Y-114300000D01*
X113142362Y-114769553D01*
X113408342Y-115167620D01*
X113806409Y-115433600D01*
X114275962Y-115527000D01*
X114324038Y-115527000D01*
X114793591Y-115433600D01*
X115191658Y-115167620D01*
X115443000Y-114791460D01*
X115443000Y-115570000D01*
X115453006Y-115619410D01*
X115480197Y-115659803D01*
X118020197Y-118199803D01*
X118062211Y-118227666D01*
X118110000Y-118237000D01*
X121390479Y-118237000D01*
X121555574Y-118636560D01*
X121921513Y-119003139D01*
X122399880Y-119201774D01*
X122917848Y-119202226D01*
X123396560Y-119004426D01*
X123763139Y-118638487D01*
X123929851Y-118237000D01*
X124899578Y-118237000D01*
X125045675Y-118383097D01*
X124722603Y-118705606D01*
X124541207Y-119142456D01*
X124540794Y-119615469D01*
X124721427Y-120052635D01*
X125055606Y-120387397D01*
X125492456Y-120568793D01*
X125965469Y-120569206D01*
X126402635Y-120388573D01*
X126737397Y-120054394D01*
X126918793Y-119617544D01*
X126919206Y-119144531D01*
X126738573Y-118707365D01*
X126407000Y-118375214D01*
X126407000Y-118237000D01*
X127439577Y-118237000D01*
X127585674Y-118383097D01*
X127262603Y-118705606D01*
X127081207Y-119142456D01*
X127080794Y-119615469D01*
X127261427Y-120052635D01*
X127595606Y-120387397D01*
X128032456Y-120568793D01*
X128505469Y-120569206D01*
X128942635Y-120388573D01*
X129277397Y-120054394D01*
X129413000Y-119727826D01*
X129413000Y-123398000D01*
X112199895Y-123398000D01*
X110447370Y-121645476D01*
X110399794Y-121406295D01*
X110122975Y-120992007D01*
X109932896Y-120865000D01*
X110196310Y-120865000D01*
X110429699Y-120768327D01*
X110608327Y-120589698D01*
X110705000Y-120356309D01*
X110705000Y-119665750D01*
X110546250Y-119507000D01*
X109347000Y-119507000D01*
X109347000Y-119527000D01*
X109093000Y-119527000D01*
X109093000Y-119507000D01*
X109073000Y-119507000D01*
X109073000Y-119253000D01*
X109093000Y-119253000D01*
X109093000Y-118053750D01*
X109347000Y-118053750D01*
X109347000Y-119253000D01*
X110546250Y-119253000D01*
X110705000Y-119094250D01*
X110705000Y-118403691D01*
X110608327Y-118170302D01*
X110429699Y-117991673D01*
X110196310Y-117895000D01*
X109505750Y-117895000D01*
X109347000Y-118053750D01*
X109093000Y-118053750D01*
X108934250Y-117895000D01*
X108243690Y-117895000D01*
X108010301Y-117991673D01*
X107831673Y-118170302D01*
X107735000Y-118403691D01*
X107735000Y-118679528D01*
X107582975Y-118452007D01*
X107168687Y-118175188D01*
X106680000Y-118077982D01*
X106191313Y-118175188D01*
X105777025Y-118452007D01*
X105500206Y-118866295D01*
X105410000Y-119319791D01*
X105319794Y-118866295D01*
X105202000Y-118690004D01*
X105202000Y-117279894D01*
X107017183Y-115464711D01*
X107173591Y-115433600D01*
X107280748Y-115362000D01*
X110050106Y-115362000D01*
X117359052Y-122670947D01*
X117624020Y-122847993D01*
X117703590Y-122901160D01*
X118110000Y-122982000D01*
X123917105Y-122982000D01*
X124222456Y-123108793D01*
X124695469Y-123109206D01*
X125132635Y-122928573D01*
X125161044Y-122900213D01*
X126199392Y-122900213D01*
X126268857Y-123142397D01*
X126792302Y-123329144D01*
X127347368Y-123301362D01*
X127731143Y-123142397D01*
X127800608Y-122900213D01*
X127000000Y-122099605D01*
X126199392Y-122900213D01*
X125161044Y-122900213D01*
X125467397Y-122594394D01*
X125616976Y-122234167D01*
X125618638Y-122267368D01*
X125777603Y-122651143D01*
X126019787Y-122720608D01*
X126820395Y-121920000D01*
X127179605Y-121920000D01*
X127980213Y-122720608D01*
X128222397Y-122651143D01*
X128409144Y-122127698D01*
X128381362Y-121572632D01*
X128222397Y-121188857D01*
X127980213Y-121119392D01*
X127179605Y-121920000D01*
X126820395Y-121920000D01*
X126019787Y-121119392D01*
X125777603Y-121188857D01*
X125623210Y-121621615D01*
X125468573Y-121247365D01*
X125161531Y-120939787D01*
X126199392Y-120939787D01*
X127000000Y-121740395D01*
X127800608Y-120939787D01*
X127731143Y-120697603D01*
X127207698Y-120510856D01*
X126652632Y-120538638D01*
X126268857Y-120697603D01*
X126199392Y-120939787D01*
X125161531Y-120939787D01*
X125134394Y-120912603D01*
X124697544Y-120731207D01*
X124224531Y-120730794D01*
X123916668Y-120858000D01*
X118549895Y-120858000D01*
X111240947Y-113549053D01*
X110896410Y-113318840D01*
X110490000Y-113238000D01*
X107280748Y-113238000D01*
X107173591Y-113166400D01*
X107017182Y-113135288D01*
X106841543Y-112959649D01*
X107173591Y-112893600D01*
X107571658Y-112627620D01*
X107837638Y-112229553D01*
X107931038Y-111760000D01*
X107837638Y-111290447D01*
X107571658Y-110892380D01*
X107173591Y-110626400D01*
X106704038Y-110533000D01*
X106655962Y-110533000D01*
X106186409Y-110626400D01*
X105788342Y-110892380D01*
X105522362Y-111290447D01*
X105464290Y-111582396D01*
X102734834Y-108852940D01*
X102662000Y-108676668D01*
X102662000Y-107222895D01*
X102788793Y-106917544D01*
X102789206Y-106444531D01*
X102608573Y-106007365D01*
X102274394Y-105672603D01*
X101914167Y-105523024D01*
X101947368Y-105521362D01*
X102331143Y-105362397D01*
X102400608Y-105120213D01*
X101600000Y-104319605D01*
X101585858Y-104333748D01*
X101406253Y-104154143D01*
X101420395Y-104140000D01*
X101779605Y-104140000D01*
X102580213Y-104940608D01*
X102822397Y-104871143D01*
X103009144Y-104347698D01*
X102981362Y-103792632D01*
X102822397Y-103408857D01*
X102580213Y-103339392D01*
X101779605Y-104140000D01*
X101420395Y-104140000D01*
X101406253Y-104125858D01*
X101585858Y-103946253D01*
X101600000Y-103960395D01*
X102400608Y-103159787D01*
X102331143Y-102917603D01*
X101807698Y-102730856D01*
X101406485Y-102750937D01*
X101891077Y-102266345D01*
X102011275Y-102216680D01*
X102215961Y-102012350D01*
X102326874Y-101745244D01*
X102327126Y-101456025D01*
X102216680Y-101188725D01*
X102012350Y-100984039D01*
X101745244Y-100873126D01*
X101456025Y-100872874D01*
X101188725Y-100983320D01*
X100984039Y-101187650D01*
X100933701Y-101308877D01*
X99932000Y-102310578D01*
X99932000Y-99060000D01*
X99865623Y-98726300D01*
X99676597Y-98443403D01*
X99393700Y-98254377D01*
X99060000Y-98188000D01*
X98726300Y-98254377D01*
X98443403Y-98443403D01*
X98254377Y-98726300D01*
X98188000Y-99060000D01*
X98188000Y-106318806D01*
X97953808Y-106552998D01*
X97789916Y-106552998D01*
X97911904Y-106330961D01*
X97751041Y-105942577D01*
X97375134Y-105527611D01*
X97126633Y-105410000D01*
X97375134Y-105292389D01*
X97751041Y-104877423D01*
X97911904Y-104489039D01*
X97789915Y-104267000D01*
X96647000Y-104267000D01*
X96647000Y-106553000D01*
X96667000Y-106553000D01*
X96667000Y-106807000D01*
X96647000Y-106807000D01*
X96647000Y-106827000D01*
X96393000Y-106827000D01*
X96393000Y-106807000D01*
X95250085Y-106807000D01*
X95128096Y-107029039D01*
X95288959Y-107417423D01*
X95664866Y-107832389D01*
X96149735Y-108061869D01*
X96026409Y-108086400D01*
X95628342Y-108352380D01*
X95362362Y-108750447D01*
X95268962Y-109220000D01*
X95362362Y-109689553D01*
X95628342Y-110087620D01*
X96026409Y-110353600D01*
X96495962Y-110447000D01*
X96544038Y-110447000D01*
X97013591Y-110353600D01*
X97411658Y-110087620D01*
X97677638Y-109689553D01*
X97771038Y-109220000D01*
X97768077Y-109205117D01*
X99653000Y-107320194D01*
X99653000Y-110209577D01*
X97688716Y-112173862D01*
X97771038Y-111760000D01*
X97677638Y-111290447D01*
X97411658Y-110892380D01*
X97013591Y-110626400D01*
X96544038Y-110533000D01*
X96495962Y-110533000D01*
X96026409Y-110626400D01*
X95628342Y-110892380D01*
X95500974Y-111083000D01*
X94414996Y-111083000D01*
X94595961Y-110902350D01*
X94706874Y-110635244D01*
X94707126Y-110346025D01*
X94657000Y-110224711D01*
X94657000Y-104489039D01*
X95128096Y-104489039D01*
X95288959Y-104877423D01*
X95664866Y-105292389D01*
X95913367Y-105410000D01*
X95664866Y-105527611D01*
X95288959Y-105942577D01*
X95128096Y-106330961D01*
X95250085Y-106553000D01*
X96393000Y-106553000D01*
X96393000Y-104267000D01*
X95250085Y-104267000D01*
X95128096Y-104489039D01*
X94657000Y-104489039D01*
X94657000Y-101865353D01*
X94706874Y-101745244D01*
X94707126Y-101456025D01*
X94596680Y-101188725D01*
X94392350Y-100984039D01*
X94125244Y-100873126D01*
X93836025Y-100872874D01*
X93568725Y-100983320D01*
X93364039Y-101187650D01*
X93253126Y-101454756D01*
X93252874Y-101743975D01*
X93303000Y-101865289D01*
X93303000Y-110224647D01*
X93253126Y-110344756D01*
X93252874Y-110633975D01*
X93363320Y-110901275D01*
X93544729Y-111083000D01*
X91440000Y-111083000D01*
X91180923Y-111134534D01*
X91057693Y-111216874D01*
X90961289Y-111281289D01*
X90068716Y-112173862D01*
X90151038Y-111760000D01*
X90057638Y-111290447D01*
X89791658Y-110892380D01*
X89393591Y-110626400D01*
X88924038Y-110533000D01*
X88875962Y-110533000D01*
X88406409Y-110626400D01*
X88008342Y-110892380D01*
X87742362Y-111290447D01*
X87648962Y-111760000D01*
X87742362Y-112229553D01*
X88008342Y-112627620D01*
X88406409Y-112893600D01*
X88875962Y-112987000D01*
X88924038Y-112987000D01*
X89393591Y-112893600D01*
X89457065Y-112851188D01*
X89443126Y-112884756D01*
X89442874Y-113173975D01*
X89457346Y-113209000D01*
X89393591Y-113166400D01*
X88924038Y-113073000D01*
X88875962Y-113073000D01*
X88406409Y-113166400D01*
X88299252Y-113238000D01*
X86799895Y-113238000D01*
X84954834Y-111392939D01*
X84882000Y-111216668D01*
X84882000Y-109762895D01*
X85008793Y-109457544D01*
X85009206Y-108984531D01*
X84828573Y-108547365D01*
X84494394Y-108212603D01*
X84134167Y-108063024D01*
X84167368Y-108061362D01*
X84551143Y-107902397D01*
X84620608Y-107660213D01*
X83820000Y-106859605D01*
X83019392Y-107660213D01*
X83088857Y-107902397D01*
X83521615Y-108056790D01*
X83147365Y-108211427D01*
X82812603Y-108545606D01*
X82631207Y-108982456D01*
X82630794Y-109455469D01*
X82758000Y-109763332D01*
X82758000Y-111217105D01*
X82631207Y-111522456D01*
X82630794Y-111995469D01*
X82811427Y-112432635D01*
X83145606Y-112767397D01*
X83453246Y-112895140D01*
X83476548Y-112918442D01*
X83472632Y-112918638D01*
X83088857Y-113077603D01*
X83019392Y-113319787D01*
X83820000Y-114120395D01*
X83834143Y-114106253D01*
X84013748Y-114285858D01*
X83999605Y-114300000D01*
X84800213Y-115100608D01*
X85042397Y-115031143D01*
X85186193Y-114628088D01*
X85609052Y-115050947D01*
X85952173Y-115280213D01*
X85953590Y-115281160D01*
X86360000Y-115362000D01*
X88299252Y-115362000D01*
X88406409Y-115433600D01*
X88562817Y-115464712D01*
X90689052Y-117590947D01*
X90833945Y-117687761D01*
X90824039Y-117697650D01*
X90805091Y-117743282D01*
X90786680Y-117698725D01*
X90582350Y-117494039D01*
X90315244Y-117383126D01*
X90026025Y-117382874D01*
X89758725Y-117493320D01*
X89554039Y-117697650D01*
X89443126Y-117964756D01*
X89442874Y-118253975D01*
X89493000Y-118375289D01*
X89493000Y-121187095D01*
X89051685Y-120121583D01*
X89051584Y-120121431D01*
X88624744Y-119834862D01*
X86539605Y-121920000D01*
X88624744Y-124005138D01*
X89051584Y-123718569D01*
X89493000Y-122652982D01*
X89493000Y-125730000D01*
X89544534Y-125989077D01*
X89691289Y-126208711D01*
X89910923Y-126355466D01*
X90170000Y-126407000D01*
X92444647Y-126407000D01*
X92564756Y-126456874D01*
X92853975Y-126457126D01*
X93121275Y-126346680D01*
X93325961Y-126142350D01*
X93436874Y-125875244D01*
X93437126Y-125586025D01*
X93326680Y-125318725D01*
X93145271Y-125137000D01*
X96520000Y-125137000D01*
X96779077Y-125085466D01*
X96998711Y-124938711D01*
X98772577Y-123164846D01*
X99060000Y-123222018D01*
X99548687Y-123124812D01*
X99962975Y-122847993D01*
X100239794Y-122433705D01*
X100330000Y-121980209D01*
X100420206Y-122433705D01*
X100697025Y-122847993D01*
X101111313Y-123124812D01*
X101600000Y-123222018D01*
X101887424Y-123164846D01*
X104931289Y-126208712D01*
X105150924Y-126355467D01*
X105410000Y-126407000D01*
X129413000Y-126407000D01*
X129413000Y-126498000D01*
X81782000Y-126498000D01*
X81782000Y-124184744D01*
X84274862Y-124184744D01*
X84561431Y-124611584D01*
X85728363Y-125094982D01*
X86991457Y-125095018D01*
X88158417Y-124611685D01*
X88158569Y-124611584D01*
X88445138Y-124184744D01*
X86360000Y-122099605D01*
X84274862Y-124184744D01*
X81782000Y-124184744D01*
X81782000Y-122551457D01*
X83184982Y-122551457D01*
X83668315Y-123718417D01*
X83668416Y-123718569D01*
X84095256Y-124005138D01*
X86180395Y-121920000D01*
X84095256Y-119834862D01*
X83668416Y-120121431D01*
X83185018Y-121288363D01*
X83184982Y-122551457D01*
X81782000Y-122551457D01*
X81782000Y-119655256D01*
X84274862Y-119655256D01*
X86360000Y-121740395D01*
X88445138Y-119655256D01*
X88158569Y-119228416D01*
X86991637Y-118745018D01*
X85728543Y-118744982D01*
X84561583Y-119228315D01*
X84561431Y-119228416D01*
X84274862Y-119655256D01*
X81782000Y-119655256D01*
X81782000Y-115280213D01*
X83019392Y-115280213D01*
X83088857Y-115522397D01*
X83612302Y-115709144D01*
X84167368Y-115681362D01*
X84551143Y-115522397D01*
X84620608Y-115280213D01*
X83820000Y-114479605D01*
X83019392Y-115280213D01*
X81782000Y-115280213D01*
X81782000Y-114092302D01*
X82410856Y-114092302D01*
X82438638Y-114647368D01*
X82597603Y-115031143D01*
X82839787Y-115100608D01*
X83640395Y-114300000D01*
X82839787Y-113499392D01*
X82597603Y-113568857D01*
X82410856Y-114092302D01*
X81782000Y-114092302D01*
X81782000Y-106472302D01*
X82410856Y-106472302D01*
X82438638Y-107027368D01*
X82597603Y-107411143D01*
X82839787Y-107480608D01*
X83640395Y-106680000D01*
X83999605Y-106680000D01*
X84800213Y-107480608D01*
X85042397Y-107411143D01*
X85229144Y-106887698D01*
X85201362Y-106332632D01*
X85042397Y-105948857D01*
X84800213Y-105879392D01*
X83999605Y-106680000D01*
X83640395Y-106680000D01*
X82839787Y-105879392D01*
X82597603Y-105948857D01*
X82410856Y-106472302D01*
X81782000Y-106472302D01*
X81782000Y-104115962D01*
X82593000Y-104115962D01*
X82593000Y-104164038D01*
X82686400Y-104633591D01*
X82952380Y-105031658D01*
X83350447Y-105297638D01*
X83434623Y-105314382D01*
X83088857Y-105457603D01*
X83019392Y-105699787D01*
X83820000Y-106500395D01*
X84620608Y-105699787D01*
X84551143Y-105457603D01*
X84169630Y-105321492D01*
X84289553Y-105297638D01*
X84687620Y-105031658D01*
X84953600Y-104633591D01*
X85047000Y-104164038D01*
X85047000Y-104115962D01*
X84953600Y-103646409D01*
X84687620Y-103248342D01*
X84497000Y-103120974D01*
X84497000Y-101865353D01*
X84546874Y-101745244D01*
X84547126Y-101456025D01*
X84436680Y-101188725D01*
X84232350Y-100984039D01*
X83965244Y-100873126D01*
X83676025Y-100872874D01*
X83408725Y-100983320D01*
X83204039Y-101187650D01*
X83093126Y-101454756D01*
X83092874Y-101743975D01*
X83143000Y-101865289D01*
X83143000Y-103120974D01*
X82952380Y-103248342D01*
X82686400Y-103646409D01*
X82593000Y-104115962D01*
X81782000Y-104115962D01*
X81782000Y-88900000D01*
X88028000Y-88900000D01*
X88028000Y-90170000D01*
X88094377Y-90503700D01*
X88283403Y-90786597D01*
X89553403Y-92056597D01*
X89836300Y-92245623D01*
X90170000Y-92312000D01*
X90503700Y-92245623D01*
X90786597Y-92056597D01*
X90975623Y-91773700D01*
X91042000Y-91440000D01*
X90975623Y-91106300D01*
X90786597Y-90823403D01*
X89772000Y-89808806D01*
X89772000Y-89261194D01*
X90164189Y-88869005D01*
X90163000Y-88874982D01*
X90163000Y-88925018D01*
X90260206Y-89413705D01*
X90537025Y-89827993D01*
X90951313Y-90104812D01*
X91440000Y-90202018D01*
X91928687Y-90104812D01*
X92342975Y-89827993D01*
X92619794Y-89413705D01*
X92694635Y-89037454D01*
X92694635Y-89750000D01*
X92724409Y-89908237D01*
X92817927Y-90053567D01*
X92960619Y-90151064D01*
X93130000Y-90185365D01*
X94830000Y-90185365D01*
X94988237Y-90155591D01*
X95133567Y-90062073D01*
X95231064Y-89919381D01*
X95265365Y-89750000D01*
X95265365Y-88050000D01*
X95235591Y-87891763D01*
X95142073Y-87746433D01*
X94999381Y-87648936D01*
X94830000Y-87614635D01*
X94218210Y-87614635D01*
X94468687Y-87564812D01*
X94882975Y-87287993D01*
X94907738Y-87250932D01*
X95648000Y-87991194D01*
X95648000Y-90568000D01*
X92710000Y-90568000D01*
X92376300Y-90634377D01*
X92093403Y-90823403D01*
X91904377Y-91106300D01*
X91838000Y-91440000D01*
X91904377Y-91773700D01*
X92093403Y-92056597D01*
X92376300Y-92245623D01*
X92710000Y-92312000D01*
X96520000Y-92312000D01*
X96853700Y-92245623D01*
X97136597Y-92056597D01*
X97325623Y-91773700D01*
X97392000Y-91440000D01*
X97392000Y-87630000D01*
X97325623Y-87296300D01*
X97136597Y-87013403D01*
X95866597Y-85743403D01*
X95583700Y-85554377D01*
X95250000Y-85488000D01*
X94920388Y-85488000D01*
X94882975Y-85432007D01*
X94468687Y-85155188D01*
X93980000Y-85057982D01*
X93491313Y-85155188D01*
X93077025Y-85432007D01*
X92800206Y-85846295D01*
X92710000Y-86299791D01*
X92619794Y-85846295D01*
X92342975Y-85432007D01*
X91928687Y-85155188D01*
X91440000Y-85057982D01*
X90951313Y-85155188D01*
X90537025Y-85432007D01*
X90260206Y-85846295D01*
X90163000Y-86334982D01*
X90163000Y-86385018D01*
X90166117Y-86400689D01*
X88283403Y-88283403D01*
X88094377Y-88566300D01*
X88028000Y-88900000D01*
X81782000Y-88900000D01*
X81782000Y-86084744D01*
X84274862Y-86084744D01*
X84561431Y-86511584D01*
X85728363Y-86994982D01*
X86991457Y-86995018D01*
X88158417Y-86511685D01*
X88158569Y-86511584D01*
X88445138Y-86084744D01*
X86360000Y-83999605D01*
X84274862Y-86084744D01*
X81782000Y-86084744D01*
X81782000Y-84451457D01*
X83184982Y-84451457D01*
X83668315Y-85618417D01*
X83668416Y-85618569D01*
X84095256Y-85905138D01*
X86180395Y-83820000D01*
X86539605Y-83820000D01*
X88624744Y-85905138D01*
X89051584Y-85618569D01*
X89534982Y-84451637D01*
X89535018Y-83188543D01*
X89051685Y-82021583D01*
X89051584Y-82021431D01*
X88624744Y-81734862D01*
X86539605Y-83820000D01*
X86180395Y-83820000D01*
X84095256Y-81734862D01*
X83668416Y-82021431D01*
X83185018Y-83188363D01*
X83184982Y-84451457D01*
X81782000Y-84451457D01*
X81782000Y-81555256D01*
X84274862Y-81555256D01*
X86360000Y-83640395D01*
X88445138Y-81555256D01*
X88158569Y-81128416D01*
X86991637Y-80645018D01*
X85728543Y-80644982D01*
X84561583Y-81128315D01*
X84561431Y-81128416D01*
X84274862Y-81555256D01*
X81782000Y-81555256D01*
X81782000Y-79242000D01*
X115443000Y-79242000D01*
X115443000Y-85791229D01*
G36*
X101793748Y-111745858D02*
X101779605Y-111760000D01*
X102580213Y-112560608D01*
X102822397Y-112491143D01*
X102966193Y-112088087D01*
X105178106Y-114300000D01*
X103700106Y-115778000D01*
X103570815Y-115778000D01*
X103596874Y-115715244D01*
X103597126Y-115426025D01*
X103486680Y-115158725D01*
X103282350Y-114954039D01*
X103015244Y-114843126D01*
X102726025Y-114842874D01*
X102604711Y-114893000D01*
X97595153Y-114893000D01*
X97677638Y-114769553D01*
X97771038Y-114300000D01*
X97722324Y-114055098D01*
X99037209Y-112740213D01*
X100799392Y-112740213D01*
X100868857Y-112982397D01*
X101392302Y-113169144D01*
X101947368Y-113141362D01*
X102331143Y-112982397D01*
X102400608Y-112740213D01*
X101600000Y-111939605D01*
X100799392Y-112740213D01*
X99037209Y-112740213D01*
X100192489Y-111584934D01*
X100218638Y-112107368D01*
X100377603Y-112491143D01*
X100619787Y-112560608D01*
X101420395Y-111760000D01*
X101406253Y-111745858D01*
X101585858Y-111566253D01*
X101600000Y-111580395D01*
X101614143Y-111566253D01*
X101793748Y-111745858D01*
X101793748Y-111745858D01*
G37*
X101793748Y-111745858D02*
X101779605Y-111760000D01*
X102580213Y-112560608D01*
X102822397Y-112491143D01*
X102966193Y-112088087D01*
X105178106Y-114300000D01*
X103700106Y-115778000D01*
X103570815Y-115778000D01*
X103596874Y-115715244D01*
X103597126Y-115426025D01*
X103486680Y-115158725D01*
X103282350Y-114954039D01*
X103015244Y-114843126D01*
X102726025Y-114842874D01*
X102604711Y-114893000D01*
X97595153Y-114893000D01*
X97677638Y-114769553D01*
X97771038Y-114300000D01*
X97722324Y-114055098D01*
X99037209Y-112740213D01*
X100799392Y-112740213D01*
X100868857Y-112982397D01*
X101392302Y-113169144D01*
X101947368Y-113141362D01*
X102331143Y-112982397D01*
X102400608Y-112740213D01*
X101600000Y-111939605D01*
X100799392Y-112740213D01*
X99037209Y-112740213D01*
X100192489Y-111584934D01*
X100218638Y-112107368D01*
X100377603Y-112491143D01*
X100619787Y-112560608D01*
X101420395Y-111760000D01*
X101406253Y-111745858D01*
X101585858Y-111566253D01*
X101600000Y-111580395D01*
X101614143Y-111566253D01*
X101793748Y-111745858D01*
G36*
X113051923Y-101585117D02*
X113048962Y-101600000D01*
X113142362Y-102069553D01*
X113408342Y-102467620D01*
X113806409Y-102733600D01*
X113929735Y-102758131D01*
X113444866Y-102987611D01*
X113068959Y-103402577D01*
X112908096Y-103790961D01*
X113030085Y-104013000D01*
X114173000Y-104013000D01*
X114173000Y-103993000D01*
X114427000Y-103993000D01*
X114427000Y-104013000D01*
X114447000Y-104013000D01*
X114447000Y-104267000D01*
X114427000Y-104267000D01*
X114427000Y-106553000D01*
X114447000Y-106553000D01*
X114447000Y-106807000D01*
X114427000Y-106807000D01*
X114427000Y-106827000D01*
X114173000Y-106827000D01*
X114173000Y-106807000D01*
X113030085Y-106807000D01*
X112908096Y-107029039D01*
X113068959Y-107417423D01*
X113444866Y-107832389D01*
X113929735Y-108061869D01*
X113806409Y-108086400D01*
X113414897Y-108348000D01*
X113391194Y-108348000D01*
X111362000Y-106318806D01*
X111362000Y-104489039D01*
X112908096Y-104489039D01*
X113068959Y-104877423D01*
X113444866Y-105292389D01*
X113693367Y-105410000D01*
X113444866Y-105527611D01*
X113068959Y-105942577D01*
X112908096Y-106330961D01*
X113030085Y-106553000D01*
X114173000Y-106553000D01*
X114173000Y-104267000D01*
X113030085Y-104267000D01*
X112908096Y-104489039D01*
X111362000Y-104489039D01*
X111362000Y-99895194D01*
X113051923Y-101585117D01*
X113051923Y-101585117D01*
G37*
X113051923Y-101585117D02*
X113048962Y-101600000D01*
X113142362Y-102069553D01*
X113408342Y-102467620D01*
X113806409Y-102733600D01*
X113929735Y-102758131D01*
X113444866Y-102987611D01*
X113068959Y-103402577D01*
X112908096Y-103790961D01*
X113030085Y-104013000D01*
X114173000Y-104013000D01*
X114173000Y-103993000D01*
X114427000Y-103993000D01*
X114427000Y-104013000D01*
X114447000Y-104013000D01*
X114447000Y-104267000D01*
X114427000Y-104267000D01*
X114427000Y-106553000D01*
X114447000Y-106553000D01*
X114447000Y-106807000D01*
X114427000Y-106807000D01*
X114427000Y-106827000D01*
X114173000Y-106827000D01*
X114173000Y-106807000D01*
X113030085Y-106807000D01*
X112908096Y-107029039D01*
X113068959Y-107417423D01*
X113444866Y-107832389D01*
X113929735Y-108061869D01*
X113806409Y-108086400D01*
X113414897Y-108348000D01*
X113391194Y-108348000D01*
X111362000Y-106318806D01*
X111362000Y-104489039D01*
X112908096Y-104489039D01*
X113068959Y-104877423D01*
X113444866Y-105292389D01*
X113693367Y-105410000D01*
X113444866Y-105527611D01*
X113068959Y-105942577D01*
X112908096Y-106330961D01*
X113030085Y-106553000D01*
X114173000Y-106553000D01*
X114173000Y-104267000D01*
X113030085Y-104267000D01*
X112908096Y-104489039D01*
X111362000Y-104489039D01*
X111362000Y-99895194D01*
X113051923Y-101585117D01*
M02*
