M48
INCH,TZ
T1C0.016
T2C0.030
T3C0.031
T4C0.039
T5C0.059
T6C0.100
%
G90
G05
T1
X33000Y-40000
X34000Y-38000
X35500Y-36000
X35500Y-44500
X35500Y-46500
X36000Y-38000
X36000Y-46500
X36500Y-36000
X36500Y-38500
X36500Y-49500
X37000Y-40000
X37000Y-43500
X37000Y-44500
X37000Y-45500
X39000Y-37000
X39000Y-39000
X40000Y-38000
X40000Y-40000
X40500Y-45500
X41000Y-37500
X43500Y-38500
X44000Y-38000
X46000Y-37000
X47250Y-36250
X51250Y-36250
X52000Y-48000
X53000Y-47500
X54000Y-41000
X55000Y-40000
T2
X33000Y-42000
X33000Y-43000
X33000Y-44000
X33000Y-45000
X40000Y-41000
X40000Y-42000
X40000Y-43000
X40000Y-44000
X51000Y-35500
X52000Y-35500
X53000Y-35500
X54000Y-35500
T3
X33000Y-38000
X33000Y-41000
X35000Y-38000
X35000Y-39000
X35000Y-40000
X35000Y-41000
X35000Y-42000
X35000Y-43000
X35000Y-44000
X35000Y-45000
X38000Y-38000
X38000Y-39000
X38000Y-40000
X38000Y-41000
X38000Y-42000
X38000Y-43000
X38000Y-44000
X38000Y-45000
X42000Y-38000
X42000Y-39000
X42000Y-40000
X42000Y-41000
X42000Y-42000
X42000Y-43000
X42000Y-44000
X42000Y-45000
X45000Y-36000
X45000Y-38000
X45000Y-39000
X45000Y-40000
X45000Y-41000
X45000Y-42000
X45000Y-43000
X45000Y-44000
X45000Y-45000
X46000Y-36000
X48000Y-37000
X48000Y-40000
X49000Y-44000
X49000Y-48000
X49500Y-43000
X49500Y-47000
X50000Y-44000
X50000Y-48000
X50500Y-43000
X50500Y-47000
X51000Y-37000
X51000Y-38000
X51000Y-39000
X51000Y-40000
X53000Y-42000
X53000Y-45000
X53000Y-46000
X53000Y-49000
X54000Y-37000
X54000Y-38000
X54000Y-39000
X54000Y-40000
X55000Y-42000
X55000Y-45000
T4
X36000Y-34000
X36000Y-35000
X37000Y-34000
X37000Y-35000
X37000Y-47000
X37000Y-48000
X38000Y-47000
X38000Y-48000
X39000Y-47000
X39000Y-48000
X40000Y-34000
X40000Y-35000
X40000Y-47000
X40000Y-48000
X41000Y-34000
X41000Y-35000
X41000Y-47000
X41000Y-48000
X42000Y-47000
X42000Y-48000
X43000Y-47000
X43000Y-48000
X44000Y-34000
X45000Y-34000
X48000Y-34000
X49000Y-34000
X50000Y-34000
X51000Y-34000
X52000Y-34000
X53000Y-34000
T5
X48291Y-42417
X48291Y-46417
X51209Y-42417
X51209Y-46417
T6
X34000Y-33000
X34000Y-48000
X55000Y-33000
X55000Y-48000
T0
M30
