G04 #@! TF.FileFunction,Soldermask,Bot*
%FSLAX46Y46*%
G04 Gerber Fmt 4.6, Leading zero omitted, Abs format (unit mm)*
G04 Created by KiCad (PCBNEW 4.0.6) date Tuesday, June 06, 2017 'PMt' 02:35:44 PM*
%MOMM*%
%LPD*%
G01*
G04 APERTURE LIST*
%ADD10C,0.100000*%
%ADD11R,2.100000X2.100000*%
%ADD12O,2.100000X2.100000*%
%ADD13C,2.150000*%
%ADD14C,1.924000*%
%ADD15R,2.000000X2.000000*%
%ADD16O,2.000000X2.000000*%
%ADD17C,1.670000*%
%ADD18C,2.000000*%
%ADD19C,5.480000*%
G04 APERTURE END LIST*
D10*
D11*
X121920000Y-86360000D03*
D12*
X124460000Y-86360000D03*
X127000000Y-86360000D03*
X129540000Y-86360000D03*
X132080000Y-86360000D03*
X134620000Y-86360000D03*
D13*
X122660000Y-107740000D03*
D14*
X124460000Y-111760000D03*
X125730000Y-109220000D03*
X127000000Y-111760000D03*
X128270000Y-109220000D03*
D13*
X130070000Y-107740000D03*
X122660000Y-117900000D03*
D14*
X124460000Y-121920000D03*
X125730000Y-119380000D03*
X127000000Y-121920000D03*
X128270000Y-119380000D03*
D13*
X130070000Y-117900000D03*
D14*
X101600000Y-104140000D03*
X101600000Y-106680000D03*
X101600000Y-111760000D03*
X101600000Y-109220000D03*
X83820000Y-106680000D03*
X83820000Y-109220000D03*
X83820000Y-114300000D03*
X83820000Y-111760000D03*
X129540000Y-90170000D03*
X132080000Y-90170000D03*
X137160000Y-90170000D03*
X134620000Y-90170000D03*
D15*
X106680000Y-96520000D03*
D16*
X114300000Y-114300000D03*
X106680000Y-99060000D03*
X114300000Y-111760000D03*
X106680000Y-101600000D03*
X114300000Y-109220000D03*
X106680000Y-104140000D03*
X114300000Y-106680000D03*
X106680000Y-106680000D03*
X114300000Y-104140000D03*
X106680000Y-109220000D03*
X114300000Y-101600000D03*
X106680000Y-111760000D03*
X114300000Y-99060000D03*
X106680000Y-114300000D03*
X114300000Y-96520000D03*
D15*
X88900000Y-96520000D03*
D16*
X96520000Y-114300000D03*
X88900000Y-99060000D03*
X96520000Y-111760000D03*
X88900000Y-101600000D03*
X96520000Y-109220000D03*
X88900000Y-104140000D03*
X96520000Y-106680000D03*
X88900000Y-106680000D03*
X96520000Y-104140000D03*
X88900000Y-109220000D03*
X96520000Y-101600000D03*
X88900000Y-111760000D03*
X96520000Y-99060000D03*
X88900000Y-114300000D03*
X96520000Y-96520000D03*
D15*
X129540000Y-93980000D03*
D16*
X137160000Y-101600000D03*
X129540000Y-96520000D03*
X137160000Y-99060000D03*
X129540000Y-99060000D03*
X137160000Y-96520000D03*
X129540000Y-101600000D03*
X137160000Y-93980000D03*
D17*
X116840000Y-91440000D03*
D18*
X83820000Y-96520000D03*
D16*
X83820000Y-104140000D03*
D18*
X139700000Y-114300000D03*
D16*
X139700000Y-106680000D03*
D18*
X134620000Y-114300000D03*
D16*
X134620000Y-106680000D03*
D18*
X134620000Y-124460000D03*
D16*
X134620000Y-116840000D03*
D18*
X121920000Y-101600000D03*
D16*
X121920000Y-93980000D03*
D19*
X139700000Y-121920000D03*
X139700000Y-83820000D03*
X86360000Y-121920000D03*
X86360000Y-83820000D03*
D17*
X114300000Y-91440000D03*
D11*
X104140000Y-88900000D03*
D12*
X104140000Y-86360000D03*
X101600000Y-88900000D03*
X101600000Y-86360000D03*
D11*
X93980000Y-88900000D03*
D12*
X93980000Y-86360000D03*
X91440000Y-88900000D03*
X91440000Y-86360000D03*
D11*
X111760000Y-86360000D03*
D12*
X114300000Y-86360000D03*
D11*
X109220000Y-119380000D03*
D12*
X109220000Y-121920000D03*
X106680000Y-119380000D03*
X106680000Y-121920000D03*
X104140000Y-119380000D03*
X104140000Y-121920000D03*
X101600000Y-119380000D03*
X101600000Y-121920000D03*
X99060000Y-119380000D03*
X99060000Y-121920000D03*
X96520000Y-119380000D03*
X96520000Y-121920000D03*
X93980000Y-119380000D03*
X93980000Y-121920000D03*
M02*
