G04 #@! TF.FileFunction,Soldermask,Bot*
%FSLAX46Y46*%
G04 Gerber Fmt 4.6, Leading zero omitted, Abs format (unit mm)*
G04 Created by KiCad (PCBNEW 4.0.6) date Friday, June 02, 2017 'PMt' 04:09:18 PM*
%MOMM*%
%LPD*%
G01*
G04 APERTURE LIST*
%ADD10C,0.100000*%
%ADD11C,2.000000*%
%ADD12O,2.432000X2.127200*%
%ADD13R,2.432000X2.127200*%
%ADD14O,2.000000X2.000000*%
%ADD15C,1.000000*%
%ADD16C,2.200000*%
%ADD17C,2.800000*%
%ADD18R,2.800000X2.800000*%
%ADD19C,2.150000*%
%ADD20C,1.924000*%
G04 APERTURE END LIST*
D10*
D11*
X209550000Y-121285000D03*
X212050000Y-121285000D03*
X206375000Y-121285000D03*
X203875000Y-121285000D03*
X200660000Y-99060000D03*
X200660000Y-101560000D03*
X198120000Y-99060000D03*
X198120000Y-101560000D03*
X189865000Y-136525000D03*
X192365000Y-136525000D03*
X189865000Y-139065000D03*
X192365000Y-139065000D03*
X189865000Y-144145000D03*
X192365000Y-144145000D03*
X189865000Y-146685000D03*
X192365000Y-146685000D03*
D12*
X186000000Y-150530000D03*
X186000000Y-127670000D03*
X186000000Y-131480000D03*
X186000000Y-135290000D03*
X186000000Y-139100000D03*
X186000000Y-142910000D03*
X186000000Y-146720000D03*
D13*
X186000000Y-101000000D03*
D11*
X211455000Y-126365000D03*
D14*
X203835000Y-126365000D03*
D11*
X211455000Y-130175000D03*
D14*
X203835000Y-130175000D03*
D15*
X196215000Y-118745000D03*
X196215000Y-120015000D03*
X196215000Y-121285000D03*
X196215000Y-122555000D03*
X195580000Y-123825000D03*
X194310000Y-123825000D03*
X193040000Y-123825000D03*
X191770000Y-123825000D03*
X190500000Y-123825000D03*
X189865000Y-122555000D03*
X189865000Y-121285000D03*
X189865000Y-120015000D03*
X189865000Y-118745000D03*
D16*
X195580000Y-105410000D03*
X193040000Y-105410000D03*
X190500000Y-105410000D03*
D17*
X193750000Y-92500000D03*
X197250000Y-92500000D03*
X190250000Y-92500000D03*
D18*
X186750000Y-92500000D03*
D14*
X204470000Y-137795000D03*
X204470000Y-140335000D03*
X204470000Y-142875000D03*
X204470000Y-145415000D03*
X212090000Y-145415000D03*
X212090000Y-142875000D03*
X212090000Y-140335000D03*
X212090000Y-137795000D03*
D19*
X205210000Y-107740000D03*
D20*
X207010000Y-111760000D03*
X208280000Y-109220000D03*
X209550000Y-111760000D03*
X210820000Y-109220000D03*
D19*
X212620000Y-107740000D03*
X205210000Y-91230000D03*
D20*
X207010000Y-95250000D03*
X208280000Y-92710000D03*
X209550000Y-95250000D03*
X210820000Y-92710000D03*
D19*
X212620000Y-91230000D03*
M02*
