G04 #@! TF.FileFunction,Copper,L1,Top,Signal*
%FSLAX46Y46*%
G04 Gerber Fmt 4.6, Leading zero omitted, Abs format (unit mm)*
G04 Created by KiCad (PCBNEW 4.0.6) date Friday, June 02, 2017 'PMt' 04:09:18 PM*
%MOMM*%
%LPD*%
G01*
G04 APERTURE LIST*
%ADD10C,0.100000*%
%ADD11C,1.600000*%
%ADD12O,2.032000X1.727200*%
%ADD13R,2.032000X1.727200*%
%ADD14O,1.600000X1.600000*%
%ADD15C,0.600000*%
%ADD16C,1.800000*%
%ADD17C,2.400000*%
%ADD18R,2.400000X2.400000*%
%ADD19C,1.750000*%
%ADD20C,1.524000*%
%ADD21C,1.270000*%
%ADD22C,0.510000*%
%ADD23C,0.254000*%
G04 APERTURE END LIST*
D10*
D11*
X209550000Y-121285000D03*
X212050000Y-121285000D03*
X206375000Y-121285000D03*
X203875000Y-121285000D03*
X200660000Y-99060000D03*
X200660000Y-101560000D03*
X198120000Y-99060000D03*
X198120000Y-101560000D03*
X189865000Y-136525000D03*
X192365000Y-136525000D03*
X189865000Y-139065000D03*
X192365000Y-139065000D03*
X189865000Y-144145000D03*
X192365000Y-144145000D03*
X189865000Y-146685000D03*
X192365000Y-146685000D03*
D12*
X186000000Y-150530000D03*
X186000000Y-127670000D03*
X186000000Y-131480000D03*
X186000000Y-135290000D03*
X186000000Y-139100000D03*
X186000000Y-142910000D03*
X186000000Y-146720000D03*
D13*
X186000000Y-101000000D03*
D11*
X211455000Y-126365000D03*
D14*
X203835000Y-126365000D03*
D11*
X211455000Y-130175000D03*
D14*
X203835000Y-130175000D03*
D15*
X196215000Y-118745000D03*
X196215000Y-120015000D03*
X196215000Y-121285000D03*
X196215000Y-122555000D03*
X195580000Y-123825000D03*
X194310000Y-123825000D03*
X193040000Y-123825000D03*
X191770000Y-123825000D03*
X190500000Y-123825000D03*
X189865000Y-122555000D03*
X189865000Y-121285000D03*
X189865000Y-120015000D03*
X189865000Y-118745000D03*
D16*
X195580000Y-105410000D03*
X193040000Y-105410000D03*
X190500000Y-105410000D03*
D17*
X193750000Y-92500000D03*
X197250000Y-92500000D03*
X190250000Y-92500000D03*
D18*
X186750000Y-92500000D03*
D14*
X204470000Y-137795000D03*
X204470000Y-140335000D03*
X204470000Y-142875000D03*
X204470000Y-145415000D03*
X212090000Y-145415000D03*
X212090000Y-142875000D03*
X212090000Y-140335000D03*
X212090000Y-137795000D03*
D19*
X205210000Y-107740000D03*
D20*
X207010000Y-111760000D03*
X208280000Y-109220000D03*
X209550000Y-111760000D03*
X210820000Y-109220000D03*
D19*
X212620000Y-107740000D03*
X205210000Y-91230000D03*
D20*
X207010000Y-95250000D03*
X208280000Y-92710000D03*
X209550000Y-95250000D03*
X210820000Y-92710000D03*
D19*
X212620000Y-91230000D03*
D15*
X194945000Y-131445000D03*
X192405000Y-133985000D03*
X203835000Y-109220000D03*
X203835000Y-113665000D03*
X197485000Y-140335000D03*
X200660000Y-137160000D03*
X205105000Y-110490000D03*
X205105000Y-113665000D03*
X202565000Y-108585000D03*
X202565000Y-116840000D03*
X211455000Y-133350000D03*
X207010000Y-137795000D03*
D21*
X207010000Y-111760000D02*
X196850000Y-111760000D01*
X196850000Y-111760000D02*
X190500000Y-105410000D01*
X207010000Y-111760000D02*
X207010000Y-121285000D01*
X207010000Y-121285000D02*
X206375000Y-121285000D01*
X206375000Y-130175000D02*
X203835000Y-130175000D01*
X206375000Y-121285000D02*
X206375000Y-130175000D01*
X206375000Y-130175000D02*
X206375000Y-132568855D01*
X206375000Y-132568855D02*
X211486120Y-137679975D01*
X211486120Y-137679975D02*
X212090000Y-137795000D01*
X209550000Y-121285000D02*
X206375000Y-121285000D01*
D22*
X198755000Y-116840000D02*
X201295000Y-114300000D01*
X198755000Y-127635000D02*
X198755000Y-116840000D01*
X194945000Y-131445000D02*
X198755000Y-127635000D01*
X189865000Y-136525000D02*
X192405000Y-133985000D01*
X203835000Y-109220000D02*
X208280000Y-109220000D01*
X203835000Y-114300000D02*
X203835000Y-113665000D01*
X201295000Y-114300000D02*
X203835000Y-114300000D01*
X186000000Y-139100000D02*
X189830000Y-139100000D01*
X189830000Y-139100000D02*
X189865000Y-139065000D01*
X189865000Y-139065000D02*
X189865000Y-136525000D01*
X200660000Y-137160000D02*
X200660000Y-116840000D01*
X197485000Y-141605000D02*
X191770000Y-141605000D01*
X189865000Y-143510000D02*
X191770000Y-141605000D01*
X197485000Y-141605000D02*
X197485000Y-140335000D01*
X209550000Y-110490000D02*
X210820000Y-109220000D01*
X205105000Y-110490000D02*
X209550000Y-110490000D01*
X205105000Y-115570000D02*
X205105000Y-113665000D01*
X201930000Y-115570000D02*
X205105000Y-115570000D01*
X200660000Y-116840000D02*
X201930000Y-115570000D01*
X186000000Y-146720000D02*
X189830000Y-146720000D01*
X189830000Y-146720000D02*
X189865000Y-146685000D01*
X189865000Y-146685000D02*
X189865000Y-143510000D01*
D21*
X200660000Y-99060000D02*
X203200000Y-99060000D01*
X203200000Y-99060000D02*
X207010000Y-95250000D01*
X195580000Y-99060000D02*
X193040000Y-99060000D01*
X193040000Y-99060000D02*
X186690000Y-92710000D01*
X195580000Y-99060000D02*
X198120000Y-99060000D01*
X198120000Y-99060000D02*
X200660000Y-99060000D01*
X195580000Y-105410000D02*
X195580000Y-99060000D01*
X197190000Y-97450000D02*
X197190000Y-92710000D01*
X195580000Y-99060000D02*
X197190000Y-97450000D01*
D22*
X202565000Y-108585000D02*
X202565000Y-106680000D01*
X204470000Y-137795000D02*
X202565000Y-135890000D01*
X202565000Y-135890000D02*
X202565000Y-116840000D01*
X212725000Y-96520000D02*
X208915000Y-92710000D01*
X202565000Y-106680000D02*
X212725000Y-96520000D01*
X208915000Y-92710000D02*
X208280000Y-92710000D01*
X214630000Y-137795000D02*
X214630000Y-96520000D01*
X212090000Y-140335000D02*
X214630000Y-137795000D01*
X214630000Y-96520000D02*
X210820000Y-92710000D01*
X186000000Y-127670000D02*
X189265000Y-127670000D01*
X189265000Y-127670000D02*
X204470000Y-142875000D01*
X186000000Y-131480000D02*
X191170000Y-131480000D01*
X208915000Y-148590000D02*
X212090000Y-145415000D01*
X202565000Y-148590000D02*
X208915000Y-148590000D01*
X202565000Y-142875000D02*
X202565000Y-148590000D01*
X191170000Y-131480000D02*
X202565000Y-142875000D01*
X211455000Y-130175000D02*
X211455000Y-133350000D01*
X212090000Y-142875000D02*
X207010000Y-137795000D01*
X207010000Y-137795000D02*
X204470000Y-140335000D01*
X211455000Y-126365000D02*
X211455000Y-130175000D01*
D23*
G36*
X196723000Y-118057392D02*
X196679819Y-118100573D01*
X196667607Y-117905975D01*
X196312073Y-117796637D01*
X195941761Y-117831678D01*
X195762393Y-117905975D01*
X195750181Y-118100576D01*
X196215000Y-118565395D01*
X196229143Y-118551253D01*
X196408748Y-118730858D01*
X196394605Y-118745000D01*
X196408748Y-118759143D01*
X196229143Y-118938748D01*
X196215000Y-118924605D01*
X196047978Y-119091627D01*
X195941761Y-119101678D01*
X195762393Y-119175975D01*
X195750181Y-119370576D01*
X195759605Y-119380000D01*
X195750181Y-119389424D01*
X195762393Y-119584025D01*
X196053001Y-119673396D01*
X196215000Y-119835395D01*
X196229143Y-119821253D01*
X196408748Y-120000858D01*
X196394605Y-120015000D01*
X196408748Y-120029143D01*
X196229143Y-120208748D01*
X196215000Y-120194605D01*
X196047978Y-120361627D01*
X195941761Y-120371678D01*
X195762393Y-120445975D01*
X195750181Y-120640576D01*
X195759605Y-120650000D01*
X195750181Y-120659424D01*
X195762393Y-120854025D01*
X196053001Y-120943396D01*
X196215000Y-121105395D01*
X196229143Y-121091253D01*
X196408748Y-121270858D01*
X196394605Y-121285000D01*
X196408748Y-121299143D01*
X196229143Y-121478748D01*
X196215000Y-121464605D01*
X196047978Y-121631627D01*
X195941761Y-121641678D01*
X195762393Y-121715975D01*
X195750181Y-121910576D01*
X195759605Y-121920000D01*
X195750181Y-121929424D01*
X195762393Y-122124025D01*
X196053001Y-122213396D01*
X196215000Y-122375395D01*
X196229143Y-122361253D01*
X196408748Y-122540858D01*
X196394605Y-122555000D01*
X196408748Y-122569143D01*
X196229143Y-122748748D01*
X196215000Y-122734605D01*
X196200858Y-122748748D01*
X196021253Y-122569143D01*
X196035395Y-122555000D01*
X195570576Y-122090181D01*
X195375975Y-122102393D01*
X195266637Y-122457927D01*
X195301678Y-122828239D01*
X195335128Y-122908994D01*
X195306761Y-122911678D01*
X195127393Y-122985975D01*
X195115181Y-123180576D01*
X195580000Y-123645395D01*
X195594143Y-123631253D01*
X195773748Y-123810858D01*
X195759605Y-123825000D01*
X195773748Y-123839143D01*
X195594143Y-124018748D01*
X195580000Y-124004605D01*
X195565858Y-124018748D01*
X195386253Y-123839143D01*
X195400395Y-123825000D01*
X195233373Y-123657978D01*
X195223322Y-123551761D01*
X195149025Y-123372393D01*
X194954424Y-123360181D01*
X194945000Y-123369605D01*
X194935576Y-123360181D01*
X194740975Y-123372393D01*
X194651604Y-123663001D01*
X194489605Y-123825000D01*
X194503748Y-123839143D01*
X194324143Y-124018748D01*
X194310000Y-124004605D01*
X194295858Y-124018748D01*
X194116253Y-123839143D01*
X194130395Y-123825000D01*
X193963373Y-123657978D01*
X193953322Y-123551761D01*
X193879025Y-123372393D01*
X193684424Y-123360181D01*
X193675000Y-123369605D01*
X193665576Y-123360181D01*
X193470975Y-123372393D01*
X193381604Y-123663001D01*
X193219605Y-123825000D01*
X193233748Y-123839143D01*
X193054143Y-124018748D01*
X193040000Y-124004605D01*
X193025858Y-124018748D01*
X192846253Y-123839143D01*
X192860395Y-123825000D01*
X192693373Y-123657978D01*
X192683322Y-123551761D01*
X192609025Y-123372393D01*
X192414424Y-123360181D01*
X192405000Y-123369605D01*
X192395576Y-123360181D01*
X192200975Y-123372393D01*
X192111604Y-123663001D01*
X191949605Y-123825000D01*
X191963748Y-123839143D01*
X191784143Y-124018748D01*
X191770000Y-124004605D01*
X191755858Y-124018748D01*
X191576253Y-123839143D01*
X191590395Y-123825000D01*
X191423373Y-123657978D01*
X191413322Y-123551761D01*
X191339025Y-123372393D01*
X191144424Y-123360181D01*
X191135000Y-123369605D01*
X191125576Y-123360181D01*
X190930975Y-123372393D01*
X190841604Y-123663001D01*
X190679605Y-123825000D01*
X190693748Y-123839143D01*
X190514143Y-124018748D01*
X190500000Y-124004605D01*
X190485858Y-124018748D01*
X190306253Y-123839143D01*
X190320395Y-123825000D01*
X190306253Y-123810858D01*
X190485858Y-123631253D01*
X190500000Y-123645395D01*
X190964819Y-123180576D01*
X191305181Y-123180576D01*
X191770000Y-123645395D01*
X192234819Y-123180576D01*
X192575181Y-123180576D01*
X193040000Y-123645395D01*
X193504819Y-123180576D01*
X193845181Y-123180576D01*
X194310000Y-123645395D01*
X194774819Y-123180576D01*
X194762607Y-122985975D01*
X194407073Y-122876637D01*
X194036761Y-122911678D01*
X193857393Y-122985975D01*
X193845181Y-123180576D01*
X193504819Y-123180576D01*
X193492607Y-122985975D01*
X193137073Y-122876637D01*
X192766761Y-122911678D01*
X192587393Y-122985975D01*
X192575181Y-123180576D01*
X192234819Y-123180576D01*
X192222607Y-122985975D01*
X191867073Y-122876637D01*
X191496761Y-122911678D01*
X191317393Y-122985975D01*
X191305181Y-123180576D01*
X190964819Y-123180576D01*
X190952607Y-122985975D01*
X190731581Y-122918003D01*
X190813363Y-122652073D01*
X190778322Y-122281761D01*
X190704025Y-122102393D01*
X190509424Y-122090181D01*
X190044605Y-122555000D01*
X190058748Y-122569143D01*
X189879143Y-122748748D01*
X189865000Y-122734605D01*
X189850858Y-122748748D01*
X189671253Y-122569143D01*
X189685395Y-122555000D01*
X189671253Y-122540858D01*
X189850858Y-122361253D01*
X189865000Y-122375395D01*
X190032022Y-122208373D01*
X190138239Y-122198322D01*
X190317607Y-122124025D01*
X190329819Y-121929424D01*
X190320395Y-121920000D01*
X190329819Y-121910576D01*
X190317607Y-121715975D01*
X190026999Y-121626604D01*
X189865000Y-121464605D01*
X189850858Y-121478748D01*
X189671253Y-121299143D01*
X189685395Y-121285000D01*
X190044605Y-121285000D01*
X190509424Y-121749819D01*
X190704025Y-121737607D01*
X190813363Y-121382073D01*
X190794992Y-121187927D01*
X195266637Y-121187927D01*
X195301678Y-121558239D01*
X195375975Y-121737607D01*
X195570576Y-121749819D01*
X196035395Y-121285000D01*
X195570576Y-120820181D01*
X195375975Y-120832393D01*
X195266637Y-121187927D01*
X190794992Y-121187927D01*
X190778322Y-121011761D01*
X190704025Y-120832393D01*
X190509424Y-120820181D01*
X190044605Y-121285000D01*
X189685395Y-121285000D01*
X189671253Y-121270858D01*
X189850858Y-121091253D01*
X189865000Y-121105395D01*
X190032022Y-120938373D01*
X190138239Y-120928322D01*
X190317607Y-120854025D01*
X190329819Y-120659424D01*
X190320395Y-120650000D01*
X190329819Y-120640576D01*
X190317607Y-120445975D01*
X190026999Y-120356604D01*
X189865000Y-120194605D01*
X189850858Y-120208748D01*
X189671253Y-120029143D01*
X189685395Y-120015000D01*
X190044605Y-120015000D01*
X190509424Y-120479819D01*
X190704025Y-120467607D01*
X190813363Y-120112073D01*
X190794992Y-119917927D01*
X195266637Y-119917927D01*
X195301678Y-120288239D01*
X195375975Y-120467607D01*
X195570576Y-120479819D01*
X196035395Y-120015000D01*
X195570576Y-119550181D01*
X195375975Y-119562393D01*
X195266637Y-119917927D01*
X190794992Y-119917927D01*
X190778322Y-119741761D01*
X190704025Y-119562393D01*
X190509424Y-119550181D01*
X190044605Y-120015000D01*
X189685395Y-120015000D01*
X189671253Y-120000858D01*
X189850858Y-119821253D01*
X189865000Y-119835395D01*
X190032022Y-119668373D01*
X190138239Y-119658322D01*
X190317607Y-119584025D01*
X190329819Y-119389424D01*
X190320395Y-119380000D01*
X190329819Y-119370576D01*
X190317607Y-119175975D01*
X190026999Y-119086604D01*
X189865000Y-118924605D01*
X189850858Y-118938748D01*
X189671253Y-118759143D01*
X189685395Y-118745000D01*
X190044605Y-118745000D01*
X190509424Y-119209819D01*
X190704025Y-119197607D01*
X190813363Y-118842073D01*
X190794992Y-118647927D01*
X195266637Y-118647927D01*
X195301678Y-119018239D01*
X195375975Y-119197607D01*
X195570576Y-119209819D01*
X196035395Y-118745000D01*
X195570576Y-118280181D01*
X195375975Y-118292393D01*
X195266637Y-118647927D01*
X190794992Y-118647927D01*
X190778322Y-118471761D01*
X190704025Y-118292393D01*
X190509424Y-118280181D01*
X190044605Y-118745000D01*
X189685395Y-118745000D01*
X189671253Y-118730858D01*
X189850858Y-118551253D01*
X189865000Y-118565395D01*
X190329819Y-118100576D01*
X190317607Y-117905975D01*
X189962073Y-117796637D01*
X189591761Y-117831678D01*
X189412393Y-117905975D01*
X189400181Y-118100573D01*
X189357000Y-118057392D01*
X189357000Y-117602000D01*
X196723000Y-117602000D01*
X196723000Y-118057392D01*
X196723000Y-118057392D01*
G37*
X196723000Y-118057392D02*
X196679819Y-118100573D01*
X196667607Y-117905975D01*
X196312073Y-117796637D01*
X195941761Y-117831678D01*
X195762393Y-117905975D01*
X195750181Y-118100576D01*
X196215000Y-118565395D01*
X196229143Y-118551253D01*
X196408748Y-118730858D01*
X196394605Y-118745000D01*
X196408748Y-118759143D01*
X196229143Y-118938748D01*
X196215000Y-118924605D01*
X196047978Y-119091627D01*
X195941761Y-119101678D01*
X195762393Y-119175975D01*
X195750181Y-119370576D01*
X195759605Y-119380000D01*
X195750181Y-119389424D01*
X195762393Y-119584025D01*
X196053001Y-119673396D01*
X196215000Y-119835395D01*
X196229143Y-119821253D01*
X196408748Y-120000858D01*
X196394605Y-120015000D01*
X196408748Y-120029143D01*
X196229143Y-120208748D01*
X196215000Y-120194605D01*
X196047978Y-120361627D01*
X195941761Y-120371678D01*
X195762393Y-120445975D01*
X195750181Y-120640576D01*
X195759605Y-120650000D01*
X195750181Y-120659424D01*
X195762393Y-120854025D01*
X196053001Y-120943396D01*
X196215000Y-121105395D01*
X196229143Y-121091253D01*
X196408748Y-121270858D01*
X196394605Y-121285000D01*
X196408748Y-121299143D01*
X196229143Y-121478748D01*
X196215000Y-121464605D01*
X196047978Y-121631627D01*
X195941761Y-121641678D01*
X195762393Y-121715975D01*
X195750181Y-121910576D01*
X195759605Y-121920000D01*
X195750181Y-121929424D01*
X195762393Y-122124025D01*
X196053001Y-122213396D01*
X196215000Y-122375395D01*
X196229143Y-122361253D01*
X196408748Y-122540858D01*
X196394605Y-122555000D01*
X196408748Y-122569143D01*
X196229143Y-122748748D01*
X196215000Y-122734605D01*
X196200858Y-122748748D01*
X196021253Y-122569143D01*
X196035395Y-122555000D01*
X195570576Y-122090181D01*
X195375975Y-122102393D01*
X195266637Y-122457927D01*
X195301678Y-122828239D01*
X195335128Y-122908994D01*
X195306761Y-122911678D01*
X195127393Y-122985975D01*
X195115181Y-123180576D01*
X195580000Y-123645395D01*
X195594143Y-123631253D01*
X195773748Y-123810858D01*
X195759605Y-123825000D01*
X195773748Y-123839143D01*
X195594143Y-124018748D01*
X195580000Y-124004605D01*
X195565858Y-124018748D01*
X195386253Y-123839143D01*
X195400395Y-123825000D01*
X195233373Y-123657978D01*
X195223322Y-123551761D01*
X195149025Y-123372393D01*
X194954424Y-123360181D01*
X194945000Y-123369605D01*
X194935576Y-123360181D01*
X194740975Y-123372393D01*
X194651604Y-123663001D01*
X194489605Y-123825000D01*
X194503748Y-123839143D01*
X194324143Y-124018748D01*
X194310000Y-124004605D01*
X194295858Y-124018748D01*
X194116253Y-123839143D01*
X194130395Y-123825000D01*
X193963373Y-123657978D01*
X193953322Y-123551761D01*
X193879025Y-123372393D01*
X193684424Y-123360181D01*
X193675000Y-123369605D01*
X193665576Y-123360181D01*
X193470975Y-123372393D01*
X193381604Y-123663001D01*
X193219605Y-123825000D01*
X193233748Y-123839143D01*
X193054143Y-124018748D01*
X193040000Y-124004605D01*
X193025858Y-124018748D01*
X192846253Y-123839143D01*
X192860395Y-123825000D01*
X192693373Y-123657978D01*
X192683322Y-123551761D01*
X192609025Y-123372393D01*
X192414424Y-123360181D01*
X192405000Y-123369605D01*
X192395576Y-123360181D01*
X192200975Y-123372393D01*
X192111604Y-123663001D01*
X191949605Y-123825000D01*
X191963748Y-123839143D01*
X191784143Y-124018748D01*
X191770000Y-124004605D01*
X191755858Y-124018748D01*
X191576253Y-123839143D01*
X191590395Y-123825000D01*
X191423373Y-123657978D01*
X191413322Y-123551761D01*
X191339025Y-123372393D01*
X191144424Y-123360181D01*
X191135000Y-123369605D01*
X191125576Y-123360181D01*
X190930975Y-123372393D01*
X190841604Y-123663001D01*
X190679605Y-123825000D01*
X190693748Y-123839143D01*
X190514143Y-124018748D01*
X190500000Y-124004605D01*
X190485858Y-124018748D01*
X190306253Y-123839143D01*
X190320395Y-123825000D01*
X190306253Y-123810858D01*
X190485858Y-123631253D01*
X190500000Y-123645395D01*
X190964819Y-123180576D01*
X191305181Y-123180576D01*
X191770000Y-123645395D01*
X192234819Y-123180576D01*
X192575181Y-123180576D01*
X193040000Y-123645395D01*
X193504819Y-123180576D01*
X193845181Y-123180576D01*
X194310000Y-123645395D01*
X194774819Y-123180576D01*
X194762607Y-122985975D01*
X194407073Y-122876637D01*
X194036761Y-122911678D01*
X193857393Y-122985975D01*
X193845181Y-123180576D01*
X193504819Y-123180576D01*
X193492607Y-122985975D01*
X193137073Y-122876637D01*
X192766761Y-122911678D01*
X192587393Y-122985975D01*
X192575181Y-123180576D01*
X192234819Y-123180576D01*
X192222607Y-122985975D01*
X191867073Y-122876637D01*
X191496761Y-122911678D01*
X191317393Y-122985975D01*
X191305181Y-123180576D01*
X190964819Y-123180576D01*
X190952607Y-122985975D01*
X190731581Y-122918003D01*
X190813363Y-122652073D01*
X190778322Y-122281761D01*
X190704025Y-122102393D01*
X190509424Y-122090181D01*
X190044605Y-122555000D01*
X190058748Y-122569143D01*
X189879143Y-122748748D01*
X189865000Y-122734605D01*
X189850858Y-122748748D01*
X189671253Y-122569143D01*
X189685395Y-122555000D01*
X189671253Y-122540858D01*
X189850858Y-122361253D01*
X189865000Y-122375395D01*
X190032022Y-122208373D01*
X190138239Y-122198322D01*
X190317607Y-122124025D01*
X190329819Y-121929424D01*
X190320395Y-121920000D01*
X190329819Y-121910576D01*
X190317607Y-121715975D01*
X190026999Y-121626604D01*
X189865000Y-121464605D01*
X189850858Y-121478748D01*
X189671253Y-121299143D01*
X189685395Y-121285000D01*
X190044605Y-121285000D01*
X190509424Y-121749819D01*
X190704025Y-121737607D01*
X190813363Y-121382073D01*
X190794992Y-121187927D01*
X195266637Y-121187927D01*
X195301678Y-121558239D01*
X195375975Y-121737607D01*
X195570576Y-121749819D01*
X196035395Y-121285000D01*
X195570576Y-120820181D01*
X195375975Y-120832393D01*
X195266637Y-121187927D01*
X190794992Y-121187927D01*
X190778322Y-121011761D01*
X190704025Y-120832393D01*
X190509424Y-120820181D01*
X190044605Y-121285000D01*
X189685395Y-121285000D01*
X189671253Y-121270858D01*
X189850858Y-121091253D01*
X189865000Y-121105395D01*
X190032022Y-120938373D01*
X190138239Y-120928322D01*
X190317607Y-120854025D01*
X190329819Y-120659424D01*
X190320395Y-120650000D01*
X190329819Y-120640576D01*
X190317607Y-120445975D01*
X190026999Y-120356604D01*
X189865000Y-120194605D01*
X189850858Y-120208748D01*
X189671253Y-120029143D01*
X189685395Y-120015000D01*
X190044605Y-120015000D01*
X190509424Y-120479819D01*
X190704025Y-120467607D01*
X190813363Y-120112073D01*
X190794992Y-119917927D01*
X195266637Y-119917927D01*
X195301678Y-120288239D01*
X195375975Y-120467607D01*
X195570576Y-120479819D01*
X196035395Y-120015000D01*
X195570576Y-119550181D01*
X195375975Y-119562393D01*
X195266637Y-119917927D01*
X190794992Y-119917927D01*
X190778322Y-119741761D01*
X190704025Y-119562393D01*
X190509424Y-119550181D01*
X190044605Y-120015000D01*
X189685395Y-120015000D01*
X189671253Y-120000858D01*
X189850858Y-119821253D01*
X189865000Y-119835395D01*
X190032022Y-119668373D01*
X190138239Y-119658322D01*
X190317607Y-119584025D01*
X190329819Y-119389424D01*
X190320395Y-119380000D01*
X190329819Y-119370576D01*
X190317607Y-119175975D01*
X190026999Y-119086604D01*
X189865000Y-118924605D01*
X189850858Y-118938748D01*
X189671253Y-118759143D01*
X189685395Y-118745000D01*
X190044605Y-118745000D01*
X190509424Y-119209819D01*
X190704025Y-119197607D01*
X190813363Y-118842073D01*
X190794992Y-118647927D01*
X195266637Y-118647927D01*
X195301678Y-119018239D01*
X195375975Y-119197607D01*
X195570576Y-119209819D01*
X196035395Y-118745000D01*
X195570576Y-118280181D01*
X195375975Y-118292393D01*
X195266637Y-118647927D01*
X190794992Y-118647927D01*
X190778322Y-118471761D01*
X190704025Y-118292393D01*
X190509424Y-118280181D01*
X190044605Y-118745000D01*
X189685395Y-118745000D01*
X189671253Y-118730858D01*
X189850858Y-118551253D01*
X189865000Y-118565395D01*
X190329819Y-118100576D01*
X190317607Y-117905975D01*
X189962073Y-117796637D01*
X189591761Y-117831678D01*
X189412393Y-117905975D01*
X189400181Y-118100573D01*
X189357000Y-118057392D01*
X189357000Y-117602000D01*
X196723000Y-117602000D01*
X196723000Y-118057392D01*
M02*
