M48
INCH,TZ
T1C0.013
T2C0.016
T3C0.031
T4C0.040
T5C0.047
T6C0.059
%
G90
G05
T1
X74750Y-46750
X74750Y-47250
X74750Y-47750
X74750Y-48250
X75000Y-48750
X75500Y-48750
X76000Y-48750
X76500Y-48750
X77000Y-48750
X77250Y-46750
X77250Y-47250
X77250Y-47750
X77250Y-48250
T2
X75750Y-52750
X76750Y-51750
X77750Y-55250
X79000Y-54000
X79750Y-42750
X79750Y-46000
X80250Y-43000
X80250Y-44750
X80750Y-43500
X80750Y-44750
X81500Y-54250
X83250Y-52500
T3
X74750Y-53750
X74750Y-54750
X74750Y-56750
X74750Y-57750
X75000Y-41500
X75734Y-53750
X75734Y-54750
X75734Y-56750
X75734Y-57750
X76000Y-41500
X77000Y-41500
X78000Y-39000
X78000Y-39984
X79000Y-39000
X79000Y-39984
X80250Y-49750
X80250Y-51250
X80266Y-47750
X80500Y-54250
X80500Y-55250
X80500Y-56250
X80500Y-57250
X81250Y-47750
X81500Y-37500
X81500Y-44000
X82000Y-36500
X82000Y-43000
X82500Y-37500
X82500Y-44000
X82500Y-47750
X83000Y-36500
X83000Y-43000
X83250Y-49750
X83250Y-51250
X83484Y-47750
X83500Y-54250
X83500Y-55250
X83500Y-56250
X83500Y-57250
T4
X73228Y-39764
X73228Y-50264
X73228Y-51764
X73228Y-53264
X73228Y-54764
X73228Y-56264
X73228Y-57764
X73228Y-59264
T5
X73524Y-36417
X74902Y-36417
X76280Y-36417
X77657Y-36417
T6
X80791Y-35917
X80791Y-42417
X83709Y-35917
X83709Y-42417
T0
M30
