G04 #@! TF.FileFunction,Legend,Top*
%FSLAX46Y46*%
G04 Gerber Fmt 4.6, Leading zero omitted, Abs format (unit mm)*
G04 Created by KiCad (PCBNEW 4.0.6) date Tuesday, June 20, 2017 'PMt' 02:00:50 PM*
%MOMM*%
%LPD*%
G01*
G04 APERTURE LIST*
%ADD10C,0.100000*%
%ADD11C,0.150000*%
%ADD12C,0.300000*%
%ADD13C,0.200000*%
%ADD14C,0.120000*%
G04 APERTURE END LIST*
D10*
D11*
X126818000Y-144629143D02*
X126770381Y-144676762D01*
X126627524Y-144724381D01*
X126532286Y-144724381D01*
X126389428Y-144676762D01*
X126294190Y-144581524D01*
X126246571Y-144486286D01*
X126198952Y-144295810D01*
X126198952Y-144152952D01*
X126246571Y-143962476D01*
X126294190Y-143867238D01*
X126389428Y-143772000D01*
X126532286Y-143724381D01*
X126627524Y-143724381D01*
X126770381Y-143772000D01*
X126818000Y-143819619D01*
X127246571Y-144629143D02*
X127294190Y-144676762D01*
X127246571Y-144724381D01*
X127198952Y-144676762D01*
X127246571Y-144629143D01*
X127246571Y-144724381D01*
X128484666Y-144724381D02*
X128484666Y-143724381D01*
X128818000Y-144438667D01*
X129151333Y-143724381D01*
X129151333Y-144724381D01*
X130056095Y-144676762D02*
X129960857Y-144724381D01*
X129770380Y-144724381D01*
X129675142Y-144676762D01*
X129627523Y-144629143D01*
X129579904Y-144533905D01*
X129579904Y-144248190D01*
X129627523Y-144152952D01*
X129675142Y-144105333D01*
X129770380Y-144057714D01*
X129960857Y-144057714D01*
X130056095Y-144105333D01*
X130484666Y-144200571D02*
X130818000Y-144200571D01*
X130960857Y-144724381D02*
X130484666Y-144724381D01*
X130484666Y-143724381D01*
X130960857Y-143724381D01*
X131532285Y-144724381D02*
X131437047Y-144676762D01*
X131389428Y-144581524D01*
X131389428Y-143724381D01*
X131913238Y-144724381D02*
X131913238Y-144057714D01*
X131913238Y-144248190D02*
X131960857Y-144152952D01*
X132008476Y-144105333D01*
X132103714Y-144057714D01*
X132198953Y-144057714D01*
X132675143Y-144724381D02*
X132579905Y-144676762D01*
X132532286Y-144629143D01*
X132484667Y-144533905D01*
X132484667Y-144248190D01*
X132532286Y-144152952D01*
X132579905Y-144105333D01*
X132675143Y-144057714D01*
X132818001Y-144057714D01*
X132913239Y-144105333D01*
X132960858Y-144152952D01*
X133008477Y-144248190D01*
X133008477Y-144533905D01*
X132960858Y-144629143D01*
X132913239Y-144676762D01*
X132818001Y-144724381D01*
X132675143Y-144724381D01*
X133341810Y-144057714D02*
X133579905Y-144724381D01*
X133818001Y-144057714D02*
X133579905Y-144724381D01*
X133484667Y-144962476D01*
X133437048Y-145010095D01*
X133341810Y-145057714D01*
X135484668Y-144724381D02*
X134913239Y-144724381D01*
X135198953Y-144724381D02*
X135198953Y-143724381D01*
X135103715Y-143867238D01*
X135008477Y-143962476D01*
X134913239Y-144010095D01*
X135960858Y-144724381D02*
X136151334Y-144724381D01*
X136246573Y-144676762D01*
X136294192Y-144629143D01*
X136389430Y-144486286D01*
X136437049Y-144295810D01*
X136437049Y-143914857D01*
X136389430Y-143819619D01*
X136341811Y-143772000D01*
X136246573Y-143724381D01*
X136056096Y-143724381D01*
X135960858Y-143772000D01*
X135913239Y-143819619D01*
X135865620Y-143914857D01*
X135865620Y-144152952D01*
X135913239Y-144248190D01*
X135960858Y-144295810D01*
X136056096Y-144343429D01*
X136246573Y-144343429D01*
X136341811Y-144295810D01*
X136389430Y-144248190D01*
X136437049Y-144152952D01*
X212026572Y-124404381D02*
X211693238Y-123928190D01*
X211455143Y-124404381D02*
X211455143Y-123404381D01*
X211836096Y-123404381D01*
X211931334Y-123452000D01*
X211978953Y-123499619D01*
X212026572Y-123594857D01*
X212026572Y-123737714D01*
X211978953Y-123832952D01*
X211931334Y-123880571D01*
X211836096Y-123928190D01*
X211455143Y-123928190D01*
X212836096Y-124356762D02*
X212740858Y-124404381D01*
X212550381Y-124404381D01*
X212455143Y-124356762D01*
X212407524Y-124261524D01*
X212407524Y-123880571D01*
X212455143Y-123785333D01*
X212550381Y-123737714D01*
X212740858Y-123737714D01*
X212836096Y-123785333D01*
X212883715Y-123880571D01*
X212883715Y-123975810D01*
X212407524Y-124071048D01*
X213740858Y-124404381D02*
X213740858Y-123404381D01*
X213740858Y-124356762D02*
X213645620Y-124404381D01*
X213455143Y-124404381D01*
X213359905Y-124356762D01*
X213312286Y-124309143D01*
X213264667Y-124213905D01*
X213264667Y-123928190D01*
X213312286Y-123832952D01*
X213359905Y-123785333D01*
X213455143Y-123737714D01*
X213645620Y-123737714D01*
X213740858Y-123785333D01*
X209978810Y-130738571D02*
X210121667Y-130786190D01*
X210169286Y-130833810D01*
X210216905Y-130929048D01*
X210216905Y-131071905D01*
X210169286Y-131167143D01*
X210121667Y-131214762D01*
X210026429Y-131262381D01*
X209645476Y-131262381D01*
X209645476Y-130262381D01*
X209978810Y-130262381D01*
X210074048Y-130310000D01*
X210121667Y-130357619D01*
X210169286Y-130452857D01*
X210169286Y-130548095D01*
X210121667Y-130643333D01*
X210074048Y-130690952D01*
X209978810Y-130738571D01*
X209645476Y-130738571D01*
X210788333Y-131262381D02*
X210693095Y-131214762D01*
X210645476Y-131119524D01*
X210645476Y-130262381D01*
X211597858Y-131262381D02*
X211597858Y-130738571D01*
X211550239Y-130643333D01*
X211455001Y-130595714D01*
X211264524Y-130595714D01*
X211169286Y-130643333D01*
X211597858Y-131214762D02*
X211502620Y-131262381D01*
X211264524Y-131262381D01*
X211169286Y-131214762D01*
X211121667Y-131119524D01*
X211121667Y-131024286D01*
X211169286Y-130929048D01*
X211264524Y-130881429D01*
X211502620Y-130881429D01*
X211597858Y-130833810D01*
X212502620Y-131214762D02*
X212407382Y-131262381D01*
X212216905Y-131262381D01*
X212121667Y-131214762D01*
X212074048Y-131167143D01*
X212026429Y-131071905D01*
X212026429Y-130786190D01*
X212074048Y-130690952D01*
X212121667Y-130643333D01*
X212216905Y-130595714D01*
X212407382Y-130595714D01*
X212502620Y-130643333D01*
X212931191Y-131262381D02*
X212931191Y-130262381D01*
X213026429Y-130881429D02*
X213312144Y-131262381D01*
X213312144Y-130595714D02*
X212931191Y-130976667D01*
D12*
X126180001Y-142132857D02*
X126680001Y-142132857D01*
X126894287Y-142918571D02*
X126180001Y-142918571D01*
X126180001Y-141418571D01*
X126894287Y-141418571D01*
X127751430Y-142061429D02*
X127608572Y-141990000D01*
X127537144Y-141918571D01*
X127465715Y-141775714D01*
X127465715Y-141704286D01*
X127537144Y-141561429D01*
X127608572Y-141490000D01*
X127751430Y-141418571D01*
X128037144Y-141418571D01*
X128180001Y-141490000D01*
X128251430Y-141561429D01*
X128322858Y-141704286D01*
X128322858Y-141775714D01*
X128251430Y-141918571D01*
X128180001Y-141990000D01*
X128037144Y-142061429D01*
X127751430Y-142061429D01*
X127608572Y-142132857D01*
X127537144Y-142204286D01*
X127465715Y-142347143D01*
X127465715Y-142632857D01*
X127537144Y-142775714D01*
X127608572Y-142847143D01*
X127751430Y-142918571D01*
X128037144Y-142918571D01*
X128180001Y-142847143D01*
X128251430Y-142775714D01*
X128322858Y-142632857D01*
X128322858Y-142347143D01*
X128251430Y-142204286D01*
X128180001Y-142132857D01*
X128037144Y-142061429D01*
X129251429Y-141418571D02*
X129394286Y-141418571D01*
X129537143Y-141490000D01*
X129608572Y-141561429D01*
X129680001Y-141704286D01*
X129751429Y-141990000D01*
X129751429Y-142347143D01*
X129680001Y-142632857D01*
X129608572Y-142775714D01*
X129537143Y-142847143D01*
X129394286Y-142918571D01*
X129251429Y-142918571D01*
X129108572Y-142847143D01*
X129037143Y-142775714D01*
X128965715Y-142632857D01*
X128894286Y-142347143D01*
X128894286Y-141990000D01*
X128965715Y-141704286D01*
X129037143Y-141561429D01*
X129108572Y-141490000D01*
X129251429Y-141418571D01*
X131537143Y-142918571D02*
X131537143Y-141418571D01*
X132037143Y-142490000D01*
X132537143Y-141418571D01*
X132537143Y-142918571D01*
X133465715Y-142918571D02*
X133322857Y-142847143D01*
X133251429Y-142775714D01*
X133180000Y-142632857D01*
X133180000Y-142204286D01*
X133251429Y-142061429D01*
X133322857Y-141990000D01*
X133465715Y-141918571D01*
X133680000Y-141918571D01*
X133822857Y-141990000D01*
X133894286Y-142061429D01*
X133965715Y-142204286D01*
X133965715Y-142632857D01*
X133894286Y-142775714D01*
X133822857Y-142847143D01*
X133680000Y-142918571D01*
X133465715Y-142918571D01*
X134394286Y-141918571D02*
X134965715Y-141918571D01*
X134608572Y-141418571D02*
X134608572Y-142704286D01*
X134680000Y-142847143D01*
X134822858Y-142918571D01*
X134965715Y-142918571D01*
X135465715Y-142918571D02*
X135465715Y-141418571D01*
X136108572Y-142918571D02*
X136108572Y-142132857D01*
X136037143Y-141990000D01*
X135894286Y-141918571D01*
X135680001Y-141918571D01*
X135537143Y-141990000D01*
X135465715Y-142061429D01*
X137394286Y-142847143D02*
X137251429Y-142918571D01*
X136965715Y-142918571D01*
X136822858Y-142847143D01*
X136751429Y-142704286D01*
X136751429Y-142132857D01*
X136822858Y-141990000D01*
X136965715Y-141918571D01*
X137251429Y-141918571D01*
X137394286Y-141990000D01*
X137465715Y-142132857D01*
X137465715Y-142275714D01*
X136751429Y-142418571D01*
X138108572Y-142918571D02*
X138108572Y-141918571D01*
X138108572Y-142204286D02*
X138180000Y-142061429D01*
X138251429Y-141990000D01*
X138394286Y-141918571D01*
X138537143Y-141918571D01*
X139037143Y-142918571D02*
X139037143Y-141418571D01*
X139037143Y-141990000D02*
X139180000Y-141918571D01*
X139465714Y-141918571D01*
X139608571Y-141990000D01*
X139680000Y-142061429D01*
X139751429Y-142204286D01*
X139751429Y-142632857D01*
X139680000Y-142775714D01*
X139608571Y-142847143D01*
X139465714Y-142918571D01*
X139180000Y-142918571D01*
X139037143Y-142847143D01*
X140608572Y-142918571D02*
X140465714Y-142847143D01*
X140394286Y-142775714D01*
X140322857Y-142632857D01*
X140322857Y-142204286D01*
X140394286Y-142061429D01*
X140465714Y-141990000D01*
X140608572Y-141918571D01*
X140822857Y-141918571D01*
X140965714Y-141990000D01*
X141037143Y-142061429D01*
X141108572Y-142204286D01*
X141108572Y-142632857D01*
X141037143Y-142775714D01*
X140965714Y-142847143D01*
X140822857Y-142918571D01*
X140608572Y-142918571D01*
X142394286Y-142918571D02*
X142394286Y-142132857D01*
X142322857Y-141990000D01*
X142180000Y-141918571D01*
X141894286Y-141918571D01*
X141751429Y-141990000D01*
X142394286Y-142847143D02*
X142251429Y-142918571D01*
X141894286Y-142918571D01*
X141751429Y-142847143D01*
X141680000Y-142704286D01*
X141680000Y-142561429D01*
X141751429Y-142418571D01*
X141894286Y-142347143D01*
X142251429Y-142347143D01*
X142394286Y-142275714D01*
X143108572Y-142918571D02*
X143108572Y-141918571D01*
X143108572Y-142204286D02*
X143180000Y-142061429D01*
X143251429Y-141990000D01*
X143394286Y-141918571D01*
X143537143Y-141918571D01*
X144680000Y-142918571D02*
X144680000Y-141418571D01*
X144680000Y-142847143D02*
X144537143Y-142918571D01*
X144251429Y-142918571D01*
X144108571Y-142847143D01*
X144037143Y-142775714D01*
X143965714Y-142632857D01*
X143965714Y-142204286D01*
X144037143Y-142061429D01*
X144108571Y-141990000D01*
X144251429Y-141918571D01*
X144537143Y-141918571D01*
X144680000Y-141990000D01*
X146322857Y-141418571D02*
X146822857Y-142918571D01*
X147322857Y-141418571D01*
X147751428Y-141561429D02*
X147822857Y-141490000D01*
X147965714Y-141418571D01*
X148322857Y-141418571D01*
X148465714Y-141490000D01*
X148537143Y-141561429D01*
X148608571Y-141704286D01*
X148608571Y-141847143D01*
X148537143Y-142061429D01*
X147680000Y-142918571D01*
X148608571Y-142918571D01*
X149251428Y-142775714D02*
X149322856Y-142847143D01*
X149251428Y-142918571D01*
X149179999Y-142847143D01*
X149251428Y-142775714D01*
X149251428Y-142918571D01*
X150251428Y-141418571D02*
X150394285Y-141418571D01*
X150537142Y-141490000D01*
X150608571Y-141561429D01*
X150680000Y-141704286D01*
X150751428Y-141990000D01*
X150751428Y-142347143D01*
X150680000Y-142632857D01*
X150608571Y-142775714D01*
X150537142Y-142847143D01*
X150394285Y-142918571D01*
X150251428Y-142918571D01*
X150108571Y-142847143D01*
X150037142Y-142775714D01*
X149965714Y-142632857D01*
X149894285Y-142347143D01*
X149894285Y-141990000D01*
X149965714Y-141704286D01*
X150037142Y-141561429D01*
X150108571Y-141490000D01*
X150251428Y-141418571D01*
D13*
X173228000Y-140716000D02*
X173228000Y-143764000D01*
X178308000Y-140716000D02*
X178308000Y-143764000D01*
X183388000Y-140716000D02*
X183388000Y-143764000D01*
X168656000Y-140208000D02*
X187960000Y-140208000D01*
X168656000Y-144272000D02*
X168656000Y-140208000D01*
X187960000Y-144272000D02*
X168656000Y-144272000D01*
X187960000Y-140208000D02*
X187960000Y-144272000D01*
X196088000Y-140716000D02*
X195580000Y-140208000D01*
X197612000Y-140716000D02*
X196088000Y-140716000D01*
X198120000Y-140208000D02*
X197612000Y-140716000D01*
X197612000Y-143764000D02*
X198120000Y-144272000D01*
X196088000Y-143764000D02*
X197612000Y-143764000D01*
X195580000Y-144272000D02*
X196088000Y-143764000D01*
X198120000Y-140208000D02*
X198120000Y-140462000D01*
X198120000Y-140208000D02*
X198120000Y-144272000D01*
X195580000Y-140208000D02*
X198120000Y-140208000D01*
X195580000Y-144272000D02*
X195580000Y-140208000D01*
X198120000Y-144272000D02*
X195580000Y-144272000D01*
D12*
X216348571Y-121828571D02*
X217848571Y-121328571D01*
X216348571Y-120828571D01*
X217848571Y-120328571D02*
X216348571Y-120328571D01*
X216920000Y-120328571D02*
X216848571Y-120185714D01*
X216848571Y-119900000D01*
X216920000Y-119757143D01*
X216991429Y-119685714D01*
X217134286Y-119614285D01*
X217562857Y-119614285D01*
X217705714Y-119685714D01*
X217777143Y-119757143D01*
X217848571Y-119900000D01*
X217848571Y-120185714D01*
X217777143Y-120328571D01*
D11*
X192087619Y-124120714D02*
X192468571Y-124120714D01*
X192230476Y-124787381D02*
X192230476Y-123930238D01*
X192278095Y-123835000D01*
X192373333Y-123787381D01*
X192468571Y-123787381D01*
X192944762Y-124787381D02*
X192849524Y-124739762D01*
X192801905Y-124692143D01*
X192754286Y-124596905D01*
X192754286Y-124311190D01*
X192801905Y-124215952D01*
X192849524Y-124168333D01*
X192944762Y-124120714D01*
X193087620Y-124120714D01*
X193182858Y-124168333D01*
X193230477Y-124215952D01*
X193278096Y-124311190D01*
X193278096Y-124596905D01*
X193230477Y-124692143D01*
X193182858Y-124739762D01*
X193087620Y-124787381D01*
X192944762Y-124787381D01*
X193706667Y-124787381D02*
X193706667Y-124120714D01*
X193706667Y-124311190D02*
X193754286Y-124215952D01*
X193801905Y-124168333D01*
X193897143Y-124120714D01*
X193992382Y-124120714D01*
X190659047Y-125437381D02*
X191230476Y-125437381D01*
X190944761Y-126437381D02*
X190944761Y-125437381D01*
X191944762Y-126389762D02*
X191849524Y-126437381D01*
X191659047Y-126437381D01*
X191563809Y-126389762D01*
X191516190Y-126294524D01*
X191516190Y-125913571D01*
X191563809Y-125818333D01*
X191659047Y-125770714D01*
X191849524Y-125770714D01*
X191944762Y-125818333D01*
X191992381Y-125913571D01*
X191992381Y-126008810D01*
X191516190Y-126104048D01*
X192801905Y-126389762D02*
X192706667Y-126437381D01*
X192516190Y-126437381D01*
X192420952Y-126389762D01*
X192373333Y-126294524D01*
X192373333Y-125913571D01*
X192420952Y-125818333D01*
X192516190Y-125770714D01*
X192706667Y-125770714D01*
X192801905Y-125818333D01*
X192849524Y-125913571D01*
X192849524Y-126008810D01*
X192373333Y-126104048D01*
X193278095Y-125770714D02*
X193278095Y-126437381D01*
X193278095Y-125865952D02*
X193325714Y-125818333D01*
X193420952Y-125770714D01*
X193563810Y-125770714D01*
X193659048Y-125818333D01*
X193706667Y-125913571D01*
X193706667Y-126437381D01*
X194135238Y-126389762D02*
X194230476Y-126437381D01*
X194420952Y-126437381D01*
X194516191Y-126389762D01*
X194563810Y-126294524D01*
X194563810Y-126246905D01*
X194516191Y-126151667D01*
X194420952Y-126104048D01*
X194278095Y-126104048D01*
X194182857Y-126056429D01*
X194135238Y-125961190D01*
X194135238Y-125913571D01*
X194182857Y-125818333D01*
X194278095Y-125770714D01*
X194420952Y-125770714D01*
X194516191Y-125818333D01*
X194897143Y-125770714D02*
X195135238Y-126437381D01*
X195373334Y-125770714D02*
X195135238Y-126437381D01*
X195040000Y-126675476D01*
X194992381Y-126723095D01*
X194897143Y-126770714D01*
X191944762Y-128087381D02*
X191944762Y-127087381D01*
X192420952Y-128087381D02*
X192420952Y-127087381D01*
X192754286Y-127801667D01*
X193087619Y-127087381D01*
X193087619Y-128087381D01*
X193563809Y-127087381D02*
X193563809Y-127896905D01*
X193611428Y-127992143D01*
X193659047Y-128039762D01*
X193754285Y-128087381D01*
X193944762Y-128087381D01*
X194040000Y-128039762D01*
X194087619Y-127992143D01*
X194135238Y-127896905D01*
X194135238Y-127087381D01*
X192254286Y-129689762D02*
X192397143Y-129737381D01*
X192635239Y-129737381D01*
X192730477Y-129689762D01*
X192778096Y-129642143D01*
X192825715Y-129546905D01*
X192825715Y-129451667D01*
X192778096Y-129356429D01*
X192730477Y-129308810D01*
X192635239Y-129261190D01*
X192444762Y-129213571D01*
X192349524Y-129165952D01*
X192301905Y-129118333D01*
X192254286Y-129023095D01*
X192254286Y-128927857D01*
X192301905Y-128832619D01*
X192349524Y-128785000D01*
X192444762Y-128737381D01*
X192682858Y-128737381D01*
X192825715Y-128785000D01*
X193254286Y-129737381D02*
X193254286Y-128737381D01*
X193492381Y-128737381D01*
X193635239Y-128785000D01*
X193730477Y-128880238D01*
X193778096Y-128975476D01*
X193825715Y-129165952D01*
X193825715Y-129308810D01*
X193778096Y-129499286D01*
X193730477Y-129594524D01*
X193635239Y-129689762D01*
X193492381Y-129737381D01*
X193254286Y-129737381D01*
X187825714Y-130863571D02*
X187968571Y-130911190D01*
X188016190Y-130958810D01*
X188063809Y-131054048D01*
X188063809Y-131196905D01*
X188016190Y-131292143D01*
X187968571Y-131339762D01*
X187873333Y-131387381D01*
X187492380Y-131387381D01*
X187492380Y-130387381D01*
X187825714Y-130387381D01*
X187920952Y-130435000D01*
X187968571Y-130482619D01*
X188016190Y-130577857D01*
X188016190Y-130673095D01*
X187968571Y-130768333D01*
X187920952Y-130815952D01*
X187825714Y-130863571D01*
X187492380Y-130863571D01*
X188920952Y-131387381D02*
X188920952Y-130863571D01*
X188873333Y-130768333D01*
X188778095Y-130720714D01*
X188587618Y-130720714D01*
X188492380Y-130768333D01*
X188920952Y-131339762D02*
X188825714Y-131387381D01*
X188587618Y-131387381D01*
X188492380Y-131339762D01*
X188444761Y-131244524D01*
X188444761Y-131149286D01*
X188492380Y-131054048D01*
X188587618Y-131006429D01*
X188825714Y-131006429D01*
X188920952Y-130958810D01*
X189254285Y-130720714D02*
X189635237Y-130720714D01*
X189397142Y-130387381D02*
X189397142Y-131244524D01*
X189444761Y-131339762D01*
X189539999Y-131387381D01*
X189635237Y-131387381D01*
X189825714Y-130720714D02*
X190206666Y-130720714D01*
X189968571Y-130387381D02*
X189968571Y-131244524D01*
X190016190Y-131339762D01*
X190111428Y-131387381D01*
X190206666Y-131387381D01*
X190920953Y-131339762D02*
X190825715Y-131387381D01*
X190635238Y-131387381D01*
X190540000Y-131339762D01*
X190492381Y-131244524D01*
X190492381Y-130863571D01*
X190540000Y-130768333D01*
X190635238Y-130720714D01*
X190825715Y-130720714D01*
X190920953Y-130768333D01*
X190968572Y-130863571D01*
X190968572Y-130958810D01*
X190492381Y-131054048D01*
X191397143Y-131387381D02*
X191397143Y-130720714D01*
X191397143Y-130911190D02*
X191444762Y-130815952D01*
X191492381Y-130768333D01*
X191587619Y-130720714D01*
X191682858Y-130720714D01*
X191920953Y-130720714D02*
X192159048Y-131387381D01*
X192397144Y-130720714D02*
X192159048Y-131387381D01*
X192063810Y-131625476D01*
X192016191Y-131673095D01*
X191920953Y-131720714D01*
X193540001Y-131387381D02*
X193540001Y-130387381D01*
X193873335Y-131101667D01*
X194206668Y-130387381D01*
X194206668Y-131387381D01*
X194825715Y-131387381D02*
X194730477Y-131339762D01*
X194682858Y-131292143D01*
X194635239Y-131196905D01*
X194635239Y-130911190D01*
X194682858Y-130815952D01*
X194730477Y-130768333D01*
X194825715Y-130720714D01*
X194968573Y-130720714D01*
X195063811Y-130768333D01*
X195111430Y-130815952D01*
X195159049Y-130911190D01*
X195159049Y-131196905D01*
X195111430Y-131292143D01*
X195063811Y-131339762D01*
X194968573Y-131387381D01*
X194825715Y-131387381D01*
X195587620Y-130720714D02*
X195587620Y-131387381D01*
X195587620Y-130815952D02*
X195635239Y-130768333D01*
X195730477Y-130720714D01*
X195873335Y-130720714D01*
X195968573Y-130768333D01*
X196016192Y-130863571D01*
X196016192Y-131387381D01*
X196492382Y-131387381D02*
X196492382Y-130720714D01*
X196492382Y-130387381D02*
X196444763Y-130435000D01*
X196492382Y-130482619D01*
X196540001Y-130435000D01*
X196492382Y-130387381D01*
X196492382Y-130482619D01*
X196825715Y-130720714D02*
X197206667Y-130720714D01*
X196968572Y-130387381D02*
X196968572Y-131244524D01*
X197016191Y-131339762D01*
X197111429Y-131387381D01*
X197206667Y-131387381D01*
X197682858Y-131387381D02*
X197587620Y-131339762D01*
X197540001Y-131292143D01*
X197492382Y-131196905D01*
X197492382Y-130911190D01*
X197540001Y-130815952D01*
X197587620Y-130768333D01*
X197682858Y-130720714D01*
X197825716Y-130720714D01*
X197920954Y-130768333D01*
X197968573Y-130815952D01*
X198016192Y-130911190D01*
X198016192Y-131196905D01*
X197968573Y-131292143D01*
X197920954Y-131339762D01*
X197825716Y-131387381D01*
X197682858Y-131387381D01*
X198444763Y-131387381D02*
X198444763Y-130720714D01*
X198444763Y-130911190D02*
X198492382Y-130815952D01*
X198540001Y-130768333D01*
X198635239Y-130720714D01*
X198730478Y-130720714D01*
D12*
X192111429Y-121733571D02*
X192611429Y-123233571D01*
X193111429Y-121733571D01*
X193397143Y-122233571D02*
X193968572Y-122233571D01*
X193611429Y-121733571D02*
X193611429Y-123019286D01*
X193682857Y-123162143D01*
X193825715Y-123233571D01*
X193968572Y-123233571D01*
D11*
X207327619Y-101005714D02*
X207708571Y-101005714D01*
X207470476Y-101672381D02*
X207470476Y-100815238D01*
X207518095Y-100720000D01*
X207613333Y-100672381D01*
X207708571Y-100672381D01*
X208184762Y-101672381D02*
X208089524Y-101624762D01*
X208041905Y-101577143D01*
X207994286Y-101481905D01*
X207994286Y-101196190D01*
X208041905Y-101100952D01*
X208089524Y-101053333D01*
X208184762Y-101005714D01*
X208327620Y-101005714D01*
X208422858Y-101053333D01*
X208470477Y-101100952D01*
X208518096Y-101196190D01*
X208518096Y-101481905D01*
X208470477Y-101577143D01*
X208422858Y-101624762D01*
X208327620Y-101672381D01*
X208184762Y-101672381D01*
X208946667Y-101672381D02*
X208946667Y-101005714D01*
X208946667Y-101196190D02*
X208994286Y-101100952D01*
X209041905Y-101053333D01*
X209137143Y-101005714D01*
X209232382Y-101005714D01*
X207565715Y-102370000D02*
X207470477Y-102322381D01*
X207327620Y-102322381D01*
X207184762Y-102370000D01*
X207089524Y-102465238D01*
X207041905Y-102560476D01*
X206994286Y-102750952D01*
X206994286Y-102893810D01*
X207041905Y-103084286D01*
X207089524Y-103179524D01*
X207184762Y-103274762D01*
X207327620Y-103322381D01*
X207422858Y-103322381D01*
X207565715Y-103274762D01*
X207613334Y-103227143D01*
X207613334Y-102893810D01*
X207422858Y-102893810D01*
X208041905Y-103322381D02*
X208041905Y-102322381D01*
X208422858Y-102322381D01*
X208518096Y-102370000D01*
X208565715Y-102417619D01*
X208613334Y-102512857D01*
X208613334Y-102655714D01*
X208565715Y-102750952D01*
X208518096Y-102798571D01*
X208422858Y-102846190D01*
X208041905Y-102846190D01*
X208994286Y-103274762D02*
X209137143Y-103322381D01*
X209375239Y-103322381D01*
X209470477Y-103274762D01*
X209518096Y-103227143D01*
X209565715Y-103131905D01*
X209565715Y-103036667D01*
X209518096Y-102941429D01*
X209470477Y-102893810D01*
X209375239Y-102846190D01*
X209184762Y-102798571D01*
X209089524Y-102750952D01*
X209041905Y-102703333D01*
X208994286Y-102608095D01*
X208994286Y-102512857D01*
X209041905Y-102417619D01*
X209089524Y-102370000D01*
X209184762Y-102322381D01*
X209422858Y-102322381D01*
X209565715Y-102370000D01*
X206946667Y-104972381D02*
X206946667Y-103972381D01*
X207280001Y-104686667D01*
X207613334Y-103972381D01*
X207613334Y-104972381D01*
X208660953Y-104877143D02*
X208613334Y-104924762D01*
X208470477Y-104972381D01*
X208375239Y-104972381D01*
X208232381Y-104924762D01*
X208137143Y-104829524D01*
X208089524Y-104734286D01*
X208041905Y-104543810D01*
X208041905Y-104400952D01*
X208089524Y-104210476D01*
X208137143Y-104115238D01*
X208232381Y-104020000D01*
X208375239Y-103972381D01*
X208470477Y-103972381D01*
X208613334Y-104020000D01*
X208660953Y-104067619D01*
X209422858Y-104448571D02*
X209565715Y-104496190D01*
X209613334Y-104543810D01*
X209660953Y-104639048D01*
X209660953Y-104781905D01*
X209613334Y-104877143D01*
X209565715Y-104924762D01*
X209470477Y-104972381D01*
X209089524Y-104972381D01*
X209089524Y-103972381D01*
X209422858Y-103972381D01*
X209518096Y-104020000D01*
X209565715Y-104067619D01*
X209613334Y-104162857D01*
X209613334Y-104258095D01*
X209565715Y-104353333D01*
X209518096Y-104400952D01*
X209422858Y-104448571D01*
X209089524Y-104448571D01*
D12*
X207994287Y-98238571D02*
X207280001Y-98238571D01*
X207208572Y-98952857D01*
X207280001Y-98881429D01*
X207422858Y-98810000D01*
X207780001Y-98810000D01*
X207922858Y-98881429D01*
X207994287Y-98952857D01*
X208065715Y-99095714D01*
X208065715Y-99452857D01*
X207994287Y-99595714D01*
X207922858Y-99667143D01*
X207780001Y-99738571D01*
X207422858Y-99738571D01*
X207280001Y-99667143D01*
X207208572Y-99595714D01*
X208494286Y-98238571D02*
X208994286Y-99738571D01*
X209494286Y-98238571D01*
X191861429Y-103318571D02*
X192361429Y-104818571D01*
X192861429Y-103318571D01*
X194004286Y-104818571D02*
X194004286Y-103318571D01*
X194004286Y-104747143D02*
X193861429Y-104818571D01*
X193575715Y-104818571D01*
X193432857Y-104747143D01*
X193361429Y-104675714D01*
X193290000Y-104532857D01*
X193290000Y-104104286D01*
X193361429Y-103961429D01*
X193432857Y-103890000D01*
X193575715Y-103818571D01*
X193861429Y-103818571D01*
X194004286Y-103890000D01*
D11*
X192087619Y-106085714D02*
X192468571Y-106085714D01*
X192230476Y-106752381D02*
X192230476Y-105895238D01*
X192278095Y-105800000D01*
X192373333Y-105752381D01*
X192468571Y-105752381D01*
X192944762Y-106752381D02*
X192849524Y-106704762D01*
X192801905Y-106657143D01*
X192754286Y-106561905D01*
X192754286Y-106276190D01*
X192801905Y-106180952D01*
X192849524Y-106133333D01*
X192944762Y-106085714D01*
X193087620Y-106085714D01*
X193182858Y-106133333D01*
X193230477Y-106180952D01*
X193278096Y-106276190D01*
X193278096Y-106561905D01*
X193230477Y-106657143D01*
X193182858Y-106704762D01*
X193087620Y-106752381D01*
X192944762Y-106752381D01*
X193706667Y-106752381D02*
X193706667Y-106085714D01*
X193706667Y-106276190D02*
X193754286Y-106180952D01*
X193801905Y-106133333D01*
X193897143Y-106085714D01*
X193992382Y-106085714D01*
X188087619Y-108402381D02*
X188087619Y-107402381D01*
X188325714Y-107402381D01*
X188468572Y-107450000D01*
X188563810Y-107545238D01*
X188611429Y-107640476D01*
X188659048Y-107830952D01*
X188659048Y-107973810D01*
X188611429Y-108164286D01*
X188563810Y-108259524D01*
X188468572Y-108354762D01*
X188325714Y-108402381D01*
X188087619Y-108402381D01*
X189087619Y-108402381D02*
X189087619Y-107735714D01*
X189087619Y-107402381D02*
X189040000Y-107450000D01*
X189087619Y-107497619D01*
X189135238Y-107450000D01*
X189087619Y-107402381D01*
X189087619Y-107497619D01*
X189706666Y-108402381D02*
X189611428Y-108354762D01*
X189563809Y-108307143D01*
X189516190Y-108211905D01*
X189516190Y-107926190D01*
X189563809Y-107830952D01*
X189611428Y-107783333D01*
X189706666Y-107735714D01*
X189849524Y-107735714D01*
X189944762Y-107783333D01*
X189992381Y-107830952D01*
X190040000Y-107926190D01*
X190040000Y-108211905D01*
X189992381Y-108307143D01*
X189944762Y-108354762D01*
X189849524Y-108402381D01*
X189706666Y-108402381D01*
X190897143Y-108402381D02*
X190897143Y-107402381D01*
X190897143Y-108354762D02*
X190801905Y-108402381D01*
X190611428Y-108402381D01*
X190516190Y-108354762D01*
X190468571Y-108307143D01*
X190420952Y-108211905D01*
X190420952Y-107926190D01*
X190468571Y-107830952D01*
X190516190Y-107783333D01*
X190611428Y-107735714D01*
X190801905Y-107735714D01*
X190897143Y-107783333D01*
X191754286Y-108354762D02*
X191659048Y-108402381D01*
X191468571Y-108402381D01*
X191373333Y-108354762D01*
X191325714Y-108259524D01*
X191325714Y-107878571D01*
X191373333Y-107783333D01*
X191468571Y-107735714D01*
X191659048Y-107735714D01*
X191754286Y-107783333D01*
X191801905Y-107878571D01*
X191801905Y-107973810D01*
X191325714Y-108069048D01*
X193563810Y-108307143D02*
X193516191Y-108354762D01*
X193373334Y-108402381D01*
X193278096Y-108402381D01*
X193135238Y-108354762D01*
X193040000Y-108259524D01*
X192992381Y-108164286D01*
X192944762Y-107973810D01*
X192944762Y-107830952D01*
X192992381Y-107640476D01*
X193040000Y-107545238D01*
X193135238Y-107450000D01*
X193278096Y-107402381D01*
X193373334Y-107402381D01*
X193516191Y-107450000D01*
X193563810Y-107497619D01*
X194135238Y-108402381D02*
X194040000Y-108354762D01*
X193992381Y-108259524D01*
X193992381Y-107402381D01*
X194944763Y-108402381D02*
X194944763Y-107878571D01*
X194897144Y-107783333D01*
X194801906Y-107735714D01*
X194611429Y-107735714D01*
X194516191Y-107783333D01*
X194944763Y-108354762D02*
X194849525Y-108402381D01*
X194611429Y-108402381D01*
X194516191Y-108354762D01*
X194468572Y-108259524D01*
X194468572Y-108164286D01*
X194516191Y-108069048D01*
X194611429Y-108021429D01*
X194849525Y-108021429D01*
X194944763Y-107973810D01*
X195420953Y-108402381D02*
X195420953Y-107735714D01*
X195420953Y-107830952D02*
X195468572Y-107783333D01*
X195563810Y-107735714D01*
X195706668Y-107735714D01*
X195801906Y-107783333D01*
X195849525Y-107878571D01*
X195849525Y-108402381D01*
X195849525Y-107878571D02*
X195897144Y-107783333D01*
X195992382Y-107735714D01*
X196135239Y-107735714D01*
X196230477Y-107783333D01*
X196278096Y-107878571D01*
X196278096Y-108402381D01*
X196754286Y-107735714D02*
X196754286Y-108735714D01*
X196754286Y-107783333D02*
X196849524Y-107735714D01*
X197040001Y-107735714D01*
X197135239Y-107783333D01*
X197182858Y-107830952D01*
X197230477Y-107926190D01*
X197230477Y-108211905D01*
X197182858Y-108307143D01*
X197135239Y-108354762D01*
X197040001Y-108402381D01*
X196849524Y-108402381D01*
X196754286Y-108354762D01*
X197611429Y-108354762D02*
X197706667Y-108402381D01*
X197897143Y-108402381D01*
X197992382Y-108354762D01*
X198040001Y-108259524D01*
X198040001Y-108211905D01*
X197992382Y-108116667D01*
X197897143Y-108069048D01*
X197754286Y-108069048D01*
X197659048Y-108021429D01*
X197611429Y-107926190D01*
X197611429Y-107878571D01*
X197659048Y-107783333D01*
X197754286Y-107735714D01*
X197897143Y-107735714D01*
X197992382Y-107783333D01*
X190944762Y-109528571D02*
X191087619Y-109576190D01*
X191135238Y-109623810D01*
X191182857Y-109719048D01*
X191182857Y-109861905D01*
X191135238Y-109957143D01*
X191087619Y-110004762D01*
X190992381Y-110052381D01*
X190611428Y-110052381D01*
X190611428Y-109052381D01*
X190944762Y-109052381D01*
X191040000Y-109100000D01*
X191087619Y-109147619D01*
X191135238Y-109242857D01*
X191135238Y-109338095D01*
X191087619Y-109433333D01*
X191040000Y-109480952D01*
X190944762Y-109528571D01*
X190611428Y-109528571D01*
X192040000Y-109385714D02*
X192040000Y-110052381D01*
X191611428Y-109385714D02*
X191611428Y-109909524D01*
X191659047Y-110004762D01*
X191754285Y-110052381D01*
X191897143Y-110052381D01*
X191992381Y-110004762D01*
X192040000Y-109957143D01*
X192373333Y-109385714D02*
X192754285Y-109385714D01*
X192516190Y-110052381D02*
X192516190Y-109195238D01*
X192563809Y-109100000D01*
X192659047Y-109052381D01*
X192754285Y-109052381D01*
X192944762Y-109385714D02*
X193325714Y-109385714D01*
X193087619Y-110052381D02*
X193087619Y-109195238D01*
X193135238Y-109100000D01*
X193230476Y-109052381D01*
X193325714Y-109052381D01*
X194040001Y-110004762D02*
X193944763Y-110052381D01*
X193754286Y-110052381D01*
X193659048Y-110004762D01*
X193611429Y-109909524D01*
X193611429Y-109528571D01*
X193659048Y-109433333D01*
X193754286Y-109385714D01*
X193944763Y-109385714D01*
X194040001Y-109433333D01*
X194087620Y-109528571D01*
X194087620Y-109623810D01*
X193611429Y-109719048D01*
X194516191Y-110052381D02*
X194516191Y-109385714D01*
X194516191Y-109576190D02*
X194563810Y-109480952D01*
X194611429Y-109433333D01*
X194706667Y-109385714D01*
X194801906Y-109385714D01*
X195087620Y-110004762D02*
X195182858Y-110052381D01*
X195373334Y-110052381D01*
X195468573Y-110004762D01*
X195516192Y-109909524D01*
X195516192Y-109861905D01*
X195468573Y-109766667D01*
X195373334Y-109719048D01*
X195230477Y-109719048D01*
X195135239Y-109671429D01*
X195087620Y-109576190D01*
X195087620Y-109528571D01*
X195135239Y-109433333D01*
X195230477Y-109385714D01*
X195373334Y-109385714D01*
X195468573Y-109433333D01*
X140104762Y-135199286D02*
X140152381Y-135056429D01*
X140152381Y-134818333D01*
X140104762Y-134723095D01*
X140057143Y-134675476D01*
X139961905Y-134627857D01*
X139866667Y-134627857D01*
X139771429Y-134675476D01*
X139723810Y-134723095D01*
X139676190Y-134818333D01*
X139628571Y-135008810D01*
X139580952Y-135104048D01*
X139533333Y-135151667D01*
X139438095Y-135199286D01*
X139342857Y-135199286D01*
X139247619Y-135151667D01*
X139200000Y-135104048D01*
X139152381Y-135008810D01*
X139152381Y-134770714D01*
X139200000Y-134627857D01*
X140152381Y-134199286D02*
X139152381Y-134199286D01*
X139152381Y-133961191D01*
X139200000Y-133818333D01*
X139295238Y-133723095D01*
X139390476Y-133675476D01*
X139580952Y-133627857D01*
X139723810Y-133627857D01*
X139914286Y-133675476D01*
X140009524Y-133723095D01*
X140104762Y-133818333D01*
X140152381Y-133961191D01*
X140152381Y-134199286D01*
X139866667Y-133246905D02*
X139866667Y-132770714D01*
X140152381Y-133342143D02*
X139152381Y-133008810D01*
X140152381Y-132675476D01*
X137564762Y-135175476D02*
X137612381Y-135032619D01*
X137612381Y-134794523D01*
X137564762Y-134699285D01*
X137517143Y-134651666D01*
X137421905Y-134604047D01*
X137326667Y-134604047D01*
X137231429Y-134651666D01*
X137183810Y-134699285D01*
X137136190Y-134794523D01*
X137088571Y-134985000D01*
X137040952Y-135080238D01*
X136993333Y-135127857D01*
X136898095Y-135175476D01*
X136802857Y-135175476D01*
X136707619Y-135127857D01*
X136660000Y-135080238D01*
X136612381Y-134985000D01*
X136612381Y-134746904D01*
X136660000Y-134604047D01*
X137517143Y-133604047D02*
X137564762Y-133651666D01*
X137612381Y-133794523D01*
X137612381Y-133889761D01*
X137564762Y-134032619D01*
X137469524Y-134127857D01*
X137374286Y-134175476D01*
X137183810Y-134223095D01*
X137040952Y-134223095D01*
X136850476Y-134175476D01*
X136755238Y-134127857D01*
X136660000Y-134032619D01*
X136612381Y-133889761D01*
X136612381Y-133794523D01*
X136660000Y-133651666D01*
X136707619Y-133604047D01*
X137612381Y-132699285D02*
X137612381Y-133175476D01*
X136612381Y-133175476D01*
X134120000Y-134746904D02*
X134072381Y-134842142D01*
X134072381Y-134984999D01*
X134120000Y-135127857D01*
X134215238Y-135223095D01*
X134310476Y-135270714D01*
X134500952Y-135318333D01*
X134643810Y-135318333D01*
X134834286Y-135270714D01*
X134929524Y-135223095D01*
X135024762Y-135127857D01*
X135072381Y-134984999D01*
X135072381Y-134889761D01*
X135024762Y-134746904D01*
X134977143Y-134699285D01*
X134643810Y-134699285D01*
X134643810Y-134889761D01*
X135072381Y-134270714D02*
X134072381Y-134270714D01*
X135072381Y-133699285D01*
X134072381Y-133699285D01*
X135072381Y-133223095D02*
X134072381Y-133223095D01*
X134072381Y-132985000D01*
X134120000Y-132842142D01*
X134215238Y-132746904D01*
X134310476Y-132699285D01*
X134500952Y-132651666D01*
X134643810Y-132651666D01*
X134834286Y-132699285D01*
X134929524Y-132746904D01*
X135024762Y-132842142D01*
X135072381Y-132985000D01*
X135072381Y-133223095D01*
X128992381Y-135239048D02*
X129992381Y-134905715D01*
X128992381Y-134572381D01*
X129325714Y-134381905D02*
X129325714Y-134000953D01*
X128992381Y-134239048D02*
X129849524Y-134239048D01*
X129944762Y-134191429D01*
X129992381Y-134096191D01*
X129992381Y-134000953D01*
X124269524Y-90892381D02*
X123793333Y-90892381D01*
X123745714Y-91368571D01*
X123793333Y-91320952D01*
X123888571Y-91273333D01*
X124126667Y-91273333D01*
X124221905Y-91320952D01*
X124269524Y-91368571D01*
X124317143Y-91463810D01*
X124317143Y-91701905D01*
X124269524Y-91797143D01*
X124221905Y-91844762D01*
X124126667Y-91892381D01*
X123888571Y-91892381D01*
X123793333Y-91844762D01*
X123745714Y-91797143D01*
X124602857Y-90892381D02*
X124936190Y-91892381D01*
X125269524Y-90892381D01*
X124333096Y-88400000D02*
X124237858Y-88352381D01*
X124095001Y-88352381D01*
X123952143Y-88400000D01*
X123856905Y-88495238D01*
X123809286Y-88590476D01*
X123761667Y-88780952D01*
X123761667Y-88923810D01*
X123809286Y-89114286D01*
X123856905Y-89209524D01*
X123952143Y-89304762D01*
X124095001Y-89352381D01*
X124190239Y-89352381D01*
X124333096Y-89304762D01*
X124380715Y-89257143D01*
X124380715Y-88923810D01*
X124190239Y-88923810D01*
X124809286Y-89352381D02*
X124809286Y-88352381D01*
X125380715Y-89352381D01*
X125380715Y-88352381D01*
X125856905Y-89352381D02*
X125856905Y-88352381D01*
X126095000Y-88352381D01*
X126237858Y-88400000D01*
X126333096Y-88495238D01*
X126380715Y-88590476D01*
X126428334Y-88780952D01*
X126428334Y-88923810D01*
X126380715Y-89114286D01*
X126333096Y-89209524D01*
X126237858Y-89304762D01*
X126095000Y-89352381D01*
X125856905Y-89352381D01*
X124293334Y-86812381D02*
X123960000Y-86336190D01*
X123721905Y-86812381D02*
X123721905Y-85812381D01*
X124102858Y-85812381D01*
X124198096Y-85860000D01*
X124245715Y-85907619D01*
X124293334Y-86002857D01*
X124293334Y-86145714D01*
X124245715Y-86240952D01*
X124198096Y-86288571D01*
X124102858Y-86336190D01*
X123721905Y-86336190D01*
X124626667Y-85812381D02*
X125293334Y-86812381D01*
X125293334Y-85812381D02*
X124626667Y-86812381D01*
X123698095Y-83272381D02*
X124269524Y-83272381D01*
X123983809Y-84272381D02*
X123983809Y-83272381D01*
X124507619Y-83272381D02*
X125174286Y-84272381D01*
X125174286Y-83272381D02*
X124507619Y-84272381D01*
X128159048Y-93797381D02*
X127587619Y-93797381D01*
X127873333Y-93797381D02*
X127873333Y-92797381D01*
X127778095Y-92940238D01*
X127682857Y-93035476D01*
X127587619Y-93083095D01*
X128587619Y-93702143D02*
X128635238Y-93749762D01*
X128587619Y-93797381D01*
X128540000Y-93749762D01*
X128587619Y-93702143D01*
X128587619Y-93797381D01*
X129254285Y-92797381D02*
X129349524Y-92797381D01*
X129444762Y-92845000D01*
X129492381Y-92892619D01*
X129540000Y-92987857D01*
X129587619Y-93178333D01*
X129587619Y-93416429D01*
X129540000Y-93606905D01*
X129492381Y-93702143D01*
X129444762Y-93749762D01*
X129349524Y-93797381D01*
X129254285Y-93797381D01*
X129159047Y-93749762D01*
X129111428Y-93702143D01*
X129063809Y-93606905D01*
X129016190Y-93416429D01*
X129016190Y-93178333D01*
X129063809Y-92987857D01*
X129111428Y-92892619D01*
X129159047Y-92845000D01*
X129254285Y-92797381D01*
X130016190Y-93130714D02*
X130016190Y-94130714D01*
X130492381Y-93654524D02*
X130540000Y-93749762D01*
X130635238Y-93797381D01*
X130016190Y-93654524D02*
X130063809Y-93749762D01*
X130159047Y-93797381D01*
X130349524Y-93797381D01*
X130444762Y-93749762D01*
X130492381Y-93654524D01*
X130492381Y-93130714D01*
X131397143Y-93273571D02*
X131063809Y-93273571D01*
X131063809Y-93797381D02*
X131063809Y-92797381D01*
X131540000Y-92797381D01*
X127825714Y-86447381D02*
X127920953Y-86447381D01*
X128016191Y-86495000D01*
X128063810Y-86542619D01*
X128111429Y-86637857D01*
X128159048Y-86828333D01*
X128159048Y-87066429D01*
X128111429Y-87256905D01*
X128063810Y-87352143D01*
X128016191Y-87399762D01*
X127920953Y-87447381D01*
X127825714Y-87447381D01*
X127730476Y-87399762D01*
X127682857Y-87352143D01*
X127635238Y-87256905D01*
X127587619Y-87066429D01*
X127587619Y-86828333D01*
X127635238Y-86637857D01*
X127682857Y-86542619D01*
X127730476Y-86495000D01*
X127825714Y-86447381D01*
X128587619Y-87352143D02*
X128635238Y-87399762D01*
X128587619Y-87447381D01*
X128540000Y-87399762D01*
X128587619Y-87352143D01*
X128587619Y-87447381D01*
X129587619Y-87447381D02*
X129016190Y-87447381D01*
X129301904Y-87447381D02*
X129301904Y-86447381D01*
X129206666Y-86590238D01*
X129111428Y-86685476D01*
X129016190Y-86733095D01*
X130016190Y-86780714D02*
X130016190Y-87780714D01*
X130492381Y-87304524D02*
X130540000Y-87399762D01*
X130635238Y-87447381D01*
X130016190Y-87304524D02*
X130063809Y-87399762D01*
X130159047Y-87447381D01*
X130349524Y-87447381D01*
X130444762Y-87399762D01*
X130492381Y-87304524D01*
X130492381Y-86780714D01*
X131397143Y-86923571D02*
X131063809Y-86923571D01*
X131063809Y-87447381D02*
X131063809Y-86447381D01*
X131540000Y-86447381D01*
D10*
X142946667Y-107602381D02*
X142946667Y-106602381D01*
X143184762Y-106602381D01*
X143327620Y-106650000D01*
X143422858Y-106745238D01*
X143470477Y-106840476D01*
X143518096Y-107030952D01*
X143518096Y-107173810D01*
X143470477Y-107364286D01*
X143422858Y-107459524D01*
X143327620Y-107554762D01*
X143184762Y-107602381D01*
X142946667Y-107602381D01*
X143946667Y-107602381D02*
X143946667Y-106935714D01*
X143946667Y-106602381D02*
X143899048Y-106650000D01*
X143946667Y-106697619D01*
X143994286Y-106650000D01*
X143946667Y-106602381D01*
X143946667Y-106697619D01*
X144565714Y-107602381D02*
X144470476Y-107554762D01*
X144422857Y-107507143D01*
X144375238Y-107411905D01*
X144375238Y-107126190D01*
X144422857Y-107030952D01*
X144470476Y-106983333D01*
X144565714Y-106935714D01*
X144708572Y-106935714D01*
X144803810Y-106983333D01*
X144851429Y-107030952D01*
X144899048Y-107126190D01*
X144899048Y-107411905D01*
X144851429Y-107507143D01*
X144803810Y-107554762D01*
X144708572Y-107602381D01*
X144565714Y-107602381D01*
X145756191Y-107602381D02*
X145756191Y-106602381D01*
X145756191Y-107554762D02*
X145660953Y-107602381D01*
X145470476Y-107602381D01*
X145375238Y-107554762D01*
X145327619Y-107507143D01*
X145280000Y-107411905D01*
X145280000Y-107126190D01*
X145327619Y-107030952D01*
X145375238Y-106983333D01*
X145470476Y-106935714D01*
X145660953Y-106935714D01*
X145756191Y-106983333D01*
X146613334Y-107554762D02*
X146518096Y-107602381D01*
X146327619Y-107602381D01*
X146232381Y-107554762D01*
X146184762Y-107459524D01*
X146184762Y-107078571D01*
X146232381Y-106983333D01*
X146327619Y-106935714D01*
X146518096Y-106935714D01*
X146613334Y-106983333D01*
X146660953Y-107078571D01*
X146660953Y-107173810D01*
X146184762Y-107269048D01*
X142851429Y-109107143D02*
X142803810Y-109154762D01*
X142660953Y-109202381D01*
X142565715Y-109202381D01*
X142422857Y-109154762D01*
X142327619Y-109059524D01*
X142280000Y-108964286D01*
X142232381Y-108773810D01*
X142232381Y-108630952D01*
X142280000Y-108440476D01*
X142327619Y-108345238D01*
X142422857Y-108250000D01*
X142565715Y-108202381D01*
X142660953Y-108202381D01*
X142803810Y-108250000D01*
X142851429Y-108297619D01*
X143422857Y-109202381D02*
X143327619Y-109154762D01*
X143280000Y-109059524D01*
X143280000Y-108202381D01*
X144232382Y-109202381D02*
X144232382Y-108678571D01*
X144184763Y-108583333D01*
X144089525Y-108535714D01*
X143899048Y-108535714D01*
X143803810Y-108583333D01*
X144232382Y-109154762D02*
X144137144Y-109202381D01*
X143899048Y-109202381D01*
X143803810Y-109154762D01*
X143756191Y-109059524D01*
X143756191Y-108964286D01*
X143803810Y-108869048D01*
X143899048Y-108821429D01*
X144137144Y-108821429D01*
X144232382Y-108773810D01*
X144708572Y-109202381D02*
X144708572Y-108535714D01*
X144708572Y-108630952D02*
X144756191Y-108583333D01*
X144851429Y-108535714D01*
X144994287Y-108535714D01*
X145089525Y-108583333D01*
X145137144Y-108678571D01*
X145137144Y-109202381D01*
X145137144Y-108678571D02*
X145184763Y-108583333D01*
X145280001Y-108535714D01*
X145422858Y-108535714D01*
X145518096Y-108583333D01*
X145565715Y-108678571D01*
X145565715Y-109202381D01*
X146041905Y-108535714D02*
X146041905Y-109535714D01*
X146041905Y-108583333D02*
X146137143Y-108535714D01*
X146327620Y-108535714D01*
X146422858Y-108583333D01*
X146470477Y-108630952D01*
X146518096Y-108726190D01*
X146518096Y-109011905D01*
X146470477Y-109107143D01*
X146422858Y-109154762D01*
X146327620Y-109202381D01*
X146137143Y-109202381D01*
X146041905Y-109154762D01*
X146899048Y-109154762D02*
X146994286Y-109202381D01*
X147184762Y-109202381D01*
X147280001Y-109154762D01*
X147327620Y-109059524D01*
X147327620Y-109011905D01*
X147280001Y-108916667D01*
X147184762Y-108869048D01*
X147041905Y-108869048D01*
X146946667Y-108821429D01*
X146899048Y-108726190D01*
X146899048Y-108678571D01*
X146946667Y-108583333D01*
X147041905Y-108535714D01*
X147184762Y-108535714D01*
X147280001Y-108583333D01*
D14*
X166490000Y-83550000D02*
G75*
G02X166490000Y-81550000I0J1000000D01*
G01*
X166490000Y-81550000D02*
X166490000Y-79780000D01*
X166490000Y-79780000D02*
X148470000Y-79780000D01*
X148470000Y-79780000D02*
X148470000Y-85320000D01*
X148470000Y-85320000D02*
X166490000Y-85320000D01*
X166490000Y-85320000D02*
X166490000Y-83550000D01*
X166490000Y-77350000D02*
X148470000Y-77350000D01*
X148470000Y-77350000D02*
X148470000Y-87750000D01*
X148470000Y-87750000D02*
X166490000Y-87750000D01*
X166490000Y-87750000D02*
X166490000Y-77350000D01*
X199510000Y-83550000D02*
G75*
G02X199510000Y-81550000I0J1000000D01*
G01*
X199510000Y-81550000D02*
X199510000Y-79780000D01*
X199510000Y-79780000D02*
X181490000Y-79780000D01*
X181490000Y-79780000D02*
X181490000Y-85320000D01*
X181490000Y-85320000D02*
X199510000Y-85320000D01*
X199510000Y-85320000D02*
X199510000Y-83550000D01*
X199510000Y-77350000D02*
X181490000Y-77350000D01*
X181490000Y-77350000D02*
X181490000Y-87750000D01*
X181490000Y-87750000D02*
X199510000Y-87750000D01*
X199510000Y-87750000D02*
X199510000Y-77350000D01*
D11*
X208550000Y-89925000D02*
X210550000Y-89925000D01*
X210550000Y-87875000D02*
X208550000Y-87875000D01*
X205470000Y-87875000D02*
X203470000Y-87875000D01*
X203470000Y-89925000D02*
X205470000Y-89925000D01*
X191500000Y-117085000D02*
X189500000Y-117085000D01*
X189500000Y-119135000D02*
X191500000Y-119135000D01*
X194580000Y-119135000D02*
X196580000Y-119135000D01*
X196580000Y-117085000D02*
X194580000Y-117085000D01*
X204715000Y-128540000D02*
X204715000Y-130540000D01*
X206765000Y-130540000D02*
X206765000Y-128540000D01*
X206765000Y-125460000D02*
X206765000Y-123460000D01*
X204715000Y-123460000D02*
X204715000Y-125460000D01*
X131826000Y-87884000D02*
X131826000Y-89916000D01*
X127254000Y-89916000D02*
X131826000Y-89916000D01*
X127254000Y-89916000D02*
X127254000Y-87884000D01*
X127254000Y-87884000D02*
X131826000Y-87884000D01*
X129794000Y-88392000D02*
X129794000Y-89408000D01*
X129286000Y-89408000D02*
X129286000Y-88392000D01*
X131826000Y-90424000D02*
X131826000Y-92456000D01*
X127254000Y-92456000D02*
X131826000Y-92456000D01*
X127254000Y-92456000D02*
X127254000Y-90424000D01*
X127254000Y-90424000D02*
X131826000Y-90424000D01*
X129794000Y-90932000D02*
X129794000Y-91948000D01*
X129286000Y-91948000D02*
X129286000Y-90932000D01*
D10*
X193075000Y-135020000D02*
X193275000Y-135020000D01*
X193075000Y-135220000D02*
X193075000Y-135020000D01*
X193075000Y-136420000D02*
X193075000Y-136220000D01*
X193275000Y-136420000D02*
X193075000Y-136420000D01*
X195475000Y-136420000D02*
X195275000Y-136420000D01*
X195475000Y-136220000D02*
X195475000Y-136420000D01*
X195475000Y-135020000D02*
X195475000Y-135220000D01*
X195275000Y-135020000D02*
X195475000Y-135020000D01*
D13*
X195575000Y-134620000D02*
G75*
G03X195575000Y-134620000I-100000J0D01*
G01*
D10*
X140655000Y-112185000D02*
X138005000Y-112185000D01*
X140655000Y-109835000D02*
X140655000Y-112185000D01*
X138005000Y-109835000D02*
X140655000Y-109835000D01*
X138005000Y-112185000D02*
X138005000Y-109835000D01*
X147005000Y-112185000D02*
X144355000Y-112185000D01*
X147005000Y-109835000D02*
X147005000Y-112185000D01*
X144355000Y-109835000D02*
X147005000Y-109835000D01*
X144355000Y-112185000D02*
X144355000Y-109835000D01*
X153355000Y-112185000D02*
X150705000Y-112185000D01*
X153355000Y-109835000D02*
X153355000Y-112185000D01*
X150705000Y-109835000D02*
X153355000Y-109835000D01*
X150705000Y-112185000D02*
X150705000Y-109835000D01*
X153355000Y-105835000D02*
X150705000Y-105835000D01*
X153355000Y-103485000D02*
X153355000Y-105835000D01*
X150705000Y-103485000D02*
X153355000Y-103485000D01*
X150705000Y-105835000D02*
X150705000Y-103485000D01*
X147005000Y-105835000D02*
X144355000Y-105835000D01*
X147005000Y-103485000D02*
X147005000Y-105835000D01*
X144355000Y-103485000D02*
X147005000Y-103485000D01*
X144355000Y-105835000D02*
X144355000Y-103485000D01*
X140655000Y-105835000D02*
X138005000Y-105835000D01*
X140655000Y-103485000D02*
X140655000Y-105835000D01*
X138005000Y-103485000D02*
X140655000Y-103485000D01*
X138005000Y-105835000D02*
X138005000Y-103485000D01*
D11*
X127670000Y-119550000D02*
X127670000Y-121350000D01*
X128870000Y-119550000D02*
X128870000Y-121350000D01*
X212820000Y-119360000D02*
X208820000Y-119360000D01*
X208820000Y-119360000D02*
X208820000Y-116860000D01*
X208820000Y-116860000D02*
X212820000Y-116860000D01*
X212820000Y-116860000D02*
X212820000Y-119360000D01*
X212820000Y-123170000D02*
X208820000Y-123170000D01*
X208820000Y-123170000D02*
X208820000Y-120670000D01*
X208820000Y-120670000D02*
X212820000Y-120670000D01*
X212820000Y-120670000D02*
X212820000Y-123170000D01*
X153584000Y-73660000D02*
G75*
G03X153584000Y-73660000I-2200000J0D01*
G01*
X153584000Y-93980000D02*
G75*
G03X153584000Y-93980000I-2200000J0D01*
G01*
X119380000Y-93980000D02*
G75*
G03X121920000Y-96520000I2540000J0D01*
G01*
X121920000Y-71120000D02*
G75*
G03X119380000Y-73660000I0J-2540000D01*
G01*
X153924000Y-73660000D02*
G75*
G03X151384000Y-71120000I-2540000J0D01*
G01*
X151384000Y-96520000D02*
G75*
G03X153924000Y-93980000I0J2540000D01*
G01*
X121920000Y-71120000D02*
X151384000Y-71120000D01*
X121920000Y-96520000D02*
X151384000Y-96520000D01*
X153924000Y-93980000D02*
X153924000Y-73660000D01*
X119380000Y-93980000D02*
X119380000Y-73660000D01*
X126660000Y-137160000D02*
G75*
G03X126660000Y-137160000I-2200000J0D01*
G01*
X126660000Y-119380000D02*
G75*
G03X126660000Y-119380000I-2200000J0D01*
G01*
X159680000Y-119380000D02*
G75*
G03X159680000Y-119380000I-2200000J0D01*
G01*
X159680000Y-137160000D02*
G75*
G03X159680000Y-137160000I-2200000J0D01*
G01*
X121920000Y-137160000D02*
G75*
G03X124460000Y-139700000I2540000J0D01*
G01*
X124460000Y-116840000D02*
G75*
G03X121920000Y-119380000I0J-2540000D01*
G01*
X160020000Y-119380000D02*
G75*
G03X157480000Y-116840000I-2540000J0D01*
G01*
X157480000Y-139700000D02*
G75*
G03X160020000Y-137160000I0J2540000D01*
G01*
X124460000Y-116840000D02*
X157480000Y-116840000D01*
X124460000Y-139700000D02*
X157480000Y-139700000D01*
X160020000Y-137160000D02*
X160020000Y-119380000D01*
X121920000Y-137160000D02*
X121920000Y-119380000D01*
X217805000Y-131445000D02*
X213995000Y-131445000D01*
X213995000Y-131445000D02*
X213995000Y-128270000D01*
X213995000Y-128270000D02*
X215265000Y-127000000D01*
X215265000Y-127000000D02*
X213995000Y-125730000D01*
X213995000Y-125730000D02*
X213995000Y-122555000D01*
X213995000Y-122555000D02*
X217805000Y-122555000D01*
X217805000Y-122555000D02*
X217805000Y-125730000D01*
X217805000Y-125730000D02*
X216535000Y-127000000D01*
X216535000Y-127000000D02*
X217805000Y-128270000D01*
X217805000Y-128270000D02*
X217805000Y-131445000D01*
X172000000Y-143340000D02*
X172000000Y-141440000D01*
X170900000Y-143340000D02*
X170900000Y-141440000D01*
X171450000Y-142440000D02*
X171450000Y-141990000D01*
X171200000Y-142490000D02*
X171700000Y-142490000D01*
X171450000Y-142490000D02*
X171200000Y-142240000D01*
X171200000Y-142240000D02*
X171700000Y-142240000D01*
X171700000Y-142240000D02*
X171450000Y-142490000D01*
X177080000Y-143340000D02*
X177080000Y-141440000D01*
X175980000Y-143340000D02*
X175980000Y-141440000D01*
X176530000Y-142440000D02*
X176530000Y-141990000D01*
X176280000Y-142490000D02*
X176780000Y-142490000D01*
X176530000Y-142490000D02*
X176280000Y-142240000D01*
X176280000Y-142240000D02*
X176780000Y-142240000D01*
X176780000Y-142240000D02*
X176530000Y-142490000D01*
X182160000Y-143340000D02*
X182160000Y-141440000D01*
X181060000Y-143340000D02*
X181060000Y-141440000D01*
X181610000Y-142440000D02*
X181610000Y-141990000D01*
X181360000Y-142490000D02*
X181860000Y-142490000D01*
X181610000Y-142490000D02*
X181360000Y-142240000D01*
X181360000Y-142240000D02*
X181860000Y-142240000D01*
X181860000Y-142240000D02*
X181610000Y-142490000D01*
X187240000Y-143340000D02*
X187240000Y-141440000D01*
X186140000Y-143340000D02*
X186140000Y-141440000D01*
X186690000Y-142440000D02*
X186690000Y-141990000D01*
X186440000Y-142490000D02*
X186940000Y-142490000D01*
X186690000Y-142490000D02*
X186440000Y-142240000D01*
X186440000Y-142240000D02*
X186940000Y-142240000D01*
X186940000Y-142240000D02*
X186690000Y-142490000D01*
X197400000Y-143340000D02*
X197400000Y-141440000D01*
X196300000Y-143340000D02*
X196300000Y-141440000D01*
X196850000Y-142440000D02*
X196850000Y-141990000D01*
X196600000Y-142490000D02*
X197100000Y-142490000D01*
X196850000Y-142490000D02*
X196600000Y-142240000D01*
X196600000Y-142240000D02*
X197100000Y-142240000D01*
X197100000Y-142240000D02*
X196850000Y-142490000D01*
X172125000Y-137930000D02*
X172125000Y-138930000D01*
X170775000Y-138930000D02*
X170775000Y-137930000D01*
X177205000Y-137930000D02*
X177205000Y-138930000D01*
X175855000Y-138930000D02*
X175855000Y-137930000D01*
X182285000Y-137930000D02*
X182285000Y-138930000D01*
X180935000Y-138930000D02*
X180935000Y-137930000D01*
X187365000Y-137930000D02*
X187365000Y-138930000D01*
X186015000Y-138930000D02*
X186015000Y-137930000D01*
X197525000Y-137930000D02*
X197525000Y-138930000D01*
X196175000Y-138930000D02*
X196175000Y-137930000D01*
X192445000Y-137930000D02*
X192445000Y-138930000D01*
X191095000Y-138930000D02*
X191095000Y-137930000D01*
X192445000Y-141740000D02*
X192445000Y-142740000D01*
X191095000Y-142740000D02*
X191095000Y-141740000D01*
X163300000Y-144335000D02*
X163300000Y-136335000D01*
X163300000Y-136335000D02*
X166900000Y-136335000D01*
X166900000Y-136335000D02*
X166900000Y-144335000D01*
X166900000Y-144335000D02*
X163300000Y-144335000D01*
X202680000Y-145950000D02*
X215130000Y-145950000D01*
X202680000Y-133200000D02*
X215130000Y-133200000D01*
X215130000Y-145950000D02*
X215130000Y-133250000D01*
X202680000Y-145950000D02*
X202680000Y-133250000D01*
X167640000Y-132080000D02*
X215900000Y-132080000D01*
X167640000Y-68580000D02*
X215900000Y-68580000D01*
X215900000Y-68580000D02*
X215900000Y-132080000D01*
X167640000Y-132080000D02*
X167640000Y-68580000D01*
X171450000Y-80010000D02*
X171450000Y-97790000D01*
X176530000Y-95250000D02*
X176530000Y-80010000D01*
X171450000Y-80010000D02*
X176530000Y-80010000D01*
X171450000Y-97790000D02*
X173990000Y-97790000D01*
X175260000Y-98070000D02*
X176810000Y-98070000D01*
X173990000Y-97790000D02*
X173990000Y-95250000D01*
X173990000Y-95250000D02*
X176530000Y-95250000D01*
X176810000Y-98070000D02*
X176810000Y-96520000D01*
X122936000Y-114046000D02*
X123444000Y-114046000D01*
X122936000Y-114554000D02*
X123444000Y-114554000D01*
X122936000Y-112014000D02*
X123444000Y-112014000D01*
X122936000Y-111506000D02*
X123444000Y-111506000D01*
X122936000Y-109474000D02*
X123444000Y-109474000D01*
X122936000Y-108966000D02*
X123444000Y-108966000D01*
X122936000Y-98806000D02*
X123444000Y-98806000D01*
X122936000Y-99314000D02*
X123444000Y-99314000D01*
X122936000Y-101346000D02*
X123444000Y-101346000D01*
X122936000Y-101854000D02*
X123444000Y-101854000D01*
X122936000Y-106934000D02*
X123444000Y-106934000D01*
X122936000Y-106426000D02*
X123444000Y-106426000D01*
X122936000Y-104394000D02*
X123444000Y-104394000D01*
X122936000Y-103886000D02*
X123444000Y-103886000D01*
X120396000Y-114046000D02*
X120904000Y-114046000D01*
X120396000Y-114554000D02*
X120904000Y-114554000D01*
X120396000Y-112014000D02*
X120904000Y-112014000D01*
X120396000Y-111506000D02*
X120904000Y-111506000D01*
X120396000Y-109474000D02*
X120904000Y-109474000D01*
X120396000Y-108966000D02*
X120904000Y-108966000D01*
X120396000Y-98806000D02*
X120904000Y-98806000D01*
X120396000Y-99314000D02*
X120904000Y-99314000D01*
X120396000Y-101346000D02*
X120904000Y-101346000D01*
X120396000Y-101854000D02*
X120904000Y-101854000D01*
X120396000Y-106934000D02*
X120904000Y-106934000D01*
X120396000Y-106426000D02*
X120904000Y-106426000D01*
X120396000Y-104394000D02*
X120904000Y-104394000D01*
X120396000Y-103886000D02*
X120904000Y-103886000D01*
X124460000Y-97510000D02*
X125610000Y-97510000D01*
X125610000Y-97510000D02*
X125610000Y-99060000D01*
X117856000Y-98933000D02*
X111887000Y-98933000D01*
X111887000Y-98933000D02*
X111887000Y-99187000D01*
X111887000Y-99187000D02*
X117729000Y-99187000D01*
X117729000Y-99187000D02*
X117729000Y-99060000D01*
X117729000Y-99060000D02*
X111887000Y-99060000D01*
X120396000Y-107950000D02*
X117856000Y-107950000D01*
X120396000Y-107950000D02*
X120396000Y-110490000D01*
X120396000Y-110490000D02*
X117856000Y-110490000D01*
X117856000Y-108966000D02*
X111760000Y-108966000D01*
X111760000Y-108966000D02*
X111760000Y-109474000D01*
X111760000Y-109474000D02*
X117856000Y-109474000D01*
X117856000Y-110490000D02*
X117856000Y-107950000D01*
X117856000Y-113030000D02*
X117856000Y-110490000D01*
X111760000Y-112014000D02*
X117856000Y-112014000D01*
X111760000Y-111506000D02*
X111760000Y-112014000D01*
X117856000Y-111506000D02*
X111760000Y-111506000D01*
X120396000Y-113030000D02*
X117856000Y-113030000D01*
X120396000Y-110490000D02*
X120396000Y-113030000D01*
X120396000Y-110490000D02*
X117856000Y-110490000D01*
X117856000Y-115570000D02*
X117856000Y-113030000D01*
X111760000Y-114554000D02*
X117856000Y-114554000D01*
X111760000Y-114046000D02*
X111760000Y-114554000D01*
X117856000Y-114046000D02*
X111760000Y-114046000D01*
X120396000Y-115570000D02*
X117856000Y-115570000D01*
X120396000Y-113030000D02*
X120396000Y-115570000D01*
X120396000Y-113030000D02*
X117856000Y-113030000D01*
X120396000Y-102870000D02*
X117856000Y-102870000D01*
X120396000Y-102870000D02*
X120396000Y-105410000D01*
X120396000Y-105410000D02*
X117856000Y-105410000D01*
X117856000Y-103886000D02*
X111760000Y-103886000D01*
X111760000Y-103886000D02*
X111760000Y-104394000D01*
X111760000Y-104394000D02*
X117856000Y-104394000D01*
X117856000Y-105410000D02*
X117856000Y-102870000D01*
X117856000Y-107950000D02*
X117856000Y-105410000D01*
X111760000Y-106934000D02*
X117856000Y-106934000D01*
X111760000Y-106426000D02*
X111760000Y-106934000D01*
X117856000Y-106426000D02*
X111760000Y-106426000D01*
X120396000Y-107950000D02*
X117856000Y-107950000D01*
X120396000Y-105410000D02*
X120396000Y-107950000D01*
X120396000Y-105410000D02*
X117856000Y-105410000D01*
X120396000Y-100330000D02*
X117856000Y-100330000D01*
X120396000Y-100330000D02*
X120396000Y-102870000D01*
X120396000Y-102870000D02*
X117856000Y-102870000D01*
X117856000Y-101346000D02*
X111760000Y-101346000D01*
X111760000Y-101346000D02*
X111760000Y-101854000D01*
X111760000Y-101854000D02*
X117856000Y-101854000D01*
X117856000Y-102870000D02*
X117856000Y-100330000D01*
X117856000Y-100330000D02*
X117856000Y-97790000D01*
X111760000Y-99314000D02*
X117856000Y-99314000D01*
X111760000Y-98806000D02*
X111760000Y-99314000D01*
X117856000Y-98806000D02*
X111760000Y-98806000D01*
X120396000Y-100330000D02*
X117856000Y-100330000D01*
X120396000Y-97790000D02*
X120396000Y-100330000D01*
X120396000Y-97790000D02*
X117856000Y-97790000D01*
X123650000Y-67310000D02*
G75*
G03X123650000Y-67310000I-3000000J0D01*
G01*
X123650000Y-143510000D02*
G75*
G03X123650000Y-143510000I-3000000J0D01*
G01*
X212090000Y-95250000D02*
X204470000Y-95250000D01*
X204470000Y-95250000D02*
X204470000Y-92710000D01*
X212090000Y-95250000D02*
X212090000Y-92710000D01*
X214630000Y-115570000D02*
X201930000Y-115570000D01*
X201930000Y-115570000D02*
X201930000Y-92710000D01*
X201930000Y-92710000D02*
X214630000Y-92710000D01*
X214630000Y-92710000D02*
X214630000Y-115570000D01*
X209550000Y-95250000D02*
X209550000Y-92710000D01*
X189230000Y-113030000D02*
X196850000Y-113030000D01*
X196850000Y-113030000D02*
X196850000Y-115570000D01*
X189230000Y-113030000D02*
X189230000Y-115570000D01*
X186690000Y-92710000D02*
X199390000Y-92710000D01*
X199390000Y-92710000D02*
X199390000Y-115570000D01*
X199390000Y-115570000D02*
X186690000Y-115570000D01*
X186690000Y-115570000D02*
X186690000Y-92710000D01*
X191770000Y-113030000D02*
X191770000Y-115570000D01*
X199390000Y-130810000D02*
X199390000Y-123190000D01*
X199390000Y-123190000D02*
X201930000Y-123190000D01*
X199390000Y-130810000D02*
X201930000Y-130810000D01*
X179070000Y-133350000D02*
X179070000Y-120650000D01*
X179070000Y-120650000D02*
X201930000Y-120650000D01*
X201930000Y-120650000D02*
X201930000Y-133350000D01*
X201930000Y-133350000D02*
X179070000Y-133350000D01*
X199390000Y-128270000D02*
X201930000Y-128270000D01*
X216630000Y-90150000D02*
X212630000Y-90150000D01*
X212630000Y-90150000D02*
X212630000Y-87650000D01*
X212630000Y-87650000D02*
X216630000Y-87650000D01*
X216630000Y-87650000D02*
X216630000Y-90150000D01*
D14*
X216960000Y-85130000D02*
X209840000Y-85130000D01*
X216960000Y-82510000D02*
X209840000Y-82510000D01*
X216960000Y-85130000D02*
X216960000Y-82510000D01*
X209840000Y-85130000D02*
X209840000Y-82510000D01*
D11*
X132715000Y-104140000D02*
X132715000Y-109220000D01*
X128270000Y-104140000D02*
X133985000Y-104140000D01*
X133985000Y-104140000D02*
X133985000Y-109220000D01*
X133985000Y-109220000D02*
X128270000Y-109220000D01*
X157480000Y-104140000D02*
X157480000Y-109220000D01*
X160020000Y-109220000D02*
X157480000Y-109220000D01*
X160020000Y-104140000D02*
X160020000Y-109220000D01*
X160020000Y-104140000D02*
X157480000Y-104140000D01*
X157480000Y-104140000D02*
X160020000Y-104140000D01*
X128270000Y-97790000D02*
X163830000Y-97790000D01*
X128270000Y-115570000D02*
X128270000Y-97790000D01*
X163830000Y-115570000D02*
X128270000Y-115570000D01*
X163830000Y-97790000D02*
X163830000Y-115570000D01*
X147248571Y-84240476D02*
X147296190Y-84097619D01*
X147343810Y-84050000D01*
X147439048Y-84002381D01*
X147581905Y-84002381D01*
X147677143Y-84050000D01*
X147724762Y-84097619D01*
X147772381Y-84192857D01*
X147772381Y-84573810D01*
X146772381Y-84573810D01*
X146772381Y-84240476D01*
X146820000Y-84145238D01*
X146867619Y-84097619D01*
X146962857Y-84050000D01*
X147058095Y-84050000D01*
X147153333Y-84097619D01*
X147200952Y-84145238D01*
X147248571Y-84240476D01*
X147248571Y-84573810D01*
X147105714Y-83145238D02*
X147772381Y-83145238D01*
X147105714Y-83573810D02*
X147629524Y-83573810D01*
X147724762Y-83526191D01*
X147772381Y-83430953D01*
X147772381Y-83288095D01*
X147724762Y-83192857D01*
X147677143Y-83145238D01*
X147105714Y-82811905D02*
X147105714Y-82430953D01*
X147772381Y-82669048D02*
X146915238Y-82669048D01*
X146820000Y-82621429D01*
X146772381Y-82526191D01*
X146772381Y-82430953D01*
X147105714Y-82240476D02*
X147105714Y-81859524D01*
X147772381Y-82097619D02*
X146915238Y-82097619D01*
X146820000Y-82050000D01*
X146772381Y-81954762D01*
X146772381Y-81859524D01*
X147724762Y-81145237D02*
X147772381Y-81240475D01*
X147772381Y-81430952D01*
X147724762Y-81526190D01*
X147629524Y-81573809D01*
X147248571Y-81573809D01*
X147153333Y-81526190D01*
X147105714Y-81430952D01*
X147105714Y-81240475D01*
X147153333Y-81145237D01*
X147248571Y-81097618D01*
X147343810Y-81097618D01*
X147439048Y-81573809D01*
X147772381Y-80669047D02*
X147105714Y-80669047D01*
X147296190Y-80669047D02*
X147200952Y-80621428D01*
X147153333Y-80573809D01*
X147105714Y-80478571D01*
X147105714Y-80383332D01*
X200438571Y-84240476D02*
X200486190Y-84097619D01*
X200533810Y-84050000D01*
X200629048Y-84002381D01*
X200771905Y-84002381D01*
X200867143Y-84050000D01*
X200914762Y-84097619D01*
X200962381Y-84192857D01*
X200962381Y-84573810D01*
X199962381Y-84573810D01*
X199962381Y-84240476D01*
X200010000Y-84145238D01*
X200057619Y-84097619D01*
X200152857Y-84050000D01*
X200248095Y-84050000D01*
X200343333Y-84097619D01*
X200390952Y-84145238D01*
X200438571Y-84240476D01*
X200438571Y-84573810D01*
X200295714Y-83145238D02*
X200962381Y-83145238D01*
X200295714Y-83573810D02*
X200819524Y-83573810D01*
X200914762Y-83526191D01*
X200962381Y-83430953D01*
X200962381Y-83288095D01*
X200914762Y-83192857D01*
X200867143Y-83145238D01*
X200295714Y-82811905D02*
X200295714Y-82430953D01*
X200962381Y-82669048D02*
X200105238Y-82669048D01*
X200010000Y-82621429D01*
X199962381Y-82526191D01*
X199962381Y-82430953D01*
X200295714Y-82240476D02*
X200295714Y-81859524D01*
X200962381Y-82097619D02*
X200105238Y-82097619D01*
X200010000Y-82050000D01*
X199962381Y-81954762D01*
X199962381Y-81859524D01*
X200914762Y-81145237D02*
X200962381Y-81240475D01*
X200962381Y-81430952D01*
X200914762Y-81526190D01*
X200819524Y-81573809D01*
X200438571Y-81573809D01*
X200343333Y-81526190D01*
X200295714Y-81430952D01*
X200295714Y-81240475D01*
X200343333Y-81145237D01*
X200438571Y-81097618D01*
X200533810Y-81097618D01*
X200629048Y-81573809D01*
X200962381Y-80669047D02*
X200295714Y-80669047D01*
X200486190Y-80669047D02*
X200390952Y-80621428D01*
X200343333Y-80573809D01*
X200295714Y-80478571D01*
X200295714Y-80383332D01*
X209383334Y-87352143D02*
X209335715Y-87399762D01*
X209192858Y-87447381D01*
X209097620Y-87447381D01*
X208954762Y-87399762D01*
X208859524Y-87304524D01*
X208811905Y-87209286D01*
X208764286Y-87018810D01*
X208764286Y-86875952D01*
X208811905Y-86685476D01*
X208859524Y-86590238D01*
X208954762Y-86495000D01*
X209097620Y-86447381D01*
X209192858Y-86447381D01*
X209335715Y-86495000D01*
X209383334Y-86542619D01*
X210335715Y-87447381D02*
X209764286Y-87447381D01*
X210050000Y-87447381D02*
X210050000Y-86447381D01*
X209954762Y-86590238D01*
X209859524Y-86685476D01*
X209764286Y-86733095D01*
X204303334Y-87352143D02*
X204255715Y-87399762D01*
X204112858Y-87447381D01*
X204017620Y-87447381D01*
X203874762Y-87399762D01*
X203779524Y-87304524D01*
X203731905Y-87209286D01*
X203684286Y-87018810D01*
X203684286Y-86875952D01*
X203731905Y-86685476D01*
X203779524Y-86590238D01*
X203874762Y-86495000D01*
X204017620Y-86447381D01*
X204112858Y-86447381D01*
X204255715Y-86495000D01*
X204303334Y-86542619D01*
X204684286Y-86542619D02*
X204731905Y-86495000D01*
X204827143Y-86447381D01*
X205065239Y-86447381D01*
X205160477Y-86495000D01*
X205208096Y-86542619D01*
X205255715Y-86637857D01*
X205255715Y-86733095D01*
X205208096Y-86875952D01*
X204636667Y-87447381D01*
X205255715Y-87447381D01*
X186523334Y-118467143D02*
X186475715Y-118514762D01*
X186332858Y-118562381D01*
X186237620Y-118562381D01*
X186094762Y-118514762D01*
X185999524Y-118419524D01*
X185951905Y-118324286D01*
X185904286Y-118133810D01*
X185904286Y-117990952D01*
X185951905Y-117800476D01*
X185999524Y-117705238D01*
X186094762Y-117610000D01*
X186237620Y-117562381D01*
X186332858Y-117562381D01*
X186475715Y-117610000D01*
X186523334Y-117657619D01*
X186856667Y-117562381D02*
X187475715Y-117562381D01*
X187142381Y-117943333D01*
X187285239Y-117943333D01*
X187380477Y-117990952D01*
X187428096Y-118038571D01*
X187475715Y-118133810D01*
X187475715Y-118371905D01*
X187428096Y-118467143D01*
X187380477Y-118514762D01*
X187285239Y-118562381D01*
X186999524Y-118562381D01*
X186904286Y-118514762D01*
X186856667Y-118467143D01*
X199223334Y-118467143D02*
X199175715Y-118514762D01*
X199032858Y-118562381D01*
X198937620Y-118562381D01*
X198794762Y-118514762D01*
X198699524Y-118419524D01*
X198651905Y-118324286D01*
X198604286Y-118133810D01*
X198604286Y-117990952D01*
X198651905Y-117800476D01*
X198699524Y-117705238D01*
X198794762Y-117610000D01*
X198937620Y-117562381D01*
X199032858Y-117562381D01*
X199175715Y-117610000D01*
X199223334Y-117657619D01*
X200080477Y-117895714D02*
X200080477Y-118562381D01*
X199842381Y-117514762D02*
X199604286Y-118229048D01*
X200223334Y-118229048D01*
X204192143Y-129706666D02*
X204239762Y-129754285D01*
X204287381Y-129897142D01*
X204287381Y-129992380D01*
X204239762Y-130135238D01*
X204144524Y-130230476D01*
X204049286Y-130278095D01*
X203858810Y-130325714D01*
X203715952Y-130325714D01*
X203525476Y-130278095D01*
X203430238Y-130230476D01*
X203335000Y-130135238D01*
X203287381Y-129992380D01*
X203287381Y-129897142D01*
X203335000Y-129754285D01*
X203382619Y-129706666D01*
X203287381Y-128801904D02*
X203287381Y-129278095D01*
X203763571Y-129325714D01*
X203715952Y-129278095D01*
X203668333Y-129182857D01*
X203668333Y-128944761D01*
X203715952Y-128849523D01*
X203763571Y-128801904D01*
X203858810Y-128754285D01*
X204096905Y-128754285D01*
X204192143Y-128801904D01*
X204239762Y-128849523D01*
X204287381Y-128944761D01*
X204287381Y-129182857D01*
X204239762Y-129278095D01*
X204192143Y-129325714D01*
X204192143Y-124626666D02*
X204239762Y-124674285D01*
X204287381Y-124817142D01*
X204287381Y-124912380D01*
X204239762Y-125055238D01*
X204144524Y-125150476D01*
X204049286Y-125198095D01*
X203858810Y-125245714D01*
X203715952Y-125245714D01*
X203525476Y-125198095D01*
X203430238Y-125150476D01*
X203335000Y-125055238D01*
X203287381Y-124912380D01*
X203287381Y-124817142D01*
X203335000Y-124674285D01*
X203382619Y-124626666D01*
X203287381Y-123769523D02*
X203287381Y-123960000D01*
X203335000Y-124055238D01*
X203382619Y-124102857D01*
X203525476Y-124198095D01*
X203715952Y-124245714D01*
X204096905Y-124245714D01*
X204192143Y-124198095D01*
X204239762Y-124150476D01*
X204287381Y-124055238D01*
X204287381Y-123864761D01*
X204239762Y-123769523D01*
X204192143Y-123721904D01*
X204096905Y-123674285D01*
X203858810Y-123674285D01*
X203763571Y-123721904D01*
X203715952Y-123769523D01*
X203668333Y-123864761D01*
X203668333Y-124055238D01*
X203715952Y-124150476D01*
X203763571Y-124198095D01*
X203858810Y-124245714D01*
X133072143Y-89066666D02*
X133119762Y-89114285D01*
X133167381Y-89257142D01*
X133167381Y-89352380D01*
X133119762Y-89495238D01*
X133024524Y-89590476D01*
X132929286Y-89638095D01*
X132738810Y-89685714D01*
X132595952Y-89685714D01*
X132405476Y-89638095D01*
X132310238Y-89590476D01*
X132215000Y-89495238D01*
X132167381Y-89352380D01*
X132167381Y-89257142D01*
X132215000Y-89114285D01*
X132262619Y-89066666D01*
X132167381Y-88733333D02*
X132167381Y-88066666D01*
X133167381Y-88495238D01*
X133072143Y-91606666D02*
X133119762Y-91654285D01*
X133167381Y-91797142D01*
X133167381Y-91892380D01*
X133119762Y-92035238D01*
X133024524Y-92130476D01*
X132929286Y-92178095D01*
X132738810Y-92225714D01*
X132595952Y-92225714D01*
X132405476Y-92178095D01*
X132310238Y-92130476D01*
X132215000Y-92035238D01*
X132167381Y-91892380D01*
X132167381Y-91797142D01*
X132215000Y-91654285D01*
X132262619Y-91606666D01*
X132595952Y-91035238D02*
X132548333Y-91130476D01*
X132500714Y-91178095D01*
X132405476Y-91225714D01*
X132357857Y-91225714D01*
X132262619Y-91178095D01*
X132215000Y-91130476D01*
X132167381Y-91035238D01*
X132167381Y-90844761D01*
X132215000Y-90749523D01*
X132262619Y-90701904D01*
X132357857Y-90654285D01*
X132405476Y-90654285D01*
X132500714Y-90701904D01*
X132548333Y-90749523D01*
X132595952Y-90844761D01*
X132595952Y-91035238D01*
X132643571Y-91130476D01*
X132691190Y-91178095D01*
X132786429Y-91225714D01*
X132976905Y-91225714D01*
X133072143Y-91178095D01*
X133119762Y-91130476D01*
X133167381Y-91035238D01*
X133167381Y-90844761D01*
X133119762Y-90749523D01*
X133072143Y-90701904D01*
X132976905Y-90654285D01*
X132786429Y-90654285D01*
X132691190Y-90701904D01*
X132643571Y-90749523D01*
X132595952Y-90844761D01*
X189722286Y-134723143D02*
X189674667Y-134770762D01*
X189531810Y-134818381D01*
X189436572Y-134818381D01*
X189293714Y-134770762D01*
X189198476Y-134675524D01*
X189150857Y-134580286D01*
X189103238Y-134389810D01*
X189103238Y-134246952D01*
X189150857Y-134056476D01*
X189198476Y-133961238D01*
X189293714Y-133866000D01*
X189436572Y-133818381D01*
X189531810Y-133818381D01*
X189674667Y-133866000D01*
X189722286Y-133913619D01*
X190341333Y-133818381D02*
X190531810Y-133818381D01*
X190627048Y-133866000D01*
X190722286Y-133961238D01*
X190769905Y-134151714D01*
X190769905Y-134485048D01*
X190722286Y-134675524D01*
X190627048Y-134770762D01*
X190531810Y-134818381D01*
X190341333Y-134818381D01*
X190246095Y-134770762D01*
X190150857Y-134675524D01*
X190103238Y-134485048D01*
X190103238Y-134151714D01*
X190150857Y-133961238D01*
X190246095Y-133866000D01*
X190341333Y-133818381D01*
X191198476Y-134818381D02*
X191198476Y-133818381D01*
X191531810Y-134532667D01*
X191865143Y-133818381D01*
X191865143Y-134818381D01*
X192341333Y-134818381D02*
X192341333Y-133818381D01*
X192722286Y-133818381D01*
X192817524Y-133866000D01*
X192865143Y-133913619D01*
X192912762Y-134008857D01*
X192912762Y-134151714D01*
X192865143Y-134246952D01*
X192817524Y-134294571D01*
X192722286Y-134342190D01*
X192341333Y-134342190D01*
X130500381Y-121388095D02*
X129500381Y-121388095D01*
X129500381Y-121150000D01*
X129548000Y-121007142D01*
X129643238Y-120911904D01*
X129738476Y-120864285D01*
X129928952Y-120816666D01*
X130071810Y-120816666D01*
X130262286Y-120864285D01*
X130357524Y-120911904D01*
X130452762Y-121007142D01*
X130500381Y-121150000D01*
X130500381Y-121388095D01*
X129500381Y-120483333D02*
X129500381Y-119816666D01*
X130500381Y-120245238D01*
X207311667Y-117403571D02*
X206978333Y-117403571D01*
X206978333Y-117927381D02*
X206978333Y-116927381D01*
X207454524Y-116927381D01*
X207787857Y-117022619D02*
X207835476Y-116975000D01*
X207930714Y-116927381D01*
X208168810Y-116927381D01*
X208264048Y-116975000D01*
X208311667Y-117022619D01*
X208359286Y-117117857D01*
X208359286Y-117213095D01*
X208311667Y-117355952D01*
X207740238Y-117927381D01*
X208359286Y-117927381D01*
X207311667Y-121213571D02*
X206978333Y-121213571D01*
X206978333Y-121737381D02*
X206978333Y-120737381D01*
X207454524Y-120737381D01*
X207740238Y-120737381D02*
X208359286Y-120737381D01*
X208025952Y-121118333D01*
X208168810Y-121118333D01*
X208264048Y-121165952D01*
X208311667Y-121213571D01*
X208359286Y-121308810D01*
X208359286Y-121546905D01*
X208311667Y-121642143D01*
X208264048Y-121689762D01*
X208168810Y-121737381D01*
X207883095Y-121737381D01*
X207787857Y-121689762D01*
X207740238Y-121642143D01*
D13*
X131151429Y-81900000D02*
X131027620Y-81838095D01*
X130841905Y-81838095D01*
X130656191Y-81900000D01*
X130532382Y-82023810D01*
X130470477Y-82147619D01*
X130408572Y-82395238D01*
X130408572Y-82580952D01*
X130470477Y-82828571D01*
X130532382Y-82952381D01*
X130656191Y-83076190D01*
X130841905Y-83138095D01*
X130965715Y-83138095D01*
X131151429Y-83076190D01*
X131213334Y-83014286D01*
X131213334Y-82580952D01*
X130965715Y-82580952D01*
X131770477Y-83138095D02*
X131770477Y-81838095D01*
X132265715Y-81838095D01*
X132389524Y-81900000D01*
X132451429Y-81961905D01*
X132513334Y-82085714D01*
X132513334Y-82271429D01*
X132451429Y-82395238D01*
X132389524Y-82457143D01*
X132265715Y-82519048D01*
X131770477Y-82519048D01*
X133008572Y-83076190D02*
X133194286Y-83138095D01*
X133503810Y-83138095D01*
X133627620Y-83076190D01*
X133689524Y-83014286D01*
X133751429Y-82890476D01*
X133751429Y-82766667D01*
X133689524Y-82642857D01*
X133627620Y-82580952D01*
X133503810Y-82519048D01*
X133256191Y-82457143D01*
X133132382Y-82395238D01*
X133070477Y-82333333D01*
X133008572Y-82209524D01*
X133008572Y-82085714D01*
X133070477Y-81961905D01*
X133132382Y-81900000D01*
X133256191Y-81838095D01*
X133565715Y-81838095D01*
X133751429Y-81900000D01*
X139546191Y-130128095D02*
X139546191Y-128828095D01*
X140165239Y-130128095D02*
X140165239Y-128828095D01*
X140598572Y-129756667D01*
X141031905Y-128828095D01*
X141031905Y-130128095D01*
X141650953Y-128828095D02*
X141650953Y-129880476D01*
X141712858Y-130004286D01*
X141774762Y-130066190D01*
X141898572Y-130128095D01*
X142146191Y-130128095D01*
X142270000Y-130066190D01*
X142331905Y-130004286D01*
X142393810Y-129880476D01*
X142393810Y-128828095D01*
D11*
X212552381Y-127333333D02*
X213266667Y-127333333D01*
X213409524Y-127380953D01*
X213504762Y-127476191D01*
X213552381Y-127619048D01*
X213552381Y-127714286D01*
X213552381Y-126333333D02*
X213552381Y-126904762D01*
X213552381Y-126619048D02*
X212552381Y-126619048D01*
X212695238Y-126714286D01*
X212790476Y-126809524D01*
X212838095Y-126904762D01*
D13*
X170354762Y-143025714D02*
X170402381Y-142882857D01*
X170402381Y-142644761D01*
X170354762Y-142549523D01*
X170307143Y-142501904D01*
X170211905Y-142454285D01*
X170116667Y-142454285D01*
X170021429Y-142501904D01*
X169973810Y-142549523D01*
X169926190Y-142644761D01*
X169878571Y-142835238D01*
X169830952Y-142930476D01*
X169783333Y-142978095D01*
X169688095Y-143025714D01*
X169592857Y-143025714D01*
X169497619Y-142978095D01*
X169450000Y-142930476D01*
X169402381Y-142835238D01*
X169402381Y-142597142D01*
X169450000Y-142454285D01*
X170402381Y-142025714D02*
X169402381Y-142025714D01*
X169402381Y-141787619D01*
X169450000Y-141644761D01*
X169545238Y-141549523D01*
X169640476Y-141501904D01*
X169830952Y-141454285D01*
X169973810Y-141454285D01*
X170164286Y-141501904D01*
X170259524Y-141549523D01*
X170354762Y-141644761D01*
X170402381Y-141787619D01*
X170402381Y-142025714D01*
X175482381Y-143335238D02*
X174482381Y-143335238D01*
X175482381Y-142859048D02*
X174482381Y-142859048D01*
X175196667Y-142525714D01*
X174482381Y-142192381D01*
X175482381Y-142192381D01*
X174482381Y-141716191D02*
X175291905Y-141716191D01*
X175387143Y-141668572D01*
X175434762Y-141620953D01*
X175482381Y-141525715D01*
X175482381Y-141335238D01*
X175434762Y-141240000D01*
X175387143Y-141192381D01*
X175291905Y-141144762D01*
X174482381Y-141144762D01*
X179610000Y-142954285D02*
X179562381Y-143049523D01*
X179562381Y-143192380D01*
X179610000Y-143335238D01*
X179705238Y-143430476D01*
X179800476Y-143478095D01*
X179990952Y-143525714D01*
X180133810Y-143525714D01*
X180324286Y-143478095D01*
X180419524Y-143430476D01*
X180514762Y-143335238D01*
X180562381Y-143192380D01*
X180562381Y-143097142D01*
X180514762Y-142954285D01*
X180467143Y-142906666D01*
X180133810Y-142906666D01*
X180133810Y-143097142D01*
X180562381Y-142478095D02*
X179562381Y-142478095D01*
X179562381Y-142097142D01*
X179610000Y-142001904D01*
X179657619Y-141954285D01*
X179752857Y-141906666D01*
X179895714Y-141906666D01*
X179990952Y-141954285D01*
X180038571Y-142001904D01*
X180086190Y-142097142D01*
X180086190Y-142478095D01*
X180514762Y-141525714D02*
X180562381Y-141382857D01*
X180562381Y-141144761D01*
X180514762Y-141049523D01*
X180467143Y-141001904D01*
X180371905Y-140954285D01*
X180276667Y-140954285D01*
X180181429Y-141001904D01*
X180133810Y-141049523D01*
X180086190Y-141144761D01*
X180038571Y-141335238D01*
X179990952Y-141430476D01*
X179943333Y-141478095D01*
X179848095Y-141525714D01*
X179752857Y-141525714D01*
X179657619Y-141478095D01*
X179610000Y-141430476D01*
X179562381Y-141335238D01*
X179562381Y-141097142D01*
X179610000Y-140954285D01*
X184618381Y-143430476D02*
X184618381Y-142859047D01*
X185618381Y-143144762D02*
X184618381Y-143144762D01*
X185570762Y-142573333D02*
X185618381Y-142430476D01*
X185618381Y-142192380D01*
X185570762Y-142097142D01*
X185523143Y-142049523D01*
X185427905Y-142001904D01*
X185332667Y-142001904D01*
X185237429Y-142049523D01*
X185189810Y-142097142D01*
X185142190Y-142192380D01*
X185094571Y-142382857D01*
X185046952Y-142478095D01*
X184999333Y-142525714D01*
X184904095Y-142573333D01*
X184808857Y-142573333D01*
X184713619Y-142525714D01*
X184666000Y-142478095D01*
X184618381Y-142382857D01*
X184618381Y-142144761D01*
X184666000Y-142001904D01*
X185142190Y-141382857D02*
X185618381Y-141382857D01*
X184618381Y-141716190D02*
X185142190Y-141382857D01*
X184618381Y-141049523D01*
X199318571Y-144334952D02*
X199366190Y-144192095D01*
X199413810Y-144144476D01*
X199509048Y-144096857D01*
X199651905Y-144096857D01*
X199747143Y-144144476D01*
X199794762Y-144192095D01*
X199842381Y-144287333D01*
X199842381Y-144668286D01*
X198842381Y-144668286D01*
X198842381Y-144334952D01*
X198890000Y-144239714D01*
X198937619Y-144192095D01*
X199032857Y-144144476D01*
X199128095Y-144144476D01*
X199223333Y-144192095D01*
X199270952Y-144239714D01*
X199318571Y-144334952D01*
X199318571Y-144668286D01*
X199556667Y-143715905D02*
X199556667Y-143239714D01*
X199842381Y-143811143D02*
X198842381Y-143477810D01*
X199842381Y-143144476D01*
X198842381Y-142954000D02*
X198842381Y-142382571D01*
X199842381Y-142668286D02*
X198842381Y-142668286D01*
X198842381Y-142192095D02*
X198842381Y-141620666D01*
X199842381Y-141906381D02*
X198842381Y-141906381D01*
X199318571Y-141287333D02*
X199318571Y-140953999D01*
X199842381Y-140811142D02*
X199842381Y-141287333D01*
X198842381Y-141287333D01*
X198842381Y-140811142D01*
X199842381Y-139811142D02*
X199366190Y-140144476D01*
X199842381Y-140382571D02*
X198842381Y-140382571D01*
X198842381Y-140001618D01*
X198890000Y-139906380D01*
X198937619Y-139858761D01*
X199032857Y-139811142D01*
X199175714Y-139811142D01*
X199270952Y-139858761D01*
X199318571Y-139906380D01*
X199366190Y-140001618D01*
X199366190Y-140382571D01*
X199366190Y-139192095D02*
X199842381Y-139192095D01*
X198842381Y-139525428D02*
X199366190Y-139192095D01*
X198842381Y-138858761D01*
X199842381Y-137287332D02*
X199842381Y-137763523D01*
X198842381Y-137763523D01*
X198842381Y-136763523D02*
X198842381Y-136573046D01*
X198890000Y-136477808D01*
X198985238Y-136382570D01*
X199175714Y-136334951D01*
X199509048Y-136334951D01*
X199699524Y-136382570D01*
X199794762Y-136477808D01*
X199842381Y-136573046D01*
X199842381Y-136763523D01*
X199794762Y-136858761D01*
X199699524Y-136953999D01*
X199509048Y-137001618D01*
X199175714Y-137001618D01*
X198985238Y-136953999D01*
X198890000Y-136858761D01*
X198842381Y-136763523D01*
X198842381Y-136001618D02*
X199842381Y-135763523D01*
X199128095Y-135573046D01*
X199842381Y-135382570D01*
X198842381Y-135144475D01*
D11*
X170002381Y-138596666D02*
X169526190Y-138930000D01*
X170002381Y-139168095D02*
X169002381Y-139168095D01*
X169002381Y-138787142D01*
X169050000Y-138691904D01*
X169097619Y-138644285D01*
X169192857Y-138596666D01*
X169335714Y-138596666D01*
X169430952Y-138644285D01*
X169478571Y-138691904D01*
X169526190Y-138787142D01*
X169526190Y-139168095D01*
X170002381Y-137644285D02*
X170002381Y-138215714D01*
X170002381Y-137930000D02*
X169002381Y-137930000D01*
X169145238Y-138025238D01*
X169240476Y-138120476D01*
X169288095Y-138215714D01*
X175082381Y-138596666D02*
X174606190Y-138930000D01*
X175082381Y-139168095D02*
X174082381Y-139168095D01*
X174082381Y-138787142D01*
X174130000Y-138691904D01*
X174177619Y-138644285D01*
X174272857Y-138596666D01*
X174415714Y-138596666D01*
X174510952Y-138644285D01*
X174558571Y-138691904D01*
X174606190Y-138787142D01*
X174606190Y-139168095D01*
X174177619Y-138215714D02*
X174130000Y-138168095D01*
X174082381Y-138072857D01*
X174082381Y-137834761D01*
X174130000Y-137739523D01*
X174177619Y-137691904D01*
X174272857Y-137644285D01*
X174368095Y-137644285D01*
X174510952Y-137691904D01*
X175082381Y-138263333D01*
X175082381Y-137644285D01*
X180162381Y-138596666D02*
X179686190Y-138930000D01*
X180162381Y-139168095D02*
X179162381Y-139168095D01*
X179162381Y-138787142D01*
X179210000Y-138691904D01*
X179257619Y-138644285D01*
X179352857Y-138596666D01*
X179495714Y-138596666D01*
X179590952Y-138644285D01*
X179638571Y-138691904D01*
X179686190Y-138787142D01*
X179686190Y-139168095D01*
X179162381Y-138263333D02*
X179162381Y-137644285D01*
X179543333Y-137977619D01*
X179543333Y-137834761D01*
X179590952Y-137739523D01*
X179638571Y-137691904D01*
X179733810Y-137644285D01*
X179971905Y-137644285D01*
X180067143Y-137691904D01*
X180114762Y-137739523D01*
X180162381Y-137834761D01*
X180162381Y-138120476D01*
X180114762Y-138215714D01*
X180067143Y-138263333D01*
X185242381Y-138596666D02*
X184766190Y-138930000D01*
X185242381Y-139168095D02*
X184242381Y-139168095D01*
X184242381Y-138787142D01*
X184290000Y-138691904D01*
X184337619Y-138644285D01*
X184432857Y-138596666D01*
X184575714Y-138596666D01*
X184670952Y-138644285D01*
X184718571Y-138691904D01*
X184766190Y-138787142D01*
X184766190Y-139168095D01*
X184575714Y-137739523D02*
X185242381Y-137739523D01*
X184194762Y-137977619D02*
X184909048Y-138215714D01*
X184909048Y-137596666D01*
X195402381Y-138596666D02*
X194926190Y-138930000D01*
X195402381Y-139168095D02*
X194402381Y-139168095D01*
X194402381Y-138787142D01*
X194450000Y-138691904D01*
X194497619Y-138644285D01*
X194592857Y-138596666D01*
X194735714Y-138596666D01*
X194830952Y-138644285D01*
X194878571Y-138691904D01*
X194926190Y-138787142D01*
X194926190Y-139168095D01*
X194402381Y-137691904D02*
X194402381Y-138168095D01*
X194878571Y-138215714D01*
X194830952Y-138168095D01*
X194783333Y-138072857D01*
X194783333Y-137834761D01*
X194830952Y-137739523D01*
X194878571Y-137691904D01*
X194973810Y-137644285D01*
X195211905Y-137644285D01*
X195307143Y-137691904D01*
X195354762Y-137739523D01*
X195402381Y-137834761D01*
X195402381Y-138072857D01*
X195354762Y-138168095D01*
X195307143Y-138215714D01*
X190322381Y-138596666D02*
X189846190Y-138930000D01*
X190322381Y-139168095D02*
X189322381Y-139168095D01*
X189322381Y-138787142D01*
X189370000Y-138691904D01*
X189417619Y-138644285D01*
X189512857Y-138596666D01*
X189655714Y-138596666D01*
X189750952Y-138644285D01*
X189798571Y-138691904D01*
X189846190Y-138787142D01*
X189846190Y-139168095D01*
X189322381Y-137739523D02*
X189322381Y-137930000D01*
X189370000Y-138025238D01*
X189417619Y-138072857D01*
X189560476Y-138168095D01*
X189750952Y-138215714D01*
X190131905Y-138215714D01*
X190227143Y-138168095D01*
X190274762Y-138120476D01*
X190322381Y-138025238D01*
X190322381Y-137834761D01*
X190274762Y-137739523D01*
X190227143Y-137691904D01*
X190131905Y-137644285D01*
X189893810Y-137644285D01*
X189798571Y-137691904D01*
X189750952Y-137739523D01*
X189703333Y-137834761D01*
X189703333Y-138025238D01*
X189750952Y-138120476D01*
X189798571Y-138168095D01*
X189893810Y-138215714D01*
X190322381Y-142406666D02*
X189846190Y-142740000D01*
X190322381Y-142978095D02*
X189322381Y-142978095D01*
X189322381Y-142597142D01*
X189370000Y-142501904D01*
X189417619Y-142454285D01*
X189512857Y-142406666D01*
X189655714Y-142406666D01*
X189750952Y-142454285D01*
X189798571Y-142501904D01*
X189846190Y-142597142D01*
X189846190Y-142978095D01*
X189322381Y-142073333D02*
X189322381Y-141406666D01*
X190322381Y-141835238D01*
X162964762Y-141096905D02*
X163012381Y-140954048D01*
X163012381Y-140715952D01*
X162964762Y-140620714D01*
X162917143Y-140573095D01*
X162821905Y-140525476D01*
X162726667Y-140525476D01*
X162631429Y-140573095D01*
X162583810Y-140620714D01*
X162536190Y-140715952D01*
X162488571Y-140906429D01*
X162440952Y-141001667D01*
X162393333Y-141049286D01*
X162298095Y-141096905D01*
X162202857Y-141096905D01*
X162107619Y-141049286D01*
X162060000Y-141001667D01*
X162012381Y-140906429D01*
X162012381Y-140668333D01*
X162060000Y-140525476D01*
X163012381Y-139573095D02*
X163012381Y-140144524D01*
X163012381Y-139858810D02*
X162012381Y-139858810D01*
X162155238Y-139954048D01*
X162250476Y-140049286D01*
X162298095Y-140144524D01*
X216987381Y-138723333D02*
X216320714Y-138723333D01*
X216415952Y-138723333D02*
X216368333Y-138675714D01*
X216320714Y-138580476D01*
X216320714Y-138437618D01*
X216368333Y-138342380D01*
X216463571Y-138294761D01*
X216987381Y-138294761D01*
X216463571Y-138294761D02*
X216368333Y-138247142D01*
X216320714Y-138151904D01*
X216320714Y-138009047D01*
X216368333Y-137913809D01*
X216463571Y-137866190D01*
X216987381Y-137866190D01*
X216987381Y-137390000D02*
X216320714Y-137390000D01*
X215987381Y-137390000D02*
X216035000Y-137437619D01*
X216082619Y-137390000D01*
X216035000Y-137342381D01*
X215987381Y-137390000D01*
X216082619Y-137390000D01*
X216939762Y-136485238D02*
X216987381Y-136580476D01*
X216987381Y-136770953D01*
X216939762Y-136866191D01*
X216892143Y-136913810D01*
X216796905Y-136961429D01*
X216511190Y-136961429D01*
X216415952Y-136913810D01*
X216368333Y-136866191D01*
X216320714Y-136770953D01*
X216320714Y-136580476D01*
X216368333Y-136485238D01*
X216987381Y-136056667D02*
X216320714Y-136056667D01*
X216511190Y-136056667D02*
X216415952Y-136009048D01*
X216368333Y-135961429D01*
X216320714Y-135866191D01*
X216320714Y-135770952D01*
X216987381Y-135294762D02*
X216939762Y-135390000D01*
X216892143Y-135437619D01*
X216796905Y-135485238D01*
X216511190Y-135485238D01*
X216415952Y-135437619D01*
X216368333Y-135390000D01*
X216320714Y-135294762D01*
X216320714Y-135151904D01*
X216368333Y-135056666D01*
X216415952Y-135009047D01*
X216511190Y-134961428D01*
X216796905Y-134961428D01*
X216892143Y-135009047D01*
X216939762Y-135056666D01*
X216987381Y-135151904D01*
X216987381Y-135294762D01*
X216939762Y-134580476D02*
X216987381Y-134437619D01*
X216987381Y-134199523D01*
X216939762Y-134104285D01*
X216892143Y-134056666D01*
X216796905Y-134009047D01*
X216701667Y-134009047D01*
X216606429Y-134056666D01*
X216558810Y-134104285D01*
X216511190Y-134199523D01*
X216463571Y-134390000D01*
X216415952Y-134485238D01*
X216368333Y-134532857D01*
X216273095Y-134580476D01*
X216177857Y-134580476D01*
X216082619Y-134532857D01*
X216035000Y-134485238D01*
X215987381Y-134390000D01*
X215987381Y-134151904D01*
X216035000Y-134009047D01*
X216987381Y-133580476D02*
X215987381Y-133580476D01*
X215987381Y-133342381D01*
X216035000Y-133199523D01*
X216130238Y-133104285D01*
X216225476Y-133056666D01*
X216415952Y-133009047D01*
X216558810Y-133009047D01*
X216749286Y-133056666D01*
X216844524Y-133104285D01*
X216939762Y-133199523D01*
X216987381Y-133342381D01*
X216987381Y-133580476D01*
D13*
X170768095Y-97349045D02*
X169468095Y-97349045D01*
X170396667Y-96915712D01*
X169468095Y-96482379D01*
X170768095Y-96482379D01*
X170768095Y-95677617D02*
X170706190Y-95801426D01*
X170644286Y-95863331D01*
X170520476Y-95925236D01*
X170149048Y-95925236D01*
X170025238Y-95863331D01*
X169963333Y-95801426D01*
X169901429Y-95677617D01*
X169901429Y-95491903D01*
X169963333Y-95368093D01*
X170025238Y-95306188D01*
X170149048Y-95244284D01*
X170520476Y-95244284D01*
X170644286Y-95306188D01*
X170706190Y-95368093D01*
X170768095Y-95491903D01*
X170768095Y-95677617D01*
X169901429Y-94872855D02*
X169901429Y-94377617D01*
X169468095Y-94687141D02*
X170582381Y-94687141D01*
X170706190Y-94625236D01*
X170768095Y-94501427D01*
X170768095Y-94377617D01*
X170768095Y-93758570D02*
X170706190Y-93882379D01*
X170644286Y-93944284D01*
X170520476Y-94006189D01*
X170149048Y-94006189D01*
X170025238Y-93944284D01*
X169963333Y-93882379D01*
X169901429Y-93758570D01*
X169901429Y-93572856D01*
X169963333Y-93449046D01*
X170025238Y-93387141D01*
X170149048Y-93325237D01*
X170520476Y-93325237D01*
X170644286Y-93387141D01*
X170706190Y-93449046D01*
X170768095Y-93572856D01*
X170768095Y-93758570D01*
X170768095Y-92768094D02*
X169901429Y-92768094D01*
X170149048Y-92768094D02*
X170025238Y-92706189D01*
X169963333Y-92644285D01*
X169901429Y-92520475D01*
X169901429Y-92396666D01*
X170644286Y-90229999D02*
X170706190Y-90291904D01*
X170768095Y-90477618D01*
X170768095Y-90601428D01*
X170706190Y-90787142D01*
X170582381Y-90910951D01*
X170458571Y-90972856D01*
X170210952Y-91034761D01*
X170025238Y-91034761D01*
X169777619Y-90972856D01*
X169653810Y-90910951D01*
X169530000Y-90787142D01*
X169468095Y-90601428D01*
X169468095Y-90477618D01*
X169530000Y-90291904D01*
X169591905Y-90229999D01*
X170768095Y-89487142D02*
X170706190Y-89610951D01*
X170644286Y-89672856D01*
X170520476Y-89734761D01*
X170149048Y-89734761D01*
X170025238Y-89672856D01*
X169963333Y-89610951D01*
X169901429Y-89487142D01*
X169901429Y-89301428D01*
X169963333Y-89177618D01*
X170025238Y-89115713D01*
X170149048Y-89053809D01*
X170520476Y-89053809D01*
X170644286Y-89115713D01*
X170706190Y-89177618D01*
X170768095Y-89301428D01*
X170768095Y-89487142D01*
X169901429Y-88496666D02*
X170768095Y-88496666D01*
X170025238Y-88496666D02*
X169963333Y-88434761D01*
X169901429Y-88310952D01*
X169901429Y-88125238D01*
X169963333Y-88001428D01*
X170087143Y-87939523D01*
X170768095Y-87939523D01*
X169901429Y-87506190D02*
X169901429Y-87010952D01*
X169468095Y-87320476D02*
X170582381Y-87320476D01*
X170706190Y-87258571D01*
X170768095Y-87134762D01*
X170768095Y-87010952D01*
X170768095Y-86577619D02*
X169901429Y-86577619D01*
X170149048Y-86577619D02*
X170025238Y-86515714D01*
X169963333Y-86453810D01*
X169901429Y-86330000D01*
X169901429Y-86206191D01*
X170768095Y-85587143D02*
X170706190Y-85710952D01*
X170644286Y-85772857D01*
X170520476Y-85834762D01*
X170149048Y-85834762D01*
X170025238Y-85772857D01*
X169963333Y-85710952D01*
X169901429Y-85587143D01*
X169901429Y-85401429D01*
X169963333Y-85277619D01*
X170025238Y-85215714D01*
X170149048Y-85153810D01*
X170520476Y-85153810D01*
X170644286Y-85215714D01*
X170706190Y-85277619D01*
X170768095Y-85401429D01*
X170768095Y-85587143D01*
X170768095Y-84410953D02*
X170706190Y-84534762D01*
X170582381Y-84596667D01*
X169468095Y-84596667D01*
X170087143Y-82491906D02*
X170149048Y-82306192D01*
X170210952Y-82244287D01*
X170334762Y-82182382D01*
X170520476Y-82182382D01*
X170644286Y-82244287D01*
X170706190Y-82306192D01*
X170768095Y-82430001D01*
X170768095Y-82925239D01*
X169468095Y-82925239D01*
X169468095Y-82491906D01*
X169530000Y-82368096D01*
X169591905Y-82306192D01*
X169715714Y-82244287D01*
X169839524Y-82244287D01*
X169963333Y-82306192D01*
X170025238Y-82368096D01*
X170087143Y-82491906D01*
X170087143Y-82925239D01*
X170768095Y-81439525D02*
X170706190Y-81563334D01*
X170644286Y-81625239D01*
X170520476Y-81687144D01*
X170149048Y-81687144D01*
X170025238Y-81625239D01*
X169963333Y-81563334D01*
X169901429Y-81439525D01*
X169901429Y-81253811D01*
X169963333Y-81130001D01*
X170025238Y-81068096D01*
X170149048Y-81006192D01*
X170520476Y-81006192D01*
X170644286Y-81068096D01*
X170706190Y-81130001D01*
X170768095Y-81253811D01*
X170768095Y-81439525D01*
X170768095Y-79891906D02*
X170087143Y-79891906D01*
X169963333Y-79953811D01*
X169901429Y-80077621D01*
X169901429Y-80325240D01*
X169963333Y-80449049D01*
X170706190Y-79891906D02*
X170768095Y-80015716D01*
X170768095Y-80325240D01*
X170706190Y-80449049D01*
X170582381Y-80510954D01*
X170458571Y-80510954D01*
X170334762Y-80449049D01*
X170272857Y-80325240D01*
X170272857Y-80015716D01*
X170210952Y-79891906D01*
X170768095Y-79272859D02*
X169901429Y-79272859D01*
X170149048Y-79272859D02*
X170025238Y-79210954D01*
X169963333Y-79149050D01*
X169901429Y-79025240D01*
X169901429Y-78901431D01*
X170768095Y-77910954D02*
X169468095Y-77910954D01*
X170706190Y-77910954D02*
X170768095Y-78034764D01*
X170768095Y-78282383D01*
X170706190Y-78406192D01*
X170644286Y-78468097D01*
X170520476Y-78530002D01*
X170149048Y-78530002D01*
X170025238Y-78468097D01*
X169963333Y-78406192D01*
X169901429Y-78282383D01*
X169901429Y-78034764D01*
X169963333Y-77910954D01*
X127588095Y-115535236D02*
X126288095Y-115535236D01*
X126288095Y-115039998D01*
X126350000Y-114916189D01*
X126411905Y-114854284D01*
X126535714Y-114792379D01*
X126721429Y-114792379D01*
X126845238Y-114854284D01*
X126907143Y-114916189D01*
X126969048Y-115039998D01*
X126969048Y-115535236D01*
X127588095Y-114235236D02*
X126721429Y-114235236D01*
X126969048Y-114235236D02*
X126845238Y-114173331D01*
X126783333Y-114111427D01*
X126721429Y-113987617D01*
X126721429Y-113863808D01*
X127588095Y-113244760D02*
X127526190Y-113368569D01*
X127464286Y-113430474D01*
X127340476Y-113492379D01*
X126969048Y-113492379D01*
X126845238Y-113430474D01*
X126783333Y-113368569D01*
X126721429Y-113244760D01*
X126721429Y-113059046D01*
X126783333Y-112935236D01*
X126845238Y-112873331D01*
X126969048Y-112811427D01*
X127340476Y-112811427D01*
X127464286Y-112873331D01*
X127526190Y-112935236D01*
X127588095Y-113059046D01*
X127588095Y-113244760D01*
X126721429Y-112439998D02*
X126721429Y-111944760D01*
X126288095Y-112254284D02*
X127402381Y-112254284D01*
X127526190Y-112192379D01*
X127588095Y-112068570D01*
X127588095Y-111944760D01*
X127588095Y-111325713D02*
X127526190Y-111449522D01*
X127464286Y-111511427D01*
X127340476Y-111573332D01*
X126969048Y-111573332D01*
X126845238Y-111511427D01*
X126783333Y-111449522D01*
X126721429Y-111325713D01*
X126721429Y-111139999D01*
X126783333Y-111016189D01*
X126845238Y-110954284D01*
X126969048Y-110892380D01*
X127340476Y-110892380D01*
X127464286Y-110954284D01*
X127526190Y-111016189D01*
X127588095Y-111139999D01*
X127588095Y-111325713D01*
X127588095Y-110335237D02*
X126288095Y-110335237D01*
X126783333Y-110335237D02*
X126721429Y-110211428D01*
X126721429Y-109963809D01*
X126783333Y-109839999D01*
X126845238Y-109778094D01*
X126969048Y-109716190D01*
X127340476Y-109716190D01*
X127464286Y-109778094D01*
X127526190Y-109839999D01*
X127588095Y-109963809D01*
X127588095Y-110211428D01*
X127526190Y-110335237D01*
X127588095Y-108973333D02*
X127526190Y-109097142D01*
X127464286Y-109159047D01*
X127340476Y-109220952D01*
X126969048Y-109220952D01*
X126845238Y-109159047D01*
X126783333Y-109097142D01*
X126721429Y-108973333D01*
X126721429Y-108787619D01*
X126783333Y-108663809D01*
X126845238Y-108601904D01*
X126969048Y-108540000D01*
X127340476Y-108540000D01*
X127464286Y-108601904D01*
X127526190Y-108663809D01*
X127588095Y-108787619D01*
X127588095Y-108973333D01*
X127588095Y-107425714D02*
X126907143Y-107425714D01*
X126783333Y-107487619D01*
X126721429Y-107611429D01*
X126721429Y-107859048D01*
X126783333Y-107982857D01*
X127526190Y-107425714D02*
X127588095Y-107549524D01*
X127588095Y-107859048D01*
X127526190Y-107982857D01*
X127402381Y-108044762D01*
X127278571Y-108044762D01*
X127154762Y-107982857D01*
X127092857Y-107859048D01*
X127092857Y-107549524D01*
X127030952Y-107425714D01*
X127588095Y-106806667D02*
X126721429Y-106806667D01*
X126969048Y-106806667D02*
X126845238Y-106744762D01*
X126783333Y-106682858D01*
X126721429Y-106559048D01*
X126721429Y-106435239D01*
X127588095Y-105444762D02*
X126288095Y-105444762D01*
X127526190Y-105444762D02*
X127588095Y-105568572D01*
X127588095Y-105816191D01*
X127526190Y-105940000D01*
X127464286Y-106001905D01*
X127340476Y-106063810D01*
X126969048Y-106063810D01*
X126845238Y-106001905D01*
X126783333Y-105940000D01*
X126721429Y-105816191D01*
X126721429Y-105568572D01*
X126783333Y-105444762D01*
D11*
X204113333Y-90892381D02*
X203637142Y-90892381D01*
X203589523Y-91368571D01*
X203637142Y-91320952D01*
X203732380Y-91273333D01*
X203970476Y-91273333D01*
X204065714Y-91320952D01*
X204113333Y-91368571D01*
X204160952Y-91463810D01*
X204160952Y-91701905D01*
X204113333Y-91797143D01*
X204065714Y-91844762D01*
X203970476Y-91892381D01*
X203732380Y-91892381D01*
X203637142Y-91844762D01*
X203589523Y-91797143D01*
X204446666Y-90892381D02*
X204779999Y-91892381D01*
X205113333Y-90892381D01*
X206780000Y-91892381D02*
X206446666Y-91416190D01*
X206208571Y-91892381D02*
X206208571Y-90892381D01*
X206589524Y-90892381D01*
X206684762Y-90940000D01*
X206732381Y-90987619D01*
X206780000Y-91082857D01*
X206780000Y-91225714D01*
X206732381Y-91320952D01*
X206684762Y-91368571D01*
X206589524Y-91416190D01*
X206208571Y-91416190D01*
X207589524Y-91844762D02*
X207494286Y-91892381D01*
X207303809Y-91892381D01*
X207208571Y-91844762D01*
X207160952Y-91749524D01*
X207160952Y-91368571D01*
X207208571Y-91273333D01*
X207303809Y-91225714D01*
X207494286Y-91225714D01*
X207589524Y-91273333D01*
X207637143Y-91368571D01*
X207637143Y-91463810D01*
X207160952Y-91559048D01*
X208494286Y-91225714D02*
X208494286Y-92035238D01*
X208446667Y-92130476D01*
X208399048Y-92178095D01*
X208303809Y-92225714D01*
X208160952Y-92225714D01*
X208065714Y-92178095D01*
X208494286Y-91844762D02*
X208399048Y-91892381D01*
X208208571Y-91892381D01*
X208113333Y-91844762D01*
X208065714Y-91797143D01*
X208018095Y-91701905D01*
X208018095Y-91416190D01*
X208065714Y-91320952D01*
X208113333Y-91273333D01*
X208208571Y-91225714D01*
X208399048Y-91225714D01*
X208494286Y-91273333D01*
X209399048Y-91225714D02*
X209399048Y-91892381D01*
X208970476Y-91225714D02*
X208970476Y-91749524D01*
X209018095Y-91844762D01*
X209113333Y-91892381D01*
X209256191Y-91892381D01*
X209351429Y-91844762D01*
X209399048Y-91797143D01*
X210018095Y-91892381D02*
X209922857Y-91844762D01*
X209875238Y-91749524D01*
X209875238Y-90892381D01*
X210827620Y-91892381D02*
X210827620Y-91368571D01*
X210780001Y-91273333D01*
X210684763Y-91225714D01*
X210494286Y-91225714D01*
X210399048Y-91273333D01*
X210827620Y-91844762D02*
X210732382Y-91892381D01*
X210494286Y-91892381D01*
X210399048Y-91844762D01*
X210351429Y-91749524D01*
X210351429Y-91654286D01*
X210399048Y-91559048D01*
X210494286Y-91511429D01*
X210732382Y-91511429D01*
X210827620Y-91463810D01*
X211160953Y-91225714D02*
X211541905Y-91225714D01*
X211303810Y-90892381D02*
X211303810Y-91749524D01*
X211351429Y-91844762D01*
X211446667Y-91892381D01*
X211541905Y-91892381D01*
X212018096Y-91892381D02*
X211922858Y-91844762D01*
X211875239Y-91797143D01*
X211827620Y-91701905D01*
X211827620Y-91416190D01*
X211875239Y-91320952D01*
X211922858Y-91273333D01*
X212018096Y-91225714D01*
X212160954Y-91225714D01*
X212256192Y-91273333D01*
X212303811Y-91320952D01*
X212351430Y-91416190D01*
X212351430Y-91701905D01*
X212303811Y-91797143D01*
X212256192Y-91844762D01*
X212160954Y-91892381D01*
X212018096Y-91892381D01*
X212780001Y-91892381D02*
X212780001Y-91225714D01*
X212780001Y-91416190D02*
X212827620Y-91320952D01*
X212875239Y-91273333D01*
X212970477Y-91225714D01*
X213065716Y-91225714D01*
X187587618Y-90892381D02*
X188206666Y-90892381D01*
X187873332Y-91273333D01*
X188016190Y-91273333D01*
X188111428Y-91320952D01*
X188159047Y-91368571D01*
X188206666Y-91463810D01*
X188206666Y-91701905D01*
X188159047Y-91797143D01*
X188111428Y-91844762D01*
X188016190Y-91892381D01*
X187730475Y-91892381D01*
X187635237Y-91844762D01*
X187587618Y-91797143D01*
X188635237Y-91797143D02*
X188682856Y-91844762D01*
X188635237Y-91892381D01*
X188587618Y-91844762D01*
X188635237Y-91797143D01*
X188635237Y-91892381D01*
X189016189Y-90892381D02*
X189635237Y-90892381D01*
X189301903Y-91273333D01*
X189444761Y-91273333D01*
X189539999Y-91320952D01*
X189587618Y-91368571D01*
X189635237Y-91463810D01*
X189635237Y-91701905D01*
X189587618Y-91797143D01*
X189539999Y-91844762D01*
X189444761Y-91892381D01*
X189159046Y-91892381D01*
X189063808Y-91844762D01*
X189016189Y-91797143D01*
X189920951Y-90892381D02*
X190254284Y-91892381D01*
X190587618Y-90892381D01*
X192254285Y-91892381D02*
X191920951Y-91416190D01*
X191682856Y-91892381D02*
X191682856Y-90892381D01*
X192063809Y-90892381D01*
X192159047Y-90940000D01*
X192206666Y-90987619D01*
X192254285Y-91082857D01*
X192254285Y-91225714D01*
X192206666Y-91320952D01*
X192159047Y-91368571D01*
X192063809Y-91416190D01*
X191682856Y-91416190D01*
X193063809Y-91844762D02*
X192968571Y-91892381D01*
X192778094Y-91892381D01*
X192682856Y-91844762D01*
X192635237Y-91749524D01*
X192635237Y-91368571D01*
X192682856Y-91273333D01*
X192778094Y-91225714D01*
X192968571Y-91225714D01*
X193063809Y-91273333D01*
X193111428Y-91368571D01*
X193111428Y-91463810D01*
X192635237Y-91559048D01*
X193968571Y-91225714D02*
X193968571Y-92035238D01*
X193920952Y-92130476D01*
X193873333Y-92178095D01*
X193778094Y-92225714D01*
X193635237Y-92225714D01*
X193539999Y-92178095D01*
X193968571Y-91844762D02*
X193873333Y-91892381D01*
X193682856Y-91892381D01*
X193587618Y-91844762D01*
X193539999Y-91797143D01*
X193492380Y-91701905D01*
X193492380Y-91416190D01*
X193539999Y-91320952D01*
X193587618Y-91273333D01*
X193682856Y-91225714D01*
X193873333Y-91225714D01*
X193968571Y-91273333D01*
X194873333Y-91225714D02*
X194873333Y-91892381D01*
X194444761Y-91225714D02*
X194444761Y-91749524D01*
X194492380Y-91844762D01*
X194587618Y-91892381D01*
X194730476Y-91892381D01*
X194825714Y-91844762D01*
X194873333Y-91797143D01*
X195492380Y-91892381D02*
X195397142Y-91844762D01*
X195349523Y-91749524D01*
X195349523Y-90892381D01*
X196301905Y-91892381D02*
X196301905Y-91368571D01*
X196254286Y-91273333D01*
X196159048Y-91225714D01*
X195968571Y-91225714D01*
X195873333Y-91273333D01*
X196301905Y-91844762D02*
X196206667Y-91892381D01*
X195968571Y-91892381D01*
X195873333Y-91844762D01*
X195825714Y-91749524D01*
X195825714Y-91654286D01*
X195873333Y-91559048D01*
X195968571Y-91511429D01*
X196206667Y-91511429D01*
X196301905Y-91463810D01*
X196635238Y-91225714D02*
X197016190Y-91225714D01*
X196778095Y-90892381D02*
X196778095Y-91749524D01*
X196825714Y-91844762D01*
X196920952Y-91892381D01*
X197016190Y-91892381D01*
X197492381Y-91892381D02*
X197397143Y-91844762D01*
X197349524Y-91797143D01*
X197301905Y-91701905D01*
X197301905Y-91416190D01*
X197349524Y-91320952D01*
X197397143Y-91273333D01*
X197492381Y-91225714D01*
X197635239Y-91225714D01*
X197730477Y-91273333D01*
X197778096Y-91320952D01*
X197825715Y-91416190D01*
X197825715Y-91701905D01*
X197778096Y-91797143D01*
X197730477Y-91844762D01*
X197635239Y-91892381D01*
X197492381Y-91892381D01*
X198254286Y-91892381D02*
X198254286Y-91225714D01*
X198254286Y-91416190D02*
X198301905Y-91320952D01*
X198349524Y-91273333D01*
X198444762Y-91225714D01*
X198540001Y-91225714D01*
X177252381Y-131182382D02*
X177252381Y-130563334D01*
X177633333Y-130896668D01*
X177633333Y-130753810D01*
X177680952Y-130658572D01*
X177728571Y-130610953D01*
X177823810Y-130563334D01*
X178061905Y-130563334D01*
X178157143Y-130610953D01*
X178204762Y-130658572D01*
X178252381Y-130753810D01*
X178252381Y-131039525D01*
X178204762Y-131134763D01*
X178157143Y-131182382D01*
X178157143Y-130134763D02*
X178204762Y-130087144D01*
X178252381Y-130134763D01*
X178204762Y-130182382D01*
X178157143Y-130134763D01*
X178252381Y-130134763D01*
X177252381Y-129753811D02*
X177252381Y-129134763D01*
X177633333Y-129468097D01*
X177633333Y-129325239D01*
X177680952Y-129230001D01*
X177728571Y-129182382D01*
X177823810Y-129134763D01*
X178061905Y-129134763D01*
X178157143Y-129182382D01*
X178204762Y-129230001D01*
X178252381Y-129325239D01*
X178252381Y-129610954D01*
X178204762Y-129706192D01*
X178157143Y-129753811D01*
X177252381Y-128849049D02*
X178252381Y-128515716D01*
X177252381Y-128182382D01*
X178252381Y-126515715D02*
X177776190Y-126849049D01*
X178252381Y-127087144D02*
X177252381Y-127087144D01*
X177252381Y-126706191D01*
X177300000Y-126610953D01*
X177347619Y-126563334D01*
X177442857Y-126515715D01*
X177585714Y-126515715D01*
X177680952Y-126563334D01*
X177728571Y-126610953D01*
X177776190Y-126706191D01*
X177776190Y-127087144D01*
X178204762Y-125706191D02*
X178252381Y-125801429D01*
X178252381Y-125991906D01*
X178204762Y-126087144D01*
X178109524Y-126134763D01*
X177728571Y-126134763D01*
X177633333Y-126087144D01*
X177585714Y-125991906D01*
X177585714Y-125801429D01*
X177633333Y-125706191D01*
X177728571Y-125658572D01*
X177823810Y-125658572D01*
X177919048Y-126134763D01*
X177585714Y-124801429D02*
X178395238Y-124801429D01*
X178490476Y-124849048D01*
X178538095Y-124896667D01*
X178585714Y-124991906D01*
X178585714Y-125134763D01*
X178538095Y-125230001D01*
X178204762Y-124801429D02*
X178252381Y-124896667D01*
X178252381Y-125087144D01*
X178204762Y-125182382D01*
X178157143Y-125230001D01*
X178061905Y-125277620D01*
X177776190Y-125277620D01*
X177680952Y-125230001D01*
X177633333Y-125182382D01*
X177585714Y-125087144D01*
X177585714Y-124896667D01*
X177633333Y-124801429D01*
X177585714Y-123896667D02*
X178252381Y-123896667D01*
X177585714Y-124325239D02*
X178109524Y-124325239D01*
X178204762Y-124277620D01*
X178252381Y-124182382D01*
X178252381Y-124039524D01*
X178204762Y-123944286D01*
X178157143Y-123896667D01*
X178252381Y-123277620D02*
X178204762Y-123372858D01*
X178109524Y-123420477D01*
X177252381Y-123420477D01*
X178252381Y-122468095D02*
X177728571Y-122468095D01*
X177633333Y-122515714D01*
X177585714Y-122610952D01*
X177585714Y-122801429D01*
X177633333Y-122896667D01*
X178204762Y-122468095D02*
X178252381Y-122563333D01*
X178252381Y-122801429D01*
X178204762Y-122896667D01*
X178109524Y-122944286D01*
X178014286Y-122944286D01*
X177919048Y-122896667D01*
X177871429Y-122801429D01*
X177871429Y-122563333D01*
X177823810Y-122468095D01*
X177585714Y-122134762D02*
X177585714Y-121753810D01*
X177252381Y-121991905D02*
X178109524Y-121991905D01*
X178204762Y-121944286D01*
X178252381Y-121849048D01*
X178252381Y-121753810D01*
X178252381Y-121277619D02*
X178204762Y-121372857D01*
X178157143Y-121420476D01*
X178061905Y-121468095D01*
X177776190Y-121468095D01*
X177680952Y-121420476D01*
X177633333Y-121372857D01*
X177585714Y-121277619D01*
X177585714Y-121134761D01*
X177633333Y-121039523D01*
X177680952Y-120991904D01*
X177776190Y-120944285D01*
X178061905Y-120944285D01*
X178157143Y-120991904D01*
X178204762Y-121039523D01*
X178252381Y-121134761D01*
X178252381Y-121277619D01*
X178252381Y-120515714D02*
X177585714Y-120515714D01*
X177776190Y-120515714D02*
X177680952Y-120468095D01*
X177633333Y-120420476D01*
X177585714Y-120325238D01*
X177585714Y-120229999D01*
X214296667Y-86923571D02*
X213963333Y-86923571D01*
X213963333Y-87447381D02*
X213963333Y-86447381D01*
X214439524Y-86447381D01*
X215344286Y-87447381D02*
X214772857Y-87447381D01*
X215058571Y-87447381D02*
X215058571Y-86447381D01*
X214963333Y-86590238D01*
X214868095Y-86685476D01*
X214772857Y-86733095D01*
X209836190Y-80827619D02*
X209883809Y-80780000D01*
X209979047Y-80732381D01*
X210217143Y-80732381D01*
X210312381Y-80780000D01*
X210360000Y-80827619D01*
X210407619Y-80922857D01*
X210407619Y-81018095D01*
X210360000Y-81160952D01*
X209788571Y-81732381D01*
X210407619Y-81732381D01*
X210836190Y-81637143D02*
X210883809Y-81684762D01*
X210836190Y-81732381D01*
X210788571Y-81684762D01*
X210836190Y-81637143D01*
X210836190Y-81732381D01*
X211502856Y-80732381D02*
X211598095Y-80732381D01*
X211693333Y-80780000D01*
X211740952Y-80827619D01*
X211788571Y-80922857D01*
X211836190Y-81113333D01*
X211836190Y-81351429D01*
X211788571Y-81541905D01*
X211740952Y-81637143D01*
X211693333Y-81684762D01*
X211598095Y-81732381D01*
X211502856Y-81732381D01*
X211407618Y-81684762D01*
X211359999Y-81637143D01*
X211312380Y-81541905D01*
X211264761Y-81351429D01*
X211264761Y-81113333D01*
X211312380Y-80922857D01*
X211359999Y-80827619D01*
X211407618Y-80780000D01*
X211502856Y-80732381D01*
X212217142Y-81446667D02*
X212693333Y-81446667D01*
X212121904Y-81732381D02*
X212455237Y-80732381D01*
X212788571Y-81732381D01*
X214217143Y-81208571D02*
X213883809Y-81208571D01*
X213883809Y-81732381D02*
X213883809Y-80732381D01*
X214360000Y-80732381D01*
X215169524Y-81065714D02*
X215169524Y-81732381D01*
X214740952Y-81065714D02*
X214740952Y-81589524D01*
X214788571Y-81684762D01*
X214883809Y-81732381D01*
X215026667Y-81732381D01*
X215121905Y-81684762D01*
X215169524Y-81637143D01*
X215598095Y-81684762D02*
X215693333Y-81732381D01*
X215883809Y-81732381D01*
X215979048Y-81684762D01*
X216026667Y-81589524D01*
X216026667Y-81541905D01*
X215979048Y-81446667D01*
X215883809Y-81399048D01*
X215740952Y-81399048D01*
X215645714Y-81351429D01*
X215598095Y-81256190D01*
X215598095Y-81208571D01*
X215645714Y-81113333D01*
X215740952Y-81065714D01*
X215883809Y-81065714D01*
X215979048Y-81113333D01*
X216836191Y-81684762D02*
X216740953Y-81732381D01*
X216550476Y-81732381D01*
X216455238Y-81684762D01*
X216407619Y-81589524D01*
X216407619Y-81208571D01*
X216455238Y-81113333D01*
X216550476Y-81065714D01*
X216740953Y-81065714D01*
X216836191Y-81113333D01*
X216883810Y-81208571D01*
X216883810Y-81303810D01*
X216407619Y-81399048D01*
D13*
X146053810Y-100888095D02*
X146796667Y-100888095D01*
X146425238Y-102188095D02*
X146425238Y-100888095D01*
X147725238Y-102126190D02*
X147601428Y-102188095D01*
X147353809Y-102188095D01*
X147230000Y-102126190D01*
X147168095Y-102002381D01*
X147168095Y-101507143D01*
X147230000Y-101383333D01*
X147353809Y-101321429D01*
X147601428Y-101321429D01*
X147725238Y-101383333D01*
X147787143Y-101507143D01*
X147787143Y-101630952D01*
X147168095Y-101754762D01*
X148839524Y-102126190D02*
X148715714Y-102188095D01*
X148468095Y-102188095D01*
X148344286Y-102126190D01*
X148282381Y-102002381D01*
X148282381Y-101507143D01*
X148344286Y-101383333D01*
X148468095Y-101321429D01*
X148715714Y-101321429D01*
X148839524Y-101383333D01*
X148901429Y-101507143D01*
X148901429Y-101630952D01*
X148282381Y-101754762D01*
X149458572Y-101321429D02*
X149458572Y-102188095D01*
X149458572Y-101445238D02*
X149520477Y-101383333D01*
X149644286Y-101321429D01*
X149830000Y-101321429D01*
X149953810Y-101383333D01*
X150015715Y-101507143D01*
X150015715Y-102188095D01*
X150572857Y-102126190D02*
X150696667Y-102188095D01*
X150944286Y-102188095D01*
X151068095Y-102126190D01*
X151130000Y-102002381D01*
X151130000Y-101940476D01*
X151068095Y-101816667D01*
X150944286Y-101754762D01*
X150758571Y-101754762D01*
X150634762Y-101692857D01*
X150572857Y-101569048D01*
X150572857Y-101507143D01*
X150634762Y-101383333D01*
X150758571Y-101321429D01*
X150944286Y-101321429D01*
X151068095Y-101383333D01*
X151563333Y-101321429D02*
X151872857Y-102188095D01*
X152182381Y-101321429D02*
X151872857Y-102188095D01*
X151749048Y-102497619D01*
X151687143Y-102559524D01*
X151563333Y-102621429D01*
X152677619Y-101692857D02*
X153668095Y-101692857D01*
X154906190Y-102188095D02*
X154287143Y-102188095D01*
X154287143Y-100888095D01*
X156082381Y-102064286D02*
X156020476Y-102126190D01*
X155834762Y-102188095D01*
X155710952Y-102188095D01*
X155525238Y-102126190D01*
X155401429Y-102002381D01*
X155339524Y-101878571D01*
X155277619Y-101630952D01*
X155277619Y-101445238D01*
X155339524Y-101197619D01*
X155401429Y-101073810D01*
X155525238Y-100950000D01*
X155710952Y-100888095D01*
X155834762Y-100888095D01*
X156020476Y-100950000D01*
X156082381Y-101011905D01*
D11*
X159202381Y-108822858D02*
X158202381Y-108822858D01*
X158583333Y-108822858D02*
X158535714Y-108727620D01*
X158535714Y-108537143D01*
X158583333Y-108441905D01*
X158630952Y-108394286D01*
X158726190Y-108346667D01*
X159011905Y-108346667D01*
X159107143Y-108394286D01*
X159154762Y-108441905D01*
X159202381Y-108537143D01*
X159202381Y-108727620D01*
X159154762Y-108822858D01*
X158535714Y-107489524D02*
X159202381Y-107489524D01*
X158535714Y-107918096D02*
X159059524Y-107918096D01*
X159154762Y-107870477D01*
X159202381Y-107775239D01*
X159202381Y-107632381D01*
X159154762Y-107537143D01*
X159107143Y-107489524D01*
X158535714Y-107156191D02*
X158535714Y-106775239D01*
X158202381Y-107013334D02*
X159059524Y-107013334D01*
X159154762Y-106965715D01*
X159202381Y-106870477D01*
X159202381Y-106775239D01*
X158535714Y-106584762D02*
X158535714Y-106203810D01*
X158202381Y-106441905D02*
X159059524Y-106441905D01*
X159154762Y-106394286D01*
X159202381Y-106299048D01*
X159202381Y-106203810D01*
X159202381Y-105727619D02*
X159154762Y-105822857D01*
X159107143Y-105870476D01*
X159011905Y-105918095D01*
X158726190Y-105918095D01*
X158630952Y-105870476D01*
X158583333Y-105822857D01*
X158535714Y-105727619D01*
X158535714Y-105584761D01*
X158583333Y-105489523D01*
X158630952Y-105441904D01*
X158726190Y-105394285D01*
X159011905Y-105394285D01*
X159107143Y-105441904D01*
X159154762Y-105489523D01*
X159202381Y-105584761D01*
X159202381Y-105727619D01*
X158535714Y-104965714D02*
X159202381Y-104965714D01*
X158630952Y-104965714D02*
X158583333Y-104918095D01*
X158535714Y-104822857D01*
X158535714Y-104679999D01*
X158583333Y-104584761D01*
X158678571Y-104537142D01*
X159202381Y-104537142D01*
X129627381Y-107941905D02*
X130436905Y-107941905D01*
X130532143Y-107894286D01*
X130579762Y-107846667D01*
X130627381Y-107751429D01*
X130627381Y-107560952D01*
X130579762Y-107465714D01*
X130532143Y-107418095D01*
X130436905Y-107370476D01*
X129627381Y-107370476D01*
X130579762Y-106941905D02*
X130627381Y-106799048D01*
X130627381Y-106560952D01*
X130579762Y-106465714D01*
X130532143Y-106418095D01*
X130436905Y-106370476D01*
X130341667Y-106370476D01*
X130246429Y-106418095D01*
X130198810Y-106465714D01*
X130151190Y-106560952D01*
X130103571Y-106751429D01*
X130055952Y-106846667D01*
X130008333Y-106894286D01*
X129913095Y-106941905D01*
X129817857Y-106941905D01*
X129722619Y-106894286D01*
X129675000Y-106846667D01*
X129627381Y-106751429D01*
X129627381Y-106513333D01*
X129675000Y-106370476D01*
X130103571Y-105608571D02*
X130151190Y-105465714D01*
X130198810Y-105418095D01*
X130294048Y-105370476D01*
X130436905Y-105370476D01*
X130532143Y-105418095D01*
X130579762Y-105465714D01*
X130627381Y-105560952D01*
X130627381Y-105941905D01*
X129627381Y-105941905D01*
X129627381Y-105608571D01*
X129675000Y-105513333D01*
X129722619Y-105465714D01*
X129817857Y-105418095D01*
X129913095Y-105418095D01*
X130008333Y-105465714D01*
X130055952Y-105513333D01*
X130103571Y-105608571D01*
X130103571Y-105941905D01*
M02*
