G04 #@! TF.FileFunction,Legend,Bot*
%FSLAX46Y46*%
G04 Gerber Fmt 4.6, Leading zero omitted, Abs format (unit mm)*
G04 Created by KiCad (PCBNEW 4.0.6) date Tuesday, June 20, 2017 'PMt' 02:00:50 PM*
%MOMM*%
%LPD*%
G01*
G04 APERTURE LIST*
%ADD10C,0.100000*%
%ADD11C,0.150000*%
%ADD12C,0.200000*%
G04 APERTURE END LIST*
D10*
D11*
X177561905Y-86574286D02*
X177561905Y-85907619D01*
X177323809Y-86955238D02*
X177085714Y-86240952D01*
X177704762Y-86240952D01*
X178038095Y-86193333D02*
X178514286Y-86193333D01*
X177942857Y-85907619D02*
X178276190Y-86907619D01*
X178609524Y-85907619D01*
X177085714Y-89352381D02*
X177133333Y-89400000D01*
X177228571Y-89447619D01*
X177466667Y-89447619D01*
X177561905Y-89400000D01*
X177609524Y-89352381D01*
X177657143Y-89257143D01*
X177657143Y-89161905D01*
X177609524Y-89019048D01*
X177038095Y-88447619D01*
X177657143Y-88447619D01*
X178038095Y-88733333D02*
X178514286Y-88733333D01*
X177942857Y-88447619D02*
X178276190Y-89447619D01*
X178609524Y-88447619D01*
X177561905Y-84367619D02*
X177371428Y-84367619D01*
X177276190Y-84320000D01*
X177228571Y-84272381D01*
X177133333Y-84129524D01*
X177085714Y-83939048D01*
X177085714Y-83558095D01*
X177133333Y-83462857D01*
X177180952Y-83415238D01*
X177276190Y-83367619D01*
X177466667Y-83367619D01*
X177561905Y-83415238D01*
X177609524Y-83462857D01*
X177657143Y-83558095D01*
X177657143Y-83796190D01*
X177609524Y-83891429D01*
X177561905Y-83939048D01*
X177466667Y-83986667D01*
X177276190Y-83986667D01*
X177180952Y-83939048D01*
X177133333Y-83891429D01*
X177085714Y-83796190D01*
X178038095Y-83653333D02*
X178514286Y-83653333D01*
X177942857Y-83367619D02*
X178276190Y-84367619D01*
X178609524Y-83367619D01*
X177276190Y-81399048D02*
X177180952Y-81446667D01*
X177133333Y-81494286D01*
X177085714Y-81589524D01*
X177085714Y-81637143D01*
X177133333Y-81732381D01*
X177180952Y-81780000D01*
X177276190Y-81827619D01*
X177466667Y-81827619D01*
X177561905Y-81780000D01*
X177609524Y-81732381D01*
X177657143Y-81637143D01*
X177657143Y-81589524D01*
X177609524Y-81494286D01*
X177561905Y-81446667D01*
X177466667Y-81399048D01*
X177276190Y-81399048D01*
X177180952Y-81351429D01*
X177133333Y-81303810D01*
X177085714Y-81208571D01*
X177085714Y-81018095D01*
X177133333Y-80922857D01*
X177180952Y-80875238D01*
X177276190Y-80827619D01*
X177466667Y-80827619D01*
X177561905Y-80875238D01*
X177609524Y-80922857D01*
X177657143Y-81018095D01*
X177657143Y-81208571D01*
X177609524Y-81303810D01*
X177561905Y-81351429D01*
X177466667Y-81399048D01*
X178038095Y-81113333D02*
X178514286Y-81113333D01*
X177942857Y-80827619D02*
X178276190Y-81827619D01*
X178609524Y-80827619D01*
X169418095Y-81827619D02*
X170084762Y-81827619D01*
X169656190Y-80827619D01*
X170418095Y-81113333D02*
X170894286Y-81113333D01*
X170322857Y-80827619D02*
X170656190Y-81827619D01*
X170989524Y-80827619D01*
X169989524Y-84367619D02*
X169513333Y-84367619D01*
X169465714Y-83891429D01*
X169513333Y-83939048D01*
X169608571Y-83986667D01*
X169846667Y-83986667D01*
X169941905Y-83939048D01*
X169989524Y-83891429D01*
X170037143Y-83796190D01*
X170037143Y-83558095D01*
X169989524Y-83462857D01*
X169941905Y-83415238D01*
X169846667Y-83367619D01*
X169608571Y-83367619D01*
X169513333Y-83415238D01*
X169465714Y-83462857D01*
X170418095Y-83653333D02*
X170894286Y-83653333D01*
X170322857Y-83367619D02*
X170656190Y-84367619D01*
X170989524Y-83367619D01*
X169418095Y-86907619D02*
X170037143Y-86907619D01*
X169703809Y-86526667D01*
X169846667Y-86526667D01*
X169941905Y-86479048D01*
X169989524Y-86431429D01*
X170037143Y-86336190D01*
X170037143Y-86098095D01*
X169989524Y-86002857D01*
X169941905Y-85955238D01*
X169846667Y-85907619D01*
X169560952Y-85907619D01*
X169465714Y-85955238D01*
X169418095Y-86002857D01*
X170418095Y-86193333D02*
X170894286Y-86193333D01*
X170322857Y-85907619D02*
X170656190Y-86907619D01*
X170989524Y-85907619D01*
X170037143Y-88447619D02*
X169465714Y-88447619D01*
X169751428Y-88447619D02*
X169751428Y-89447619D01*
X169656190Y-89304762D01*
X169560952Y-89209524D01*
X169465714Y-89161905D01*
X170418095Y-88733333D02*
X170894286Y-88733333D01*
X170322857Y-88447619D02*
X170656190Y-89447619D01*
X170989524Y-88447619D01*
X168783096Y-97020000D02*
X168687858Y-97067619D01*
X168545001Y-97067619D01*
X168402143Y-97020000D01*
X168306905Y-96924762D01*
X168259286Y-96829524D01*
X168211667Y-96639048D01*
X168211667Y-96496190D01*
X168259286Y-96305714D01*
X168306905Y-96210476D01*
X168402143Y-96115238D01*
X168545001Y-96067619D01*
X168640239Y-96067619D01*
X168783096Y-96115238D01*
X168830715Y-96162857D01*
X168830715Y-96496190D01*
X168640239Y-96496190D01*
X169259286Y-96067619D02*
X169259286Y-97067619D01*
X169830715Y-96067619D01*
X169830715Y-97067619D01*
X170306905Y-96067619D02*
X170306905Y-97067619D01*
X170545000Y-97067619D01*
X170687858Y-97020000D01*
X170783096Y-96924762D01*
X170830715Y-96829524D01*
X170878334Y-96639048D01*
X170878334Y-96496190D01*
X170830715Y-96305714D01*
X170783096Y-96210476D01*
X170687858Y-96115238D01*
X170545000Y-96067619D01*
X170306905Y-96067619D01*
X177673096Y-97020000D02*
X177577858Y-97067619D01*
X177435001Y-97067619D01*
X177292143Y-97020000D01*
X177196905Y-96924762D01*
X177149286Y-96829524D01*
X177101667Y-96639048D01*
X177101667Y-96496190D01*
X177149286Y-96305714D01*
X177196905Y-96210476D01*
X177292143Y-96115238D01*
X177435001Y-96067619D01*
X177530239Y-96067619D01*
X177673096Y-96115238D01*
X177720715Y-96162857D01*
X177720715Y-96496190D01*
X177530239Y-96496190D01*
X178149286Y-96067619D02*
X178149286Y-97067619D01*
X178720715Y-96067619D01*
X178720715Y-97067619D01*
X179196905Y-96067619D02*
X179196905Y-97067619D01*
X179435000Y-97067619D01*
X179577858Y-97020000D01*
X179673096Y-96924762D01*
X179720715Y-96829524D01*
X179768334Y-96639048D01*
X179768334Y-96496190D01*
X179720715Y-96305714D01*
X179673096Y-96210476D01*
X179577858Y-96115238D01*
X179435000Y-96067619D01*
X179196905Y-96067619D01*
X177085714Y-93813333D02*
X177561905Y-93813333D01*
X176990476Y-93527619D02*
X177323809Y-94527619D01*
X177657143Y-93527619D01*
X178514286Y-93527619D02*
X177942857Y-93527619D01*
X178228571Y-93527619D02*
X178228571Y-94527619D01*
X178133333Y-94384762D01*
X178038095Y-94289524D01*
X177942857Y-94241905D01*
X169465714Y-93813333D02*
X169941905Y-93813333D01*
X169370476Y-93527619D02*
X169703809Y-94527619D01*
X170037143Y-93527619D01*
X170560952Y-94527619D02*
X170656191Y-94527619D01*
X170751429Y-94480000D01*
X170799048Y-94432381D01*
X170846667Y-94337143D01*
X170894286Y-94146667D01*
X170894286Y-93908571D01*
X170846667Y-93718095D01*
X170799048Y-93622857D01*
X170751429Y-93575238D01*
X170656191Y-93527619D01*
X170560952Y-93527619D01*
X170465714Y-93575238D01*
X170418095Y-93622857D01*
X170370476Y-93718095D01*
X170322857Y-93908571D01*
X170322857Y-94146667D01*
X170370476Y-94337143D01*
X170418095Y-94432381D01*
X170465714Y-94480000D01*
X170560952Y-94527619D01*
X170370476Y-90892381D02*
X170846667Y-90892381D01*
X170894286Y-91368571D01*
X170846667Y-91320952D01*
X170751429Y-91273333D01*
X170513333Y-91273333D01*
X170418095Y-91320952D01*
X170370476Y-91368571D01*
X170322857Y-91463810D01*
X170322857Y-91701905D01*
X170370476Y-91797143D01*
X170418095Y-91844762D01*
X170513333Y-91892381D01*
X170751429Y-91892381D01*
X170846667Y-91844762D01*
X170894286Y-91797143D01*
X170037143Y-90892381D02*
X169703810Y-91892381D01*
X169370476Y-90892381D01*
X178800000Y-90892381D02*
X178466667Y-91892381D01*
X178133333Y-90892381D01*
X177800000Y-91892381D02*
X177800000Y-91225714D01*
X177800000Y-91320952D02*
X177752381Y-91273333D01*
X177657143Y-91225714D01*
X177514285Y-91225714D01*
X177419047Y-91273333D01*
X177371428Y-91368571D01*
X177371428Y-91892381D01*
X177371428Y-91368571D02*
X177323809Y-91273333D01*
X177228571Y-91225714D01*
X177085714Y-91225714D01*
X176990476Y-91273333D01*
X176942857Y-91368571D01*
X176942857Y-91892381D01*
X198667619Y-89050714D02*
X197667619Y-88717381D01*
X198667619Y-88384047D01*
X197667619Y-87622142D02*
X198667619Y-87622142D01*
X197715238Y-87622142D02*
X197667619Y-87717380D01*
X197667619Y-87907857D01*
X197715238Y-88003095D01*
X197762857Y-88050714D01*
X197858095Y-88098333D01*
X198143810Y-88098333D01*
X198239048Y-88050714D01*
X198286667Y-88003095D01*
X198334286Y-87907857D01*
X198334286Y-87717380D01*
X198286667Y-87622142D01*
X165647619Y-89050714D02*
X164647619Y-88717381D01*
X165647619Y-88384047D01*
X164647619Y-87622142D02*
X165647619Y-87622142D01*
X164695238Y-87622142D02*
X164647619Y-87717380D01*
X164647619Y-87907857D01*
X164695238Y-88003095D01*
X164742857Y-88050714D01*
X164838095Y-88098333D01*
X165123810Y-88098333D01*
X165219048Y-88050714D01*
X165266667Y-88003095D01*
X165314286Y-87907857D01*
X165314286Y-87717380D01*
X165266667Y-87622142D01*
X182380000Y-75438096D02*
X182332381Y-75342858D01*
X182332381Y-75200001D01*
X182380000Y-75057143D01*
X182475238Y-74961905D01*
X182570476Y-74914286D01*
X182760952Y-74866667D01*
X182903810Y-74866667D01*
X183094286Y-74914286D01*
X183189524Y-74961905D01*
X183284762Y-75057143D01*
X183332381Y-75200001D01*
X183332381Y-75295239D01*
X183284762Y-75438096D01*
X183237143Y-75485715D01*
X182903810Y-75485715D01*
X182903810Y-75295239D01*
X183332381Y-75914286D02*
X182332381Y-75914286D01*
X183332381Y-76485715D01*
X182332381Y-76485715D01*
X183332381Y-76961905D02*
X182332381Y-76961905D01*
X182332381Y-77200000D01*
X182380000Y-77342858D01*
X182475238Y-77438096D01*
X182570476Y-77485715D01*
X182760952Y-77533334D01*
X182903810Y-77533334D01*
X183094286Y-77485715D01*
X183189524Y-77438096D01*
X183284762Y-77342858D01*
X183332381Y-77200000D01*
X183332381Y-76961905D01*
X146558096Y-79240000D02*
X146462858Y-79287619D01*
X146320001Y-79287619D01*
X146177143Y-79240000D01*
X146081905Y-79144762D01*
X146034286Y-79049524D01*
X145986667Y-78859048D01*
X145986667Y-78716190D01*
X146034286Y-78525714D01*
X146081905Y-78430476D01*
X146177143Y-78335238D01*
X146320001Y-78287619D01*
X146415239Y-78287619D01*
X146558096Y-78335238D01*
X146605715Y-78382857D01*
X146605715Y-78716190D01*
X146415239Y-78716190D01*
X147034286Y-78287619D02*
X147034286Y-79287619D01*
X147605715Y-78287619D01*
X147605715Y-79287619D01*
X148081905Y-78287619D02*
X148081905Y-79287619D01*
X148320000Y-79287619D01*
X148462858Y-79240000D01*
X148558096Y-79144762D01*
X148605715Y-79049524D01*
X148653334Y-78859048D01*
X148653334Y-78716190D01*
X148605715Y-78525714D01*
X148558096Y-78430476D01*
X148462858Y-78335238D01*
X148320000Y-78287619D01*
X148081905Y-78287619D01*
X186166190Y-75684048D02*
X186070952Y-75731667D01*
X186023333Y-75779286D01*
X185975714Y-75874524D01*
X185975714Y-75922143D01*
X186023333Y-76017381D01*
X186070952Y-76065000D01*
X186166190Y-76112619D01*
X186356667Y-76112619D01*
X186451905Y-76065000D01*
X186499524Y-76017381D01*
X186547143Y-75922143D01*
X186547143Y-75874524D01*
X186499524Y-75779286D01*
X186451905Y-75731667D01*
X186356667Y-75684048D01*
X186166190Y-75684048D01*
X186070952Y-75636429D01*
X186023333Y-75588810D01*
X185975714Y-75493571D01*
X185975714Y-75303095D01*
X186023333Y-75207857D01*
X186070952Y-75160238D01*
X186166190Y-75112619D01*
X186356667Y-75112619D01*
X186451905Y-75160238D01*
X186499524Y-75207857D01*
X186547143Y-75303095D01*
X186547143Y-75493571D01*
X186499524Y-75588810D01*
X186451905Y-75636429D01*
X186356667Y-75684048D01*
X186928095Y-75398333D02*
X187404286Y-75398333D01*
X186832857Y-75112619D02*
X187166190Y-76112619D01*
X187499524Y-75112619D01*
X194071905Y-76112619D02*
X193881428Y-76112619D01*
X193786190Y-76065000D01*
X193738571Y-76017381D01*
X193643333Y-75874524D01*
X193595714Y-75684048D01*
X193595714Y-75303095D01*
X193643333Y-75207857D01*
X193690952Y-75160238D01*
X193786190Y-75112619D01*
X193976667Y-75112619D01*
X194071905Y-75160238D01*
X194119524Y-75207857D01*
X194167143Y-75303095D01*
X194167143Y-75541190D01*
X194119524Y-75636429D01*
X194071905Y-75684048D01*
X193976667Y-75731667D01*
X193786190Y-75731667D01*
X193690952Y-75684048D01*
X193643333Y-75636429D01*
X193595714Y-75541190D01*
X194548095Y-75398333D02*
X195024286Y-75398333D01*
X194452857Y-75112619D02*
X194786190Y-76112619D01*
X195119524Y-75112619D01*
X153479524Y-76112619D02*
X153003333Y-76112619D01*
X152955714Y-75636429D01*
X153003333Y-75684048D01*
X153098571Y-75731667D01*
X153336667Y-75731667D01*
X153431905Y-75684048D01*
X153479524Y-75636429D01*
X153527143Y-75541190D01*
X153527143Y-75303095D01*
X153479524Y-75207857D01*
X153431905Y-75160238D01*
X153336667Y-75112619D01*
X153098571Y-75112619D01*
X153003333Y-75160238D01*
X152955714Y-75207857D01*
X153908095Y-75398333D02*
X154384286Y-75398333D01*
X153812857Y-75112619D02*
X154146190Y-76112619D01*
X154479524Y-75112619D01*
X150368095Y-90082619D02*
X150987143Y-90082619D01*
X150653809Y-89701667D01*
X150796667Y-89701667D01*
X150891905Y-89654048D01*
X150939524Y-89606429D01*
X150987143Y-89511190D01*
X150987143Y-89273095D01*
X150939524Y-89177857D01*
X150891905Y-89130238D01*
X150796667Y-89082619D01*
X150510952Y-89082619D01*
X150415714Y-89130238D01*
X150368095Y-89177857D01*
X151368095Y-89368333D02*
X151844286Y-89368333D01*
X151272857Y-89082619D02*
X151606190Y-90082619D01*
X151939524Y-89082619D01*
X183435714Y-89987381D02*
X183483333Y-90035000D01*
X183578571Y-90082619D01*
X183816667Y-90082619D01*
X183911905Y-90035000D01*
X183959524Y-89987381D01*
X184007143Y-89892143D01*
X184007143Y-89796905D01*
X183959524Y-89654048D01*
X183388095Y-89082619D01*
X184007143Y-89082619D01*
X184388095Y-89368333D02*
X184864286Y-89368333D01*
X184292857Y-89082619D02*
X184626190Y-90082619D01*
X184959524Y-89082619D01*
X191531905Y-89749286D02*
X191531905Y-89082619D01*
X191293809Y-90130238D02*
X191055714Y-89415952D01*
X191674762Y-89415952D01*
X192008095Y-89368333D02*
X192484286Y-89368333D01*
X191912857Y-89082619D02*
X192246190Y-90082619D01*
X192579524Y-89082619D01*
X160528095Y-76112619D02*
X161194762Y-76112619D01*
X160766190Y-75112619D01*
X161528095Y-75398333D02*
X162004286Y-75398333D01*
X161432857Y-75112619D02*
X161766190Y-76112619D01*
X162099524Y-75112619D01*
D12*
X182880000Y-88265000D02*
X182245000Y-87630000D01*
X183515000Y-87630000D02*
X182880000Y-88265000D01*
X185420000Y-87630000D02*
X184785000Y-88265000D01*
X186055000Y-88265000D02*
X185420000Y-87630000D01*
X190500000Y-88265000D02*
X189865000Y-87630000D01*
X191135000Y-87630000D02*
X190500000Y-88265000D01*
X193040000Y-87630000D02*
X192405000Y-88265000D01*
X193675000Y-88265000D02*
X193040000Y-87630000D01*
X195580000Y-77470000D02*
X196215000Y-76835000D01*
X194945000Y-76835000D02*
X195580000Y-77470000D01*
X193040000Y-76835000D02*
X193675000Y-77470000D01*
X192405000Y-77470000D02*
X193040000Y-76835000D01*
X187960000Y-77470000D02*
X188595000Y-76835000D01*
X187325000Y-76835000D02*
X187960000Y-77470000D01*
X185420000Y-76835000D02*
X186055000Y-77470000D01*
X184785000Y-77470000D02*
X185420000Y-76835000D01*
X162560000Y-77470000D02*
X163195000Y-76835000D01*
X161925000Y-76835000D02*
X162560000Y-77470000D01*
X160020000Y-76835000D02*
X160655000Y-77470000D01*
X159385000Y-77470000D02*
X160020000Y-76835000D01*
X154940000Y-77470000D02*
X155575000Y-76835000D01*
X154305000Y-76835000D02*
X154940000Y-77470000D01*
X152400000Y-76835000D02*
X153035000Y-77470000D01*
X151765000Y-77470000D02*
X152400000Y-76835000D01*
X149860000Y-88265000D02*
X149225000Y-87630000D01*
X150495000Y-87630000D02*
X149860000Y-88265000D01*
X152400000Y-87630000D02*
X151765000Y-88265000D01*
X153035000Y-88265000D02*
X152400000Y-87630000D01*
X157480000Y-88265000D02*
X156845000Y-87630000D01*
X158115000Y-87630000D02*
X157480000Y-88265000D01*
X160020000Y-87630000D02*
X159385000Y-88265000D01*
X160655000Y-88265000D02*
X160020000Y-87630000D01*
D11*
X158607143Y-89082619D02*
X158035714Y-89082619D01*
X158321428Y-89082619D02*
X158321428Y-90082619D01*
X158226190Y-89939762D01*
X158130952Y-89844524D01*
X158035714Y-89796905D01*
X158988095Y-89368333D02*
X159464286Y-89368333D01*
X158892857Y-89082619D02*
X159226190Y-90082619D01*
X159559524Y-89082619D01*
X123658334Y-85907619D02*
X123325000Y-86383810D01*
X123086905Y-85907619D02*
X123086905Y-86907619D01*
X123467858Y-86907619D01*
X123563096Y-86860000D01*
X123610715Y-86812381D01*
X123658334Y-86717143D01*
X123658334Y-86574286D01*
X123610715Y-86479048D01*
X123563096Y-86431429D01*
X123467858Y-86383810D01*
X123086905Y-86383810D01*
X123991667Y-86907619D02*
X124658334Y-85907619D01*
X124658334Y-86907619D02*
X123991667Y-85907619D01*
X123063095Y-84367619D02*
X123634524Y-84367619D01*
X123348809Y-83367619D02*
X123348809Y-84367619D01*
X123872619Y-84367619D02*
X124539286Y-83367619D01*
X124539286Y-84367619D02*
X123872619Y-83367619D01*
X123698096Y-89400000D02*
X123602858Y-89447619D01*
X123460001Y-89447619D01*
X123317143Y-89400000D01*
X123221905Y-89304762D01*
X123174286Y-89209524D01*
X123126667Y-89019048D01*
X123126667Y-88876190D01*
X123174286Y-88685714D01*
X123221905Y-88590476D01*
X123317143Y-88495238D01*
X123460001Y-88447619D01*
X123555239Y-88447619D01*
X123698096Y-88495238D01*
X123745715Y-88542857D01*
X123745715Y-88876190D01*
X123555239Y-88876190D01*
X124174286Y-88447619D02*
X124174286Y-89447619D01*
X124745715Y-88447619D01*
X124745715Y-89447619D01*
X125221905Y-88447619D02*
X125221905Y-89447619D01*
X125460000Y-89447619D01*
X125602858Y-89400000D01*
X125698096Y-89304762D01*
X125745715Y-89209524D01*
X125793334Y-89019048D01*
X125793334Y-88876190D01*
X125745715Y-88685714D01*
X125698096Y-88590476D01*
X125602858Y-88495238D01*
X125460000Y-88447619D01*
X125221905Y-88447619D01*
X124015476Y-90892381D02*
X124491667Y-90892381D01*
X124539286Y-91368571D01*
X124491667Y-91320952D01*
X124396429Y-91273333D01*
X124158333Y-91273333D01*
X124063095Y-91320952D01*
X124015476Y-91368571D01*
X123967857Y-91463810D01*
X123967857Y-91701905D01*
X124015476Y-91797143D01*
X124063095Y-91844762D01*
X124158333Y-91892381D01*
X124396429Y-91892381D01*
X124491667Y-91844762D01*
X124539286Y-91797143D01*
X123682143Y-90892381D02*
X123348810Y-91892381D01*
X123015476Y-90892381D01*
X140104762Y-133405714D02*
X140152381Y-133548571D01*
X140152381Y-133786667D01*
X140104762Y-133881905D01*
X140057143Y-133929524D01*
X139961905Y-133977143D01*
X139866667Y-133977143D01*
X139771429Y-133929524D01*
X139723810Y-133881905D01*
X139676190Y-133786667D01*
X139628571Y-133596190D01*
X139580952Y-133500952D01*
X139533333Y-133453333D01*
X139438095Y-133405714D01*
X139342857Y-133405714D01*
X139247619Y-133453333D01*
X139200000Y-133500952D01*
X139152381Y-133596190D01*
X139152381Y-133834286D01*
X139200000Y-133977143D01*
X140152381Y-134405714D02*
X139152381Y-134405714D01*
X139152381Y-134643809D01*
X139200000Y-134786667D01*
X139295238Y-134881905D01*
X139390476Y-134929524D01*
X139580952Y-134977143D01*
X139723810Y-134977143D01*
X139914286Y-134929524D01*
X140009524Y-134881905D01*
X140104762Y-134786667D01*
X140152381Y-134643809D01*
X140152381Y-134405714D01*
X139866667Y-135358095D02*
X139866667Y-135834286D01*
X140152381Y-135262857D02*
X139152381Y-135596190D01*
X140152381Y-135929524D01*
X137564762Y-133429524D02*
X137612381Y-133572381D01*
X137612381Y-133810477D01*
X137564762Y-133905715D01*
X137517143Y-133953334D01*
X137421905Y-134000953D01*
X137326667Y-134000953D01*
X137231429Y-133953334D01*
X137183810Y-133905715D01*
X137136190Y-133810477D01*
X137088571Y-133620000D01*
X137040952Y-133524762D01*
X136993333Y-133477143D01*
X136898095Y-133429524D01*
X136802857Y-133429524D01*
X136707619Y-133477143D01*
X136660000Y-133524762D01*
X136612381Y-133620000D01*
X136612381Y-133858096D01*
X136660000Y-134000953D01*
X137517143Y-135000953D02*
X137564762Y-134953334D01*
X137612381Y-134810477D01*
X137612381Y-134715239D01*
X137564762Y-134572381D01*
X137469524Y-134477143D01*
X137374286Y-134429524D01*
X137183810Y-134381905D01*
X137040952Y-134381905D01*
X136850476Y-134429524D01*
X136755238Y-134477143D01*
X136660000Y-134572381D01*
X136612381Y-134715239D01*
X136612381Y-134810477D01*
X136660000Y-134953334D01*
X136707619Y-135000953D01*
X137612381Y-135905715D02*
X137612381Y-135429524D01*
X136612381Y-135429524D01*
X134120000Y-133858096D02*
X134072381Y-133762858D01*
X134072381Y-133620001D01*
X134120000Y-133477143D01*
X134215238Y-133381905D01*
X134310476Y-133334286D01*
X134500952Y-133286667D01*
X134643810Y-133286667D01*
X134834286Y-133334286D01*
X134929524Y-133381905D01*
X135024762Y-133477143D01*
X135072381Y-133620001D01*
X135072381Y-133715239D01*
X135024762Y-133858096D01*
X134977143Y-133905715D01*
X134643810Y-133905715D01*
X134643810Y-133715239D01*
X135072381Y-134334286D02*
X134072381Y-134334286D01*
X135072381Y-134905715D01*
X134072381Y-134905715D01*
X135072381Y-135381905D02*
X134072381Y-135381905D01*
X134072381Y-135620000D01*
X134120000Y-135762858D01*
X134215238Y-135858096D01*
X134310476Y-135905715D01*
X134500952Y-135953334D01*
X134643810Y-135953334D01*
X134834286Y-135905715D01*
X134929524Y-135858096D01*
X135024762Y-135762858D01*
X135072381Y-135620000D01*
X135072381Y-135381905D01*
X128992381Y-134635952D02*
X129992381Y-134969285D01*
X128992381Y-135302619D01*
X129325714Y-135493095D02*
X129325714Y-135874047D01*
X128992381Y-135635952D02*
X129849524Y-135635952D01*
X129944762Y-135683571D01*
X129992381Y-135778809D01*
X129992381Y-135874047D01*
X129040000Y-116078096D02*
X128992381Y-115982858D01*
X128992381Y-115840001D01*
X129040000Y-115697143D01*
X129135238Y-115601905D01*
X129230476Y-115554286D01*
X129420952Y-115506667D01*
X129563810Y-115506667D01*
X129754286Y-115554286D01*
X129849524Y-115601905D01*
X129944762Y-115697143D01*
X129992381Y-115840001D01*
X129992381Y-115935239D01*
X129944762Y-116078096D01*
X129897143Y-116125715D01*
X129563810Y-116125715D01*
X129563810Y-115935239D01*
X129992381Y-116554286D02*
X128992381Y-116554286D01*
X129992381Y-117125715D01*
X128992381Y-117125715D01*
X129992381Y-117601905D02*
X128992381Y-117601905D01*
X128992381Y-117840000D01*
X129040000Y-117982858D01*
X129135238Y-118078096D01*
X129230476Y-118125715D01*
X129420952Y-118173334D01*
X129563810Y-118173334D01*
X129754286Y-118125715D01*
X129849524Y-118078096D01*
X129944762Y-117982858D01*
X129992381Y-117840000D01*
X129992381Y-117601905D01*
X132532381Y-116038334D02*
X132056190Y-115705000D01*
X132532381Y-115466905D02*
X131532381Y-115466905D01*
X131532381Y-115847858D01*
X131580000Y-115943096D01*
X131627619Y-115990715D01*
X131722857Y-116038334D01*
X131865714Y-116038334D01*
X131960952Y-115990715D01*
X132008571Y-115943096D01*
X132056190Y-115847858D01*
X132056190Y-115466905D01*
X131532381Y-116371667D02*
X132532381Y-117038334D01*
X131532381Y-117038334D02*
X132532381Y-116371667D01*
X134072381Y-115443095D02*
X134072381Y-116014524D01*
X135072381Y-115728809D02*
X134072381Y-115728809D01*
X134072381Y-116252619D02*
X135072381Y-116919286D01*
X134072381Y-116919286D02*
X135072381Y-116252619D01*
X137564762Y-115443095D02*
X137612381Y-115585952D01*
X137612381Y-115824048D01*
X137564762Y-115919286D01*
X137517143Y-115966905D01*
X137421905Y-116014524D01*
X137326667Y-116014524D01*
X137231429Y-115966905D01*
X137183810Y-115919286D01*
X137136190Y-115824048D01*
X137088571Y-115633571D01*
X137040952Y-115538333D01*
X136993333Y-115490714D01*
X136898095Y-115443095D01*
X136802857Y-115443095D01*
X136707619Y-115490714D01*
X136660000Y-115538333D01*
X136612381Y-115633571D01*
X136612381Y-115871667D01*
X136660000Y-116014524D01*
X137612381Y-116966905D02*
X137612381Y-116395476D01*
X137612381Y-116681190D02*
X136612381Y-116681190D01*
X136755238Y-116585952D01*
X136850476Y-116490714D01*
X136898095Y-116395476D01*
X140152381Y-116062143D02*
X140152381Y-115490714D01*
X140152381Y-115776428D02*
X139152381Y-115776428D01*
X139295238Y-115681190D01*
X139390476Y-115585952D01*
X139438095Y-115490714D01*
X139866667Y-116443095D02*
X139866667Y-116919286D01*
X140152381Y-116347857D02*
X139152381Y-116681190D01*
X140152381Y-117014524D01*
X141787619Y-115490714D02*
X141740000Y-115538333D01*
X141692381Y-115633571D01*
X141692381Y-115871667D01*
X141740000Y-115966905D01*
X141787619Y-116014524D01*
X141882857Y-116062143D01*
X141978095Y-116062143D01*
X142120952Y-116014524D01*
X142692381Y-115443095D01*
X142692381Y-116062143D01*
X142406667Y-116443095D02*
X142406667Y-116919286D01*
X142692381Y-116347857D02*
X141692381Y-116681190D01*
X142692381Y-117014524D01*
X145232381Y-115466905D02*
X144232381Y-115466905D01*
X144232381Y-115705000D01*
X144280000Y-115847858D01*
X144375238Y-115943096D01*
X144470476Y-115990715D01*
X144660952Y-116038334D01*
X144803810Y-116038334D01*
X144994286Y-115990715D01*
X145089524Y-115943096D01*
X145184762Y-115847858D01*
X145232381Y-115705000D01*
X145232381Y-115466905D01*
X144232381Y-116943096D02*
X144232381Y-116466905D01*
X144708571Y-116419286D01*
X144660952Y-116466905D01*
X144613333Y-116562143D01*
X144613333Y-116800239D01*
X144660952Y-116895477D01*
X144708571Y-116943096D01*
X144803810Y-116990715D01*
X145041905Y-116990715D01*
X145137143Y-116943096D01*
X145184762Y-116895477D01*
X145232381Y-116800239D01*
X145232381Y-116562143D01*
X145184762Y-116466905D01*
X145137143Y-116419286D01*
X146772381Y-115443095D02*
X146772381Y-116062143D01*
X147153333Y-115728809D01*
X147153333Y-115871667D01*
X147200952Y-115966905D01*
X147248571Y-116014524D01*
X147343810Y-116062143D01*
X147581905Y-116062143D01*
X147677143Y-116014524D01*
X147724762Y-115966905D01*
X147772381Y-115871667D01*
X147772381Y-115585952D01*
X147724762Y-115490714D01*
X147677143Y-115443095D01*
X147486667Y-116443095D02*
X147486667Y-116919286D01*
X147772381Y-116347857D02*
X146772381Y-116681190D01*
X147772381Y-117014524D01*
X150312381Y-115466905D02*
X149312381Y-115466905D01*
X149312381Y-115705000D01*
X149360000Y-115847858D01*
X149455238Y-115943096D01*
X149550476Y-115990715D01*
X149740952Y-116038334D01*
X149883810Y-116038334D01*
X150074286Y-115990715D01*
X150169524Y-115943096D01*
X150264762Y-115847858D01*
X150312381Y-115705000D01*
X150312381Y-115466905D01*
X149312381Y-116371667D02*
X149312381Y-117038334D01*
X150312381Y-116609762D01*
X152852381Y-115466905D02*
X151852381Y-115466905D01*
X151852381Y-115705000D01*
X151900000Y-115847858D01*
X151995238Y-115943096D01*
X152090476Y-115990715D01*
X152280952Y-116038334D01*
X152423810Y-116038334D01*
X152614286Y-115990715D01*
X152709524Y-115943096D01*
X152804762Y-115847858D01*
X152852381Y-115705000D01*
X152852381Y-115466905D01*
X152280952Y-116609762D02*
X152233333Y-116514524D01*
X152185714Y-116466905D01*
X152090476Y-116419286D01*
X152042857Y-116419286D01*
X151947619Y-116466905D01*
X151900000Y-116514524D01*
X151852381Y-116609762D01*
X151852381Y-116800239D01*
X151900000Y-116895477D01*
X151947619Y-116943096D01*
X152042857Y-116990715D01*
X152090476Y-116990715D01*
X152185714Y-116943096D01*
X152233333Y-116895477D01*
X152280952Y-116800239D01*
X152280952Y-116609762D01*
X152328571Y-116514524D01*
X152376190Y-116466905D01*
X152471429Y-116419286D01*
X152661905Y-116419286D01*
X152757143Y-116466905D01*
X152804762Y-116514524D01*
X152852381Y-116609762D01*
X152852381Y-116800239D01*
X152804762Y-116895477D01*
X152757143Y-116943096D01*
X152661905Y-116990715D01*
X152471429Y-116990715D01*
X152376190Y-116943096D01*
X152328571Y-116895477D01*
X152280952Y-116800239D01*
X154725714Y-115966905D02*
X155392381Y-115966905D01*
X154344762Y-115728809D02*
X155059048Y-115490714D01*
X155059048Y-116109762D01*
X155106667Y-116443095D02*
X155106667Y-116919286D01*
X155392381Y-116347857D02*
X154392381Y-116681190D01*
X155392381Y-117014524D01*
X157837143Y-112101334D02*
X157884762Y-112053715D01*
X157932381Y-111910858D01*
X157932381Y-111815620D01*
X157884762Y-111672762D01*
X157789524Y-111577524D01*
X157694286Y-111529905D01*
X157503810Y-111482286D01*
X157360952Y-111482286D01*
X157170476Y-111529905D01*
X157075238Y-111577524D01*
X156980000Y-111672762D01*
X156932381Y-111815620D01*
X156932381Y-111910858D01*
X156980000Y-112053715D01*
X157027619Y-112101334D01*
X157884762Y-112482286D02*
X157932381Y-112625143D01*
X157932381Y-112863239D01*
X157884762Y-112958477D01*
X157837143Y-113006096D01*
X157741905Y-113053715D01*
X157646667Y-113053715D01*
X157551429Y-113006096D01*
X157503810Y-112958477D01*
X157456190Y-112863239D01*
X157408571Y-112672762D01*
X157360952Y-112577524D01*
X157313333Y-112529905D01*
X157218095Y-112482286D01*
X157122857Y-112482286D01*
X157027619Y-112529905D01*
X156980000Y-112577524D01*
X156932381Y-112672762D01*
X156932381Y-112910858D01*
X156980000Y-113053715D01*
X160472381Y-109934572D02*
X159472381Y-109934572D01*
X160186667Y-110267906D01*
X159472381Y-110601239D01*
X160472381Y-110601239D01*
X159472381Y-111267905D02*
X159472381Y-111458382D01*
X159520000Y-111553620D01*
X159615238Y-111648858D01*
X159805714Y-111696477D01*
X160139048Y-111696477D01*
X160329524Y-111648858D01*
X160424762Y-111553620D01*
X160472381Y-111458382D01*
X160472381Y-111267905D01*
X160424762Y-111172667D01*
X160329524Y-111077429D01*
X160139048Y-111029810D01*
X159805714Y-111029810D01*
X159615238Y-111077429D01*
X159520000Y-111172667D01*
X159472381Y-111267905D01*
X160424762Y-112077429D02*
X160472381Y-112220286D01*
X160472381Y-112458382D01*
X160424762Y-112553620D01*
X160377143Y-112601239D01*
X160281905Y-112648858D01*
X160186667Y-112648858D01*
X160091429Y-112601239D01*
X160043810Y-112553620D01*
X159996190Y-112458382D01*
X159948571Y-112267905D01*
X159900952Y-112172667D01*
X159853333Y-112125048D01*
X159758095Y-112077429D01*
X159662857Y-112077429D01*
X159567619Y-112125048D01*
X159520000Y-112172667D01*
X159472381Y-112267905D01*
X159472381Y-112506001D01*
X159520000Y-112648858D01*
X160472381Y-113077429D02*
X159472381Y-113077429D01*
X163782572Y-113847619D02*
X163782572Y-114847619D01*
X164115906Y-114133333D01*
X164449239Y-114847619D01*
X164449239Y-113847619D01*
X164925429Y-113847619D02*
X164925429Y-114847619D01*
X165354000Y-113895238D02*
X165496857Y-113847619D01*
X165734953Y-113847619D01*
X165830191Y-113895238D01*
X165877810Y-113942857D01*
X165925429Y-114038095D01*
X165925429Y-114133333D01*
X165877810Y-114228571D01*
X165830191Y-114276190D01*
X165734953Y-114323810D01*
X165544476Y-114371429D01*
X165449238Y-114419048D01*
X165401619Y-114466667D01*
X165354000Y-114561905D01*
X165354000Y-114657143D01*
X165401619Y-114752381D01*
X165449238Y-114800000D01*
X165544476Y-114847619D01*
X165782572Y-114847619D01*
X165925429Y-114800000D01*
X166544476Y-114847619D02*
X166734953Y-114847619D01*
X166830191Y-114800000D01*
X166925429Y-114704762D01*
X166973048Y-114514286D01*
X166973048Y-114180952D01*
X166925429Y-113990476D01*
X166830191Y-113895238D01*
X166734953Y-113847619D01*
X166544476Y-113847619D01*
X166449238Y-113895238D01*
X166354000Y-113990476D01*
X166306381Y-114180952D01*
X166306381Y-114514286D01*
X166354000Y-114704762D01*
X166449238Y-114800000D01*
X166544476Y-114847619D01*
X163909524Y-101433333D02*
X164385715Y-101433333D01*
X163814286Y-101147619D02*
X164147619Y-102147619D01*
X164480953Y-101147619D01*
X165338096Y-101147619D02*
X164766667Y-101147619D01*
X165052381Y-101147619D02*
X165052381Y-102147619D01*
X164957143Y-102004762D01*
X164861905Y-101909524D01*
X164766667Y-101861905D01*
X165719048Y-102052381D02*
X165766667Y-102100000D01*
X165861905Y-102147619D01*
X166100001Y-102147619D01*
X166195239Y-102100000D01*
X166242858Y-102052381D01*
X166290477Y-101957143D01*
X166290477Y-101861905D01*
X166242858Y-101719048D01*
X165671429Y-101147619D01*
X166290477Y-101147619D01*
X163814286Y-98655238D02*
X163957143Y-98607619D01*
X164195239Y-98607619D01*
X164290477Y-98655238D01*
X164338096Y-98702857D01*
X164385715Y-98798095D01*
X164385715Y-98893333D01*
X164338096Y-98988571D01*
X164290477Y-99036190D01*
X164195239Y-99083810D01*
X164004762Y-99131429D01*
X163909524Y-99179048D01*
X163861905Y-99226667D01*
X163814286Y-99321905D01*
X163814286Y-99417143D01*
X163861905Y-99512381D01*
X163909524Y-99560000D01*
X164004762Y-99607619D01*
X164242858Y-99607619D01*
X164385715Y-99560000D01*
X165385715Y-98702857D02*
X165338096Y-98655238D01*
X165195239Y-98607619D01*
X165100001Y-98607619D01*
X164957143Y-98655238D01*
X164861905Y-98750476D01*
X164814286Y-98845714D01*
X164766667Y-99036190D01*
X164766667Y-99179048D01*
X164814286Y-99369524D01*
X164861905Y-99464762D01*
X164957143Y-99560000D01*
X165100001Y-99607619D01*
X165195239Y-99607619D01*
X165338096Y-99560000D01*
X165385715Y-99512381D01*
X165814286Y-98607619D02*
X165814286Y-99607619D01*
X166385715Y-98607619D02*
X165957143Y-99179048D01*
X166385715Y-99607619D02*
X165814286Y-99036190D01*
X160186667Y-96440714D02*
X160186667Y-96916905D01*
X160472381Y-96345476D02*
X159472381Y-96678809D01*
X160472381Y-97012143D01*
X159472381Y-97535952D02*
X159472381Y-97631191D01*
X159520000Y-97726429D01*
X159567619Y-97774048D01*
X159662857Y-97821667D01*
X159853333Y-97869286D01*
X160091429Y-97869286D01*
X160281905Y-97821667D01*
X160377143Y-97774048D01*
X160424762Y-97726429D01*
X160472381Y-97631191D01*
X160472381Y-97535952D01*
X160424762Y-97440714D01*
X160377143Y-97393095D01*
X160281905Y-97345476D01*
X160091429Y-97297857D01*
X159853333Y-97297857D01*
X159662857Y-97345476D01*
X159567619Y-97393095D01*
X159520000Y-97440714D01*
X159472381Y-97535952D01*
X157646667Y-96440714D02*
X157646667Y-96916905D01*
X157932381Y-96345476D02*
X156932381Y-96678809D01*
X157932381Y-97012143D01*
X157932381Y-97869286D02*
X157932381Y-97297857D01*
X157932381Y-97583571D02*
X156932381Y-97583571D01*
X157075238Y-97488333D01*
X157170476Y-97393095D01*
X157218095Y-97297857D01*
X154392381Y-96964524D02*
X154392381Y-96488333D01*
X154868571Y-96440714D01*
X154820952Y-96488333D01*
X154773333Y-96583571D01*
X154773333Y-96821667D01*
X154820952Y-96916905D01*
X154868571Y-96964524D01*
X154963810Y-97012143D01*
X155201905Y-97012143D01*
X155297143Y-96964524D01*
X155344762Y-96916905D01*
X155392381Y-96821667D01*
X155392381Y-96583571D01*
X155344762Y-96488333D01*
X155297143Y-96440714D01*
X155106667Y-97393095D02*
X155106667Y-97869286D01*
X155392381Y-97297857D02*
X154392381Y-97631190D01*
X155392381Y-97964524D01*
X151852381Y-96916905D02*
X151852381Y-96726428D01*
X151900000Y-96631190D01*
X151947619Y-96583571D01*
X152090476Y-96488333D01*
X152280952Y-96440714D01*
X152661905Y-96440714D01*
X152757143Y-96488333D01*
X152804762Y-96535952D01*
X152852381Y-96631190D01*
X152852381Y-96821667D01*
X152804762Y-96916905D01*
X152757143Y-96964524D01*
X152661905Y-97012143D01*
X152423810Y-97012143D01*
X152328571Y-96964524D01*
X152280952Y-96916905D01*
X152233333Y-96821667D01*
X152233333Y-96631190D01*
X152280952Y-96535952D01*
X152328571Y-96488333D01*
X152423810Y-96440714D01*
X152566667Y-97393095D02*
X152566667Y-97869286D01*
X152852381Y-97297857D02*
X151852381Y-97631190D01*
X152852381Y-97964524D01*
X150264762Y-100385714D02*
X150312381Y-100528571D01*
X150312381Y-100766667D01*
X150264762Y-100861905D01*
X150217143Y-100909524D01*
X150121905Y-100957143D01*
X150026667Y-100957143D01*
X149931429Y-100909524D01*
X149883810Y-100861905D01*
X149836190Y-100766667D01*
X149788571Y-100576190D01*
X149740952Y-100480952D01*
X149693333Y-100433333D01*
X149598095Y-100385714D01*
X149502857Y-100385714D01*
X149407619Y-100433333D01*
X149360000Y-100480952D01*
X149312381Y-100576190D01*
X149312381Y-100814286D01*
X149360000Y-100957143D01*
X150312381Y-101385714D02*
X149312381Y-101385714D01*
X149312381Y-101623809D01*
X149360000Y-101766667D01*
X149455238Y-101861905D01*
X149550476Y-101909524D01*
X149740952Y-101957143D01*
X149883810Y-101957143D01*
X150074286Y-101909524D01*
X150169524Y-101861905D01*
X150264762Y-101766667D01*
X150312381Y-101623809D01*
X150312381Y-101385714D01*
X150026667Y-102338095D02*
X150026667Y-102814286D01*
X150312381Y-102242857D02*
X149312381Y-102576190D01*
X150312381Y-102909524D01*
X147724762Y-100409524D02*
X147772381Y-100552381D01*
X147772381Y-100790477D01*
X147724762Y-100885715D01*
X147677143Y-100933334D01*
X147581905Y-100980953D01*
X147486667Y-100980953D01*
X147391429Y-100933334D01*
X147343810Y-100885715D01*
X147296190Y-100790477D01*
X147248571Y-100600000D01*
X147200952Y-100504762D01*
X147153333Y-100457143D01*
X147058095Y-100409524D01*
X146962857Y-100409524D01*
X146867619Y-100457143D01*
X146820000Y-100504762D01*
X146772381Y-100600000D01*
X146772381Y-100838096D01*
X146820000Y-100980953D01*
X147677143Y-101980953D02*
X147724762Y-101933334D01*
X147772381Y-101790477D01*
X147772381Y-101695239D01*
X147724762Y-101552381D01*
X147629524Y-101457143D01*
X147534286Y-101409524D01*
X147343810Y-101361905D01*
X147200952Y-101361905D01*
X147010476Y-101409524D01*
X146915238Y-101457143D01*
X146820000Y-101552381D01*
X146772381Y-101695239D01*
X146772381Y-101790477D01*
X146820000Y-101933334D01*
X146867619Y-101980953D01*
X147772381Y-102885715D02*
X147772381Y-102409524D01*
X146772381Y-102409524D01*
X144232381Y-96393095D02*
X144232381Y-97059762D01*
X145232381Y-96631190D01*
X144946667Y-97393095D02*
X144946667Y-97869286D01*
X145232381Y-97297857D02*
X144232381Y-97631190D01*
X145232381Y-97964524D01*
X142406667Y-96440714D02*
X142406667Y-96916905D01*
X142692381Y-96345476D02*
X141692381Y-96678809D01*
X142692381Y-97012143D01*
X141692381Y-97250238D02*
X141692381Y-97916905D01*
X142692381Y-97488333D01*
X139580952Y-96631190D02*
X139533333Y-96535952D01*
X139485714Y-96488333D01*
X139390476Y-96440714D01*
X139342857Y-96440714D01*
X139247619Y-96488333D01*
X139200000Y-96535952D01*
X139152381Y-96631190D01*
X139152381Y-96821667D01*
X139200000Y-96916905D01*
X139247619Y-96964524D01*
X139342857Y-97012143D01*
X139390476Y-97012143D01*
X139485714Y-96964524D01*
X139533333Y-96916905D01*
X139580952Y-96821667D01*
X139580952Y-96631190D01*
X139628571Y-96535952D01*
X139676190Y-96488333D01*
X139771429Y-96440714D01*
X139961905Y-96440714D01*
X140057143Y-96488333D01*
X140104762Y-96535952D01*
X140152381Y-96631190D01*
X140152381Y-96821667D01*
X140104762Y-96916905D01*
X140057143Y-96964524D01*
X139961905Y-97012143D01*
X139771429Y-97012143D01*
X139676190Y-96964524D01*
X139628571Y-96916905D01*
X139580952Y-96821667D01*
X139866667Y-97393095D02*
X139866667Y-97869286D01*
X140152381Y-97297857D02*
X139152381Y-97631190D01*
X140152381Y-97964524D01*
X142406667Y-102949524D02*
X142406667Y-103425715D01*
X142692381Y-102854286D02*
X141692381Y-103187619D01*
X142692381Y-103520953D01*
X142692381Y-104378096D02*
X142692381Y-103806667D01*
X142692381Y-104092381D02*
X141692381Y-104092381D01*
X141835238Y-103997143D01*
X141930476Y-103901905D01*
X141978095Y-103806667D01*
X142692381Y-105330477D02*
X142692381Y-104759048D01*
X142692381Y-105044762D02*
X141692381Y-105044762D01*
X141835238Y-104949524D01*
X141930476Y-104854286D01*
X141978095Y-104759048D01*
X139866667Y-102949524D02*
X139866667Y-103425715D01*
X140152381Y-102854286D02*
X139152381Y-103187619D01*
X140152381Y-103520953D01*
X140152381Y-104378096D02*
X140152381Y-103806667D01*
X140152381Y-104092381D02*
X139152381Y-104092381D01*
X139295238Y-103997143D01*
X139390476Y-103901905D01*
X139438095Y-103806667D01*
X139152381Y-104997143D02*
X139152381Y-105092382D01*
X139200000Y-105187620D01*
X139247619Y-105235239D01*
X139342857Y-105282858D01*
X139533333Y-105330477D01*
X139771429Y-105330477D01*
X139961905Y-105282858D01*
X140057143Y-105235239D01*
X140104762Y-105187620D01*
X140152381Y-105092382D01*
X140152381Y-104997143D01*
X140104762Y-104901905D01*
X140057143Y-104854286D01*
X139961905Y-104806667D01*
X139771429Y-104759048D01*
X139533333Y-104759048D01*
X139342857Y-104806667D01*
X139247619Y-104854286D01*
X139200000Y-104901905D01*
X139152381Y-104997143D01*
X137326667Y-96440714D02*
X137326667Y-96916905D01*
X137612381Y-96345476D02*
X136612381Y-96678809D01*
X137612381Y-97012143D01*
X137612381Y-97393095D02*
X137612381Y-97583571D01*
X137564762Y-97678810D01*
X137517143Y-97726429D01*
X137374286Y-97821667D01*
X137183810Y-97869286D01*
X136802857Y-97869286D01*
X136707619Y-97821667D01*
X136660000Y-97774048D01*
X136612381Y-97678810D01*
X136612381Y-97488333D01*
X136660000Y-97393095D01*
X136707619Y-97345476D01*
X136802857Y-97297857D01*
X137040952Y-97297857D01*
X137136190Y-97345476D01*
X137183810Y-97393095D01*
X137231429Y-97488333D01*
X137231429Y-97678810D01*
X137183810Y-97774048D01*
X137136190Y-97821667D01*
X137040952Y-97869286D01*
D10*
X130040000Y-92291143D02*
X130011429Y-92262571D01*
X129925714Y-92205428D01*
X129868571Y-92176857D01*
X129782857Y-92148286D01*
X129640000Y-92119714D01*
X129525714Y-92119714D01*
X129382857Y-92148286D01*
X129297143Y-92176857D01*
X129240000Y-92205428D01*
X129154286Y-92262571D01*
X129125714Y-92291143D01*
X129811429Y-92519714D02*
X129211429Y-92519714D01*
X129440000Y-92519714D02*
X129411429Y-92576857D01*
X129411429Y-92691143D01*
X129440000Y-92748286D01*
X129468571Y-92776857D01*
X129525714Y-92805428D01*
X129697143Y-92805428D01*
X129754286Y-92776857D01*
X129782857Y-92748286D01*
X129811429Y-92691143D01*
X129811429Y-92576857D01*
X129782857Y-92519714D01*
X129411429Y-93319714D02*
X129811429Y-93319714D01*
X129411429Y-93062571D02*
X129725714Y-93062571D01*
X129782857Y-93091143D01*
X129811429Y-93148285D01*
X129811429Y-93234000D01*
X129782857Y-93291143D01*
X129754286Y-93319714D01*
X129411429Y-93519714D02*
X129411429Y-93748285D01*
X129811429Y-93605428D02*
X129297143Y-93605428D01*
X129240000Y-93634000D01*
X129211429Y-93691142D01*
X129211429Y-93748285D01*
X129411429Y-93862571D02*
X129411429Y-94091142D01*
X129811429Y-93948285D02*
X129297143Y-93948285D01*
X129240000Y-93976857D01*
X129211429Y-94033999D01*
X129211429Y-94091142D01*
X129782857Y-94519714D02*
X129811429Y-94462571D01*
X129811429Y-94348285D01*
X129782857Y-94291142D01*
X129725714Y-94262571D01*
X129497143Y-94262571D01*
X129440000Y-94291142D01*
X129411429Y-94348285D01*
X129411429Y-94462571D01*
X129440000Y-94519714D01*
X129497143Y-94548285D01*
X129554286Y-94548285D01*
X129611429Y-94262571D01*
X129811429Y-94805428D02*
X129411429Y-94805428D01*
X129525714Y-94805428D02*
X129468571Y-94834000D01*
X129440000Y-94862571D01*
X129411429Y-94919714D01*
X129411429Y-94976857D01*
X129782857Y-95405429D02*
X129811429Y-95348286D01*
X129811429Y-95234000D01*
X129782857Y-95176857D01*
X129725714Y-95148286D01*
X129497143Y-95148286D01*
X129440000Y-95176857D01*
X129411429Y-95234000D01*
X129411429Y-95348286D01*
X129440000Y-95405429D01*
X129497143Y-95434000D01*
X129554286Y-95434000D01*
X129611429Y-95148286D01*
X129811429Y-95948286D02*
X129211429Y-95948286D01*
X129782857Y-95948286D02*
X129811429Y-95891143D01*
X129811429Y-95776857D01*
X129782857Y-95719715D01*
X129754286Y-95691143D01*
X129697143Y-95662572D01*
X129525714Y-95662572D01*
X129468571Y-95691143D01*
X129440000Y-95719715D01*
X129411429Y-95776857D01*
X129411429Y-95891143D01*
X129440000Y-95948286D01*
X130040000Y-96176857D02*
X130011429Y-96205429D01*
X129925714Y-96262572D01*
X129868571Y-96291143D01*
X129782857Y-96319714D01*
X129640000Y-96348286D01*
X129525714Y-96348286D01*
X129382857Y-96319714D01*
X129297143Y-96291143D01*
X129240000Y-96262572D01*
X129154286Y-96205429D01*
X129125714Y-96176857D01*
D11*
X128992381Y-96535952D02*
X129992381Y-96869285D01*
X128992381Y-97202619D01*
X129325714Y-97393095D02*
X129325714Y-97774047D01*
X128992381Y-97535952D02*
X129849524Y-97535952D01*
X129944762Y-97583571D01*
X129992381Y-97678809D01*
X129992381Y-97774047D01*
X131580000Y-95758096D02*
X131532381Y-95662858D01*
X131532381Y-95520001D01*
X131580000Y-95377143D01*
X131675238Y-95281905D01*
X131770476Y-95234286D01*
X131960952Y-95186667D01*
X132103810Y-95186667D01*
X132294286Y-95234286D01*
X132389524Y-95281905D01*
X132484762Y-95377143D01*
X132532381Y-95520001D01*
X132532381Y-95615239D01*
X132484762Y-95758096D01*
X132437143Y-95805715D01*
X132103810Y-95805715D01*
X132103810Y-95615239D01*
X132532381Y-96234286D02*
X131532381Y-96234286D01*
X132532381Y-96805715D01*
X131532381Y-96805715D01*
X132532381Y-97281905D02*
X131532381Y-97281905D01*
X131532381Y-97520000D01*
X131580000Y-97662858D01*
X131675238Y-97758096D01*
X131770476Y-97805715D01*
X131960952Y-97853334D01*
X132103810Y-97853334D01*
X132294286Y-97805715D01*
X132389524Y-97758096D01*
X132484762Y-97662858D01*
X132532381Y-97520000D01*
X132532381Y-97281905D01*
X120165714Y-98512381D02*
X119832381Y-99512381D01*
X119499047Y-98512381D01*
X119165714Y-99512381D02*
X119165714Y-98512381D01*
X119165714Y-98893333D02*
X119070476Y-98845714D01*
X118879999Y-98845714D01*
X118784761Y-98893333D01*
X118737142Y-98940952D01*
X118689523Y-99036190D01*
X118689523Y-99321905D01*
X118737142Y-99417143D01*
X118784761Y-99464762D01*
X118879999Y-99512381D01*
X119070476Y-99512381D01*
X119165714Y-99464762D01*
X120118095Y-102052381D02*
X120118095Y-101052381D01*
X119880000Y-101052381D01*
X119737142Y-101100000D01*
X119641904Y-101195238D01*
X119594285Y-101290476D01*
X119546666Y-101480952D01*
X119546666Y-101623810D01*
X119594285Y-101814286D01*
X119641904Y-101909524D01*
X119737142Y-102004762D01*
X119880000Y-102052381D01*
X120118095Y-102052381D01*
X118641904Y-101052381D02*
X119118095Y-101052381D01*
X119165714Y-101528571D01*
X119118095Y-101480952D01*
X119022857Y-101433333D01*
X118784761Y-101433333D01*
X118689523Y-101480952D01*
X118641904Y-101528571D01*
X118594285Y-101623810D01*
X118594285Y-101861905D01*
X118641904Y-101957143D01*
X118689523Y-102004762D01*
X118784761Y-102052381D01*
X119022857Y-102052381D01*
X119118095Y-102004762D01*
X119165714Y-101957143D01*
X120118095Y-104592381D02*
X120118095Y-103592381D01*
X119880000Y-103592381D01*
X119737142Y-103640000D01*
X119641904Y-103735238D01*
X119594285Y-103830476D01*
X119546666Y-104020952D01*
X119546666Y-104163810D01*
X119594285Y-104354286D01*
X119641904Y-104449524D01*
X119737142Y-104544762D01*
X119880000Y-104592381D01*
X120118095Y-104592381D01*
X119213333Y-103592381D02*
X118546666Y-103592381D01*
X118975238Y-104592381D01*
X120118095Y-107132381D02*
X120118095Y-106132381D01*
X119880000Y-106132381D01*
X119737142Y-106180000D01*
X119641904Y-106275238D01*
X119594285Y-106370476D01*
X119546666Y-106560952D01*
X119546666Y-106703810D01*
X119594285Y-106894286D01*
X119641904Y-106989524D01*
X119737142Y-107084762D01*
X119880000Y-107132381D01*
X120118095Y-107132381D01*
X118975238Y-106560952D02*
X119070476Y-106513333D01*
X119118095Y-106465714D01*
X119165714Y-106370476D01*
X119165714Y-106322857D01*
X119118095Y-106227619D01*
X119070476Y-106180000D01*
X118975238Y-106132381D01*
X118784761Y-106132381D01*
X118689523Y-106180000D01*
X118641904Y-106227619D01*
X118594285Y-106322857D01*
X118594285Y-106370476D01*
X118641904Y-106465714D01*
X118689523Y-106513333D01*
X118784761Y-106560952D01*
X118975238Y-106560952D01*
X119070476Y-106608571D01*
X119118095Y-106656190D01*
X119165714Y-106751429D01*
X119165714Y-106941905D01*
X119118095Y-107037143D01*
X119070476Y-107084762D01*
X118975238Y-107132381D01*
X118784761Y-107132381D01*
X118689523Y-107084762D01*
X118641904Y-107037143D01*
X118594285Y-106941905D01*
X118594285Y-106751429D01*
X118641904Y-106656190D01*
X118689523Y-106608571D01*
X118784761Y-106560952D01*
X120094286Y-109386667D02*
X119618095Y-109386667D01*
X120189524Y-109672381D02*
X119856191Y-108672381D01*
X119522857Y-109672381D01*
X118999048Y-108672381D02*
X118903809Y-108672381D01*
X118808571Y-108720000D01*
X118760952Y-108767619D01*
X118713333Y-108862857D01*
X118665714Y-109053333D01*
X118665714Y-109291429D01*
X118713333Y-109481905D01*
X118760952Y-109577143D01*
X118808571Y-109624762D01*
X118903809Y-109672381D01*
X118999048Y-109672381D01*
X119094286Y-109624762D01*
X119141905Y-109577143D01*
X119189524Y-109481905D01*
X119237143Y-109291429D01*
X119237143Y-109053333D01*
X119189524Y-108862857D01*
X119141905Y-108767619D01*
X119094286Y-108720000D01*
X118999048Y-108672381D01*
X120094286Y-111926667D02*
X119618095Y-111926667D01*
X120189524Y-112212381D02*
X119856191Y-111212381D01*
X119522857Y-112212381D01*
X118665714Y-112212381D02*
X119237143Y-112212381D01*
X118951429Y-112212381D02*
X118951429Y-111212381D01*
X119046667Y-111355238D01*
X119141905Y-111450476D01*
X119237143Y-111498095D01*
X120594286Y-114704762D02*
X120451429Y-114752381D01*
X120213333Y-114752381D01*
X120118095Y-114704762D01*
X120070476Y-114657143D01*
X120022857Y-114561905D01*
X120022857Y-114466667D01*
X120070476Y-114371429D01*
X120118095Y-114323810D01*
X120213333Y-114276190D01*
X120403810Y-114228571D01*
X120499048Y-114180952D01*
X120546667Y-114133333D01*
X120594286Y-114038095D01*
X120594286Y-113942857D01*
X120546667Y-113847619D01*
X120499048Y-113800000D01*
X120403810Y-113752381D01*
X120165714Y-113752381D01*
X120022857Y-113800000D01*
X119594286Y-114752381D02*
X119594286Y-113752381D01*
X119356191Y-113752381D01*
X119213333Y-113800000D01*
X119118095Y-113895238D01*
X119070476Y-113990476D01*
X119022857Y-114180952D01*
X119022857Y-114323810D01*
X119070476Y-114514286D01*
X119118095Y-114609524D01*
X119213333Y-114704762D01*
X119356191Y-114752381D01*
X119594286Y-114752381D01*
X118641905Y-114466667D02*
X118165714Y-114466667D01*
X118737143Y-114752381D02*
X118403810Y-113752381D01*
X118070476Y-114752381D01*
X128190476Y-114704762D02*
X128047619Y-114752381D01*
X127809523Y-114752381D01*
X127714285Y-114704762D01*
X127666666Y-114657143D01*
X127619047Y-114561905D01*
X127619047Y-114466667D01*
X127666666Y-114371429D01*
X127714285Y-114323810D01*
X127809523Y-114276190D01*
X128000000Y-114228571D01*
X128095238Y-114180952D01*
X128142857Y-114133333D01*
X128190476Y-114038095D01*
X128190476Y-113942857D01*
X128142857Y-113847619D01*
X128095238Y-113800000D01*
X128000000Y-113752381D01*
X127761904Y-113752381D01*
X127619047Y-113800000D01*
X126619047Y-114657143D02*
X126666666Y-114704762D01*
X126809523Y-114752381D01*
X126904761Y-114752381D01*
X127047619Y-114704762D01*
X127142857Y-114609524D01*
X127190476Y-114514286D01*
X127238095Y-114323810D01*
X127238095Y-114180952D01*
X127190476Y-113990476D01*
X127142857Y-113895238D01*
X127047619Y-113800000D01*
X126904761Y-113752381D01*
X126809523Y-113752381D01*
X126666666Y-113800000D01*
X126619047Y-113847619D01*
X125714285Y-114752381D02*
X126190476Y-114752381D01*
X126190476Y-113752381D01*
X127714286Y-111926667D02*
X127238095Y-111926667D01*
X127809524Y-112212381D02*
X127476191Y-111212381D01*
X127142857Y-112212381D01*
X126904762Y-111212381D02*
X126238095Y-111212381D01*
X126666667Y-112212381D01*
X127714286Y-109386667D02*
X127238095Y-109386667D01*
X127809524Y-109672381D02*
X127476191Y-108672381D01*
X127142857Y-109672381D01*
X126761905Y-109672381D02*
X126571429Y-109672381D01*
X126476190Y-109624762D01*
X126428571Y-109577143D01*
X126333333Y-109434286D01*
X126285714Y-109243810D01*
X126285714Y-108862857D01*
X126333333Y-108767619D01*
X126380952Y-108720000D01*
X126476190Y-108672381D01*
X126666667Y-108672381D01*
X126761905Y-108720000D01*
X126809524Y-108767619D01*
X126857143Y-108862857D01*
X126857143Y-109100952D01*
X126809524Y-109196190D01*
X126761905Y-109243810D01*
X126666667Y-109291429D01*
X126476190Y-109291429D01*
X126380952Y-109243810D01*
X126333333Y-109196190D01*
X126285714Y-109100952D01*
X128190476Y-106846667D02*
X127714285Y-106846667D01*
X128285714Y-107132381D02*
X127952381Y-106132381D01*
X127619047Y-107132381D01*
X126761904Y-107132381D02*
X127333333Y-107132381D01*
X127047619Y-107132381D02*
X127047619Y-106132381D01*
X127142857Y-106275238D01*
X127238095Y-106370476D01*
X127333333Y-106418095D01*
X126142857Y-106132381D02*
X126047618Y-106132381D01*
X125952380Y-106180000D01*
X125904761Y-106227619D01*
X125857142Y-106322857D01*
X125809523Y-106513333D01*
X125809523Y-106751429D01*
X125857142Y-106941905D01*
X125904761Y-107037143D01*
X125952380Y-107084762D01*
X126047618Y-107132381D01*
X126142857Y-107132381D01*
X126238095Y-107084762D01*
X126285714Y-107037143D01*
X126333333Y-106941905D01*
X126380952Y-106751429D01*
X126380952Y-106513333D01*
X126333333Y-106322857D01*
X126285714Y-106227619D01*
X126238095Y-106180000D01*
X126142857Y-106132381D01*
X128190476Y-104306667D02*
X127714285Y-104306667D01*
X128285714Y-104592381D02*
X127952381Y-103592381D01*
X127619047Y-104592381D01*
X126761904Y-104592381D02*
X127333333Y-104592381D01*
X127047619Y-104592381D02*
X127047619Y-103592381D01*
X127142857Y-103735238D01*
X127238095Y-103830476D01*
X127333333Y-103878095D01*
X125809523Y-104592381D02*
X126380952Y-104592381D01*
X126095238Y-104592381D02*
X126095238Y-103592381D01*
X126190476Y-103735238D01*
X126285714Y-103830476D01*
X126380952Y-103878095D01*
X128190476Y-101766667D02*
X127714285Y-101766667D01*
X128285714Y-102052381D02*
X127952381Y-101052381D01*
X127619047Y-102052381D01*
X126761904Y-102052381D02*
X127333333Y-102052381D01*
X127047619Y-102052381D02*
X127047619Y-101052381D01*
X127142857Y-101195238D01*
X127238095Y-101290476D01*
X127333333Y-101338095D01*
X126380952Y-101147619D02*
X126333333Y-101100000D01*
X126238095Y-101052381D01*
X125999999Y-101052381D01*
X125904761Y-101100000D01*
X125857142Y-101147619D01*
X125809523Y-101242857D01*
X125809523Y-101338095D01*
X125857142Y-101480952D01*
X126428571Y-102052381D01*
X125809523Y-102052381D01*
X127761904Y-98560000D02*
X127857142Y-98512381D01*
X127999999Y-98512381D01*
X128142857Y-98560000D01*
X128238095Y-98655238D01*
X128285714Y-98750476D01*
X128333333Y-98940952D01*
X128333333Y-99083810D01*
X128285714Y-99274286D01*
X128238095Y-99369524D01*
X128142857Y-99464762D01*
X127999999Y-99512381D01*
X127904761Y-99512381D01*
X127761904Y-99464762D01*
X127714285Y-99417143D01*
X127714285Y-99083810D01*
X127904761Y-99083810D01*
X127285714Y-99512381D02*
X127285714Y-98512381D01*
X126714285Y-99512381D01*
X126714285Y-98512381D01*
X126238095Y-99512381D02*
X126238095Y-98512381D01*
X126000000Y-98512381D01*
X125857142Y-98560000D01*
X125761904Y-98655238D01*
X125714285Y-98750476D01*
X125666666Y-98940952D01*
X125666666Y-99083810D01*
X125714285Y-99274286D01*
X125761904Y-99369524D01*
X125857142Y-99464762D01*
X126000000Y-99512381D01*
X126238095Y-99512381D01*
M02*
