G04 #@! TF.FileFunction,Copper,L4,Bot,Signal*
%FSLAX46Y46*%
G04 Gerber Fmt 4.6, Leading zero omitted, Abs format (unit mm)*
G04 Created by KiCad (PCBNEW 4.0.6) date Tuesday, June 20, 2017 'PMt' 02:00:50 PM*
%MOMM*%
%LPD*%
G01*
G04 APERTURE LIST*
%ADD10C,0.100000*%
%ADD11R,1.600000X1.600000*%
%ADD12O,1.600000X1.600000*%
%ADD13C,1.524000*%
%ADD14C,3.810000*%
%ADD15R,1.524000X1.524000*%
%ADD16C,3.300000*%
%ADD17C,5.080000*%
%ADD18R,1.727200X1.727200*%
%ADD19O,1.727200X1.727200*%
%ADD20C,0.600000*%
%ADD21C,2.000000*%
%ADD22R,10.160000X6.350000*%
%ADD23R,6.350000X10.160000*%
%ADD24C,1.600000*%
%ADD25C,0.500000*%
%ADD26C,0.400000*%
G04 APERTURE END LIST*
D10*
D11*
X165100000Y-78740000D03*
D12*
X149860000Y-86360000D03*
X162560000Y-78740000D03*
X152400000Y-86360000D03*
X160020000Y-78740000D03*
X154940000Y-86360000D03*
X157480000Y-78740000D03*
X157480000Y-86360000D03*
X154940000Y-78740000D03*
X160020000Y-86360000D03*
X152400000Y-78740000D03*
X162560000Y-86360000D03*
X149860000Y-78740000D03*
X165100000Y-86360000D03*
D11*
X198120000Y-78740000D03*
D12*
X182880000Y-86360000D03*
X195580000Y-78740000D03*
X185420000Y-86360000D03*
X193040000Y-78740000D03*
X187960000Y-86360000D03*
X190500000Y-78740000D03*
X190500000Y-86360000D03*
X187960000Y-78740000D03*
X193040000Y-86360000D03*
X185420000Y-78740000D03*
X195580000Y-86360000D03*
X182880000Y-78740000D03*
X198120000Y-86360000D03*
D13*
X128270000Y-88900000D03*
X130810000Y-88900000D03*
X128270000Y-91440000D03*
X130810000Y-91440000D03*
D14*
X151384000Y-73660000D03*
X151384000Y-93980000D03*
D15*
X121920000Y-73660000D03*
D13*
X121920000Y-76200000D03*
X121920000Y-78740000D03*
X121920000Y-81280000D03*
X121920000Y-83820000D03*
X121920000Y-86360000D03*
X121920000Y-88900000D03*
X121920000Y-91440000D03*
X121920000Y-93980000D03*
D14*
X124460000Y-137160000D03*
X124460000Y-119380000D03*
X157480000Y-119380000D03*
X157480000Y-137160000D03*
D15*
X129540000Y-137160000D03*
D13*
X132080000Y-137160000D03*
X134620000Y-137160000D03*
X137160000Y-137160000D03*
X139700000Y-137160000D03*
X142240000Y-137160000D03*
X144780000Y-137160000D03*
X147320000Y-137160000D03*
X149860000Y-137160000D03*
X152400000Y-137160000D03*
D16*
X215900000Y-129540000D03*
X215900000Y-124460000D03*
D17*
X172720000Y-127000000D03*
X210820000Y-127000000D03*
X210820000Y-73660000D03*
D18*
X175260000Y-96520000D03*
D19*
X172720000Y-96520000D03*
X175260000Y-93980000D03*
X172720000Y-93980000D03*
X175260000Y-91440000D03*
X172720000Y-91440000D03*
X175260000Y-88900000D03*
X172720000Y-88900000D03*
X175260000Y-86360000D03*
X172720000Y-86360000D03*
X175260000Y-83820000D03*
X172720000Y-83820000D03*
X175260000Y-81280000D03*
X172720000Y-81280000D03*
D17*
X172720000Y-73660000D03*
D18*
X121920000Y-99060000D03*
D19*
X124460000Y-99060000D03*
X121920000Y-101600000D03*
X124460000Y-101600000D03*
X121920000Y-104140000D03*
X124460000Y-104140000D03*
X121920000Y-106680000D03*
X124460000Y-106680000D03*
X121920000Y-109220000D03*
X124460000Y-109220000D03*
X121920000Y-111760000D03*
X124460000Y-111760000D03*
X121920000Y-114300000D03*
X124460000Y-114300000D03*
D17*
X120650000Y-67310000D03*
X120650000Y-143510000D03*
D20*
X204470000Y-114935000D03*
X205740000Y-114935000D03*
X207010000Y-114935000D03*
X212090000Y-114935000D03*
X210820000Y-114935000D03*
X209550000Y-114935000D03*
X208280000Y-114935000D03*
X213995000Y-113030000D03*
X213995000Y-111760000D03*
X213995000Y-110490000D03*
X213995000Y-109220000D03*
X202565000Y-109220000D03*
X202565000Y-110490000D03*
X202565000Y-111760000D03*
X202565000Y-113030000D03*
D21*
X210820000Y-93980000D03*
X208280000Y-93980000D03*
X205740000Y-93980000D03*
D22*
X208280000Y-111125000D03*
D20*
X196850000Y-93345000D03*
X195580000Y-93345000D03*
X194310000Y-93345000D03*
X189230000Y-93345000D03*
X190500000Y-93345000D03*
X191770000Y-93345000D03*
X193040000Y-93345000D03*
X187325000Y-95250000D03*
X187325000Y-96520000D03*
X187325000Y-97790000D03*
X187325000Y-99060000D03*
X198755000Y-99060000D03*
X198755000Y-97790000D03*
X198755000Y-96520000D03*
X198755000Y-95250000D03*
D21*
X190500000Y-114300000D03*
X193040000Y-114300000D03*
X195580000Y-114300000D03*
D22*
X193040000Y-97155000D03*
D20*
X179705000Y-123190000D03*
X179705000Y-124460000D03*
X179705000Y-125730000D03*
X179705000Y-130810000D03*
X179705000Y-129540000D03*
X179705000Y-128270000D03*
X179705000Y-127000000D03*
X181610000Y-132715000D03*
X182880000Y-132715000D03*
X184150000Y-132715000D03*
X185420000Y-132715000D03*
X185420000Y-121285000D03*
X184150000Y-121285000D03*
X182880000Y-121285000D03*
X181610000Y-121285000D03*
D21*
X200660000Y-129540000D03*
X200660000Y-127000000D03*
X200660000Y-124460000D03*
D23*
X183515000Y-127000000D03*
D24*
X215900000Y-83820000D03*
X210900000Y-83820000D03*
D13*
X129540000Y-114300000D03*
X132080000Y-114300000D03*
X134620000Y-114300000D03*
X137160000Y-114300000D03*
X139700000Y-114300000D03*
X142240000Y-114300000D03*
X144780000Y-114300000D03*
X147320000Y-114300000D03*
X149860000Y-114300000D03*
X152400000Y-114300000D03*
X154940000Y-114300000D03*
X157480000Y-114300000D03*
X160020000Y-114300000D03*
X162560000Y-114300000D03*
X162560000Y-99060000D03*
X160020000Y-99060000D03*
X157480000Y-99060000D03*
X154940000Y-99060000D03*
X152400000Y-99060000D03*
X149860000Y-99060000D03*
X147320000Y-99060000D03*
X144780000Y-99060000D03*
X142240000Y-99060000D03*
X139700000Y-99060000D03*
X137160000Y-99060000D03*
X134620000Y-99060000D03*
X132080000Y-99060000D03*
X129540000Y-99060000D03*
X137160000Y-101600000D03*
X139700000Y-101600000D03*
X142240000Y-101600000D03*
X162560000Y-101600000D03*
X162560000Y-104140000D03*
X162560000Y-106680000D03*
X162560000Y-109220000D03*
X162560000Y-111760000D03*
D20*
X165100000Y-145415000D03*
X176530000Y-144018000D03*
X171450000Y-144018000D03*
X181610000Y-144018000D03*
X186690000Y-144018000D03*
X191770000Y-144018000D03*
X196850000Y-144018000D03*
X194310000Y-133350000D03*
X193040000Y-119888000D03*
X150114000Y-111760000D03*
X153924000Y-110236000D03*
X143764000Y-111760000D03*
X147574000Y-110236000D03*
X141224000Y-110236000D03*
X137414000Y-111760000D03*
X153924000Y-103886000D03*
X150114000Y-105410000D03*
X147574000Y-103886000D03*
X143764000Y-105410000D03*
X141224000Y-103886000D03*
X137414000Y-105410000D03*
X216916000Y-141986000D03*
X207000000Y-90600000D03*
X147320000Y-118110000D03*
X192786000Y-134620000D03*
X217170000Y-139700000D03*
X128270000Y-124460000D03*
X161290000Y-107950000D03*
X164465000Y-123825000D03*
X167005000Y-123825000D03*
X187198000Y-118110000D03*
X141732000Y-104648000D03*
X154432000Y-110998000D03*
X148082000Y-110998000D03*
X141732000Y-110998000D03*
X154420000Y-104660000D03*
X148082000Y-104648000D03*
X140970000Y-124206000D03*
X136398000Y-110236000D03*
X145034000Y-124206000D03*
X155575000Y-130175000D03*
X184785000Y-137795000D03*
X143510000Y-110236000D03*
X149098000Y-110490000D03*
X151638000Y-122428000D03*
X142748000Y-122428000D03*
X131318000Y-122428000D03*
X125730000Y-122428000D03*
X160020000Y-105918000D03*
X126746000Y-123190000D03*
X130302000Y-123190000D03*
X141986000Y-123190000D03*
X147828000Y-123190000D03*
X173990000Y-141605000D03*
X135890000Y-115316000D03*
X143510000Y-115824000D03*
X148844000Y-111760000D03*
X163322000Y-96012000D03*
X157480000Y-110236000D03*
X153670000Y-116586000D03*
X142748000Y-116586000D03*
X149860000Y-104394000D03*
X149098000Y-109220000D03*
X144780000Y-101346000D03*
X153924000Y-107188000D03*
X153924000Y-105410000D03*
X143764000Y-103886000D03*
X141986000Y-103124000D03*
X147574000Y-105410000D03*
X147574000Y-107442000D03*
X135890000Y-104140000D03*
X132842000Y-104140000D03*
X128270000Y-118110000D03*
X179705000Y-138430000D03*
X168910000Y-138430000D03*
X135255000Y-133985000D03*
X131445000Y-121285000D03*
X133985000Y-118745000D03*
X128270000Y-105918000D03*
X132080000Y-105918000D03*
X125476000Y-105410000D03*
X133350000Y-105156000D03*
X212344000Y-138684000D03*
X191516000Y-136398000D03*
X201676000Y-139954000D03*
X201676000Y-136144000D03*
X163195000Y-121285000D03*
X160020000Y-118110000D03*
X158750000Y-115570000D03*
X199390000Y-143002000D03*
X212344000Y-143002000D03*
X175260000Y-118110000D03*
X167640000Y-104140000D03*
X175260000Y-111760000D03*
X212344000Y-140970000D03*
X200660000Y-141478000D03*
X200660000Y-135128000D03*
X162560000Y-134874000D03*
X212344000Y-137414000D03*
X162560000Y-137795000D03*
X199390000Y-118110000D03*
X208280000Y-118110000D03*
X189230000Y-137795000D03*
X214630000Y-121920000D03*
X214630000Y-118110000D03*
X215900000Y-91440000D03*
D25*
X164465000Y-93980000D02*
X164465000Y-116840000D01*
X147320000Y-118110000D02*
X153670000Y-118110000D01*
X153670000Y-118110000D02*
X154940000Y-116840000D01*
X154940000Y-116840000D02*
X164465000Y-116840000D01*
X164465000Y-93980000D02*
X159385000Y-88900000D01*
X159385000Y-88900000D02*
X154940000Y-88900000D01*
X152400000Y-86360000D02*
X154940000Y-88900000D01*
X165735000Y-92075000D02*
X165735000Y-125095000D01*
X165735000Y-125095000D02*
X155575000Y-125095000D01*
X139700000Y-121158000D02*
X139954000Y-121412000D01*
X139954000Y-121412000D02*
X151892000Y-121412000D01*
X151892000Y-121412000D02*
X155575000Y-125095000D01*
X139700000Y-121158000D02*
X139700000Y-114300000D01*
X160020000Y-86360000D02*
X165735000Y-92075000D01*
X154940000Y-114300000D02*
X161290000Y-107950000D01*
X152400000Y-99060000D02*
X142240000Y-88900000D01*
X187325000Y-70485000D02*
X195580000Y-78740000D01*
X144145000Y-70485000D02*
X187325000Y-70485000D01*
X142240000Y-72390000D02*
X144145000Y-70485000D01*
X142240000Y-88900000D02*
X142240000Y-72390000D01*
X142240000Y-114300000D02*
X140970000Y-115570000D01*
X140970000Y-115570000D02*
X140970000Y-120650000D01*
X140970000Y-120650000D02*
X152400000Y-120650000D01*
X152400000Y-120650000D02*
X155575000Y-123825000D01*
X155575000Y-123825000D02*
X164465000Y-123825000D01*
X167005000Y-123825000D02*
X185420000Y-105410000D01*
X185420000Y-105410000D02*
X185420000Y-86360000D01*
X140970000Y-124206000D02*
X145034000Y-124206000D01*
X136398000Y-112268000D02*
X136398000Y-110236000D01*
X136906000Y-112776000D02*
X136398000Y-112268000D01*
X148336000Y-112776000D02*
X136906000Y-112776000D01*
X149860000Y-114300000D02*
X148336000Y-112776000D01*
X182880000Y-135890000D02*
X184785000Y-137795000D01*
X172085000Y-135890000D02*
X182880000Y-135890000D01*
X166370000Y-130175000D02*
X172085000Y-135890000D01*
X155575000Y-130175000D02*
X166370000Y-130175000D01*
X143510000Y-109474000D02*
X143510000Y-110236000D01*
X143764000Y-109220000D02*
X143510000Y-109474000D01*
X147828000Y-109220000D02*
X143764000Y-109220000D01*
X149098000Y-110490000D02*
X147828000Y-109220000D01*
X142748000Y-122428000D02*
X151638000Y-122428000D01*
X125730000Y-122428000D02*
X131318000Y-122428000D01*
X160020000Y-105918000D02*
X160020000Y-99060000D01*
X160020000Y-105918000D02*
X160020000Y-105918000D01*
X126746000Y-123190000D02*
X130302000Y-123190000D01*
X141986000Y-123190000D02*
X147828000Y-123190000D01*
X139700000Y-137160000D02*
X144145000Y-141605000D01*
X144145000Y-141605000D02*
X173990000Y-141605000D01*
X139700000Y-125984000D02*
X139700000Y-137160000D01*
X135890000Y-122174000D02*
X139700000Y-125984000D01*
X135890000Y-115316000D02*
X135890000Y-122174000D01*
D26*
X155448000Y-110998000D02*
X155448000Y-105918000D01*
X151892000Y-112776000D02*
X153670000Y-112776000D01*
X153670000Y-112776000D02*
X155448000Y-110998000D01*
X151130000Y-113538000D02*
X151892000Y-112776000D01*
X151384000Y-100584000D02*
X149860000Y-99060000D01*
X154178000Y-100584000D02*
X151384000Y-100584000D01*
X156464000Y-102870000D02*
X154178000Y-100584000D01*
X156464000Y-104902000D02*
X156464000Y-102870000D01*
X155448000Y-105918000D02*
X156464000Y-104902000D01*
D25*
X149860000Y-112776000D02*
X148844000Y-111760000D01*
X150368000Y-112776000D02*
X151130000Y-113538000D01*
X143571998Y-115885998D02*
X151130000Y-115885998D01*
X143510000Y-115824000D02*
X143571998Y-115885998D01*
X151130000Y-113538000D02*
X151130000Y-115885998D01*
X150368000Y-112776000D02*
X149860000Y-112776000D01*
X157480000Y-97028000D02*
X158496000Y-96012000D01*
X158496000Y-96012000D02*
X163322000Y-96012000D01*
X157480000Y-99060000D02*
X157480000Y-97028000D01*
X157480000Y-110236000D02*
X157480000Y-99060000D01*
X142748000Y-116586000D02*
X153670000Y-116586000D01*
X124460000Y-114300000D02*
X126365000Y-114300000D01*
X137160000Y-125095000D02*
X137160000Y-137160000D01*
X126365000Y-114300000D02*
X137160000Y-125095000D01*
X149098000Y-105156000D02*
X149860000Y-104394000D01*
X149098000Y-109220000D02*
X149098000Y-105156000D01*
X153924000Y-105918000D02*
X154432000Y-105918000D01*
X153924000Y-101346000D02*
X144780000Y-101346000D01*
X155448000Y-102870000D02*
X153924000Y-101346000D01*
X155448000Y-104902000D02*
X155448000Y-102870000D01*
X154432000Y-105918000D02*
X155448000Y-104902000D01*
X153924000Y-105410000D02*
X153924000Y-105918000D01*
X153924000Y-105918000D02*
X153924000Y-107188000D01*
X137160000Y-99060000D02*
X137414000Y-99060000D01*
X137414000Y-99060000D02*
X138684000Y-100330000D01*
X143764000Y-100584000D02*
X143764000Y-103886000D01*
X143510000Y-100330000D02*
X143764000Y-100584000D01*
X138684000Y-100330000D02*
X143510000Y-100330000D01*
X124460000Y-109220000D02*
X126238000Y-109220000D01*
X135128000Y-101092000D02*
X137160000Y-99060000D01*
X134366000Y-101092000D02*
X135128000Y-101092000D01*
X126238000Y-109220000D02*
X134366000Y-101092000D01*
X140970000Y-103124000D02*
X139700000Y-101854000D01*
X141986000Y-103124000D02*
X140970000Y-103124000D01*
X139700000Y-101854000D02*
X139700000Y-101600000D01*
X147574000Y-107442000D02*
X147574000Y-105410000D01*
X132842000Y-104140000D02*
X135890000Y-104140000D01*
X132080000Y-114300000D02*
X132080000Y-116840000D01*
X168910000Y-138430000D02*
X179705000Y-138430000D01*
X135255000Y-125095000D02*
X135255000Y-133985000D01*
X131445000Y-121285000D02*
X135255000Y-125095000D01*
X132080000Y-116840000D02*
X133985000Y-118745000D01*
X127000000Y-97790000D02*
X127000000Y-104648000D01*
X121920000Y-83820000D02*
X124460000Y-86360000D01*
X132080000Y-105918000D02*
X132080000Y-114300000D01*
X127000000Y-97790000D02*
X124460000Y-95250000D01*
X124460000Y-95250000D02*
X124460000Y-86360000D01*
X127000000Y-104648000D02*
X128270000Y-105918000D01*
X134620000Y-114300000D02*
X134620000Y-106426000D01*
X123444000Y-87884000D02*
X121920000Y-86360000D01*
X123444000Y-95504000D02*
X123444000Y-87884000D01*
X125984000Y-98044000D02*
X123444000Y-95504000D01*
X125984000Y-104902000D02*
X125984000Y-98044000D01*
X125476000Y-105410000D02*
X125984000Y-104902000D01*
X134620000Y-106426000D02*
X133350000Y-105156000D01*
X191770000Y-136144000D02*
X201676000Y-136144000D01*
X191516000Y-136398000D02*
X191770000Y-136144000D01*
X202946000Y-138684000D02*
X212344000Y-138684000D01*
X201676000Y-139954000D02*
X202946000Y-138684000D01*
X160020000Y-114300000D02*
X158750000Y-115570000D01*
X160020000Y-118110000D02*
X163195000Y-121285000D01*
X199390000Y-143002000D02*
X212344000Y-143002000D01*
X197612000Y-132080000D02*
X200660000Y-135128000D01*
X175260000Y-118110000D02*
X175260000Y-123190000D01*
X175260000Y-123190000D02*
X177800000Y-125730000D01*
X177800000Y-125730000D02*
X177800000Y-133985000D01*
X177800000Y-133985000D02*
X191135000Y-133985000D01*
X191135000Y-133985000D02*
X193040000Y-132080000D01*
X193040000Y-132080000D02*
X197612000Y-132080000D01*
X167640000Y-104140000D02*
X175260000Y-111760000D01*
X201168000Y-140970000D02*
X212344000Y-140970000D01*
X200660000Y-141478000D02*
X201168000Y-140970000D01*
X202946000Y-137414000D02*
X212344000Y-137414000D01*
X167894000Y-140208000D02*
X200025000Y-140335000D01*
X162560000Y-134874000D02*
X167894000Y-140208000D01*
X202946000Y-137414000D02*
X200025000Y-140335000D01*
X138430000Y-123190000D02*
X149225000Y-133985000D01*
X137160000Y-116205000D02*
X138430000Y-117475000D01*
X138430000Y-117475000D02*
X138430000Y-123190000D01*
X137160000Y-114300000D02*
X137160000Y-116205000D01*
X158750000Y-133985000D02*
X162560000Y-137795000D01*
X149225000Y-133985000D02*
X158750000Y-133985000D01*
M02*
