M48
INCH,TZ
T1C0.013
T2C0.016
T3C0.030
T4C0.031
T5C0.039
T6C0.040
T7C0.071
T8C0.090
T9C0.100
%
G90
G05
T1
X70750Y-48500
X70750Y-49000
X70750Y-49500
X70750Y-50000
X70750Y-50500
X70750Y-51000
X70750Y-51500
X71500Y-47750
X71500Y-52250
X72000Y-47750
X72000Y-52250
X72500Y-47750
X72500Y-52250
X73000Y-47750
X73000Y-52250
X73750Y-37500
X73750Y-38000
X73750Y-38500
X73750Y-39000
X74500Y-36750
X75000Y-36750
X75500Y-36750
X76000Y-36750
X76500Y-36750
X77000Y-36750
X77500Y-36750
X78250Y-37500
X78250Y-38000
X78250Y-38500
X78250Y-39000
X79750Y-43000
X79750Y-43500
X79750Y-44000
X79750Y-44500
X80500Y-45250
X81000Y-45250
X81500Y-45250
X82000Y-45250
X82500Y-45250
X83000Y-45250
X83500Y-45250
X84250Y-43000
X84250Y-43500
X84250Y-44000
X84250Y-44500
T2
X49400Y-41500
X49500Y-48200
X49900Y-48500
X50500Y-41700
X50500Y-46500
X50500Y-49000
X51300Y-48500
X51700Y-48200
X51750Y-47750
X52000Y-41700
X52300Y-41000
X52500Y-41400
X52750Y-46750
X53250Y-52750
X53500Y-41000
X53500Y-45400
X53700Y-43400
X54100Y-41500
X54100Y-44000
X55500Y-48900
X55600Y-40900
X55600Y-43400
X55800Y-41200
X55800Y-43700
X55900Y-40600
X55900Y-48500
X56200Y-45900
X56200Y-48200
X56500Y-43400
X56500Y-45600
X56600Y-40900
X56600Y-41500
X56600Y-44000
X57000Y-39900
X57100Y-48900
X58000Y-46500
X58100Y-40900
X58100Y-41500
X58100Y-42300
X58100Y-43400
X58200Y-48500
X58300Y-41200
X58300Y-43700
X58600Y-44000
X58700Y-43000
X58700Y-43500
X59000Y-41100
X59100Y-41500
X59100Y-44000
X59700Y-48200
X60500Y-45900
X60600Y-40900
X60600Y-41500
X60600Y-42200
X60600Y-43400
X60795Y-41205
X60800Y-43700
X61250Y-51250
X62000Y-43400
X62500Y-45500
X63000Y-41700
X63000Y-46500
X63500Y-42500
X64000Y-53100
X64000Y-54250
X64250Y-47750
X64300Y-37800
X64750Y-48750
X65000Y-57250
X65750Y-48750
X66000Y-41000
X66500Y-54500
X67500Y-56700
X68500Y-55750
X69000Y-44000
X69000Y-46500
X69500Y-56700
X70750Y-54500
X71500Y-56700
X72750Y-54250
X73500Y-56700
X73700Y-46500
X74500Y-54250
X75400Y-53700
X75500Y-56700
X75900Y-53000
X76000Y-47200
X76500Y-52500
X77500Y-56700
X78500Y-46500
X78500Y-56300
X79000Y-53200
X79000Y-55700
X79400Y-53600
X79400Y-55100
X81496Y-35669
X82000Y-46500
X83600Y-54100
X83600Y-54600
X83600Y-55500
X83600Y-56300
X84500Y-46500
X84500Y-48000
X85000Y-36000
X85400Y-55900
X85500Y-55000
T3
X48000Y-29000
X48000Y-30000
X48000Y-31000
X48000Y-32000
X48000Y-33000
X48000Y-34000
X48000Y-35000
X48000Y-36000
X48000Y-37000
X50500Y-35000
X50500Y-36000
X51000Y-39000
X51000Y-45000
X51000Y-54000
X51500Y-35000
X51500Y-36000
X52000Y-39000
X52000Y-45000
X52000Y-54000
X53000Y-39000
X53000Y-45000
X53000Y-54000
X54000Y-39000
X54000Y-40000
X54000Y-45000
X54000Y-54000
X55000Y-39000
X55000Y-40000
X55000Y-45000
X55000Y-54000
X56000Y-39000
X56000Y-40000
X56000Y-45000
X56000Y-54000
X57000Y-39000
X57000Y-45000
X57000Y-54000
X58000Y-39000
X58000Y-45000
X58000Y-54000
X59000Y-39000
X59000Y-45000
X59000Y-54000
X60000Y-39000
X60000Y-45000
X60000Y-54000
X61000Y-39000
X61000Y-45000
X62000Y-39000
X62000Y-45000
X63000Y-39000
X63000Y-45000
X64000Y-39000
X64000Y-40000
X64000Y-41000
X64000Y-42000
X64000Y-43000
X64000Y-44000
X64000Y-45000
T4
X59000Y-31000
X59000Y-34000
X60000Y-31000
X60000Y-34000
X61000Y-31000
X61000Y-34000
X62000Y-31000
X62000Y-34000
X63000Y-31000
X63000Y-34000
X64000Y-31000
X64000Y-34000
X65000Y-31000
X65000Y-34000
X72000Y-31000
X72000Y-34000
X73000Y-31000
X73000Y-34000
X74000Y-31000
X74000Y-34000
X75000Y-31000
X75000Y-34000
X76000Y-31000
X76000Y-34000
X77000Y-31000
X77000Y-34000
X78000Y-31000
X78000Y-34000
X83031Y-33000
X85000Y-33000
T5
X75000Y-45000
X76000Y-45000
X77000Y-45000
X79000Y-49000
X79000Y-50000
X79000Y-51000
X81000Y-37000
X82000Y-37000
X83000Y-37000
T6
X48000Y-39000
X48000Y-40000
X48000Y-41000
X48000Y-42000
X48000Y-43000
X48000Y-44000
X48000Y-45000
X49000Y-39000
X49000Y-40000
X49000Y-41000
X49000Y-42000
X49000Y-43000
X49000Y-44000
X49000Y-45000
X68000Y-32000
X68000Y-33000
X68000Y-34000
X68000Y-35000
X68000Y-36000
X68000Y-37000
X68000Y-38000
X69000Y-32000
X69000Y-33000
X69000Y-34000
X69000Y-35000
X69000Y-36000
X69000Y-37000
X69000Y-38000
T7
X85000Y-49000
X85000Y-51000
T8
X49000Y-47000
X49000Y-54000
X59600Y-29000
X59600Y-37000
X62000Y-47000
X62000Y-54000
T9
X47500Y-26500
X47500Y-56500
X68000Y-29000
X68000Y-50000
X72250Y-50000
X76000Y-38250
X82000Y-43750
X83000Y-29000
X83000Y-50000
T0
M30
